<?xml version="1.0" encoding="utf-8"?>
<!-- Generator: Adobe Illustrator 20.1.0, SVG Export Plug-In . SVG Version: 6.00 Build 0)  -->
<svg version="1.1" id="Слой_1" xmlns="http://www.w3.org/2000/svg" xmlns:xlink="http://www.w3.org/1999/xlink" x="0px" y="0px"
	 viewBox="0 0 159.3 98.5" style="enable-background:new 0 0 159.3 98.5;" xml:space="preserve">
<style type="text/css">
	.st0{fill:#1D3D1D;stroke:#201600;stroke-linecap:round;stroke-miterlimit:10;}
	.st1{fill:#0D350D;}
	.st2{fill:#0D350D;stroke:#201600;stroke-linecap:round;stroke-miterlimit:10;}
	.st3{fill:#0D350D;stroke:#000000;stroke-miterlimit:10;}
	.st4{fill:#092309;}
</style>
<path class="st0" d="M79.3,4.5c-32,0-58,20-58,44.7S47.3,94,79.3,94s58-20,58-44.7S111.4,4.5,79.3,4.5z M78.6,87.9
	c-28.6,0-51.7-17.4-51.7-38.8c0-21.4,23.1-38.8,51.7-38.8s53,17.5,53,39C131.6,70.7,107.1,87.9,78.6,87.9z"/>
<rect x="49.8" y="29.1" class="st1" width="57.3" height="1.3"/>
<rect x="50.3" y="32.2" class="st2" width="2.3" height="21.8"/>
<rect x="55.8" y="32.5" class="st2" width="2" height="16.8"/>
<rect x="46.8" y="55.5" class="st3" width="62.2" height="1.4"/>
<rect x="55.7" y="51.4" class="st1" width="2" height="1.4"/>
<polygon class="st1" points="78.3,17.7 56.5,27.5 100,27.5 "/>
<path class="st1" d="M77.8,15.6c8.4,4,16.7,7.9,25.1,11.9h3.2c-9.2-4.5-18.5-9-27.7-13.4c-0.2,0.1-0.4,0.2-0.6,0.3
	C77.8,14.8,77.8,15.2,77.8,15.6z"/>
<path class="st4" d="M79.1,15.6c-8.4,4-16.7,7.9-25.1,11.9h-3.2c9-4.4,18-8.7,27-13.1c0.2-0.1,0.4-0.2,0.6-0.3
	c0.2,0.1,0.4,0.2,0.6,0.3C79.1,14.8,79.1,15.2,79.1,15.6z"/>
<path class="st1" d="M78.5,13.5c9.6,4.7,19.3,9.3,29,14h3.7c-10.9-5.4-21.8-10.8-32.6-16.2C78.5,12.1,78.5,12.8,78.5,13.5z"/>
<path class="st4" d="M78.5,13.5c-9.6,4.7-19.3,9.3-29,14h-3.7c10.9-5.4,21.8-10.8,32.6-16.2C78.5,12.1,78.5,12.8,78.5,13.5z"/>
<g>
	<path d="M42.6,77.8v-0.3c0.5,0,0.9-0.1,1.2-0.2c0.3-0.1,0.6-0.3,0.8-0.5c0.3-0.3,0.5-0.6,0.6-1.1s0.1-1.1,0.1-2V64
		c0-0.9,0-1.6-0.1-2s-0.3-0.8-0.6-1.1c-0.2-0.3-0.5-0.4-0.8-0.6s-0.7-0.2-1.2-0.2v-0.3h8.7c0.9,0,1.5,0,1.7,0c1,0.1,1.8,0.3,2.5,0.7
		c0.6,0.4,1,0.8,1.3,1.4c0.3,0.6,0.5,1.2,0.5,1.9c0,1.2-0.4,2.1-1.1,2.8c-0.3,0.3-0.5,0.5-0.9,0.7c-0.3,0.2-0.8,0.4-1.4,0.6
		c0.8,0.1,1.5,0.3,2,0.5s0.9,0.4,1.3,0.7c0.6,0.5,1,1,1.3,1.7c0.3,0.7,0.5,1.4,0.5,2.2c0,0.8-0.2,1.5-0.5,2.2
		c-0.3,0.7-0.8,1.2-1.3,1.6c-0.5,0.4-1.1,0.6-1.9,0.8s-1.7,0.2-3,0.2H42.6z M48.3,60.3v7.8h1.1c0.5,0,1,0,1.6-0.1
		c0.5-0.1,0.8-0.2,1.1-0.3c0.3-0.1,0.5-0.2,0.8-0.4c0.4-0.3,0.8-0.8,1-1.3c0.2-0.5,0.4-1.1,0.4-1.7c0-0.7-0.1-1.3-0.4-1.9
		c-0.3-0.6-0.6-1.1-1-1.4c-0.4-0.3-0.8-0.5-1.2-0.6c-0.5-0.1-1.2-0.2-2.1-0.2H48.3z M48.3,68.5v5.4c0,0.7,0,1.2,0.1,1.6
		c0.1,0.4,0.2,0.7,0.5,1c0.4,0.6,1.2,0.9,2.3,0.9c1.4,0,2.5-0.4,3.4-1.2c0.8-0.8,1.2-1.8,1.2-3.2c0-0.8-0.1-1.5-0.4-2.1
		c-0.3-0.7-0.6-1.2-1-1.5c-0.8-0.7-2-1-3.7-1H48.3z"/>
	<path d="M64.1,62.2v11.5c0,0.9,0.1,1.6,0.2,2s0.3,0.8,0.6,1.1c0.2,0.3,0.5,0.4,0.8,0.6s0.7,0.2,1.2,0.2v0.3h-6.1v-0.3
		c0.5,0,0.9-0.1,1.2-0.2s0.6-0.3,0.8-0.6c0.3-0.3,0.5-0.6,0.6-1.1c0.1-0.4,0.2-1.1,0.2-2V64c0-0.9-0.1-1.5-0.2-2
		c-0.1-0.4-0.3-0.8-0.6-1.1c-0.2-0.3-0.5-0.4-0.8-0.6c-0.3-0.1-0.7-0.2-1.2-0.2v-0.3h5.1l10.7,13.7V64c0-0.9-0.1-1.6-0.2-2
		c-0.1-0.4-0.3-0.8-0.6-1.1c-0.2-0.3-0.5-0.4-0.8-0.6c-0.3-0.1-0.7-0.2-1.2-0.2v-0.3h6.1v0.3c-0.9,0-1.6,0.3-2.1,0.8
		c-0.3,0.3-0.5,0.6-0.6,1.1c-0.1,0.4-0.2,1.1-0.2,2v13.9h-0.6L64.1,62.2z"/>
	<path d="M88.3,60.3c-0.6,0-1.1,0-1.8,0.1c-1.4,0.1-2.4,0.2-3,0.5c-0.7,0.3-1.2,0.7-1.6,1.4c-0.4,0.6-0.7,1.5-0.9,2.5l-0.3,0
		l0.2-4.9h17.8l0.2,4.9l-0.3,0c-0.2-1.2-0.6-2.1-1.1-2.8c-0.5-0.6-1.2-1.1-2.2-1.4c-0.8-0.2-2.2-0.4-4.2-0.4v13.4
		c0,0.9,0.1,1.6,0.2,2c0.1,0.4,0.3,0.8,0.6,1.1c0.2,0.3,0.5,0.4,0.8,0.6c0.3,0.1,0.7,0.2,1.2,0.2v0.3h-8.4v-0.3
		c0.5,0,0.9-0.1,1.2-0.2c0.3-0.1,0.6-0.3,0.8-0.6c0.3-0.3,0.5-0.6,0.6-1.1c0.1-0.4,0.2-1.1,0.2-2V60.3z"/>
	<path d="M107.9,59.8v0.3c-0.5,0-0.9,0.1-1.2,0.2s-0.6,0.3-0.8,0.6c-0.3,0.3-0.5,0.7-0.6,1.1c-0.1,0.4-0.1,1.2-0.1,2.3v7.5
		c0,1.2,0,2.1,0.1,2.6c0.1,0.5,0.3,1,0.6,1.5c0.4,0.7,0.9,1.2,1.6,1.5c0.6,0.3,1.4,0.5,2.3,0.5c0.9,0,1.8-0.1,2.6-0.4
		c0.8-0.3,1.5-0.7,2.1-1.2c0.3-0.3,0.6-0.6,0.8-1c0.2-0.4,0.3-0.8,0.3-1.4c0-0.4,0.1-1.2,0.1-2.6V64c0-0.9,0-1.6-0.2-2
		c-0.1-0.4-0.3-0.8-0.6-1.1c-0.2-0.3-0.5-0.4-0.8-0.6c-0.3-0.1-0.7-0.2-1.2-0.2v-0.3h6.1v0.3c-0.5,0-0.9,0.1-1.2,0.2
		c-0.3,0.1-0.6,0.3-0.8,0.6c-0.3,0.3-0.5,0.6-0.6,1.1c-0.1,0.4-0.2,1.1-0.2,2v8.3c0,1.2-0.1,2.1-0.3,2.7c-0.2,0.6-0.6,1.1-1.1,1.6
		c-1.3,1.1-3.1,1.7-5.5,1.7c-2.5,0-4.3-0.5-5.5-1.6c-0.8-0.7-1.2-1.5-1.4-2.6c-0.1-0.4-0.1-1.1-0.1-2.1v-8c0-0.9,0-1.6-0.1-2
		s-0.3-0.8-0.6-1.1c-0.2-0.3-0.5-0.4-0.8-0.6c-0.3-0.1-0.7-0.2-1.2-0.2v-0.3H107.9z"/>
</g>
<rect x="61.1" y="32.1" class="st2" width="2.3" height="21.8"/>
<rect x="66.5" y="32.5" class="st2" width="2" height="16.8"/>
<rect x="66.5" y="51.4" class="st1" width="2" height="1.4"/>
<rect x="71.6" y="32.2" class="st2" width="2.3" height="21.8"/>
<rect x="77" y="32.4" class="st2" width="2" height="16.8"/>
<rect x="76.9" y="51.3" class="st1" width="2" height="1.4"/>
<rect x="82.2" y="32.2" class="st2" width="2.3" height="21.8"/>
<rect x="87.7" y="32.4" class="st2" width="2" height="16.8"/>
<rect x="87.7" y="51.3" class="st1" width="2" height="1.4"/>
<rect x="93" y="32.2" class="st2" width="2.3" height="21.8"/>
<rect x="98.5" y="32.6" class="st2" width="2" height="16.8"/>
<rect x="98.4" y="51.4" class="st1" width="2" height="1.4"/>
<rect x="103.7" y="32.2" class="st2" width="2.3" height="21.8"/>
</svg>
