<?xml version="1.0" encoding="utf-8"?>
<!-- Generator: Adobe Illustrator 20.1.0, SVG Export Plug-In . SVG Version: 6.00 Build 0)  -->
<svg version="1.1" xmlns="http://www.w3.org/2000/svg" xmlns:xlink="http://www.w3.org/1999/xlink" x="0px" y="0px"
	 viewBox="0 0 400 2934.9" style="enable-background:new 0 0 400 2934.9;" xml:space="preserve">
<style type="text/css">
	.st0{fill:#FFFFFF;}
</style>
<g id="Слой_1">
	<path d="M298.7,1015.5c1-2.2,2.3-4.1,4-7.1c1.1,3,1.7,4.9,2,5.7c2.3-6.8,4.7-14.2,7.2-21.7c-0.6,0-1.2,0.1-2,0.1
		c2.2-4.6,4-8.6,5.9-12.5c-0.2-0.1-0.4-0.2-0.6-0.4c-1.3,2.1-2.7,4.3-4.5,7.2c-0.1-1.5-0.3-1.9-0.1-2.3
		c8.4-24.8,16.7-49.5,25.2-74.3c0.5-1.5,2.1-2.8,3.5-3.7c3.1-2,4.7-4.8,2.9-7.9c-2-3.4-1.2-6.3-0.1-9.5c1.7-5.2,3.2-10.4,4.8-15.5
		c-0.2-0.1-0.4-0.1-0.6-0.2c-2.6,7.1-5.2,14.3-8.3,22.6c-1.2-2.1-1.8-2.8-2-3.5c-2.6-9-5.2-17.9-7.5-26.9c-0.3-1.3,0.8-3,1.1-4.5
		c0.5-2.1,1.9-5.9,1.3-6.2c-4.2-2.4-1.7-5.3-0.9-7.9c3.5-10.6,7.1-21.1,10.8-31.7c2.7-7.8,5.6-15.6,8.7-24.3
		c0.7,1.6,1.2,2.1,1.2,2.7c1.3,13.4,2.5,26.9,3.6,40.3c0.1,1.5-1,3.3-2.1,4.6c-2.3,2.9-3.4,5.5-0.6,8.8c0.9,1.1,0.9,3.3,0.8,4.9
		c-0.1,1.8-0.7,3.5-1.1,5.3c3.1-3.3,5.7-6.7,8.2-10.2c-0.7-4.1-1.3-8.2-1.9-12.3c-0.2,0.3-0.4,0.6-0.6,1c-0.5-2.8-0.8-4.1-0.9-5.3
		c-1-11.8-2.3-23.5-2.9-35.3c-0.2-2.8,1.4-5.8,2.2-8.7c0.4-1.4,1.5-3.4,0.9-4.1c-3.2-4.2-0.4-7.5,1-11.2c1.2-3.1,2.3-6.2,3.4-9.3
		c-2.7,5.2-5.4,10.5-8.1,15.7c-0.6,0-1.2,0-1.8,0c-3.3-18.4-6.7-36.8-10-55.2c0.5-0.3,1-0.5,1.5-0.8c1.5,1.3,3.1,2.6,4.6,4
		c-3.7-5.8-4.1-12-1.2-19.4c-1.8,2.1-3,3.5-4.2,4.9c-0.4-0.1-0.7-0.2-1.1-0.3c1.2-24.1,2.3-48.2,3.5-72.9c1.8,0.9,2.6,1.3,3.3,1.6
		c0.7-5.3,2.7-10.6-2-15.2c-0.6-0.5,0-2.2,0.1-3.4c0.2-2.3,0.5-4.6,0.8-6.9c-0.2,0-0.5-0.1-0.7-0.1c-0.6,3.4-1.3,6.9-1.9,10.3
		c-0.6,0.1-1.1,0.2-1.7,0.3c-11.2-27.5-22.4-55-33.6-82.5c0.3-0.2,0.7-0.3,1-0.5c2.5,4,5,8,7.5,12.1c0.3-0.2,0.6-0.4,0.9-0.6
		c-4.3-7.6-8.6-15.1-12.9-22.7l1-0.9c1.4,0.7,2.7,1.5,4.1,2.2c-1.5-2.6-2.9-5.3-4.4-7.9c-0.9-1.5-1.9-3-2.9-4.5
		c-1.6-2.3-4-4.4-4.7-7c-4.6-16.8-8.8-33.7-13.1-50.6c-0.2-0.9-0.3-1.8,0.3-2.9c4.6,9.7,9.2,19.3,13.8,29
		c-4.8-12.3-9.6-24.7-14.5-37.5c1.5,0.5,2.2,0.7,1.7,0.5c-0.6-10.3-7.6-18.9-8-29.8c-0.4-10.9-1.5-21.8-2.3-32.7c-0.3,0-0.5,0-0.8,0
		l2,39.2c-0.5,0.1-1,0.2-1.5,0.3c-8.7-27.4-17.5-54.7-26.2-82.1c0.4-0.2,0.7-0.4,1.1-0.6c1.9,1.7,3.8,3.3,4.8,4.3
		c-1-3.3-2.1-7.3-3.4-11.3c-0.3-0.9-1.1-1.6-1.5-2.5c-0.9-2.3-2.5-4.6-2.5-6.9c0.2-9.8,0.8-19.6,1.3-29.4c0.3-4.9,0.7-9.8,1.1-14.7
		c1.4,1.2,1.9,2.5,2.3,3.9c1.9,7.1,3.5,14.2,5.6,21.2c1.7,5.7,3.7,11.2,5.6,16.8c-3.2-13-6.5-26-9.7-39c0.3-0.2,0.6-0.3,1-0.5
		c1.6,2.6,3.3,5.2,4.9,7.8c-1.1-4.5-2.9-8.6-5-12.5c-2.1-3.9-0.8-5.8,3.7-6c-11.2-7.9-0.8-16-0.7-25.2c-2.3,5.4-4.1,9.7-6,13.9
		c-0.5-0.1-1-0.2-1.5-0.3c0.3-23.8,0.5-47.6,0.8-72.4c2,2.5,3.5,4.4,4.1,5.2c-0.1-3.3,0.8-7.7-0.7-11c-2.9-6.2,0.3-10.8,2.1-16
		c2-5.7,4.1-11.3,6.2-17c-2.8,6-5.7,12.1-8.5,18.1c-0.8,1.7-1.5,3.5-3.2,5.2c-0.1-1.2-0.4-2.4-0.4-3.7c0.7-16.4,1.3-32.9,2.2-49.3
		c0.1-1.7,1-4,2.3-4.8c3.6-2.4,2.8-4.9,1.5-8.1c-1.2-2.9-2.1-6.1-2.2-9.2c-0.1-5.1,0.4-10.3,0.7-15.5c-1.1,6.5-2.2,13.1-3.3,19.6
		c-0.3,0.1-0.6,0.2-1,0.3c-3.7-10.2-7.5-20.3-11.2-30.5c2.7,9.1,5.5,18.1,8.2,27.2c1.7,5.7-1.3,9.8-7.2,9.6
		c-6.8-0.2-13.6-0.6-20.4-1.1c-3.9-0.3-8.2-4.9-7.8-8.7c2.8-25,5.8-49.9,8.8-74.9c0.1-0.4,0.5-0.8,1.2-1.9c2.3,6,4.5,11.4,6.6,16.8
		c-1-3.8-2-7.7-3.1-11.4c-0.9-3.1-2.1-6,1-8.6c0.5-0.4,0.8-1.7,0.5-2.2c-3.3-6.4,2.3-9.8,4.7-14.3c-1.9,1.9-3.7,3.8-5.6,5.7
		c-2.6,2.5-5.4,2.1-6.5-1.3c-1.2-3.6-1.9-7.4-2.8-11c-0.7,0-1.3,0-2,0c0.8,2.7,1.5,5.4,2.4,8.1c1.4,4,0.3,6.4-4.4,6.8
		c3,5.9,2.5,10.7-2.9,15.1c-3.3,2.7-5.8,6.6-8.6,9.9c-1.2,1-2.6,1.9-3.7,3c-6.1,6.2-12,12.5-18.1,18.7c-4.5,4.5-6.4,4.1-8.8-1.8
		c-0.1-0.3-0.6-0.5-0.9-0.8c-0.3,1.6-0.5,3-1,5.7C149.8,43,130.9,22.2,112,1.5c-0.5,0.4-0.9,0.8-1.4,1.2c3.8,4.5,7.5,9.1,11.4,13.5
		c13.7,15.5,27.5,30.8,41.1,46.3c0.9,1.1,1.9,2.4,2.2,3.7c0.5,2.2,0.4,4.5,0.5,6.7c0,2,0.4,4.3-0.4,5.8c-5.3,9.1-10.8,18-16.5,26.8
		c-1,1.5-3.2,2.7-5.1,2.9c-5.9,0.7-7.6,3.2-6.7,9.1c0.4,2.3-0.2,5.3-1.5,7.1c-4.8,7-10,13.7-15.4,20.3c-1.3,1.6-3.7,2.3-5.7,3.2
		c-2.1,0.9-5.7,1.2-6.1,2.6c-0.9,3.1-1.6,7.6,0.1,9.8c1.7,2.4,6.2,2.8,9.4,4.1c0.8-2.7,1.7-5.3,2.4-8c0.9-3.1,0.9-6.6,2.5-9.1
		c4.2-6.2,9.1-11.9,13.7-17.8c4.8-6.2,4.8-6.2,11.3-2.3c4.9-4.8,3.5-9.8,2.5-14.9c-0.2-1,0.4-2.3,1-3.3c5.8-9.7,11.7-19.4,17.7-29
		c0.5-0.8,1.8-1.8,2.6-1.7c0.8,0.1,1.7,1.4,2.1,2.4c0.8,1.7,1.3,3.6,1.9,5.4c0.3-0.1,0.5-0.1,0.8-0.2c-0.1-2.5-0.2-5-0.3-7.5
		c0.7-0.5,1.5-1,2.2-1.6c1.2,2,2.1,4.2,3.7,5.9c5.6,6.2,11.4,12.1,17.1,18.2c2.9,3,6.8,5.5,5.1,10.8c-0.3,0.9,1,2.4,1.4,3.6
		c0.4,1.2,1.1,2.6,0.7,3.5c-4.8,10.9-9.8,21.8-14.7,32.7c-0.5,0-0.9,0-1.4,0c-1.2-4.7-2.3-9.4-3.5-14.1l-0.7,0.1
		c0.6,4.6,1.2,9.2,2,14.9c-3.2-1.3-5.2-2.1-6.1-2.5c0.3,2.1,0.4,4.7,1.3,7.1c0.8,2.4,2.4,4.5,3.7,6.7c0.9,1.6,2.6,3.1,2.7,4.8
		c0.5,5.6,0.5,11.3,0.6,17c0.2,13.8,0.3,27.6,0.4,41.5c0,6.6-0.1,13.1-0.2,19.7c-0.5,0.1-1,0.1-1.5,0.2c-1.1-2.6-2.2-5.2-3.3-7.8
		c-0.1,2.9,0.8,5.5,1.3,8.2c0.2,1.1-0.3,2.3-0.5,3.5c-1-0.3-2.2-0.4-3.1-1.1c-6.4-4.8-12.7-9.6-19-14.6c-5.2-4.2-10.9-7.6-12.9-15.1
		c-1.6-6-7.2-7.4-10.6-3.8c-3.2,3.3-3.2,7.9-0.6,11c2,2.3,6.1,3,9.3,4.1c1.9,0.6,4.5,0,6,1c7.5,5.2,14.8,10.8,22.2,16.2
		c3.2,2.3,6.8,4.2,6.2,9.3c-0.2,1.3,1.7,2.7,2.4,4.2c0.8,2,2,4.2,1.7,6.1c-1.3,8.8-3.1,17.6-4.8,26.4c0.3,0.1,0.5,0.1,0.8,0.2
		c2.1-9.6,4.2-19.3,6.4-28.9c0.5,0,1.1,0.1,1.6,0.1c1.6,5.5,3.2,11.1,4.9,16.6c-0.6-3.9-1-7.9-1.8-11.8c-0.6-3.5-1.7-6.8,1.6-9.7
		c0.6-0.5,0.9-2,0.7-2.8c-1.2-4.2,1.7-6.1,4.4-8c1.2-0.9,2.9-1.1,4.3-1.7c0.5,1.5,1.5,2.9,1.5,4.4c0.1,9.6,0,19.3,0,28.9
		c0,10.5,0,21-0.1,31.4c0,1.7,0,3.5-1.1,5.3c-1-3-2.1-6-3.1-9.1c0.4,2.8,0.5,5.7,1.4,8.3c1.8,5.4,1,9.7-4,12.1
		c-0.4,4.6,5.1,6.7,2.8,11.8c-4.4,9.8-8.1,20-12.2,30c-1.9,4.5-8,6.1-12,3.2c-16-11.9-32-23.9-47.9-35.9c1.8,2.7,3.2,6,5.6,7.9
		c12.5,9.6,25.4,18.8,38.1,28.3c7.7,5.7,8.8,11.8,3.7,19.8c-1.3,2.1-2.5,4.4-4.3,6.1c-1.6,1.5-3.8,3-5.9,3.2c-4.1,0.4-6,2.6-6.5,6.3
		c-0.8,5.5,2.6,9.1,9.2,10.2c2.4,0.4,5.3,0.6,6.9,2.1c17.8,16,35.5,32.3,53.1,48.5c1.9,1.8,2.9,11.1,1.3,12.8
		c-8.2,8.7-16.5,17.4-24.7,26.1c-2.2,2.4-4.4,2.1-6.4,0c-1.2-1.2-2.2-2.5-3.1-3.9c-13-21.7-25.9-43.4-39-65.1
		c-3.5-5.8-6.3-11.6-5.8-18.7c0.3-4.1-3-5.9-6.6-7c-3.1-1-6.1-2.3-9.1-3.4c-1.5-0.6-3-1.1-4.5-1.6c-0.5,0.6-0.9,1.1-1.4,1.7
		c1.7,1.2,3.7,2.2,5.1,3.7c1.1,1.2,2.5,3.5,2,4.5c-0.6,1.4-2.8,2.4-4.4,3.1c-1.3,0.6-2.9,0.4-4.4,0.6c-4.9,0.5-9.8,1-14.8,1.5
		c1.4,0.8,2.6,0.7,3.9,0.8c8.4,0.6,18.1-4.1,24.5,5.6c0.4,0.7,1.9,0.6,2.7,1.1c2.3,1.6,5.4,2.9,6.7,5.1c14,23.8,27.8,47.8,41.4,71.8
		c0.8,1.4,0.6,3.8,0.1,5.5c-1.7,5.8-0.3,8.8,5.4,10.9c1.7,0.6,3.3,1.5,6.1,2.7c0.8-4.2,1.5-8.3,2.5-12.4c0.3-1.4,1.1-2.8,2-3.9
		c7.7-9,15.5-17.9,23.3-26.7c0.8-0.9,2.5-1.7,3.7-1.5c0.7,0.1,1.7,1.9,1.8,3.1c1.4,16.9,2.8,33.8,4,50.8c0.1,1.3-1,3.2-2.1,4
		c-4.5,3-5,7.4-1.2,11.3c1.2,1.2,2.3,2.6,3.5,3.9c1.6-2.8,3.1-2.3,4.4,0.8c1.7,4.1,3.5,8.3,5.2,12.4c-1.2-4.8-2.4-9.5-3.6-14.3
		c0.3-0.3,0.6-0.5,0.8-0.8c2,1.6,4.2,3.2,6.1,4.9c3.7,3.3,7.4,6.7,10.7,10.3c1.1,1.2,1,3.4,1.5,5.1c0.7,2.1,0.9,5.4,2.3,5.9
		c4.3,1.7,4.7,5.1,5.3,8.7c0.1,0.8,0.7,1.4,1,2.2c0-1.6-0.3-3.3,0-4.9c0.2-1.5,0.8-2.9,1.3-4.4c1.6,0.6,3.2,1.1,4.8,1.7
		c-0.8-1.7-1.7-3.4-2.2-5.2c-0.3-1.1,0.1-2.4-0.3-3.4c-4.3-11.5,3.1-20.8,5.6-31c0-0.2,0.6-0.2,1.5-0.6c2,3.8,4,7.6,6,11.5
		c-0.7-2.4-1.8-4.7-2.2-7.1c-0.3-2.2,0.2-4.6,0.3-6.9c0.1-1.4,0.8-3.1,0.3-4.3c-1.7-3.9,1.2-5.9,3.4-7.3c3.3-2.1,4.3,0.9,4.8,3.5
		c1.5,7.9,2.7,15.8,4.2,23.6c1.8,9.3,3.8,18.6,5.6,27.8c-2.4-14.6-4.7-29.2-7.1-43.8c-0.2-1.1-0.3-2.2,0.5-3.7
		c1.6,3.7,3.2,7.4,4.7,11.2c9.8,24.2,19.7,48.3,29.5,72.5c0.8,2,1.8,3.7-0.1,6.3c-1.1,1.4,0.5,5,1.3,7.6c0.5,1.9,2.4,3.7,2.3,5.5
		c-0.8,21.6-1.8,43.2-2.8,64.8c0,0.2-0.3,0.5-0.7,1.1c-1.5-4.6-3-8.9-4.4-13.2c0.8,4.1,1.7,8.1,2.4,12.2c0.5,2.8,2,5.8-2.1,7.7
		c-0.8,0.4-0.6,3.6-0.3,5.4c0.7,3.4,1.7,6.7,2.5,9.5c0.3-0.8,1.2-2.8,2.1-4.9c0.3,0,0.7,0,1,0c0.7,3.8,1.3,7.7,2,11.5
		c2.4,12.9,4.9,25.8,7,38.8c0.3,1.9-0.8,4.2-1.8,6c-1.6,2.9-2.8,5.5,0.1,8.3c0.7,0.7,0.9,2.5,0.6,3.5c-6.9,19.8-13.9,39.5-20.9,59.3
		c-0.1,0.2-0.6,0.3-1.3,0.6c-1.3-3.5-2.7-6.9-4-10.4c0.5,2.3,0.9,4.6,1.4,6.8c0.2,0.8,0.8,2.1,0.6,2.3c-4.9,4.9-2.8,10.6-1.3,15.6
		c0.7-0.5,2.1-1.6,3.5-2.6c0.9,1.7,2.1,3.3,2.6,5c2.3,7.6,4.4,15.3,6.6,23c1,3.5-2.9,9.8-6.6,10.7c-3.4,0.8-6.8,1.4-10.1,2.8
		c3.5-0.6,7-1.3,10.6-1.7c4.2-0.4,5.7,1.5,4,5.4c-3.3,7.2-6.9,14.3-10.4,21.5c2.6-4.2,5.2-8.3,7.9-12.5c0.3,0.1,0.7,0.3,1,0.4
		c-9,26.5-17.9,53-27.1,80c-5.1-4.7-6.2-9-4.4-13.7c0.4-1,0.9-2.6,0.4-3.3c-2.7-4.3,0-7.5,1.8-11c3-5.9,6-11.9,8.9-17.8
		c-4.7,7.8-9.3,15.5-14,23.3c-0.3,0-0.5-0.1-0.8-0.1c0.6-10.8,1.2-21.5,1.7-32.3c-1,9.1-2,18.3-3,27.4c-0.2,2-0.7,4-1.3,7.2
		c-2.3-2-3.8-3.2-5.2-4.4c2.8,2.8-0.2,6.1,0.4,8.5c1.4,5.5-2.2,8.1-4.5,11.6c2.2-1.7,4.4-3.3,7.2-5.3c-6.1,19.2-12.1,37.9-18.1,56.7
		c4.9-13.9,9.9-27.7,14.8-41.6c0.4,0.1,0.7,0.2,1.1,0.3c-0.8,3.9-1.5,7.8-2.4,11.7c-2.7,12-5.4,24-8,36c-0.7,3-1.8,5.2-4.8,7
		c-1.7,1-3.4,4.7-2.8,6.4c1.1,2.9,0.3,4.7-1.2,6.8c-2.8,4.1-5.6,8.1-8.4,12.2c-0.4-0.2-0.8-0.3-1.2-0.5c2.1-5.9,4.1-11.8,6.2-17.6
		c-2.4,5.6-4.9,11.1-7.3,16.7c-0.6,1.4-1.2,2.8-1.8,4.2c-0.5,0-0.9,0-1.4-0.1c-1.2-4-2.5-8-3.6-12.1c-1.7-6.2-3.2-12.5-4.7-18.8
		c-1-4.5-2.5-8.4,0.4-13.6c1.9-3.2,0.9-8.4,4.8-11.5c1-0.8,1.8-2,2.6-3c1.9-2.5,3.8-5,5.8-7.4c-5,4.3-10,8.5-14,11.9
		c3.8-10.6,8.2-22.8,12.6-35.1c-1.3,2.5-2.7,4.9-3.7,7.5c-3.5,8.8-6.9,17.7-10.4,26.5c-0.6,1.5-1.8,2.8-2.9,4.5
		c-1-1.2-1.5-1.6-1.7-2.2c-6.7-16.3-13.4-32.6-19.9-49c-0.5-1.3,0-3.1,0.3-4.7c1.1-5.5,6.2-6.3,10.2-8.4c-2,0.3-3.8,1-5.7,1.3
		c-1.3,0.2-3.4,0.3-4-0.5c-0.7-0.8-0.3-2.8,0.2-4.1c1.1-2.7,2.5-5.3,3.8-7.9c-2.5,2.1-3.9,4.8-5.8,7.1c-0.9,1.1-2.5,2.2-3.9,2.3
		c-0.7,0-1.9-2-2.3-3.3c-2.7-7.5-5.3-15.1-8-22.6c-0.4-1.2-1.3-2.3-1.9-3.4c1.7,9,4.5,17.5,6.9,26.1c0.5,1.8-0.7,4.1-1.1,6.1
		c-0.5,2.3-1.2,4.5-1.5,6.8c-0.2,1.7,0.1,3.5,0.2,5.7c3.4-3.7,4.2-0.3,5,2.2c1.2-1.1,2.1-1.9,3.4-3.1c7,16.2,13.7,32,20.5,47.7
		c0.3,0.8,0.7,1.5,0.9,2.3c0.2,0.6,0.5,1.5,0.2,1.9c-2.6,4.8-3,11-9.3,13.6c-3.6,1.5-6.5,4.6-9.7,7c5.1-3.1,10.1-6.4,15.2-9.4
		c1-0.6,2.8-1.1,3.5-0.6c0.7,0.5,1,2.4,0.7,3.5c-3.3,11.1-6.8,22.2-10.3,33.3c-1,3-6.8,5.4-9.9,4.4c-2.2-0.7-4.3-1.4-6.5-2.1
		c0.9,0.6,1.8,1.3,2.8,1.8c6.9,3.4,7.6,7.9,2.1,13.3c-7.3,7.3-14.6,14.6-21.9,21.9c-5.5,5.5-11,10.9-16.9,16.8c-0.6-2-0.8-3.1-1-3.7
		c-2,1.2-3.8,2.5-5.7,3.5c-4.2,2.2-6.1,6.3-4.7,9.8c1.1,2.8,1.8,5.9,2.5,8.2c0.2-0.2,1.2-1.4,3.3-3.8c-0.1,8.9-0.2,16.5-0.3,24
		c1.4-8.4,1.2-16.9,4.2-26.4c2.1,2.6,3.3,3.9,4.3,5.4c7.8,11.2,15.5,22.5,23.2,33.7c4.4,6.4,3.8,9.9-2.6,14.5
		c6.1-0.7,8.1,0.9,6.5,5.3c-9.2,25.3-18.5,50.6-27.8,76c-0.4,1.1-1.2,2.1-2.5,4.2c-0.9-7.9-1.6-14.4-2.3-20.9
		c-0.5,4.9-0.3,9.7,0.1,14.5c0.3,3.6,0.1,6.6-3.4,9.1c-2.4,1.7-4.3,4.5-2,8.2c1.6,2.6,2.5,5.7,3.4,8c0.4-0.6,1.5-2.5,3.1-5.1
		c0.7,2.3,1.2,3.6,1.4,4.9c3.7,21.2,7.4,42.3,11,63.5c0.8,4.4-2.5,8.1-7.2,7.7c-7.3-0.5-14.6-1.3-21.9-2.3c-1.5-0.2-3.7-1.5-4.1-2.8
		c-1.2-3.7-1.6-7.7-2.2-11c-0.3,0.7-1,2.4-2,3.9c-0.7,1-1.9,2.3-2.8,2.2c-0.9,0-1.9-1.5-2.5-2.5c-1-1.5-1.7-3.2-2.6-4.8
		c-0.5,0.1-0.9,0.2-1.4,0.4c3.1,4.7,3,8.8-0.3,13.3c-2.3,3.1,0.1,7.4,4,9.4c1.7,0.9,3.3,1.7,5,2.6c0.9-3.9,1.7-8.2,7-8
		c7.8,0.3,15.6,1,23.4,1.6c3.4,0.3,6.2,5.1,4.7,8.1c-7.7,15.3-15.5,30.6-23.3,45.9c-0.5,0.9-1.9,2.4-2.2,2.2c-4.5-2.1-5,2.8-7.4,4.2
		c-1.1,0.6-1.9,2.3-3,2.3c-4.5,0.3-9.2,0.9-13.4-0.1c-2.2-0.5-3.7-4.3-5.5-6.6c-0.2-0.2-0.6-0.2-0.9-0.4c-1.8,0.8-4.1,1.3-5.3,2.6
		c-1.9,2.2-4.3,5.1-4.2,7.6c0.1,3.5-0.9,5.5-3.1,7.9c-5.6,6.1-11,12.3-16.4,18.5c2.2-0.5,3.6-1.7,5-3c4.7-4.7,9.3-9.6,14-14.2
		c1-1,2.7-2.4,3.6-2.1c4.7,1.3,7-1.5,9.5-4.6c0.7-0.9,2.1-1.7,3.3-1.8c3.8-0.4,7.6-0.7,11.5-0.7c1.2,0,2.9,0.9,3.6,1.9
		c0.4,0.6-0.4,2.5-1.1,3.4c-5.9,7-11.8,14-17.8,20.9c-1,1.1-2.7,1.5-4.2,2.2c-2.6,1.1-6.1,1.5-7.6,3.4c-2.3,3.1-4.9,4.1-8.4,4.1
		c-2.7,0-5.3,0.2-8,0.5c-4.1,0.4-7.5,0.1-6.8-5.6c-2.6,0-5.1-0.8-6.7,0.1c-2.7,1.5-6.3,3.9-6.6,6.3c-0.4,3.1,1.2,7.7,3.5,9.5
		c3.1,2.4,5.8-0.9,8.1-3.6c1.3-1.4,3.6-2.2,5.6-2.6c3.4-0.6,7-0.6,10.4-0.9c3.5-0.3,7-0.9,8.9,3.4c0.4,0.8,2,1.8,2.9,1.6
		c5.5-0.7,6.7,2.9,7.6,7.1c1.3,0,2.7,0,4,0c-6.4-10.8-5.8-17.2,2.4-26.8c4.9-5.7,9.7-11.4,14.7-17c1-1.1,2.7-1.5,4-2.2
		c0.6,1.3,1.6,2.6,1.7,3.9c0.2,14.1,0.2,28.2,0.2,42.4c0.3,0,0.7,0,1,0c0.1-14.3,0.2-28.6,0.5-42.9c0-1.6,0.8-4,2-4.6
		c1-0.5,3.2,0.8,4.6,1.7c3,1.9,5.7,4.1,8.6,6.2c-1.6,4.4-2.7,8.4,1.9,12.1c1,0.8,0.1,3.9,0.1,7c0.9-2.1,1.2-3.8,2.1-4.6
		c2.2-1.8,5.5-5.1,7-4.4c3.4,1.4,7.6,2,9,7.6c2.5,10.1-6,14.8-8.8,22.2c1,0,2,0,3,0c2.9-5.1,5.8-10.3,8.7-15.4
		c0.5,0.1,1,0.3,1.5,0.4c-0.7,5-1.5,10-2.2,15.1c0.3,0,0.7,0,1,0c1.1-5.1,2.1-10.3,3.2-15.4c0.3-0.1,0.6-0.1,1-0.2
		c1.7,4.1,3.4,8.2,5.1,12.4c-0.6-2.7-1.1-5.5-1.9-8.2c-2.1-6.9,1.7-12.3,4.6-17.9c-1.3,0.4-2.6,0.9-5.4,1.8c2.5-6.3,4.6-11.1,6.4-16
		c1-2.7,1.7-5.5,2.5-8.3c-2.9,6.2-6.3,12.3-8.7,18.8c-1.6,4.3-5.5,5.9-8.3,5.8c-3.3-0.2-7.7-2.7-9.3-5.6c-1.3-2.4-0.4-7.5,1.4-9.9
		c7.4-9.9,15.7-19.3,23.5-28.9c1.6-1.9,2.9-4,4.3-6c-8.4,9.4-16.8,18.8-25.2,28.2c-2.4,2.7-4.7,5.4-7.1,8.1l-1.5-0.5
		c0.4-5,0.6-10,1.3-14.9c2.1-16.8,4.4-33.6,6.7-50.5c0.9-6.6,4.3-8.5,10.3-5.9c3.2,1.4,6.5,2.6,9.7,3.9c-2.3-1.3-4.6-2.8-6.9-3.9
		c-7.6-3.8-9.6-9-5.7-16.6c7.9-15.4,15.9-30.7,24-46c0.6-1.2,1.6-2.3,3.6-3.2c0.8,7,1.7,14,2.4,21c1.5,15.1,2.8,30.1,4.2,45.2
		c0.2,2.2,0.6,4.4,0.3,6.5c-0.5,3.2-2.1,5.1-5.8,3.8c-3-1.1-6-2-8.9-3c2.3,1.2,4.6,2.4,7,3.6c3.8,1.9,5.1,7.4,2.5,10.9
		c-1.5,2.1-3,4.3-4.5,6.4c2-1.8,4-3.6,6-5.4c0.2,0.1,0.4,0.2,0.6,0.4c-4.6,10.9-9.3,21.8-13.9,32.6c-0.8,1.8-1.3,3.7-1.9,5.6
		c1.2-1.7,2.6-3.3,3.4-5.1c4.6-10.3,9.1-20.7,13.6-31.1c0.4-1,1.1-1.9,2.7-2.7c-0.1,9-0.2,18.1-0.3,27.1c-0.1,4.5,1,9.5-4,12.5
		c-0.4,0.2-0.7,0.9-0.7,1.3c0.6,6.9-5.8,9-9.1,13.2c2.5-1.7,4.8-3.5,7.4-5c1.1-0.6,2.6-0.6,3.9-0.9c0.1,1.2,0.6,2.5,0.4,3.6
		c-0.1,0.7-0.3,1.4-0.4,2.1c0.8-0.5,1.7-1,2.5-1.5c0.1-0.5,0.2-1,0.3-1.5c0.9-4,4.1-5,7.5-2.7c0.4,0.2,0.7,0.5,1.1,0.7
		c0.6-0.2,1.1-0.3,1.7-0.5c-0.2-0.2-0.4-0.4-0.7-0.5c-4-3-5.1-9.1-2.2-13.2c6.2-8.6,12.5-17.1,18.6-25.7c0.8-1.2,1.3-2.6,2-3.9
		c-5.2,6.7-10.4,13.3-15.6,20c-3,3.8-5.8,7.8-8.8,11.7c-0.5-0.2-1.1-0.4-1.6-0.7c-0.1-1.5-0.4-3.1-0.4-4.6c0-10,0.1-20,0.2-30
		c0-3.6,4.2-9.2,7.7-9.7c7.1-1,14.2-1.8,21.3-2.4c1.3-0.1,3.5,0.8,4,1.8c0.5,1.1-0.3,3-1,4.3c-1.8,3.3-4,6.5-6,9.7
		c3.3-3.7,6.5-7.4,10.6-11.9c0.3,2.3,0.7,3.6,0.6,4.9c-0.8,11.4-1.5,22.9-2.3,34.3c0.4-0.1,0.8-0.2,1.2-0.3
		c0.3-3.9,0.5-7.8,0.8-11.7c0.6-7.6,1.3-15.3,2.1-22.9c0.3-3.1,0.8-6.3,5.3-3.4c0-3.9,1.4-8.3-0.2-10.5c-2.9-3.9-0.7-6.8-0.2-10.2
		c0.2-1.6,0.8-3.2,1.3-4.8c-1.8,2.6-2.6,5.5-3.8,8.2c-0.7,1.7-2.2,3-3.3,4.5c-1.3-1.2-2.9-2.1-3.7-3.5c-6.2-10.5-12.2-21-18.2-31.6
		c-2.7-4.7-1.1-8.3,4.2-9.8c2.6-0.7,5.3-1.4,7.9-2.1c-2.3-0.6-4.4-0.1-6.4,0.4c-7.1,1.7-9.2-0.2-7.2-7.3
		c5.3-18.6,10.7-37.1,16.2-55.6c1.4-4.8,3.3-9.5,4.9-14.2c0.5,0,0.9,0.1,1.4,0.1c1.5,4.2,3.1,8.5,4.6,12.7c-2.7-9-3.4-17.7,3-25.9
		c-1.4,0.2-2.6,0.3-4.2,0.4c0.7-2.3,1.3-4.1,2.2-6.7c-1.8,1.9-2.8,3.1-4.4,4.8c-0.2-1.5-0.5-2.3-0.5-3c0.9-16.8,1.8-33.6,2.9-50.4
		c0.1-1.6,1.8-2.9,2.4-4.5c0.9-2.3,2.9-5.4,2.1-6.9c-2.7-4.7-0.6-8.7,0.5-12.9c0.5-2,1.2-3.9,1.8-5.9c-0.3-0.1-0.5-0.2-0.8-0.3
		c-1,2.3-2,4.5-3,6.8c-0.4-0.1-0.8-0.3-1.2-0.4c0.7-8.3,1.5-16.6,2.2-24.9c-0.3,0-0.6-0.1-0.9-0.1c-1.3,10.2-2.5,20.5-3.8,30.7
		c-1.7-0.8-2.3-1.6-2.5-2.5c-2.6-8.1-5.1-16.2-7.6-24.3c-1.3-4.2-3.8-8.4,0-12.7c0.6-0.6,0-2.3,0.2-3.4c0.2-1.4,0.2-3.1,1-4.1
		c3.8-4.9,7.7-9.6,11.7-14.3c0.6-0.7,1.8-1,3.8-2.1c-0.8,10-1.5,18.9-2.2,27.8c1.8-7.5,2.5-15.1,3.8-22.6c0.4-2.2,2.4-4,3.3-6.1
		c0.9-2.2,2.8-5.2,2-6.6c-2.7-4.6-0.3-8.3,0.8-12.3c0.5-2,1.4-3.9,2.1-5.8c-0.3-0.1-0.6-0.2-0.9-0.3c-2,4.5-4,8.9-6.5,14.4
		c-1-2-1.4-2.6-1.5-3.2c-1.8-10.7-3.6-21.4-5.1-32.1c-0.2-1.3,1.3-2.8,1.7-4.3c0.7-2.4,2.3-6.7,1.7-7c-3.7-1.9-1.3-4-0.5-5.9
		C287.4,1040.7,293,1028.1,298.7,1015.5z M272.5,442.2c6.3,5.9,2.2,12.6,1.4,19c-0.2,1.9-0.9,3.8-1.3,5.8c-0.6,0.1-1.1,0.2-1.7,0.3
		c-2.6-12.2-5.1-24.4-7.7-36.6c0.6-0.2,1.1-0.5,1.7-0.7c3.1,3.1,8.9,4.2,7.4,10.9C272.2,441.2,272.3,441.9,272.5,442.2z
		 M252.4,373.9c-0.5-5.1-1-10.2-1.5-15.3c0.2-0.1,0.4-0.1,0.6-0.2c8.1,25.4,16.2,50.8,24.2,76.1c-0.6,0.3-1.2,0.5-1.7,0.8
		c-2.8-3.3-8.4-4.2-7.5-10.6c0.2-1.2-0.8-3.3-1.9-3.8c-4-1.9-4.4-5.5-5-9.1c-1.9-10.8-3.8-21.6-5.7-32.4c-0.3-1.9-1.1-3.8-1.6-5.7
		c1.4,9.5,2.7,19,4.1,28.5c0.4,2.4,0.8,4.9,0.4,7.6c-1.4-3.8-2.8-7.7-4.1-11.5c-3.8-10.8-8-21.5-11.2-32.4c-1.5-5,2-10.5,0.4-16
		c-0.3-1.1,1.7-2.8,3.5-5.5c0.9,3,1.6,4.6,2,6.2C249.1,358.4,250.7,366.2,252.4,373.9z M231,355.2c0.3,1.1-0.2,2.6,0.4,3.4
		c7.4,9-2.4,15.6-1.7,23.7c-0.9,0.1-1.8,0.2-2.7,0.3c-5.1-14.5-10.2-28.9-15.2-43.4c0.4-0.3,0.9-0.7,1.3-1c2,1,3.9,2,5.9,3
		c-1.4-2.6-2.9-5.3-4.3-7.9c-0.7-1.3-0.7-3.3-1.7-4c-3.5-2.6-3.4-6.1-3.4-9.8c0.3-21.3,0.5-42.5,1.4-64l23.6,95.7
		c-0.4,0.3-0.9,0.6-1.3,0.9c-1.5-0.5-2.9-1.1-4.4-1.6C229.7,352,230.5,353.5,231,355.2z M232.5,255c-0.8,9.9-0.4,19.8-0.5,29.8
		c-0.7,0.1-1.3,0.3-2,0.4c-1.4-2-2.8-4-4.2-6.1c0.7,3.7,3.2,7.2-0.2,11c-0.6,0.7,1.4,3.9,2.4,5.9c1.1,2.2,3.3,4.2,3.5,6.4
		c1.4,12.9,2.3,25.8,2.6,38.9c-6.9-28-13.8-56-20.6-84c0.3-0.1,0.6-0.3,0.9-0.4c3.8,7.4,7.7,14.8,11.5,22.2
		c-3.7-8.7-7.6-17.3-11.1-26.1c-0.7-1.8-0.7-4.4,0-6.3c1.1-2.9,0.6-5-1.3-7.2c-1.1-1.3-2.2-3.2-2-4.6c3.3-23.2,6.7-46.4,11.3-69.6
		c1.1,8.5,2.2,17,3.3,25.5c1.7,12.9,3.4,25.7,5,38.6c0.8,6.9-2.7,11.7-9.2,13.2C228.9,242.5,233.1,247.6,232.5,255z M233,284.8
		c0.2-12.2,0.6-24.3,0.9-36.5c0.6-0.1,1.1-0.2,1.7-0.3c3.2,6.6,6.9,13,9.3,19.9c1.8,5.1-3.8,15.8-8.6,18.4
		C235.6,286.6,233,285.3,233,284.8z M233.4,303.3l0.9-0.3c0.6,1.9,1.2,3.7,1.7,5.6c2.2,7.3,4.5,14.6,6.5,22c0.4,1.6-0.5,3.5-0.8,5.2
		c-0.3,2.3-1.5,5.2-0.6,6.7c2.6,4.4-0.4,6.1-3.7,8.3L233.4,303.3z M246.1,330.8c-0.6,0.1-1.1,0.2-1.7,0.2
		c-3.2-10.4-6.5-20.8-9.3-31.3c-0.5-1.9,2.4-4.7,1.9-6.7c-1.6-6.5,3.8-8.5,6.9-12c0.6-0.7,2.3-1.3,2.9-0.9c0.7,0.4,1.2,1.9,1.2,3
		C247.5,299,246.8,314.9,246.1,330.8z M247.8,266.9c-0.3,0.2-0.6,0.3-0.8,0.5c-3.1-6.3-6.2-12.6-9.2-18.9c-0.4-0.8,0.5-2.2,0.6-3.3
		c0.2-1.6,0.9-3.8,0.2-4.7c-3.3-4.1-1.5-8.2-0.3-12.2c2.9-10,5.9-20,8.9-30.1l1.5,0.1C248.3,221.2,248,244.1,247.8,266.9z
		 M223.3,113.1c6.5,0.2,12.9,0.7,19.4,1.2c4.6,0.3,5.9,3.1,3.3,7.1c-3.9,6.1-8,12.2-12,18.2c5.2-6.6,10.3-13.2,16.1-20.7
		c0.3,2.1,0.6,3.2,0.5,4.3c-0.7,17.6-1.3,35.3-2.1,52.9c-0.1,1.5-1,2.9-1.6,4.4c-1.6-0.6-3.2-1.2-4.7-1.8c0.4,1.7,0.8,3.4,1.2,5.1
		c0.6,2.4,1.2,4.9,1.8,7.3c0.3,1.2,1.1,2.6,0.8,3.6c-3.6,12.9-7.5,25.8-11.2,38.7c-0.1,0.3-0.4,0.5-1.4,1.5
		c-3.2-24.9-6.4-49.1-9.6-73.3c0.5-0.3,1.1-0.6,1.6-0.8c2,1.8,3.9,3.6,5.9,5.4c-5.4-7.5-5.2-15.1-0.4-22.8c-1,1.1-1.9,2.3-3,3.3
		c-1.3,1.1-2.7,2.1-4.1,3.1c-1.1-1.7-2.7-3.2-3.3-5c-2-6.8-3.7-13.8-5.5-20.7C212.9,116.6,215.6,112.9,223.3,113.1z M204.4,103.5
		c-8-8.7-15.9-17.4-23.7-26.3c-3.5-4-3-10.8,0.7-14.7c6-6.3,12-12.5,17.9-18.8c1.1-1.2,1.9-2.6,2.8-4c3.9-3.7,7.8-7.4,11.7-11
		c1.4-1.3,2.8-2.6,5.3-4.9c0.1,3.1,0.5,4.8,0.3,6.5c-2.7,23.6-5.4,47.2-8.3,70.8c-0.2,1.5-1.3,3.5-2.5,4.1
		C207.6,105.7,205.4,104.6,204.4,103.5z M195,151.6c4.7-11.1,9.5-22.2,14.3-33.3c0.5,0,1.1,0,1.6,0c0.5,1.3,1.2,2.5,1.6,3.8
		c1.8,6.6,3.2,13.3,5.4,19.7c1.7,4.7,0.9,8.4-2.1,12.2c-1.9,2.5-18.3,3.8-20.1,1.3C195,154.3,194.5,152.6,195,151.6z M203.9,238.8
		c-0.9,0.6-1.8,2.6-1.4,3.5c1.9,5.1-2.1,6.6-5,8.8c-2.6,2-4.3,1-5.2-1.9c-0.3-1.1-0.4-2.3-0.4-3.5c-0.2-23.6-0.3-47.3-0.5-70.9
		c0-0.5,0.2-0.9,0.4-1.4c0.4,0,0.8-0.1,1.2-0.1c2.5,11.5,5.1,23,7.6,34.5c1.7,8,3.5,15.9,5.2,23.9
		C206.3,234.4,206.8,236.9,203.9,238.8z M202.3,209c-2.9-13-5.7-26-8.4-39c-1.4-7,2.4-11.7,9.5-12.3c3-0.2,6-0.7,8.9-0.8
		c5.4-0.2,8.6,3.5,7.8,8.8c-3.4,22.4-6.9,44.7-10.3,67c-0.1,0.6-0.4,1.2-0.6,1.8c-0.3,0-0.7,0-1,0.1
		C206.2,226.1,204.2,217.6,202.3,209z M193.5,376.3c4.3-12,9-23.9,13.6-35.8c0.2-0.5,0.8-0.9,1.7-1.9c0.9,1.7,1.7,2.8,2.2,4.1
		c4.3,12.2,8.6,24.4,12.8,36.7c1.2,3.5-1.8,7.6-5.5,7.2c-6.8-0.7-13.5-1.6-20.2-2.8C194.3,383,192.2,380.1,193.5,376.3z
		 M231.8,468.9c-3.5-3.3-7.1-6.6-10.6-10C207.8,446,194.4,433,181,420.1c-6-5.8-6.5-10.5-2-17.6c1.4-2.2,2.9-4.5,4.3-6.7
		c4.1-6.6,6.2-6.7,9.9,0c9.7,17.7,19.3,35.4,28.9,53c3.5,6.5,7.1,13,10.7,19.5C232.4,468.4,232.1,468.7,231.8,468.9z M236.9,468
		c-0.3,0.1-0.6,0.2-0.9,0.3c-6.4-11.8-12.7-23.7-19.1-35.5c-7-13-14.2-26-21.1-39.1c-3.2-6.1-1.6-8.4,5.1-7.9
		c3.8,0.3,7.6,0.6,11.4,1.1c10,1.2,15.2,6.5,16.6,16.8c2.8,21,5.4,41.9,8.1,62.9C237.2,467.1,237,467.5,236.9,468z M239.5,469.2
		c-2.9-22.3-5.7-44.6-8.6-66.9c0.3-0.1,0.6-0.2,0.9-0.3c1.4,4.6,2.8,9.2,4.3,13.7c2.1,6.5,4.3,12.9,6.3,19.4c1,3.1,2.4,6-1,9.1
		c-1,0.9-0.6,5.4,0.7,6.5c3.1,2.5,2.4,5.1,1.7,8c-0.9,3.5-1.9,7-2.9,10.5C240.6,469.2,240,469.2,239.5,469.2z M283,551.2
		c-2.2,6.7-4.3,13.4-6.5,20.1c-0.6,0.1-1.1,0.1-1.7,0.2c-3.9-9.7-7.8-19.3-11.7-29c2.2,7,4.4,13.9,6.6,20.9c0.8,2.6,1.7,5.3,2.6,7.9
		c-0.3,0.3-0.7,0.6-1,0.8c-1.6-1.4-3.3-2.8-4.9-4.3c-3.3-3.3-6.5-6.7-9.9-9.9c-2.8-2.6-5.8-5-5-9.6c0.2-1.1-0.7-2.9-1.6-3.5
		c-4.6-3.2-4.7-8-5-12.9c-0.9-11.9-2.1-23.9-3-35.8c-0.2-2,0-4.1,1.1-6.4c2.9,6.9,5.9,13.9,8.8,20.8c-2.4-7.7-4.9-15.4-7.3-23.1
		c0.2-0.1,0.4-0.2,0.7-0.4c9.3,11.1,18.6,22.2,28,33.3c-8.2-11.1-16.4-22.1-24.7-33.1c-1.8-2.4-3.8-4.5-2.5-8c0.4-1-0.3-2.6-0.7-3.8
		c-0.7-1.9-2.6-3.9-2.3-5.6c0.9-5.6,2.5-11,3.9-16.5c0.5,0,1,0,1.5,0c0.7,1,1.6,2,2.1,3.1c10.2,23.1,20.3,46.2,30.5,69.3
		c0.5,1.2,0.9,2.5,1.3,3.7c-0.5,0.1-1.1,0.1-1.6,0.2c0.4,2.8,0.8,5.6,1.1,8.4c0.2,1.3-0.1,3.2,0.6,3.8
		C285.7,544.8,284,548,283,551.2z M294.4,526.7c1.6,4.1-1.4,6.4-3.9,7.4c-3.4,1.3-4.1-2.3-4.9-4.8c-1.7-5.4-3.3-10.7-5-16.1
		c1,4.7,2.1,9.3,3.1,14c-0.2,0.1-0.5,0.2-0.7,0.3l-31.7-72.4c0.3-0.2,0.7-0.4,1-0.6l6.1,5.5c-5.1-4.4-5.7-10.8-6.9-16.9
		c-0.3-1.6,0.7-3.4,1.2-5.1c-1.6,1.1-3.2,2.7-5,3.1c-0.7,0.1-2.4-2.4-2.9-4c-4.3-13.1-8.5-26.2-12.7-39.4c-0.3-0.9-0.3-1.9-0.7-4.3
		c3.5,3.4,6,5.8,8.6,8.2c-10.5-12.9-9.4-27.9-2-39.6c6.7,19.2,13.2,37.6,20,57.3c-2.6-1.9-4.1-3-5.7-4.1c1.9,2.6,3.6,5,2.6,8.8
		c-0.6,2.3,1.2,5.1,2,7.7c2.5-2,4.5-1.4,5.2,1.5c2.5,11.3,4.7,22.6,7,33.9c0.1,0.4-0.3,0.9-0.6,1.9c-2-1.5-3.7-2.8-5.5-4.1
		c1.9,2.7,3.8,5.1,2.9,8.9c-0.3,1.5,1.4,4.6,2.8,5c4.2,1.3,4.7,4.6,5.6,7.9c0.8,2.8,1.8,5.6,2.7,8.4c-0.6-3.9-1.3-7.7-1.9-11.6
		c0.3-0.1,0.6-0.3,0.9-0.4c4.4,7.7,8.8,15.5,13.2,23.2c1.6,2.7,3,5.6,4.5,8.3c1.4,2.5,2.9,4.8,0.7,7.7
		C293.6,523.4,293.9,525.4,294.4,526.7z M295.7,514.2c-0.7-0.9-1.6-1.7-2.1-2.6c-5.4-9.5-11.5-18.8-15.9-28.7
		c-2.5-5.6-2.7-12.4-2.7-18.6c0-4.9,2-9.7,3.1-14.6c0.1-0.4,0.5-0.7,1.5-1.9c5.8,22.5,11.4,44.2,17,66
		C296.2,513.8,296,514,295.7,514.2z M257.9,1099.5c5.7-5.5,1.7-14.6,7.8-20.1c3-2.7,4.9-6.5,8.2-9.3c-4,19.7-8,39.5-11.9,59.2
		c-0.5,0-0.9-0.1-1.4-0.1c-0.9-9.6-1.7-19.1-2.6-28.7C257.9,1100.2,257.8,1099.7,257.9,1099.5z M230.6,1083.7
		c3.5-11.8,7.3-23.5,11-35.2c0.1-0.4,0.6-0.7,1.6-1.7c3.5,13,6.9,25.3,10.2,37.7c0.7,2.8-2.8,6.9-5.9,7c-3.7,0.1-7.3,0.1-11-0.1
		C233.4,1091.2,229.7,1086.5,230.6,1083.7z M239.1,1092.4c2.3,0,4.7,0,7,0.1c4.7,0.2,7.4,4.3,5.8,8.8c-3.8,10.5-7.6,20.9-11.4,31.3
		c4.7-11.4,9.5-22.8,14.2-34.1c0.5,0.1,1,0.2,1.5,0.2c0.8,7,1.5,14.1,2.2,21.1c0.3,2.8,0.2,5.6,0.6,8.4c0.4,3.2,0.7,6.1-2.4,8.4
		c-1.1,0.9-2,3.6-1.5,4.8c1.5,3.4-0.5,5.2-2.1,7.4c-4.5,6.1-8.9,12.3-13.4,18.4c5.9-7,11.8-13.9,17.6-20.9c0.3,0.1,0.6,0.3,0.9,0.4
		c-1.9,7.8-3.7,15.6-5.6,23.4c-2.9,11.5-5.8,22.9-8.8,34.3c-1.8,7-1.8,7-9,10c0.9,2.8,2,5.6,2.8,8.5c0.3,0.9,0.4,2,0.1,2.8
		c-8.3,21.2-16.8,42.4-25.2,63.6c-0.1,0.4-0.7,0.6-1.5,1.4c0.1-4.5,0-8.4,0.2-12.3c0.7-22.5,1.3-45,2.2-67.4
		c0.2-6.3,2.2-7.6,7.9-5.7c-3.9-4.3-3.9-9.5-0.3-14.3c2-2.6,3.8-5.4,5.7-8.1c-2.9,3.1-5.9,6.2-8.8,9.3c-0.2-0.1-0.5-0.2-0.7-0.3
		c3.1-7.9,6.1-15.7,9.2-23.6c-2.5,5-5,10.1-7.4,15.1c-1.1,2.2-2,4.5-3.9,6.6c0.4-3.5,0.7-6.9,1.2-10.4c3.5-25.6,7-51.1,10.6-76.7
		C227.5,1096.7,232.7,1092.3,239.1,1092.4z M207.4,1191.4c-8.5-12.1-17-24.3-25.3-36.5c-2.4-3.5-2.1-12.8,0.8-15.9
		c12.8-13.4,25.6-26.6,38.5-39.9c0.6-0.7,1.6-1,2.4-1.5c0.5,0.2,1,0.4,1.5,0.5c-0.9,7.4-1.6,14.7-2.6,22.1
		c-3.2,23.2-6.4,46.5-9.7,69.7c-0.2,1.5-1.2,2.8-1.8,4.3C209.9,1193.4,208.3,1192.7,207.4,1191.4z M182,1287.2
		c3-9,6.2-17.9,9.5-26.8c5.4-14.9,10.9-29.7,16.4-44.5c0.8-2.1,1.7-4.1,2.6-6.2c0.2,0.1,0.5,0.2,0.7,0.3c-0.1,9.8-0.1,19.5-0.4,29.3
		c-0.4,16.1-1,32.3-1.5,48.4c-0.2,5.6-4.8,10.1-10.4,10c-3.3,0-6.6-0.4-10-0.7C183.5,1296.6,180.3,1292.4,182,1287.2z M187.2,1417.1
		c-1.5,11.7-3.3,23.4-4.6,35.2c-0.5,4.5-2.3,7-6.7,7.7c-0.9-1.1-1.5-2.7-2.7-3.3c-7-3.8-7.7-10.5-8.4-17.2c-0.1-1.1,0.3-2.3,0.8-3.3
		c7.7-15.2,15.4-30.3,23.1-45.4c0.1-0.2,0.5-0.4,1.6-1.1C189.3,1399.2,188.4,1408.1,187.2,1417.1z M193.6,1370.3
		c-0.2,0.9-0.5,1.8-0.8,2.6c-0.3,0-0.6,0-1,0c-1.9-10.4-3.7-20.7-5.6-31.1c-2-11.3-4-22.6-6-33.9c-1.2-6.6,2.1-10.3,8.7-9.8
		c2.2,0.2,4.3,0.4,6.5,0.4c9.3,0.3,12.9,4.7,11,13.8C202.1,1331.7,197.9,1351,193.6,1370.3z M219.4,1327.8
		c-7.6,14.7-15.3,29.4-23,44.1c-0.4-0.1-0.8-0.3-1.2-0.4c1.3-6.5,2.4-13,3.8-19.5c3.1-14.3,6.3-28.5,9.4-42.8c0.8-3.9,2.7-6,6.8-5.1
		c1.3,1.4,2.9,2.6,3.9,4.2c1,1.6,1.4,3.5,1.9,5.4c0.2,0.9-0.5,2.3-0.1,2.9C224.3,1320.9,221.2,1324.3,219.4,1327.8z M220.3,1307.5
		c-1.6-1.3-3.3-2.4-5-3.5c-1.2-8.1,2.9-13.5,8.9-17.9c-3.3,2.4-6.7,4.8-10,7.1c-0.4-0.2-0.8-0.4-1.2-0.5
		c8.9-22.8,17.9-45.6,26.8-68.4c0.5,0.1,1,0.2,1.5,0.2c1.3,10.6,2.6,21.2,3.7,31.8c0.1,0.9-0.9,2-1.5,2.9c-0.7,1.3-2.4,2.7-2.2,3.7
		c1.3,6.2-3.4,8.7-6.9,12.1c-2.5,2.4-4.8,5-7.2,7.5c5.1-4.3,10.2-8.6,16.2-13.7c-1.1,4.5-2,8-2.9,11.5c1.5-2.5,2.9-5.1,4.9-8.4
		c-0.3,23.5-0.5,46.2-0.8,68.9l-1,0.3c-3.2-5.3-6.3-10.6-9.6-15.9c-1.1-1.8-2.6-3.4-4-5.1c0,0,0,0,0,0c2.1-3.5,4.1-6.9,0.7-10.9
		c-0.6-0.7,0.2-2.8,0.7-4.1c2.6-6.6,5.4-13.2,8-19.8c0.7-1.7,0.9-3.5,1.3-5.2c-1.9,4.1-3.9,8.2-5.7,12.4c-1.9,4.3-3.4,8.6-5.3,12.9
		C227.8,1309.9,224,1310.6,220.3,1307.5z M235.4,1391.1c-0.3-1.3-0.8-2.5-0.9-3.8c-2-20.9-3.9-41.7-5.7-62.6c-0.1-1.4,0.9-3,1.4-4.5
		c3,5.4,5.9,10.9,8.9,16.3c1.8,3.2,3.9,6.1,1.5,10.1c-0.7,1.1-0.4,4.1,0.5,4.6c3.8,2.4,2.1,5.5,1.5,8.5
		C240.6,1370.1,238.4,1380.5,235.4,1391.1z M250.4,1356.2c6.2,10.6,12.5,21.2,18.6,31.9c2.9,5,1.3,8.4-4.4,9.2
		c-6.8,0.9-13.6,1.5-20.4,2.1c-3.1,0.3-6.9-3.3-6.3-6c2.7-13,5.7-26,8.6-39c0.1-0.3,0.5-0.5,1.4-1.3
		C248.8,1354.3,249.8,1355.2,250.4,1356.2z M268.7,1269.7c-3.8,12.6-7.5,25.2-11.2,37.8c-2.8,9.7-5.7,19.4-8.5,29
		c-0.5,0-1-0.1-1.5-0.1c0.1-9.4,0.2-18.9,0.3-28.3c0.1-11.1,0.3-22.3,0.4-33.4c0-9.1,9.4-13.9,16.5-12.7
		C268,1262.5,269.9,1265.6,268.7,1269.7z M274.6,1201.1c0,3.6,0,7.2-0.1,10.8c-0.6,12.4-1.2,24.9-2.1,37.3
		c-0.5,6.7-12,14.4-18.1,12.2c-3.2-1.2-3.5-3.9-2.2-7c5.6-14,11.1-28.1,16.6-42.2c1.5-3.8,3-7.6,4.5-11.4
		C273.6,1200.9,274.1,1201,274.6,1201.1z M272.7,1180.3c0.5,1.7-0.6,3.8-1.1,5.7c-0.1,0.4-0.8,0.8-0.8,1.2
		c0.3,9.2-8.4,11.7-12.8,17.4c4.5-3.3,9-6.5,13.6-9.8c0.5,0.3,1,0.6,1.5,0.9c-8,20.5-15.9,40.9-23.9,61.4c-0.5-0.1-1-0.1-1.5-0.2
		c-1.1-8.7-2.1-17.3-3.4-26c-1.2-8.4,2.8-14.8,7.4-21.1c-2,1-4,2-6,3c-0.6-0.3-1.1-0.5-1.7-0.8c5.5-21.8,11-43.5,16.5-65.3
		c0.4-0.1,0.8-0.1,1.2-0.2c0.6,1.4,1.5,2.7,1.9,4.1C266.7,1160.6,269.9,1170.4,272.7,1180.3z M282.3,1103.8c0.2,1-1,2.3-1.5,3.4
		c-0.8,1.6-2.8,3.5-2.4,4.6c2.1,5.7-2.2,8.5-4.9,12c-2.8,3.6-5.9,6.9-8.8,10.4c-0.4-0.2-0.8-0.5-1.3-0.7c4.2-20.5,8.3-41,12.5-61.4
		c0.4,0,0.8,0,1.2,0C278.9,1082.7,280.7,1093.2,282.3,1103.8z M280.3,1049.2c4.5-20.3,9-40.6,13.6-61.3c5.2,4,6.1,8.3,4,12.9
		c-0.7,1.6-0.2,3.7-0.2,5.6c0,2.2,0.9,4.6,0.2,6.4c-5,11.8-10.3,23.4-15.6,35.1c-0.3,0.6-0.7,1-1.1,1.5
		C280.8,1049.4,280.5,1049.3,280.3,1049.2z"/>
	<path d="M255.5,85.6c1.1-12.1,2.3-24.2,3.4-36.2c0.3-3.2,0.2-5.9-2.4-8.6c-2.1-2.2-3.2-5.4,0.1-8.3c1-0.9,1.4-3.1,1.2-4.7
		c-0.2-2.6-1.1-5.1-0.8-7.9c1.4,4.3,2.9,8.5,4.3,12.8c0.7,0,1.3,0,2,0c3.7-5.6,8.4-10.9,10.7-17c1.2-3.1-1.9-7.8-3.1-11.7
		c3.3,0.9,6.9,2.5,7.3-3.2c1.7,0,3.3,0,5,0.1c-0.2,1.1-1.1,2.6-0.6,3.4c5.4,8.9-6.2,17.9,1.9,26.7c-0.7,0-1.4,0.1-2.1,0.1
		c-0.6-1.8-1.2-3.6-1.7-5.4c-0.4,0-0.7,0.1-1.1,0.1c-0.2,1.7-0.5,3.5-0.5,5.2c-1,23.6-2.3,47.2-2.8,70.8c-0.1,7.3,2.3,14.7,3.2,22.1
		c0.3,2.1-0.3,4.4-1,6.5c-1,2.7-2.5,5.2-4.1,8.3c-0.7-1.3-1.2-2.2-2.1-3.8c-3.2,6.4-6,12.2-8.9,18c0,0,0.1,0.1,0.1,0.1
		c1.9-5.3,3.6-10.6,5.6-15.8c1.3-3.3,2.3-6.3,0-9.9c-0.9-1.4-0.8-5.1,0.2-5.8c4.2-2.8,3-6.5,2.5-10.2c-0.7-4.9-1.3-9.8-1.9-14.8
		c1.2,4.4,2.4,8.8,3.6,13.2c0.4-0.1,0.9-0.2,1.3-0.2c1.1-30.9,2.2-61.7,3.4-92.6c-0.6-0.2-1.3-0.4-1.9-0.5
		c-2.6,3.8-5.1,7.6-7.7,11.4c-2.1,3.1-4.9,6-2.4,10.4c0.5,0.9-0.5,2.7-0.9,4.1c-0.6,2.4-1.7,4.7-1.7,7.1c0,3.1,0.9,6.2,1.3,9.4
		c1.7,12.7,3.4,25.3,5.1,38c-2.8-16.4-5.6-32.9-8.4-49.3c-1.3,2.8-1.7,5.6-2.1,8.4c-1.4,10-2.9,20-4.3,30L255.5,85.6z"/>
	<path d="M291.4,0.9c-0.5,13-1.4,26-1.3,38.9c0.1,7.3,1.6,14.7,3,21.9c1.2,6-3.9,7.3-6.4,10.5c-1.3-2.3-2.8-4.2-3.6-6.4
		c-0.7-1.9-1.7-5.2-0.9-5.9c4.3-3.7,2-8.7,3.2-12.6c4.9-15.3,1.7-31,4-46.4C290.1,0.9,290.8,0.9,291.4,0.9z"/>
	<path d="M264,328.2c2.7,9.9,5.2,19.9,8.2,29.8c0.6,2.1,2.8,3.8,4.1,5.8c1.2,1.9,3.4,4,3.2,5.8c-0.7,4.6-2.5,9-3.6,12.7
		c-2.3-3.3-5.1-6.4-6.8-10.1c-1-2.2-0.5-5.2-0.2-7.8c0.2-2.2,1.6-4.6,1.2-6.6c-1.7-8.1-3.9-16.1-5.8-24.2
		C263.9,331.8,264.1,329.9,264,328.2C264.1,328.1,264,328.2,264,328.2z"/>
	<path d="M339.2,588.7c1.2,1.1,2.5,2.2,3.6,3.4c2.4,2.6,4.9,5.1,7.1,7.9c1.3,1.7,2.9,4,2.8,5.9c-0.2,3.8-1.4,7.6-2,10.4
		c-1.9-1.9-4.6-4.3-6.8-7c-1.2-1.4-3-3.9-2.5-5c2.8-5.9-0.8-10.1-3.3-14.8C338.5,589.3,338.9,589,339.2,588.7z"/>
	<path d="M361.1,761.8c4.6-8.1,1.2-15.9-1.2-23.7c1.6,1.6,3.1,3.1,4.7,4.7c0.5-0.1,1-0.3,1.5-0.4c0.4-3.8,0.9-7.5,1.2-11
		c5.8,16.6,5.8,16.6,2.8,23.8c-2.7-2.7-4.1-1.2-5.5,1.4C363.7,758.4,362.3,760.1,361.1,761.8z"/>
	<path d="M285,722.6c-1.8-6.6-3.6-13.1-5.5-19.7c-0.6-2.1-1.4-4.1-2.1-6.2c-0.4,0-0.9,0-1.3,0c-1.2,2.8-2.5,5.6-3.7,8.4
		c-0.3-0.1-0.6-0.1-0.9-0.2c0.4-1.4,0.7-2.8,1.1-4.2c1.6-5.5-1.3-9.4-6.9-9.4c-2.8,0-5.7,0-8.5,0.1c-0.2,0-0.3-0.1-0.7-0.3
		c3.5-0.4,6.8-0.6,10-1.2c4.3-0.7,5.9-4.5,3.4-8c-11.7-16.6-23.4-33.2-35.2-49.7c-0.9-1.3-2.8-3.2-3.4-3c-2.4,0.9-5.2-0.4-7.2,3.4
		c-9.4,17.8-19.7,35.1-29.4,52.8c-1.4,2.5-1.5,5.9-1.3,8.9c0.3,3.9-2.5,8.8-6.2,9.6c-3.4,0.8-8.5-2.6-9.2-6.1
		c-0.9-4.8,1.6-9.9,5.8-10c4.6-0.1,6.4-2.8,8.2-6c9.8-17.6,19.7-35.1,29.5-52.7c0.7-1.3,1.2-3.6,0.5-4.5c-3.8-4.9-1.1-8.2,2.1-11.6
		c0.9-0.9,1.3-2.2,2-3.3c7.9,2.8,9.9,9,9.8,16.6c0,0.9,0.7,1.9,1.2,2.7c11.6,17.2,23.3,34.5,35,51.7c0.7,1.1,1.3,2.3,2,3.4
		c0.6-0.2,1.1-0.5,1.7-0.7c0.5-1.4,1.2-2.8,1.4-4.3c1-7.4,2.1-14.9,2.6-22.3c0.2-1.9-1-4.2-2.1-5.9c-2.2-3.1-3.4-5.8-0.1-9.1
		c0.9-0.9,0.9-3.7,0.3-5.2c-6-16.4-12.2-32.7-18.3-49.1c-1.3-3.6-2.4-7.3-3.5-10.9c5.4,13.4,10.7,26.8,16.1,40.2
		c2.3,5.7,4.6,11.4,6.9,17.2c0.4-0.1,0.7-0.2,1.1-0.4c0-4.3,0.1-8.5,0.1-12.8c0.8,5.1,1.5,10.2,2.4,15.3c1,5.9,2.8,6.6,7.9,2.9
		c-2.3,2.7-3.6,13.2-1.9,16.4c6.4,12.4,12.8,24.8,19.2,37.2c0.7,1.3,1.6,2.6,2.8,4.6c0.5-1.5,0.7-1.9,0.7-2.4
		c0.9-24.4,1.8-48.8,2.7-73.2c0.2-4.5-0.8-4.8-5.4-2c2.1-5.7,2.2-12-5.4-17.4c2.6,1.7,5.1,3.5,7.7,5.2c0.3-0.2,0.7-0.4,1-0.5
		c-1.7-5.6-3.3-11.1-5-16.7c1.6,3.2,3.2,6.5,4.7,9.7c0.2-0.1,0.4-0.2,0.6-0.3c-0.4-3.3-0.8-6.6-1.2-9.9c0.9,3.7,1.7,7.4,2.7,11.1
		c0.5,1.9,0.7,4.8,1.9,5.4c4.4,2.3,5.3,6,4.7,10.2c-1.2,1.3-2.2,2.8-2.4,4.4c-0.2,1.8,0.3,3.6,0.4,5.4c-0.7-1.4-1.4-2.8-2.2-4.2
		c-1.5,24.2-2.2,48.3-2.8,72.4c0,1.2,1,2.7,1.9,3.7c3.5,3.9,3.4,6.4-0.4,9.8c-1.2,1-2,3-2,4.6c-0.4,16.6-0.5,33.3-0.7,49.9
		c-0.1,4.7-0.1,9.5-0.2,14.2c-0.4,0-0.8,0-1.2,0c0.3-21.8,0.5-43.5,0.8-65.3c-5.2,11.8-9.2,23.7-13.2,35.7c-1,3-2.2,5.9,0.5,8.8
		c0.7,0.8,0.7,3.3,0,4.1c-2.9,3.3-1.3,6.5-0.3,9.8c1.1,3.6,2.3,7.3,3.4,10.9c-2.4-5.4-4.9-10.7-7.3-16.1c-0.5,0-1.1,0-1.6,0.1
		c-7.1,36.1-14.2,72.1-21.3,108.2c0.4,0.1,0.9,0.3,1.3,0.4c3.9-6.1,7.7-12.2,11.6-18.3c-3.1,6.1-6.3,12-9.1,18.2
		c-0.9,2-0.3,4.6-0.6,6.9c-0.3,2.3-0.1,5.9-1.4,6.7c-3,1.9-2.7,4.3-2.6,6.9c0.2,6.5,0.6,12.9,0.9,19.4l0.1-0.1
		c-0.9-6.4-1.7-12.8-2.6-19.2c-0.2-1.6-0.6-3.1-0.8-4.7c-0.5-0.2-1.1-0.4-1.6-0.5c-8.7,15.1-17.3,30.1-26,45.2
		c-0.4-0.2-0.7-0.4-1.1-0.6c4.9-8.8,9.7-17.6,14.6-26.4c2.8-5.1,5.7-10.2,8.3-15.4c0.7-1.4,1.2-3.9,0.4-4.8c-0.8-1-3.2-1.1-4.8-0.9
		c-3.1,0.4-6.1,1.2-9.4,0.8c2.5-0.6,5-1.2,7.4-1.7c6.7-1.4,8.8-5.9,5.3-11.8c-4.5-7.4-9.1-14.7-13.7-22c-2.7-4.3-6.8-4.8-10.2-1
		c-7.6,8.4-15,17-22.4,25.5c-5,5.8-10,11.6-15,17.3c-1.9,2.2-3.3,4.4-0.1,5.9c-1.4,2.1-2.4,4.3-4,6.1c-1.7,2-4.2,5.3-5.7,4.9
		c-2.9-0.6-6.1-2.9-7.6-5.4c-2.9-4.6,0.5-9.2,6.3-11.4c4.5-1.7,9.4-3.8,12.6-7.2c11.3-11.7,22.1-23.9,32.9-36.2
		c1.3-1.5,1.2-4.3,1.6-6.6c0.3-1.8-0.3-4.3,0.7-5.2c3.8-3.4,1.7-6.6,0.5-9.9c-1.4-3.7-2.8-7.5-4.2-11.2c-1.1-3.1-1.6-6.1-6.4-6
		c-1.7,0-4.2-3.9-5.1-6.5c-1-2.9,0.2-5.9,3.6-7.3c3.3-1.4,6.6-2.9,10.3-4.5c-1.1,13.6-1,27.4,7.5,39.8c1.3-0.5,1.8-4.3,4.4-1.7
		c0.9-1,1.9-1.9,2.6-3c12.4-20.3,24.8-40.7,37.1-61c2.4-3.9,0.6-8.3-3.8-9.6c-3.2-0.9-6.4-1.4-9.5-2.8c2.7,0.5,5.4,0.9,8.2,1.4
		c6.2,1,9.5-2.4,8.2-8.4c-1.7-8.1-3.5-16.3-5.3-24.4c2.8,9.4,5.5,18.8,8.3,28.2c1.9-2.2,2.8-4.3,3.5-6.4
		c3.8-10.8,7.6-21.7,11.1-32.6c0.5-1.6-0.3-3.8-0.7-5.6c-0.5-2.2-1.8-6.3-1.5-6.4c4.2-1.6,2-3.9,0.9-6c-6.6-12.3-13.1-24.7-19.8-37
		c-0.7-1.3-1.7-2.4-3.4-4.8c-1.2,9-2,16.4-3.4,23.7c-1.5,7.6,2.2,12.8,6.8,18c-5.8-0.8-7.3,0.8-6.2,6.6
		C282.1,707.6,283.6,715.1,285,722.6z M267.9,875.9c0.7-0.1,1.3-0.1,2-0.2c7-36.2,14.1-72.4,21.1-108.6c-0.4-0.1-0.8-0.3-1.2-0.4
		c-0.7,0.9-1.4,1.7-1.9,2.6c-7.6,12.9-15.8,25.5-22.6,38.8c-5.7,11.2-16.6,20.2-15.2,34.5c0.2,2,0,4.3,0.9,6c4.5,8,9.2,15.8,14,23.7
		C265.6,873.6,266.9,874.7,267.9,875.9z"/>
	<path d="M212,1085c-3.1-1.1-6.2-2.1-9.3-3.4c-8.1-3.3-11.9-1.4-14.1,7.2c-0.1,0.5-0.3,0.9-1.2,1.4c0-2.5,0.1-5,0.1-7.1
		c-4.2,3.7-8.6,7-12.3,10.9c-17.3,18-34.6,36.1-51.6,54.3c-2.2,2.3-3.2,5.9-4.6,8.9c-1.6,3.6-0.9,9-6.6,9.3c-2.9,0.2-6.6,0.4-7.5-4
		c-1.1-5.7,0.9-12.1,5-12.1c10.4-0.1,14.8-8,20.6-14.1c16.7-17.4,33.3-34.9,49.9-52.4c3.7-3.9,4.3-13,1-17.1
		c-6-7.6-12-15.1-18.2-22.5c-1.1-1.3-3.5-2.8-4.8-2.5c-4.5,1.1-7.4-1.4-8.1-4.6c-0.6-2.7,0.6-6.9,2.6-8.9c1.9-1.9,5.7-2.3,8.7-2.3
		c1.1,0,3.4,3,3.1,4.2c-1.3,6.3,1.1,10.8,5.1,15.3c5.3,6.1,10.1,12.8,15.1,19.3c4,5.1,5.7,4.9,8.5-0.8c0.8,1.8,1.5,3.7,2.3,5.6
		c3-1.3,6-2.6,8.9-3.9c-1.4,1.3-2.7,2.5-4,3.7c-5.2,4.5-4.6,7.6,1.7,10.6c3.3,1.5,6.4,3.4,9.5,5.2L212,1085z"/>
	<path d="M281.6,964.5c-5.3-5.5-6.7-5.2-9.8,1.9c-1.5,3.5-3.5,6.9-5.2,10.3c1.4-3.9,2.9-7.8,4.1-11.7c0.5-1.5,0.8-4.3,0.1-4.8
		c-1.3-0.9-3.5-0.6-5.3-0.6c-0.9,0-1.8,0.5-1.9,0.6c3.2-3.5,6.8-7.1,10.1-11.1c0.7-0.9,0.4-2.8,0.3-4.3c-0.6-10.7-1.3-21.5-1.9-32.2
		c0,0-0.1,0.1-0.1,0.1c0.6,4.9,1.3,9.8,1.8,14.8c0.8,7.1,1.4,14.2,2.1,21.3c0.5,0,0.9,0.1,1.4,0.1c0.9-1.4,1.8-2.7,2.6-4.1
		c3.8-7,7.1-14.4,11.6-20.9c4.7-6.8,4.2-13.9,2.8-21.4c5.5,2.2,6.3-1.1,6.7-5c2.6-24,5.2-47.9,7.7-71.9c0.4-3.8,0.5-7.6,0.8-12.6
		c-3.2,4.6-5.7,8.1-8.1,11.6c1.7-5.7,8.5-10.3,4-17.5c-0.4-0.6,0.1-2.2,0.7-2.7c3.4-3,1.9-6.1,0.7-9.4c-1.2-3.3-2-6.6-2.9-10
		c2,4.6,4,9.3,6.5,15.2c0.5-5.2,0.9-9.1,1.3-12.9c0.3,0,0.6,0.1,1,0.1c0,3.5-0.1,7-0.1,10.4c0.3,0,0.5,0,0.8,0.1
		c0.8-1.8,1.7-3.6,2.5-5.3c0.3,1,0.1,1.8,0,2.5c-0.6,3-2.9,6.1,1,9c0.8,0.6-0.3,3.9-0.6,5.9c-0.3,2.3-1.1,4.5-1.1,6.8
		c0,2.3,0.8,4.5,1.2,6.8c-1.2-3.1-2.4-6.3-3.7-9.4c-0.4,0-0.7,0.1-1.1,0.1c-3.1,28.9-6.3,57.7-9.6,88c1.9-2.2,2.7-3.2,3.5-4.2
		c-1.1,3.8-2.8,7.4,3.1,8.5c-8.1,7.6-8,7.6-8.8,17.7c-0.5,5.6-1.3,11.2-2,16.7c0,0,0.1,0,0.1,0c0.1-8.7,0.2-17.3,0.3-26.6
		c-3.8,7.1-7.6,13.7-10.9,20.5c-3.1,6.5-8.9,12.1-6.5,20.9C281.2,958.2,280.2,961.7,281.6,964.5z"/>
	<path d="M33.2,1293c-2-1.7-3.6-3-5.1-4.4c1.6-1.8,2.9-4.6,4.8-5c1.7-0.4,5.2,1.2,5.9,2.8c1.8,3.8,4.5,4.8,8.2,5.3
		c21.3,2.9,42.5,6.1,63.7,8.9c1.9,0.3,4-1.4,6.1-2c3.1-1,7.3-3.6,9.2-2.5c3,1.8,3.9,6.1,1.8,10.2c-1.4,2.6-1.8,5.7-5.8,5.8
		c-3.7,0.1-5.7-1.2-7.1-4.8c-0.6-1.5-3.2-2.8-5.1-3.1c-21.3-2.6-42.6-4.9-64-7.3c-3.9-0.4-7.5-0.4-10.7,2.7c-0.9,0.9-3,0.4-4.6,0.6
		c0-1.7-0.3-3.5,0.3-5C31.1,1294.2,32.6,1293.5,33.2,1293z"/>
	<path d="M131,338.7c-3.3,0.4-6.6,1.3-9.8,1c-3-0.3-7.2-0.9-8.6-2.9c-4.2-5.9-10.1-5.4-15.7-5.4c-8.1,0-16.2,0.7-24.3,0.9
		c-4,0.1-6.8,1-8.5,5.3c-0.6,1.6-4.7,2.6-7,2.4c-1.6-0.1-3.8-2.7-4.1-4.5c-0.6-2.8-0.2-6,0.2-8.9c0.5-3.3,5.6-4.7,7.9-1.8
		c2.6,3.2,5.7,3.7,9.2,3.7c10.8,0,21.6,0.1,32.4,0.2c3.6,0,6.2-1,8.3-4.3c3-4.9,7.8-4.5,10.3,0.9c2.4,5.1,3.8,10.7,9.5,13.4
		C130.9,338.8,131,338.7,131,338.7z"/>
	<path d="M5.7,1429.3c2.8-4,4.7-6.9-0.6-8.6c-0.2-0.1,0.1-4.1,1.1-5.3c2.5-2.8,6.2-1.8,7,1c2.2,7.8,7.8,7.4,14,7.8
		c10.1,0.6,20.1,2.2,30.1,3.6c4.7,0.7,8.6,0.6,12.4-3.1c1.5-1.5,5.3-1.8,7.6-1c3.1,1,2.2,3.9,1.6,6.8c-0.6,3.1-0.4,6.1-3.5,8.2
		c-3.3,2.3-5.4,1.7-7.8-1.6c-1.3-1.8-3.5-3.8-5.6-4.1c-14.5-2-29-3.8-43.6-5.3C14.7,1427.4,10.8,1428.6,5.7,1429.3z"/>
	<path d="M234.5,683.9c2.3,2.2,5.8,5.3,9.1,8.4c-3.6,2-6.2,5.5-4.2,10.7c4.9,13.1,10,26.1,15,39.2c0.3,0.7,1,1.2,2.2,2.8
		c2.1-4.3,3.8-7.9,5.6-11.5c-1.2,6.4-4.3,12.9,2.4,18.6c-4.4,4.2-10.6,7-9.4,14.8c-2-4.3-3.3-8-5.2-11.3c-1.9-3.3-1.8-6.1,0.2-9.3
		c0.9-1.4,1.4-3.8,0.9-5.3c-4.2-11.9-8.5-23.8-13.3-35.5c-1-2.5-4.4-4.2-7-5.8c-6.4-3.9-6.9-9.5-0.9-13.7
		C231.5,685.1,233.3,684.5,234.5,683.9z"/>
	<path d="M132.3,266.5c3.2,3.7,6.5,7.2,9.6,11c9.1,11.2,18,22.6,27.2,33.7c1.6,1.9,4,4,6.3,4.4c3.8,0.6,5.7,2.8,7.4,5.8
		c1.7,2.9,2.7,5.6-0.1,8.6c-2,2-3.5,3.7-6.7,2.1c-3.5-1.8-7-4.1-6.1-8c1.1-4.8-1-7.5-3.6-10.6c-10.2-12.8-20.4-25.7-30.5-38.7
		c-1.8-2.3-3.1-4.9-4.6-7.3C131.5,267.1,131.9,266.8,132.3,266.5z"/>
	<path d="M39.1,167c9.6,0.1,19.2,0.2,28.7,0.3c4.8,0.1,9.3,0.5,12.9-4.3c2.5-3.4,8.3-0.9,9.5,3.7c0.4,1.4,0.1,3.1,0.6,4.4
		c1.1,2.8,2.2,6-1.4,7.1c-2.4,0.8-6.7,0.5-8.1-1.1c-6.9-8-15.3-8.1-24.8-7.1c-5.7,0.6-11.7-1.1-17.5-1.7
		C39,167.9,39.1,167.5,39.1,167z"/>
	<path d="M172.8,1193.2c-0.1,4.7-0.5,8.9,0,13c0.4,3.5,4.9,5.5,9.9,4.9c-9.4,6.1-10.9,15.1-10.1,25.2c-0.3-2.8-0.6-5.6-1.1-8.3
		c-0.3-1.7-1.1-3.4-1.6-5c-1.6,0.9-3.1,1.9-4,2.4c-0.5-1.7-1.7-3.9-1.8-6.2c-0.1-2.7,0-7.1,1.5-7.9c6.4-3.6,5.9-9.4,6.2-15.1
		c0-0.7,0.1-1.3,0.2-2C172,1194.1,172.2,1194,172.8,1193.2z"/>
	<path d="M129.3,264.4c-2.9-0.6-5.9-0.8-8.4-2c-2.5-1.2-5.8-3.2-6.3-5.5c-0.7-3.2,0-7.3,1.6-10.3c1.5-2.9,9-1.1,9.9,2.3
		C127.4,254.1,128.3,259.5,129.3,264.4z"/>
	<path d="M33.4,1483.4c-2.8-1.9-6.3-3.2-6.3-4.6c-0.1-3.7,3.4-4.8,6.4-4.4c1.5,0.2,3.4,2.5,3.6,4
		C37.3,1479.7,35.1,1481.3,33.4,1483.4z"/>
	<path d="M35.5,1486.9c-1.5,1.2-3,2.4-4.5,3.5c-0.5-0.7-1.6-2-1.5-2.1c1.4-1.4,2.9-2.6,4.4-3.8C34.5,1485.3,35,1486.1,35.5,1486.9z"
		/>
	<path d="M277.6,592.6c0.9,9.4,1.8,18.9,2.7,28.3C279.4,611.5,278.5,602.1,277.6,592.6z"/>
	<path d="M263.2,542.7c-1.5-3.3-3.2-6.5-4.4-9.8c-2.6-7.5-4.9-15-7.4-22.5C255.4,521.1,259.3,531.9,263.2,542.7z"/>
	<path d="M228.8,2880c2.2-3.3,4.3-6.5,6.5-9.8c0.8-1.2,1.2-2.7,1.8-4c-4,5.6-8,11.3-12,16.9C226.3,2882,227.6,2881,228.8,2880z"/>
	<path d="M254.1,2844.1c-3-3.8-1-6.8-0.6-10.2c0.2-1.7,0.7-3.3,1.1-4.9c-1.7,2.7-2.3,5.6-3.4,8.3c-0.7,1.7-2.1,3.1-3.1,4.6
		c-1.3-1.1-3-2-3.9-3.4c-6.6-10.2-13.2-20.4-19.6-30.7c-2.9-4.6-1.5-8.2,3.7-10c2.6-0.9,5.2-1.7,7.8-2.5c-2.4-0.5-4.4,0.1-6.4,0.7
		c-7,2.1-9.2,0.2-7.5-6.9c4.5-18.8,9.1-37.5,13.7-56.3c1.2-4.9,2.8-9.6,4.3-14.4l1.4,0l5.2,12.5c-3.1-8.9-4.2-17.5,1.9-26
		c-1.4,0.2-2.6,0.4-4.1,0.6c0.6-2.3,1.1-4.1,1.9-6.8c-1.7,2-2.7,3.2-4.2,5c-0.3-1.5-0.6-2.2-0.6-3c0.2-16.8,0.3-33.6,0.7-50.4
		c0-1.6,1.6-3,2.2-4.6c0.8-2.3,2.7-5.6,1.8-7c-2.9-4.6-1-8.6-0.1-12.9c0.4-2,1-4,1.6-6l-0.8-0.2c-0.9,2.3-1.8,4.6-2.7,6.9
		c-0.4-0.1-0.8-0.2-1.2-0.3c0.4-8.3,0.8-16.6,1.1-25c-0.3,0-0.6,0-0.9,0c-0.8,10.3-1.6,20.6-2.4,30.8c-1.7-0.7-2.3-1.5-2.7-2.4
		c-2.9-8-5.9-15.9-8.7-24c-1.4-4.1-4.2-8.2-0.5-12.6c0.6-0.7-0.1-2.2,0-3.4c0.1-1.4,0.1-3.1,0.8-4.1c3.5-5,7.3-9.9,11.1-14.8
		c0.6-0.8,1.7-1.1,3.7-2.3c-0.4,10.1-0.7,19-1,27.9c1.4-7.6,1.9-15.2,2.8-22.7c0.3-2.2,2.2-4.1,3-6.3c0.8-2.2,2.6-5.4,1.7-6.7
		c-2.9-4.5-0.6-8.3,0.3-12.4c0.5-2,1.2-3.9,1.8-5.9c-0.3-0.1-0.6-0.2-0.9-0.3c-1.8,4.6-3.6,9.1-5.8,14.7c-1-2-1.5-2.5-1.6-3.1
		c-2.2-10.6-4.5-21.2-6.5-31.8c-0.2-1.3,1.2-2.9,1.5-4.4c0.6-2.4,2-6.8,1.4-7.1c-3.8-1.8-1.5-4-0.8-5.8c4.9-12.9,10-25.8,15.1-38.6
		c0.9-2.2,2.2-4.2,3.7-7.2c1.2,3,2,4.9,2.3,5.6c2-6.8,4.1-14.4,6.3-22c-0.6,0.1-1.2,0.1-2,0.2c2-4.7,3.6-8.7,5.3-12.8
		c-0.2-0.1-0.4-0.2-0.6-0.3c-1.2,2.2-2.5,4.4-4.2,7.4c-0.2-1.5-0.4-1.9-0.2-2.3c7.3-25.1,14.5-50.2,21.9-75.3c0.4-1.5,2-2.9,3.4-3.8
		c3.1-2.1,4.5-5,2.6-8c-2.2-3.3-1.4-6.2-0.6-9.5c1.4-5.2,2.8-10.5,4.1-15.7c-0.2,0-0.4-0.1-0.6-0.1c-2.3,7.2-4.6,14.5-7.3,22.9
		c-1.3-2.1-1.9-2.7-2.1-3.5c-3-8.8-6-17.6-8.7-26.5c-0.4-1.3,0.6-3,0.9-4.5c0.4-2.2,1.6-6,1.1-6.3c-4.3-2.2-1.9-5.3-1.2-7.8
		c3-10.7,6.2-21.4,9.4-32.1c2.4-7.9,4.9-15.8,7.6-24.6c0.8,1.6,1.3,2.1,1.4,2.7c1.9,13.4,3.7,26.7,5.4,40.1c0.2,1.5-0.9,3.3-1.8,4.7
		c-2.2,3-3.1,5.6-0.2,8.9c1,1.1,1,3.2,1,4.9c0,1.8-0.6,3.6-0.9,5.3c4.7-4.4,7.2-7.7,8.6-10.2c-0.1-1.2-0.3-2.3-0.4-3.5
		c-0.5-4-0.9-8.1-1.2-12.1c-0.4,0.8-1.1,2.2-2.1,4c-0.6-2.8-1-4-1.1-5.3c-1.6-11.7-3.3-23.4-4.5-35.2c-0.3-2.8,1.1-5.8,1.8-8.7
		c0.3-1.4,1.3-3.5,0.7-4.1c-3.3-4-0.7-7.5,0.5-11.2c1-3.2,2-6.3,3-9.5c-2.5,5.4-4.9,10.7-7.4,16.1c-0.6,0-1.2,0-1.8,0.1
		c-4.2-18.2-8.3-36.5-12.5-54.7c0.5-0.3,1-0.6,1.4-0.8c1.6,1.3,3.2,2.5,4.8,3.8c-4-5.7-4.6-11.8-2.1-19.3c-1.7,2.2-2.9,3.6-4,5
		c-0.4-0.1-0.7-0.2-1.1-0.2c0.1-24.1,0.2-48.2,0.3-73c1.8,0.8,2.6,1.2,3.4,1.5c0.5-5.3,2.2-10.7-2.7-15.1c-0.6-0.5-0.1-2.2-0.1-3.4
		c0.1-2.3,0.3-4.6,0.5-6.9c-0.2,0-0.5,0-0.7-0.1c-0.5,3.5-1,6.9-1.5,10.4c-0.6,0.1-1.1,0.2-1.7,0.3c-12.4-27-24.9-54-37.3-81
		c0.3-0.2,0.6-0.3,1-0.5c2.7,3.9,5.3,7.8,8,11.7l0.9-0.6c-4.6-7.4-9.2-14.7-13.9-22.1c0.3-0.3,0.6-0.6,0.9-1
		c1.4,0.7,2.8,1.4,4.2,2.1c-1.6-2.6-3.2-5.1-4.8-7.7c-1-1.5-2-2.9-3-4.3c-1.7-2.3-4.2-4.2-5-6.8c-5.3-16.6-10.3-33.3-15.3-50
		c-0.3-0.9-0.4-1.8,0.2-3c5,9.5,10,18.9,15.1,28.4c-5.3-12.1-10.7-24.3-16.2-36.8c0.8,0.2,1.4,0.4,1.7,0.5
		c-1.1-10.3-8.5-18.6-9.3-29.4c-0.9-10.9-2.5-21.7-3.8-32.6c-0.2,0-0.5,0-0.7,0.1c1.3,13,2.5,26.1,3.8,39.1c-0.5,0.1-1,0.2-1.5,0.4
		c-9.9-26.9-19.9-53.9-29.8-80.8c0.4-0.2,0.7-0.4,1.1-0.6c1.9,1.6,3.9,3.2,5,4c-1.1-3.3-2.4-7.2-3.9-11.1c-0.3-0.9-1.2-1.6-1.6-2.4
		c-1-2.2-2.7-4.5-2.8-6.8c-0.3-9.8-0.1-19.6,0-29.5c0-4.9,0.3-9.8,0.4-14.7c1.4,1.2,2,2.4,2.5,3.8c2.2,7,4.2,14,6.5,21
		c1.9,5.6,4.2,11,6.4,16.5c-3.8-12.8-7.6-25.7-11.4-38.5c0.3-0.2,0.6-0.3,0.9-0.5c1.7,2.5,3.5,5,5.2,7.5c-1.3-4.4-3.3-8.4-5.6-12.2
		c-2.3-3.8-1.1-5.7,3.4-6.1c-11.5-7.4-1.5-16-1.8-25.2c-2.1,5.5-3.7,9.8-5.3,14.2c-0.5-0.1-1-0.2-1.5-0.3
		c-0.8-23.8-1.6-47.5-2.4-72.4c2.1,2.4,3.7,4.2,4.4,5c-0.3-3.2,0.4-7.7-1.2-10.9c-3.1-6.1-0.2-10.8,1.4-16.1
		c1.8-5.8,3.6-11.5,5.4-17.3c-2.6,6.2-5.2,12.3-7.7,18.5c-0.7,1.8-1.4,3.6-3,5.3c-0.2-1.2-0.5-2.4-0.5-3.6
		c-0.1-16.5-0.1-32.9,0-49.4c0-1.7,0.8-4,2.1-4.9c3.5-2.6,2.6-5,1.1-8.2c-1.3-2.8-2.4-6-2.6-9c-0.3-5.1-0.1-10.3,0-15.5
		c-0.8,6.6-1.6,13.2-2.4,19.8c-0.3,0.1-0.6,0.2-0.9,0.3c-4.2-10-8.4-20-12.5-30c3.1,8.9,6.3,17.9,9.4,26.8c2,5.6-0.8,9.8-6.7,9.9
		c-6.8,0.1-13.6,0-20.5-0.1c-3.9-0.1-8.4-4.5-8.1-8.4c1.7-25.1,3.6-50.1,5.4-75.2c0-0.4,0.4-0.8,1.1-2c2.6,5.9,5,11.2,7.3,16.5
		c-1.2-3.8-2.4-7.6-3.7-11.3c-1-3-2.4-5.9,0.7-8.7c0.5-0.4,0.7-1.7,0.4-2.2c-3.6-6.3,1.9-9.9,4.1-14.5c-1.8,2-3.5,4-5.4,5.9
		c-2.4,2.6-5.3,2.3-6.6-1c-1.4-3.5-2.2-7.3-3.2-10.9c-0.7,0-1.3,0-2,0.1c0.9,2.7,1.7,5.4,2.7,8c1.5,3.9,0.6,6.4-4.1,6.9
		c3.3,5.7,2.9,10.6-2.2,15.2c-3.2,2.9-5.5,6.8-8.1,10.3c-1.2,1-2.5,2-3.6,3.2c-5.8,6.5-11.4,13-17.2,19.5c-4.2,4.7-6.2,4.3-8.9-1.4
		c-0.1-0.3-0.6-0.5-0.9-0.8c-0.2,1.6-0.4,3-0.8,5.7c-20.6-20.7-40.4-40.6-60.2-60.4c-0.4,0.4-0.9,0.8-1.3,1.3c4,4.3,7.9,8.7,12,13
		c14.4,14.8,28.8,29.6,43.2,44.4c1,1,2,2.3,2.4,3.6c0.6,2.1,0.6,4.4,0.8,6.7c0.1,2,0.6,4.3-0.2,5.8c-4.9,9.3-10,18.5-15.3,27.5
		c-0.9,1.5-3.1,2.8-4.9,3.1c-5.8,1-7.4,3.5-6.3,9.4c0.5,2.3,0,5.3-1.2,7.2c-4.5,7.2-9.4,14.1-14.5,20.9c-1.2,1.6-3.6,2.4-5.5,3.4
		c-2,1-5.7,1.5-6,2.8c-0.8,3.1-1.2,7.6,0.5,9.8c1.8,2.3,6.3,2.5,9.6,3.6c0.7-2.7,1.4-5.4,2.1-8.1c0.7-3.1,0.6-6.7,2.1-9.2
		c3.9-6.4,8.6-12.3,12.9-18.4c4.5-6.4,4.5-6.4,11.1-2.8c4.6-5,3.1-10,1.9-15c-0.2-1,0.3-2.3,0.9-3.3c5.4-10,10.8-19.9,16.4-29.8
		c0.5-0.9,1.7-1.9,2.5-1.8c0.8,0.1,1.7,1.3,2.2,2.3c0.9,1.7,1.4,3.5,2.1,5.3c0.3-0.1,0.5-0.2,0.8-0.3c-0.2-2.5-0.4-5-0.6-7.5
		l2.2-1.7c1.3,1.9,2.3,4.1,3.9,5.7c5.9,5.9,11.9,11.6,17.9,17.4c3,2.9,7.1,5.2,5.5,10.6c-0.3,1,1.1,2.3,1.6,3.5
		c0.4,1.1,1.3,2.6,0.9,3.5c-4.3,11.1-8.8,22.2-13.2,33.3c-0.5,0-0.9,0.1-1.4,0.1c-1.4-4.6-2.7-9.3-4.1-13.9
		c-0.2,0.1-0.5,0.1-0.7,0.2c0.8,4.5,1.6,9.1,2.7,14.8c-3.2-1.2-5.2-1.9-6.2-2.2c0.4,2,0.7,4.7,1.6,7.1c0.9,2.3,2.6,4.3,4,6.5
		c1,1.5,2.7,3,2.9,4.6c0.7,5.6,1,11.3,1.4,16.9c0.8,13.8,1.6,27.6,2.2,41.4c0.3,6.6,0.5,13.1,0.7,19.7c-0.5,0.1-1,0.2-1.5,0.3
		c-1.2-2.5-2.5-5.1-3.7-7.6c0.1,2.9,1,5.5,1.6,8.2c0.3,1.1-0.2,2.4-0.3,3.5c-1-0.3-2.2-0.3-3.1-0.9c-6.6-4.5-13.2-9.1-19.6-13.7
		c-5.4-3.9-11.2-7.1-13.6-14.5c-1.9-5.9-7.5-7.1-10.7-3.4c-3,3.5-2.9,8.1-0.1,11c2.1,2.2,6.2,2.7,9.5,3.7c2,0.6,4.5-0.2,6.1,0.7
		c7.8,4.9,15.3,10.1,22.9,15.2c3.3,2.2,7,3.9,6.6,9c-0.1,1.3,1.9,2.6,2.5,4.1c0.9,1.9,2.2,4.1,2,6c-0.9,8.9-2.4,17.7-3.6,26.6
		c0.3,0,0.5,0.1,0.8,0.1c1.7-9.7,3.4-19.5,5.1-29.2c0.5,0,1.1,0,1.6,0c1.9,5.5,3.7,10.9,5.6,16.4c-0.7-3.9-1.4-7.9-2.3-11.7
		c-0.8-3.4-2-6.7,1.1-9.8c0.6-0.6,0.8-2,0.6-2.8c-1.4-4.1,1.4-6.2,4.1-8.2c1.2-0.9,2.8-1.3,4.3-1.9c0.6,1.4,1.6,2.8,1.7,4.3
		c0.5,9.6,0.9,19.3,1.3,28.9c0.4,10.5,0.9,20.9,1.3,31.4c0.1,1.7,0.1,3.5-0.8,5.3c-1.2-3-2.3-5.9-3.5-8.9c0.6,2.8,0.8,5.6,1.7,8.3
		c2,5.4,1.5,9.7-3.5,12.2c-0.2,4.6,5.4,6.5,3.3,11.7c-4,10-7.2,20.3-10.9,30.5c-1.7,4.6-7.7,6.5-11.8,3.7
		c-16.5-11.2-33-22.5-49.5-33.7c1.9,2.6,3.4,5.8,6,7.6c12.9,9.1,26.2,17.7,39.3,26.5c7.9,5.3,9.3,11.3,4.6,19.6
		c-1.2,2.2-2.3,4.6-4,6.3c-1.5,1.6-3.7,3.2-5.7,3.5c-4.1,0.6-5.9,2.8-6.2,6.5c-0.6,5.5,3,9,9.6,9.7c2.4,0.3,5.3,0.4,7,1.8
		c18.5,15.2,36.9,30.7,55.2,46.1c2,1.7,3.4,10.9,1.8,12.7c-7.8,9.1-15.7,18.1-23.5,27.2c-2.1,2.5-4.3,2.3-6.4,0.2
		c-1.2-1.1-2.4-2.4-3.3-3.8c-14-21.1-27.8-42.2-41.8-63.3c-3.7-5.6-6.8-11.3-6.6-18.4c0.1-4.1-3.3-5.7-6.9-6.7c-3.1-0.8-6.2-2-9.3-3
		c-1.5-0.5-3-0.9-4.5-1.4c-0.4,0.6-0.9,1.2-1.3,1.7c1.8,1.1,3.8,2,5.3,3.5c1.2,1.2,2.6,3.4,2.2,4.4c-0.5,1.5-2.7,2.5-4.3,3.3
		c-1.3,0.6-2.9,0.6-4.4,0.8c-4.9,0.7-9.8,1.4-14.7,2.1c1.4,0.8,2.7,0.6,3.9,0.6c8.5,0.3,17.9-4.9,24.7,4.5c0.5,0.7,1.9,0.5,2.8,1
		c2.4,1.5,5.5,2.6,7,4.8c15.1,23.2,29.9,46.5,44.6,69.8c0.9,1.4,0.7,3.8,0.3,5.5c-1.4,5.8,0.1,8.8,5.9,10.6c1.7,0.5,3.3,1.3,6.2,2.5
		c0.6-4.3,1.2-8.4,1.9-12.5c0.3-1.4,1-2.9,1.9-4c7.3-9.3,14.7-18.5,22.1-27.7c0.8-1,2.5-1.8,3.6-1.7c0.7,0.1,1.8,1.9,2,3
		c2.2,16.8,4.3,33.7,6.3,50.6c0.1,1.3-0.9,3.2-2,4.1c-4.3,3.2-4.7,7.7-0.7,11.3c1.3,1.2,2.4,2.5,3.7,3.8c1.5-2.9,3-2.5,4.5,0.6
		c1.9,4.1,3.8,8.1,5.8,12.2c-1.4-4.7-2.8-9.4-4.2-14.1c0.3-0.3,0.5-0.5,0.8-0.8c2.1,1.5,4.3,3,6.3,4.6c3.8,3.2,7.7,6.3,11.2,9.8
		c1.1,1.1,1.1,3.4,1.7,5c0.8,2,1.2,5.4,2.5,5.8c4.4,1.5,4.9,4.8,5.7,8.4c0.2,0.7,0.7,1.4,1.1,2.1c-0.1-1.6-0.4-3.3-0.3-4.9
		c0.1-1.5,0.7-3,1.1-4.5l4.8,1.5c-0.8-1.7-1.8-3.4-2.5-5.1c-0.4-1,0-2.4-0.4-3.4c-4.8-11.3,2.1-20.9,4.2-31.2c0-0.2,0.6-0.3,1.5-0.7
		c2.1,3.7,4.3,7.5,6.5,11.2c-0.9-2.3-2-4.6-2.5-7c-0.4-2.2,0-4.6,0-6.9c0-1.5,0.7-3.2,0.1-4.3c-1.9-3.8,0.9-6,3.1-7.5
		c3.2-2.2,4.3,0.7,4.9,3.3c1.8,7.8,3.4,15.6,5.3,23.4c2.2,9.2,4.6,18.4,6.9,27.5c-3-14.5-6-28.9-9-43.4c-0.2-1.1-0.4-2.2,0.3-3.7
		c1.7,3.7,3.5,7.3,5.2,11c10.9,23.7,21.8,47.4,32.7,71.1c0.9,2,2,3.6,0.2,6.3c-1,1.5,0.8,5,1.6,7.5c0.6,1.9,2.5,3.6,2.5,5.4
		c0.2,21.6,0.1,43.2,0.1,64.9c0,0.2-0.3,0.5-0.7,1.1c-1.7-4.5-3.4-8.8-5-13c1,4,2,8.1,2.9,12.1c0.6,2.8,2.2,5.7-1.7,7.8
		c-0.8,0.4-0.4,3.6,0,5.4c0.8,3.4,2,6.6,2.9,9.4c0.3-0.8,1.1-2.9,1.9-5c0.3,0,0.7-0.1,1-0.1c0.8,3.8,1.7,7.6,2.6,11.4
		c2.9,12.8,6,25.6,8.7,38.4c0.4,1.9-0.6,4.2-1.5,6.1c-1.4,3-2.6,5.6,0.5,8.3c0.7,0.6,1,2.5,0.7,3.5c-6,20.1-12.1,40.1-18.3,60.1
		c-0.1,0.2-0.5,0.3-1.3,0.7c-1.5-3.4-3-6.8-4.5-10.2c0.6,2.3,1.1,4.5,1.7,6.8c0.2,0.8,0.9,2,0.7,2.3c-4.7,5.1-2.3,10.7-0.6,15.6
		c0.6-0.5,2-1.7,3.4-2.8c1,1.6,2.2,3.2,2.8,4.9c2.6,7.5,5.1,15.1,7.6,22.7c1.1,3.5-2.5,9.9-6.1,10.9c-3.3,0.9-6.7,1.7-9.9,3.2
		c3.5-0.7,7-1.6,10.5-2.2c4.1-0.6,5.8,1.3,4.2,5.2c-3,7.4-6.3,14.6-9.5,21.9c2.4-4.3,4.9-8.6,7.3-12.9c0.3,0.1,0.7,0.2,1,0.4
		c-7.8,26.9-15.6,53.8-23.5,81.1c-5.3-4.5-6.6-8.7-5-13.5c0.3-1.1,0.8-2.6,0.3-3.4c-2.9-4.2-0.3-7.5,1.3-11
		c2.7-6.1,5.4-12.1,8.1-18.2c-4.3,8-8.6,15.9-12.9,23.9c-0.3,0-0.5,0-0.8,0c0.1-10.8,0.2-21.5,0.3-32.3c-0.6,9.2-1.2,18.3-1.8,27.5
		c-0.1,2-0.5,4.1-1,7.3c-2.4-1.9-3.9-3-5.4-4.2c2.9,2.7,0.1,6.1,0.8,8.5c1.7,5.4-1.8,8.2-4,11.8c2.1-1.8,4.3-3.5,6.9-5.7
		c-5.3,19.5-10.4,38.4-15.5,57.4c4.3-14.1,8.6-28.1,13-42.2c0.4,0.1,0.7,0.1,1.1,0.2c-0.6,3.9-1.2,7.9-1.9,11.8
		c-2.1,12.1-4.3,24.2-6.4,36.3c-0.5,3.1-1.6,5.3-4.4,7.2c-1.7,1.1-3.2,4.9-2.5,6.5c1.2,2.9,0.5,4.7-0.9,6.8
		c-2.7,4.2-5.3,8.4-7.9,12.6c-0.4-0.1-0.8-0.3-1.2-0.4c1.8-6,3.6-11.9,5.4-17.9c-2.2,5.7-4.4,11.3-6.5,17c-0.5,1.4-1.1,2.8-1.6,4.3
		c-0.5,0-0.9,0-1.4,0c-1.4-4-2.8-7.9-4.1-11.9c-1.9-6.2-3.8-12.3-5.5-18.6c-1.2-4.4-2.9-8.3-0.2-13.6c1.7-3.3,0.5-8.5,4.3-11.7
		c1-0.9,1.7-2,2.5-3.1c1.8-2.5,3.6-5.1,5.4-7.7c-4.8,4.5-9.6,8.9-13.5,12.5c3.3-10.8,7.2-23.2,11-35.6c-1.1,2.5-2.5,5.1-3.4,7.7
		c-3.1,9-6.1,18-9.2,26.9c-0.5,1.5-1.6,2.8-2.7,4.6c-1-1.2-1.6-1.6-1.8-2.1c-7.4-16-14.8-32-22.1-48.1c-0.6-1.3-0.1-3.1,0.1-4.7
		c0.9-5.5,5.9-6.5,9.8-8.9c-2,0.3-3.7,1.2-5.6,1.6c-1.3,0.3-3.4,0.4-4.1-0.3c-0.7-0.8-0.5-2.8,0-4.1c0.9-2.8,2.3-5.4,3.5-8.1
		c-2.4,2.2-3.7,4.9-5.5,7.4c-0.9,1.2-2.4,2.4-3.8,2.5c-0.7,0.1-1.9-2-2.5-3.2c-3.1-7.4-5.9-14.8-9-22.2c-0.5-1.2-1.4-2.2-2.1-3.3
		c2.1,9,5.3,17.3,8,25.8c0.6,1.8-0.5,4.1-0.8,6.2c-0.4,2.3-1,4.5-1.2,6.8c-0.1,1.7,0.2,3.4,0.4,5.7c3.2-3.8,4.1-0.5,5.1,2
		c1.2-1.2,2-2,3.3-3.2c7.7,15.9,15.1,31.3,22.6,46.7c0.4,0.7,0.8,1.5,1,2.3c0.2,0.6,0.6,1.4,0.3,1.9c-2.4,4.9-2.5,11.1-8.7,14
		c-3.5,1.7-6.2,4.9-9.3,7.4c4.9-3.4,9.8-6.8,14.8-10.1c1-0.6,2.7-1.2,3.5-0.7c0.7,0.4,1.1,2.4,0.9,3.4c-2.8,11.3-5.8,22.5-8.8,33.7
		c-0.8,3-6.6,5.7-9.7,4.8c-2.2-0.6-4.4-1.2-6.6-1.8c0.9,0.6,1.9,1.3,2.9,1.7c7,3.1,7.9,7.5,2.7,13.2c-7,7.6-13.9,15.2-20.9,22.8
		c-5.2,5.7-10.5,11.4-16.1,17.6c-0.6-2-1-3.1-1.2-3.7c-1.9,1.3-3.6,2.6-5.5,3.8c-4.1,2.4-5.8,6.6-4.2,10c1.2,2.8,2.1,5.8,2.9,8.1
		c0.2-0.2,1.1-1.4,3.1-3.9c0.3,8.9,0.5,16.5,0.8,24c1.1-8.5,0.5-17,3-26.6c2.2,2.5,3.5,3.8,4.6,5.2c8.3,10.9,16.5,21.8,24.7,32.7
		c4.7,6.2,4.2,9.8-1.9,14.6c6-1,8.1,0.5,6.7,5c-8.1,25.7-16.2,51.4-24.4,77.1c-0.4,1.1-1.1,2.1-2.3,4.4c-1.2-7.9-2.2-14.3-3.3-20.8
		c-0.3,4.9,0.2,9.7,0.8,14.5c0.5,3.6,0.4,6.6-3,9.3c-2.3,1.8-4.1,4.7-1.6,8.3c1.7,2.5,2.7,5.6,3.8,7.8c0.4-0.7,1.4-2.6,2.9-5.3
		c0.8,2.3,1.3,3.5,1.6,4.8c4.6,21,9.3,41.9,13.8,62.9c0.9,4.4-2.2,8.2-6.8,8c-7.3-0.2-14.6-0.6-21.9-1.3c-1.5-0.1-3.8-1.4-4.2-2.6
		c-1.3-3.7-1.9-7.6-2.7-10.9c-0.3,0.7-0.9,2.4-1.8,4c-0.6,1-1.8,2.3-2.7,2.3c-0.9,0-1.9-1.4-2.6-2.4c-1-1.5-1.9-3.1-2.8-4.7
		c-0.5,0.1-0.9,0.3-1.4,0.4c3.3,4.5,3.4,8.6,0.3,13.3c-1.5,2.3-0.6,5.1,1.5,7.2c0.1,0.1,0.2,0.2,0.3,0.3c0.8,0.7,1.6,1.3,2.6,1.7
		c1.7,0.8,3.4,1.6,5.1,2.4c0.7-3.9,1.4-8.3,6.7-8.3c7.8,0,15.7,0.3,23.5,0.6c3.4,0.1,6.4,4.8,5.1,7.9c-7,15.7-14.1,31.3-21.2,46.9
		c-0.4,1-1.8,2.5-2.1,2.3c-4.6-1.9-4.9,3.1-7.2,4.5c-1.1,0.7-1.8,2.4-2.8,2.5c-2,0.2-4.1,0.5-6.2,0.7c0.4,0.9,0.8,1.8,1.1,2.7
		c1.1-0.1,2.2-0.2,3.3-0.2c1.2,0,2.9,0.7,3.6,1.7c0.4,0.6-0.3,2.5-1,3.4c-0.8,1.1-1.7,2.2-2.5,3.3c0.2,0.5,0.4,1,0.6,1.4
		c0.1,0.8,0.3,1.6,0.4,2.4c1.2-1.5,2.4-3,3.7-4.5c0.9-1.1,2.6-1.6,3.9-2.4c0.6,1.3,1.7,2.5,1.8,3.8c0.4,6.5,0.7,13,1,19.5
		c0.4,0.3,0.9,0.6,1.3,1c-0.2-7-0.5-14-0.6-21c0-1.6,0.6-4.1,1.8-4.7c1-0.6,3.3,0.6,4.7,1.5c3,1.8,5.9,3.9,8.9,5.9
		c-1.4,4.4-2.3,8.5,2.5,12c1,0.7,0.3,3.9,0.4,7c0.8-2.2,1-3.9,1.9-4.7c2.1-1.9,5.3-5.3,6.8-4.7c3.2,1.1,7,1.6,8.8,6
		c1.8-0.9,3.6-1.8,5.4-2.7c1.6-0.8,3.2-1.5,4.8-2.2c2.2-6.1,3.9-10.8,5.5-15.6c0.9-2.8,1.4-5.6,2.1-8.4c-2.7,6.4-5.7,12.6-7.8,19.1
		c-1.4,4.4-5.2,6.2-8.1,6.1c-3.3,0-7.8-2.4-9.5-5.2c-1.4-2.3-0.8-7.4,1-10c7-10.3,14.8-20,22.2-29.9c1.5-2,2.7-4.1,4-6.2
		c-8,9.8-16,19.5-23.9,29.3c-2.3,2.8-4.5,5.6-6.7,8.4l-1.6-0.4c0.2-5,0.2-10,0.6-15c1.4-16.9,2.9-33.8,4.4-50.7
		c0.6-6.7,3.9-8.7,10-6.4c3.3,1.2,6.6,2.3,9.9,3.4c-2.4-1.2-4.7-2.6-7.1-3.6c-7.8-3.4-10-8.6-6.4-16.3c7.2-15.7,14.5-31.4,21.9-47
		c0.6-1.3,1.5-2.4,3.4-3.4c1.1,7,2.3,13.9,3.3,20.9c2.1,15,4.2,30,6.2,45c0.3,2.1,0.8,4.3,0.6,6.4c-0.3,3.2-1.9,5.2-5.6,4
		c-3-1-6-1.8-9.1-2.6c2.4,1.1,4.7,2.2,7.1,3.3c3.9,1.7,5.4,7.1,2.9,10.8c-1.4,2.2-2.8,4.4-4.2,6.6c1.9-1.9,3.8-3.8,5.8-5.7
		c0.2,0.1,0.4,0.2,0.6,0.3c-4.1,11.1-8.3,22.1-12.4,33.2c-0.7,1.8-1.1,3.8-1.7,5.7c1.1-1.7,2.4-3.4,3.2-5.3
		c4.1-10.5,8.1-21.1,12.2-31.7c0.4-1,1-2,2.6-2.9c0.1,4.2,0.4,13.8,0.9,27.1c0,0,0.9,16.6,4.5,32.1c0.3,1.5,1,4,2.4,6.9
		c1.4,2.8,2.9,4.9,4,6.3c-3.4-12.3-5.8-21.4-6-22.3c-0.3-1.3-0.5-2.6-0.5-2.6c0,0,0,0,0,0c-0.5-2.6-0.5-5-2-16.3
		c-2.5-19.3-0.9-23.1-1.2-30c-0.1-3.6,3.8-9.3,7.2-10c7-1.4,14.1-2.5,21.2-3.4c1.3-0.2,3.5,0.6,4.1,1.7c0.6,1-0.2,3.1-0.8,4.4
		c-1.7,3.4-3.7,6.6-5.5,9.9c3.1-3.8,6.2-7.6,10-12.4c0.4,2.3,0.9,3.6,0.9,4.9c-0.1,3.8-0.2,7.6-0.2,11.4c0.5-0.2,0.9-0.4,1.4-0.6
		c0.2-3.8,0.4-7.6,0.6-11.4c0.2-3.1,0.6-6.3,5.1-3.7C254.6,2850.7,255.8,2846.2,254.1,2844.1z M204,1894.5
		c6.5,5.6,2.7,12.5,2.2,18.9c-0.2,2-0.7,3.9-1.1,5.8c-0.6,0.1-1.1,0.2-1.7,0.3c-3.1-12.1-6.2-24.2-9.3-36.2c0.5-0.3,1.1-0.5,1.6-0.8
		c3.3,3,9.1,3.8,7.9,10.5C203.6,1893.6,203.7,1894.3,204,1894.5z M174.7,1804.3c2.1,7.6,4.1,15.3,6.1,23c-0.7-5.1-1.4-10.1-2.2-15.2
		c0.2-0.1,0.4-0.2,0.6-0.2c9.2,25,18.4,50,27.6,75c-0.6,0.3-1.1,0.6-1.7,0.9c-2.9-3.2-8.6-3.9-8-10.3c0.1-1.2-1-3.3-2-3.7
		c-4.1-1.7-4.6-5.3-5.4-8.8c-2.4-10.7-4.7-21.4-7.2-32.1c-0.4-1.9-1.2-3.7-1.9-5.6c1.8,9.4,3.5,18.9,5.3,28.3c0.5,2.4,1,4.8,0.7,7.6
		c-1.6-3.8-3.1-7.5-4.7-11.3c-4.3-10.6-8.9-21.1-12.6-31.9c-1.7-5,1.6-10.6-0.3-16c-0.4-1.1,1.6-2.9,3.3-5.6
		C173.6,1801.1,174.3,1802.6,174.7,1804.3z M158.5,1836.5c-0.9,0.1-1.8,0.3-2.6,0.4c-5.7-14.2-11.4-28.5-17.1-42.7
		c0.4-0.3,0.8-0.7,1.3-1c2,0.9,4,1.8,6,2.8c-1.6-2.6-3.2-5.1-4.6-7.7c-0.7-1.3-0.8-3.2-1.9-3.9c-3.6-2.4-3.7-5.9-3.8-9.6
		c-0.7-21.3-1.4-42.5-1.5-64c9.3,31.5,18.6,63.1,27.9,94.6c-0.4,0.3-0.9,0.6-1.3,1c-1.5-0.5-2.9-1-4.4-1.4c0.7,1.6,1.6,3.1,2.2,4.7
		c0.4,1.1-0.1,2.7,0.6,3.4C166.9,1821.4,157.5,1828.5,158.5,1836.5z M155.6,1709.3c-0.4,9.9,0.5,19.8,0.8,29.8
		c-0.7,0.2-1.3,0.3-2,0.5c-1.5-2-3-3.9-4.5-5.9c0,0,0,0,0,0.1c0.8,3.6,3.5,7,0.3,11c-0.6,0.7,1.5,3.9,2.6,5.8c1.2,2.1,3.5,4,3.8,6.3
		c1.9,12.8,3.5,25.6,4.3,38.7c-8.1-27.7-16.2-55.4-24.4-83c0.3-0.1,0.6-0.3,0.8-0.4c4.2,7.2,8.3,14.5,12.5,21.7
		c-4.1-8.5-8.4-17-12.3-25.6c-0.8-1.8-0.9-4.4-0.3-6.3c1-3,0.3-5-1.7-7.2c-1.1-1.2-2.4-3.1-2.3-4.5c2.2-23.3,4.7-46.7,8.1-70
		c1.5,8.4,3,16.9,4.5,25.3c2.2,12.8,4.5,25.6,6.7,38.4c1.1,6.8-2.1,11.8-8.6,13.6C151.5,1697,155.9,1701.9,155.6,1709.3z
		 M156.7,1702.5c0.5-0.1,1.1-0.3,1.6-0.4c3.5,6.5,7.5,12.7,10.2,19.4c2,5-3,15.9-7.7,18.7c-0.7,0.4-3.4-0.8-3.4-1.3
		C157,1726.9,156.9,1714.7,156.7,1702.5z M158.7,1757.5c0.3-0.1,0.6-0.2,0.9-0.4c0.7,1.8,1.3,3.7,2,5.5c2.5,7.2,5.2,14.4,7.5,21.6
		c0.5,1.5-0.4,3.5-0.5,5.3c-0.2,2.3-1.3,5.2-0.3,6.8c2.8,4.2-0.1,6.1-3.3,8.5C162.8,1789,160.8,1773.3,158.7,1757.5z M172.4,1736.7
		c0.1,15.9,0.1,31.8,0.2,47.7c-0.5,0.1-1.1,0.2-1.6,0.3c-3.6-10.3-7.4-20.5-10.7-30.9c-0.6-1.9,2.2-4.8,1.6-6.8
		c-1.9-6.4,3.4-8.7,6.4-12.3c0.6-0.7,2.2-1.4,2.9-1C171.9,1734.2,172.4,1735.7,172.4,1736.7z M169.1,1652
		c0.8,22.9,1.5,45.7,2.3,68.6l-0.8,0.5c-3.4-6.2-6.8-12.3-10-18.5c-0.4-0.8,0.4-2.2,0.4-3.3c0.1-1.6,0.7-3.8-0.1-4.7
		c-3.4-4-1.9-8.1-0.9-12.2c2.4-10.2,5-20.3,7.5-30.4C168.1,1651.9,168.6,1651.9,169.1,1652z M140.1,1568c6.5-0.1,12.9,0.1,19.4,0.3
		c4.6,0.1,6,2.8,3.6,6.9c-3.7,6.3-7.5,12.5-11.2,18.8c4.9-6.8,9.7-13.7,15.2-21.4c0.4,2.1,0.7,3.2,0.7,4.2
		c0.1,17.6,0.3,35.3,0.3,52.9c0,1.5-0.9,3-1.4,4.5l-4.8-1.6c0.5,1.7,0.9,3.4,1.4,5.1c0.7,2.4,1.4,4.8,2.1,7.2c0.4,1.2,1.2,2.5,1,3.6
		c-3.1,13.1-6.3,26.1-9.5,39.2c-0.1,0.3-0.4,0.5-1.4,1.6c-4.4-24.7-8.6-48.7-12.8-72.8c0.5-0.3,1-0.6,1.6-0.9c2,1.7,4.1,3.4,6.1,5.2
		c-5.8-7.2-5.9-14.8-1.5-22.7c-1,1.1-1.8,2.4-2.9,3.4c-1.2,1.2-2.6,2.2-4,3.3c-1.2-1.6-2.9-3.1-3.5-4.9c-2.3-6.7-4.3-13.6-6.4-20.4
		C129.9,1571.9,132.4,1568,140.1,1568z M120.8,1559.2c-8.4-8.3-16.7-16.7-24.9-25.2c-3.7-3.8-3.5-10.7,0-14.7
		c5.7-6.5,11.4-13,17-19.5c1-1.2,1.7-2.7,2.6-4.1c3.7-3.8,7.4-7.7,11.2-11.5c1.3-1.4,2.7-2.7,5.1-5.2c0.3,3.1,0.7,4.8,0.6,6.5
		c-1.6,23.7-3.3,47.4-5.1,71.1c-0.1,1.5-1.1,3.5-2.3,4.2C124.1,1561.3,121.8,1560.2,120.8,1559.2z M113.5,1607.7
		c4.2-11.3,8.5-22.6,12.8-33.9c0.5,0,1.1-0.1,1.6-0.1c0.6,1.3,1.3,2.5,1.7,3.8c2.1,6.5,3.8,13.1,6.3,19.4c1.9,4.7,1.2,8.4-1.5,12.3
		c-1.8,2.6-18.1,4.6-20.1,2.2C113.7,1610.4,113.1,1608.7,113.5,1607.7z M126.3,1694.4c-0.9,0.6-1.7,2.6-1.3,3.5c2.1,5-1.8,6.7-4.6,9
		c-2.5,2.1-4.3,1.2-5.2-1.6c-0.4-1.1-0.5-2.3-0.6-3.4c-1.2-23.6-2.5-47.2-3.6-70.8c0-0.5,0.2-0.9,0.3-1.4c0.4-0.1,0.8-0.1,1.2-0.2
		c3,11.4,6.1,22.8,9.1,34.1c2.1,7.9,4.2,15.8,6.3,23.7C128.5,1689.9,129.2,1692.4,126.3,1694.4z M131.9,1688.1
		c-0.1,0.6-0.3,1.2-0.5,1.8c-0.3,0-0.7,0.1-1,0.1c-2.4-8.4-4.8-16.9-7.1-25.3c-3.5-12.8-6.9-25.7-10.2-38.6
		c-1.8-6.9,1.8-11.8,8.9-12.7c3-0.4,5.9-1,8.9-1.2c5.4-0.4,8.8,3.1,8.2,8.5C136.9,1643.2,134.4,1665.7,131.9,1688.1z M122.1,1832.2
		c3.8-12.2,8-24.3,12-36.4c0.2-0.5,0.8-1,1.6-2c1,1.6,1.9,2.7,2.4,4c4.8,12,9.7,24,14.4,36.1c1.4,3.5-1.5,7.7-5.2,7.5
		c-6.8-0.4-13.6-1-20.3-1.9C123.2,1838.9,120.9,1836,122.1,1832.2z M164.5,1923.1c-3.7-3.2-7.4-6.3-11.1-9.5
		c-14-12.3-27.9-24.7-41.9-37c-6.2-5.5-7-10.2-2.7-17.5c1.3-2.3,2.7-4.6,4-6.9c3.8-6.8,5.9-6.9,9.8-0.4
		c10.5,17.2,20.8,34.5,31.2,51.7c3.8,6.3,7.7,12.6,11.5,19C165.1,1922.5,164.8,1922.8,164.5,1923.1z M169.6,1921.9
		c-0.3,0.1-0.6,0.2-0.9,0.3c-6.9-11.5-13.8-23.1-20.7-34.6c-7.6-12.7-15.3-25.4-22.8-38.1c-3.5-5.9-2-8.3,4.8-8.1
		c3.8,0.1,7.6,0.3,11.5,0.6c10,0.8,15.5,5.8,17.3,16c3.7,20.8,7.3,41.6,10.9,62.5C169.7,1920.9,169.6,1921.4,169.6,1921.9z
		 M172.2,1923c-3.8-22.2-7.7-44.3-11.5-66.5c0.3-0.1,0.6-0.2,0.9-0.3c1.6,4.5,3.2,9,4.9,13.5c2.4,6.4,4.8,12.7,7.2,19.1
		c1.1,3,2.7,5.9-0.6,9.1c-1,1-0.3,5.5,1,6.5c3.2,2.4,2.7,5,2,7.9c-0.8,3.5-1.6,7.1-2.4,10.6C173.2,1922.9,172.7,1922.9,172.2,1923z
		 M219.3,2003c-1.9,6.8-3.7,13.6-5.6,20.4c-0.5,0.1-1.1,0.2-1.6,0.2c-4.3-9.5-8.7-18.9-13-28.4c2.5,6.9,5,13.7,7.6,20.5
		c1,2.6,2,5.2,2.9,7.8c-0.3,0.3-0.7,0.6-1,0.9c-1.7-1.4-3.4-2.6-5.1-4.1c-3.5-3.1-6.8-6.4-10.3-9.4c-3-2.5-6-4.7-5.4-9.4
		c0.1-1.1-0.8-2.8-1.8-3.4c-4.8-3-5-7.8-5.6-12.7c-1.5-11.9-3.1-23.8-4.6-35.7c-0.3-2-0.2-4.1,0.8-6.4c3.2,6.8,6.5,13.6,9.7,20.4
		c-2.8-7.6-5.6-15.2-8.4-22.7c0.2-0.1,0.4-0.3,0.6-0.4c9.8,10.7,19.6,21.4,29.4,32.1c-8.7-10.7-17.4-21.4-26.1-32
		c-1.9-2.3-4-4.4-2.8-7.9c0.3-1-0.4-2.5-0.9-3.7c-0.8-1.9-2.8-3.8-2.6-5.5c0.6-5.6,2-11.1,3.2-16.7c0.5,0,1,0,1.5,0
		c0.7,1,1.7,1.9,2.2,3c11.2,22.6,22.4,45.3,33.5,67.9c0.6,1.2,1,2.4,1.5,3.7c-0.5,0.1-1.1,0.2-1.6,0.3c0.5,2.8,1,5.5,1.5,8.3
		c0.2,1.3,0,3.2,0.8,3.7C221.7,1996.4,220.2,1999.7,219.3,2003z M229.6,1978c1.8,4-1.1,6.5-3.6,7.6c-3.3,1.4-4.2-2.1-5.1-4.6
		c-1.9-5.3-3.8-10.6-5.7-15.9c1.2,4.6,2.5,9.2,3.7,13.8c-0.2,0.1-0.5,0.2-0.7,0.3c-11.6-23.6-23.3-47.3-34.9-70.9
		c0.3-0.2,0.6-0.5,1-0.7c2.1,1.7,4.2,3.5,6.3,5.2c-5.3-4.2-6.2-10.6-7.7-16.5c-0.4-1.5,0.6-3.4,0.9-5.1c-1.6,1.1-3,2.8-4.8,3.3
		c-0.7,0.2-2.5-2.3-3.1-3.8c-4.9-12.9-9.7-25.8-14.4-38.8c-0.3-0.9-0.4-1.9-0.9-4.2c3.7,3.2,6.3,5.5,8.9,7.9
		c-11.1-12.4-10.6-27.4-3.7-39.5c7.6,18.8,14.8,37,22.6,56.3c-2.7-1.8-4.3-2.8-5.9-3.9c2,2.5,3.8,4.8,3,8.7
		c-0.5,2.3,1.4,5.1,2.3,7.6c2.4-2.1,4.5-1.6,5.2,1.3c3,11.2,5.8,22.4,8.6,33.6c0.1,0.4-0.2,0.9-0.5,1.9c-2-1.4-3.9-2.6-5.7-3.9
		c2,2.6,4,4.9,3.3,8.8c-0.3,1.5,1.6,4.6,3,4.9c4.3,1.1,4.9,4.4,6,7.6c1,2.8,2,5.5,3,8.3c-0.8-3.8-1.6-7.6-2.5-11.5l0.9-0.4
		c4.7,7.5,9.5,15,14.2,22.6c1.7,2.7,3.2,5.4,4.9,8.1c1.5,2.4,3.1,4.6,1,7.7C228.6,1974.7,229,1976.7,229.6,1978z M230.3,1965.4
		c-0.7-0.8-1.6-1.6-2.2-2.5c-5.8-9.3-12.3-18.2-17.2-28c-2.7-5.5-3.3-12.3-3.6-18.5c-0.2-4.9,1.5-9.8,2.5-14.7
		c0.1-0.4,0.5-0.7,1.4-2c6.8,22.2,13.3,43.7,19.9,65.1C230.8,1965,230.6,1965.2,230.3,1965.4z M249.6,2438.7c5.3,3.7,6.4,8,4.5,12.8
		c-0.7,1.6-0.1,3.8,0,5.6c0.1,2.1,1.1,4.6,0.4,6.4c-4.5,12-9.3,23.8-14,35.7c-0.2,0.6-0.7,1.1-1.1,1.6c-0.3-0.1-0.5-0.2-0.8-0.2
		C242.3,2480.1,245.9,2459.6,249.6,2438.7z M237,2721.4c-3.3,12.7-6.3,25.5-9.5,38.2c-2.4,9.8-4.8,19.6-7.2,29.4
		c-0.5,0-1-0.1-1.6-0.1c-0.3-9.4-0.6-18.9-0.9-28.3c-0.4-11.1-0.7-22.3-1.1-33.4c-0.4-9.1,8.8-14.3,16-13.4
		C236.1,2714.2,238.1,2717.2,237,2721.4z M238.4,2652.3c0.5,0.1,1,0.2,1.5,0.3c0.1,3.6,0.4,7.2,0.3,10.8
		c-0.1,12.5-0.1,24.9-0.5,37.4c-0.2,6.7-11.3,14.9-17.6,13c-3.2-1-3.6-3.7-2.5-6.9c5-14.3,9.8-28.6,14.7-42.9
		C235.7,2660,237.1,2656.2,238.4,2652.3z M237.1,2631.9c0.6,1.6-0.5,3.8-0.8,5.8c-0.1,0.4-0.8,0.8-0.8,1.2c0.7,9.2-7.9,12.1-12,18
		c4.4-3.5,8.7-6.9,13.1-10.4c0.5,0.3,1,0.6,1.5,0.8c-7.1,20.8-14.1,41.6-21.2,62.4c-0.5,0-1-0.1-1.6-0.1c-1.5-8.6-2.9-17.2-4.5-25.8
		c-1.6-8.3,2.2-14.9,6.5-21.4c-2,1.1-3.9,2.2-5.9,3.3c-0.6-0.2-1.1-0.5-1.7-0.7c4.5-22,9-44,13.5-65.9c0.4-0.1,0.8-0.1,1.2-0.2
		c0.7,1.3,1.6,2.6,2.1,4.1C230.2,2612.5,233.8,2622.2,237.1,2631.9z M235.4,2523.6c0.4,0,0.8,0,1.2,0c2.3,10.5,4.6,20.9,6.7,31.5
		c0.2,1-0.8,2.3-1.4,3.4c-0.8,1.6-2.7,3.6-2.2,4.7c2.3,5.6-1.8,8.6-4.3,12.2c-2.6,3.7-5.5,7.2-8.3,10.8c-0.4-0.2-0.9-0.4-1.3-0.6
		C228.9,2564.9,232.1,2544.3,235.4,2523.6z M218.7,2551.9c5.4-5.7,1-14.7,6.9-20.5c2.9-2.8,4.6-6.7,7.7-9.7
		c-3.1,19.9-6.2,39.8-9.3,59.7c-0.5,0-0.9,0-1.4,0c-1.3-9.5-2.6-19-3.9-28.5C218.7,2552.5,218.5,2552,218.7,2551.9z M190.6,2537.3
		c3-11.9,6.2-23.8,9.4-35.6c0.1-0.4,0.6-0.7,1.5-1.8c4.1,12.9,8.1,25,11.9,37.2c0.9,2.8-2.5,7-5.6,7.2c-3.6,0.3-7.3,0.4-11,0.4
		C193.8,2544.6,189.9,2540.1,190.6,2537.3z M187.6,2556.8c0.6-6.4,5.6-11,12-11.3c2.3-0.1,4.7-0.2,7-0.2c4.7,0,7.6,4,6.2,8.6
		c-3.3,10.6-6.7,21.2-10,31.8c4.2-11.6,8.5-23.2,12.7-34.7c0.5,0.1,1,0.1,1.5,0.2c1.1,7,2.2,14,3.2,21c0.4,2.8,0.4,5.6,0.9,8.4
		c0.6,3.2,1,6-2.1,8.5c-1.1,0.9-1.9,3.7-1.3,4.9c1.6,3.3-0.2,5.2-1.8,7.5c-4.3,6.3-8.4,12.7-12.5,19c5.6-7.2,11.1-14.4,16.7-21.6
		c0.3,0.1,0.6,0.2,0.9,0.4c-1.5,7.9-3,15.8-4.6,23.6c-2.4,11.6-4.8,23.1-7.2,34.7c-1.5,7.1-1.5,7.1-8.5,10.4
		c1.1,2.7,2.2,5.5,3.2,8.3c0.3,0.9,0.5,2,0.2,2.8c-7.4,21.6-14.8,43.1-22.3,64.6c-0.1,0.4-0.6,0.6-1.5,1.4
		c-0.1-4.5-0.3-8.4-0.4-12.3c-0.3-22.5-0.7-45-0.8-67.5c-0.1-6.3,1.9-7.7,7.7-6.1c-4.1-4.2-4.4-9.3-0.9-14.3
		c1.9-2.7,3.5-5.6,5.3-8.3c-2.8,3.2-5.6,6.5-8.4,9.7c-0.2-0.1-0.5-0.2-0.7-0.3c2.7-8,5.4-16,8.1-24c-2.3,5.1-4.5,10.3-6.8,15.4
		c-1,2.3-1.8,4.6-3.6,6.7c0.2-3.5,0.4-7,0.7-10.4C182.8,2608.2,185.1,2582.5,187.6,2556.8z M172.4,2645.9
		c-9.1-11.7-18-23.5-26.9-35.3c-2.6-3.4-2.6-12.7,0.1-15.9c12.1-13.9,24.4-27.7,36.6-41.6c0.6-0.7,1.6-1,2.3-1.6l1.5,0.5
		c-0.5,7.4-1,14.8-1.6,22.2c-2.1,23.4-4.3,46.7-6.6,70.1c-0.1,1.5-1.1,2.9-1.6,4.3C174.9,2647.7,173.3,2647.1,172.4,2645.9z
		 M151.3,2742.7c2.6-9.1,5.4-18.2,8.3-27.2c4.7-15.1,9.5-30.1,14.4-45.2c0.7-2.1,1.5-4.2,2.3-6.3c0.3,0.1,0.5,0.2,0.8,0.2
		c0.3,9.8,0.8,19.5,0.9,29.3c0.3,16.2,0.5,32.3,0.7,48.5c0.1,5.6-4.4,10.3-10,10.5c-3.3,0.1-6.7-0.1-10-0.2
		C153.1,2752,149.8,2748,151.3,2742.7z M162.2,2872.2c-1,11.8-2.3,23.5-3.1,35.3c-0.3,4.5-2,7.1-6.3,7.9c-0.9-1.1-1.6-2.6-2.8-3.1
		c-7.1-3.4-8.2-10.1-9.1-16.8c-0.2-1.1,0.2-2.3,0.7-3.3c7-15.5,14-30.9,21.1-46.4c0.1-0.2,0.5-0.4,1.6-1.1
		C163.5,2854.3,163,2863.3,162.2,2872.2z M166.5,2825.2c-0.2,0.9-0.5,1.8-0.7,2.7c-0.3,0-0.6,0-1,0c-2.3-10.3-4.7-20.5-7-30.8
		c-2.5-11.2-5-22.4-7.5-33.6c-1.5-6.5,1.6-10.4,8.2-10.2c2.2,0.1,4.3,0.2,6.5,0.1c9.3-0.1,13.1,4.1,11.6,13.3
		C173.3,2786.3,169.9,2805.7,166.5,2825.2z M190.4,2781.6c-6.9,15-14,30-21,45.1c-0.4-0.1-0.8-0.2-1.2-0.3c1-6.5,1.9-13.1,3-19.6
		c2.4-14.4,5-28.8,7.4-43.2c0.7-4,2.4-6.1,6.6-5.4c1.4,1.3,3,2.5,4.1,4c1,1.5,1.6,3.5,2.1,5.3c0.3,0.9-0.4,2.3,0.1,2.9
		C195,2774.5,192.1,2778,190.4,2781.6z M190.4,2761.3c-1.6-1.2-3.5-2.2-5.2-3.3c-1.6-8,2.3-13.6,8.1-18.3c-3.2,2.5-6.5,5-9.7,7.6
		c-0.4-0.2-0.8-0.3-1.2-0.5c7.9-23.2,15.8-46.4,23.8-69.5l1.5,0.2c1.7,10.5,3.5,21,5.1,31.6c0.1,0.9-0.9,2-1.4,3
		c-0.7,1.3-2.3,2.8-2,3.8c1.5,6.1-3,8.9-6.3,12.4c-2.4,2.5-4.6,5.2-6.8,7.9c4.9-4.5,9.8-9,15.6-14.4c-0.9,4.6-1.6,8.1-2.4,11.6
		c1.4-2.6,2.7-5.2,4.5-8.6c0.8,23.5,1.5,46.2,2.3,68.9c-0.3,0.1-0.6,0.3-1,0.4c-3.4-5.2-6.8-10.3-10.3-15.4
		c-1.2-1.8-2.8-3.3-4.2-4.9c0,0,0,0,0,0c2-3.6,3.8-7,0.2-10.9c-0.6-0.7,0-2.8,0.5-4.1c2.3-6.7,4.8-13.4,7.1-20.1
		c0.6-1.7,0.7-3.5,1.1-5.3c-1.7,4.2-3.6,8.4-5.2,12.7c-1.7,4.3-3,8.8-4.7,13.1C198,2763.4,194.2,2764.2,190.4,2761.3z M209.2,2844.1
		c-0.4-1.2-0.9-2.5-1-3.7c-2.9-20.8-5.8-41.5-8.5-62.3c-0.2-1.4,0.8-3,1.2-4.5c3.2,5.3,6.4,10.6,9.7,15.9c1.9,3.1,4.1,5.9,2,10
		c-0.6,1.2-0.2,4.1,0.7,4.6c3.9,2.3,2.4,5.4,1.9,8.4C213.5,2822.9,211.7,2833.4,209.2,2844.1z M238.7,2849.1
		c-6.7,1.2-13.5,2.1-20.3,3c-3.1,0.4-7-3-6.6-5.7c2.1-13.1,4.5-26.2,6.8-39.3c0-0.3,0.4-0.5,1.3-1.3c1,1.1,2,2,2.7,3
		c6.7,10.3,13.4,20.7,20,31.1C245.8,2844.5,244.3,2848.1,238.7,2849.1z"/>
	<path d="M171.1,1539c0.6-12.1,1.2-24.2,1.8-36.4c0.2-3.2,0-5.9-2.7-8.5c-2.2-2.1-3.4-5.2-0.3-8.3c1-1,1.2-3.2,1-4.8
		c-0.3-2.6-1.3-5-1.2-7.8c1.6,4.2,3.3,8.4,4.9,12.6c0.7,0,1.3-0.1,2-0.1c3.5-5.8,7.9-11.2,10-17.5c1-3.1-2.3-7.7-3.6-11.6
		c3.3,0.7,7,2.2,7.2-3.5c1.7-0.1,3.3-0.1,5-0.2c-0.2,1.1-1,2.7-0.5,3.4c5.8,8.7-5.4,18.1,3.1,26.6c-0.7,0.1-1.4,0.1-2.1,0.2
		c-0.7-1.8-1.3-3.6-2-5.4c-0.4,0.1-0.7,0.1-1.1,0.2c-0.1,1.7-0.3,3.5-0.3,5.2c0,23.6-0.2,47.2,0.4,70.8c0.2,7.3,2.9,14.6,4.2,21.9
		c0.4,2.1-0.1,4.4-0.7,6.5c-0.9,2.8-2.3,5.3-3.7,8.4c-0.7-1.2-1.3-2.1-2.3-3.7c-2.9,6.5-5.5,12.4-8.1,18.4c0,0,0.1,0.1,0.1,0.1
		c1.6-5.4,3.2-10.7,4.9-16.1c1.1-3.4,2-6.4-0.4-9.9c-1-1.4-1-5.1-0.1-5.8c4.1-3,2.7-6.6,2-10.3c-0.9-4.9-1.7-9.8-2.6-14.7
		c1.4,4.4,2.8,8.7,4.2,13c0.4-0.1,0.9-0.2,1.3-0.3c-0.3-30.9-0.5-61.8-0.8-92.7c-0.6-0.1-1.3-0.3-1.9-0.4c-2.4,3.9-4.8,7.8-7.2,11.7
		c-2,3.2-4.6,6.2-1.9,10.4c0.6,0.9-0.4,2.7-0.7,4.2c-0.5,2.4-1.5,4.8-1.4,7.2c0.1,3.1,1.2,6.2,1.7,9.3c2.3,12.6,4.5,25.2,6.8,37.7
		c-3.5-16.3-7.1-32.6-10.6-48.9c-1.1,2.9-1.4,5.7-1.7,8.4c-1,10.1-2,20.1-3,30.2L171.1,1539z"/>
	<path d="M203.2,1452.8c0.1,13-0.3,26,0.4,39c0.4,7.3,2.2,14.6,3.9,21.8c1.4,6-3.6,7.5-5.9,10.7c-1.4-2.2-3-4.1-3.9-6.3
		c-0.8-1.9-2-5.1-1.2-5.9c4.1-3.9,1.6-8.7,2.7-12.8c4.2-15.5,0.3-31.1,1.9-46.5C201.8,1452.8,202.5,1452.8,203.2,1452.8z"/>
	<path d="M190.4,1781c3.1,9.8,6.1,19.6,9.5,29.4c0.7,2.1,2.9,3.7,4.3,5.6c1.3,1.8,3.6,3.9,3.4,5.6c-0.5,4.6-2.1,9.1-3,12.8
		c-2.4-3.2-5.4-6.2-7.2-9.8c-1.1-2.1-0.7-5.2-0.6-7.8c0.1-2.2,1.4-4.6,0.9-6.6c-2-8-4.6-15.9-6.9-23.9
		C190.4,1784.6,190.6,1782.7,190.4,1781C190.5,1780.9,190.4,1781,190.4,1781z"/>
	<path d="M277.1,2037.9c1.3,1.1,2.6,2.1,3.8,3.2c2.5,2.5,5.1,4.9,7.4,7.6c1.4,1.7,3.1,3.8,3.1,5.8c0,3.8-1,7.7-1.5,10.5
		c-2-1.9-4.8-4.1-7.1-6.6c-1.3-1.4-3.2-3.8-2.7-4.8c2.5-6-1.3-10.1-3.9-14.6C276.4,2038.6,276.8,2038.2,277.1,2037.9z"/>
	<path d="M306.7,2209.9c4.2-8.3,0.5-15.9-2.3-23.6c1.6,1.5,3.3,3,4.9,4.5c0.5-0.2,1-0.3,1.5-0.5c0.3-3.8,0.5-7.6,0.7-11
		c6.6,16.3,6.6,16.3,3.9,23.6c-2.8-2.6-4.2-1-5.5,1.7C309.1,2206.4,307.8,2208.1,306.7,2209.9z"/>
	<path d="M251.3,1987.5c0.5-1.3,1.6-2.9,1.3-4c-0.9-3.1-2.4-6-3.7-9c2.1,2.8,4.3,5.6,6.8,8.9c0.7-1.7,1.1-2.8,1-2.7
		c1.4,2.1,3.3,4.7,5,7.5c0.9,1.5,1.5,3.2,1.8,4.9c0.4,2.2,0.4,4.4,0.6,6.8C258.5,2001.1,252.1,1995.2,251.3,1987.5z"/>
	<path d="M210.5,1586.2c-1.5,0.9-2.8,2.4-4.2,3.5c0.3,1.3,0.8,2.6,1.5,3.7C208.6,1591,209.5,1588.6,210.5,1586.2z"/>
	<path d="M229,2174.1c-2.1-6.5-4.2-12.9-6.4-19.4c-0.7-2.1-1.6-4.1-2.4-6.1c-0.4,0-0.9,0-1.3,0c-1.1,2.8-2.2,5.7-3.3,8.5
		c-0.3-0.1-0.6-0.1-0.9-0.2c0.3-1.4,0.5-2.9,0.9-4.3c1.4-5.5-1.7-9.4-7.3-9.1c-2.8,0.2-5.7,0.3-8.5,0.4c-0.2,0-0.3-0.1-0.7-0.3
		c3.5-0.6,6.7-0.9,10-1.6c4.2-0.9,5.7-4.8,3-8.2c-12.4-16.1-24.9-32.1-37.4-48.1c-0.9-1.2-2.9-3.1-3.6-2.8c-2.4,1-5.2-0.2-7.1,3.7
		c-8.6,18.2-18.1,36-27,54.1c-1.2,2.5-1.3,6-1,8.9c0.4,3.9-2.1,8.9-5.8,9.9c-3.4,0.9-8.6-2.2-9.4-5.6c-1.1-4.7,1.2-10,5.4-10.3
		c4.6-0.3,6.3-3,8-6.4c9-18,18.1-36,27.1-54c0.6-1.3,1-3.7,0.3-4.5c-4-4.7-1.5-8.1,1.6-11.7c0.8-0.9,1.2-2.2,1.8-3.4
		c8,2.4,10.3,8.6,10.5,16.2c0,0.9,0.8,1.8,1.4,2.6c12.4,16.7,24.8,33.4,37.2,50.1c0.8,1.1,1.4,2.2,2.1,3.4c0.6-0.3,1.1-0.5,1.7-0.8
		c0.4-1.5,1.1-2.9,1.2-4.4c0.7-7.5,1.4-14.9,1.6-22.4c0.1-1.9-1.1-4.2-2.4-5.8c-2.3-3-3.7-5.6-0.5-9.1c0.9-1,0.7-3.7,0.1-5.3
		c-6.7-16.1-13.7-32.2-20.5-48.3c-1.5-3.5-2.7-7.2-4-10.7c6,13.2,11.9,26.3,17.8,39.5c2.5,5.6,5.1,11.2,7.6,16.8
		c0.4-0.1,0.7-0.3,1.1-0.4c-0.1-4.3-0.3-8.5-0.4-12.8c1,5,2,10.1,3.1,15.1c1.3,5.9,3.1,6.4,8,2.6c-2.2,2.8-3,13.4-1.2,16.5
		c6.9,12.1,13.9,24.2,20.8,36.3c0.8,1.3,1.7,2.5,3,4.4c0.4-1.5,0.6-2,0.6-2.4c-0.2-24.4-0.3-48.8-0.6-73.3c0-4.5-1-4.8-5.5-1.8
		c1.8-5.7,1.7-12-6.2-17.2c2.6,1.6,5.3,3.2,7.9,4.9c0.3-0.2,0.7-0.4,1-0.6c-1.9-5.5-3.8-11-5.7-16.5c1.7,3.2,3.4,6.3,5.2,9.5
		c0.2-0.1,0.4-0.2,0.6-0.3c-0.5-3.3-1.1-6.5-1.6-9.8c1.1,3.7,2.1,7.3,3.2,11c0.6,1.9,0.9,4.7,2.2,5.3c4.5,2.1,5.5,5.8,5.1,9.9
		c-1.2,1.4-2,2.9-2.2,4.5c-0.1,1.8,0.4,3.6,0.7,5.4c-0.8-1.4-1.6-2.7-2.4-4.1c-0.4,24.3-0.1,48.4,0.4,72.4c0,1.2,1.1,2.6,2.1,3.6
		c3.7,3.7,3.6,6.3,0.1,9.8c-1.1,1.1-1.8,3.1-1.8,4.7c0.4,16.6,1,33.3,1.5,49.9c0.2,4.7,0.3,9.5,0.5,14.2c-0.4,0-0.8,0-1.2,0
		c-0.7-21.8-1.4-43.5-2.2-65.3c-4.7,12-8.1,24.1-11.6,36.2c-0.9,3-1.9,6,0.9,8.8c0.8,0.8,0.9,3.3,0.2,4.1c-2.8,3.5-1,6.6,0.2,9.8
		c1.3,3.6,2.6,7.2,3.9,10.7c-2.7-5.3-5.4-10.5-8-15.8c-0.5,0-1.1,0.1-1.6,0.1c-5.5,36.3-10.9,72.7-16.4,109c0.5,0.1,0.9,0.2,1.4,0.3
		c3.6-6.3,7.2-12.5,10.8-18.8c-2.8,6.2-5.8,12.3-8.3,18.6c-0.8,2-0.1,4.6-0.3,6.9c-0.2,2.4,0.2,5.9-1.1,6.8c-3,2-2.5,4.4-2.3,7
		c0.5,6.4,1.1,12.9,1.7,19.3l0.1-0.1c-1.1-6.3-2.3-12.7-3.4-19c-0.3-1.6-0.7-3.1-1-4.6c-0.6-0.2-1.1-0.3-1.7-0.5
		c-8,15.4-16,30.9-23.9,46.3c-0.4-0.2-0.7-0.4-1.1-0.6c4.5-9,8.9-18,13.4-27c2.6-5.2,5.2-10.4,7.6-15.7c0.6-1.4,1-4,0.2-4.8
		c-0.9-0.9-3.3-0.9-4.9-0.7c-3.1,0.5-6,1.5-9.3,1.2c2.5-0.7,4.9-1.4,7.4-2c6.6-1.7,8.6-6.3,4.8-12c-4.8-7.2-9.7-14.3-14.7-21.4
		c-2.9-4.2-7-4.5-10.2-0.6c-7.2,8.7-14.2,17.6-21.3,26.4c-4.8,6-9.5,12-14.3,18c-1.8,2.3-3.1,4.6,0.2,5.9c-1.3,2.2-2.3,4.4-3.7,6.3
		c-1.6,2-4,5.4-5.5,5.2c-2.9-0.5-6.2-2.6-7.9-5.1c-3.1-4.5,0.1-9.2,5.8-11.6c4.4-1.9,9.2-4.2,12.3-7.7c10.8-12.2,21-24.9,31.2-37.6
		c1.3-1.6,1-4.4,1.3-6.6c0.2-1.8-0.5-4.3,0.5-5.2c3.6-3.5,1.4-6.6,0-9.9c-1.6-3.7-3.1-7.3-4.7-11c-1.3-3-1.9-6-6.7-5.8
		c-1.7,0.1-4.4-3.7-5.4-6.2c-1.1-2.9-0.1-5.9,3.2-7.5c3.2-1.5,6.5-3.2,10-4.9c-0.5,13.6,0.2,27.4,9.2,39.4c1.3-0.5,1.6-4.4,4.3-1.9
		c0.8-1,1.8-2,2.4-3.1c11.5-20.9,22.9-41.7,34.3-62.6c2.2-4,0.3-8.4-4.2-9.4c-3.2-0.7-6.5-1.1-9.6-2.4c2.7,0.3,5.5,0.7,8.2,1
		c6.2,0.7,9.4-2.8,7.9-8.8c-2.1-8.1-4.3-16.1-6.4-24.1c3.2,9.3,6.3,18.6,9.5,27.8c1.8-2.3,2.6-4.4,3.2-6.6c3.3-11,6.6-22,9.7-33
		c0.5-1.7-0.5-3.8-0.9-5.6c-0.6-2.2-2.1-6.2-1.8-6.3c4.1-1.8,1.8-4,0.6-6c-7.1-12-14.2-24-21.4-36c-0.8-1.3-1.8-2.4-3.6-4.7
		c-0.8,9-1.2,16.5-2.3,23.8c-1.1,7.6,2.8,12.7,7.6,17.7c-5.8-0.5-7.2,1.1-5.9,6.9C225.3,2159.3,227.2,2166.7,229,2174.1z
		 M218.6,2328c0.7-0.1,1.3-0.2,2-0.3c5.4-36.5,10.9-72.9,16.3-109.4c-0.4-0.1-0.8-0.2-1.2-0.4c-0.6,0.9-1.3,1.7-1.8,2.7
		c-7,13.2-14.6,26.2-20.9,39.8c-5.2,11.4-15.6,21-13.6,35.2c0.3,2,0.2,4.3,1.2,5.9c4.8,7.8,9.9,15.4,15,23
		C216.3,2325.8,217.6,2326.8,218.6,2328z"/>
	<path d="M172.2,2539.4c-3.1-1-6.3-1.9-9.4-3c-8.2-3-11.9-0.9-13.8,7.9c-0.1,0.5-0.3,0.9-1.2,1.4c-0.1-2.5-0.2-4.9-0.2-7.1
		c-4.1,3.9-8.3,7.4-11.8,11.4c-16.5,18.7-32.9,37.6-49.1,56.5c-2.1,2.4-2.9,6-4.2,9.1c-1.5,3.6-0.5,9-6.1,9.6
		c-2.9,0.3-6.6,0.7-7.7-3.7c-1.4-5.6,0.4-12.1,4.5-12.3c10.4-0.6,14.4-8.7,19.9-15c16-18.1,31.7-36.4,47.5-54.6
		c3.5-4,3.7-13.2,0.2-17.1c-6.3-7.3-12.7-14.6-19.2-21.7c-1.2-1.3-3.6-2.7-4.9-2.3c-4.4,1.3-7.5-1-8.3-4.2c-0.7-2.7,0.3-6.9,2.2-9
		c1.8-2,5.6-2.5,8.6-2.7c1.1-0.1,3.5,2.9,3.3,4.1c-1,6.3,1.6,10.7,5.7,15.1c5.6,5.9,10.6,12.4,15.9,18.6c4.2,5,5.9,4.7,8.5-1.2
		c0.8,1.8,1.7,3.6,2.6,5.5c2.9-1.4,5.8-2.9,8.7-4.3c-1.3,1.3-2.5,2.6-3.9,3.9c-5,4.7-4.3,7.8,2.2,10.5c3.3,1.4,6.5,3.1,9.8,4.7
		L172.2,2539.4z"/>
	<path d="M236.4,2415.9c-5.5-5.3-6.9-4.9-9.7,2.4c-1.4,3.6-3.2,7-4.8,10.5c1.2-4,2.6-7.9,3.6-11.9c0.4-1.6,0.6-4.3-0.2-4.8
		c-1.3-0.8-3.5-0.5-5.4-0.4c-0.9,0-1.7,0.6-1.9,0.6c3.1-3.6,6.5-7.4,9.6-11.5c0.7-0.9,0.3-2.9,0.1-4.3c-1.1-10.7-2.2-21.4-3.4-32.1
		c0,0-0.1,0.1-0.1,0.1c0.8,4.9,1.7,9.8,2.4,14.7c1.1,7.1,2,14.1,3.1,21.2c0.5,0,0.9,0,1.4,0.1c0.8-1.4,1.7-2.7,2.4-4.2
		c3.5-7.2,6.4-14.7,10.6-21.4c4.4-7,3.5-14.1,1.9-21.5c5.6,1.9,6.3-1.4,6.5-5.3c1.5-24.1,3-48.1,4.5-72.2c0.2-3.8,0.1-7.7,0.2-12.6
		c-3,4.8-5.3,8.4-7.6,12c1.4-5.8,8-10.6,3.2-17.6c-0.4-0.6,0-2.2,0.5-2.8c3.3-3.1,1.7-6.2,0.3-9.5c-1.3-3.2-2.3-6.5-3.4-9.8
		c2.2,4.6,4.4,9.1,7.2,14.9c0.3-5.2,0.5-9.1,0.7-13c0.3,0,0.6,0,1,0c0.1,3.5,0.2,7,0.3,10.4c0.3,0,0.5,0,0.8,0
		c0.8-1.8,1.5-3.6,2.3-5.5c0.4,1,0.2,1.7,0.1,2.5c-0.5,3.1-2.6,6.2,1.4,8.9c0.8,0.6-0.1,3.9-0.4,6c-0.2,2.3-0.9,4.6-0.8,6.8
		c0.1,2.3,1,4.5,1.5,6.8c-1.4-3.1-2.7-6.1-4.1-9.2c-0.4,0.1-0.7,0.1-1.1,0.2c-1.9,29-3.7,58-5.7,88.3c1.8-2.3,2.6-3.3,3.4-4.4
		c-1,3.9-2.4,7.5,3.5,8.4c-7.7,7.9-7.6,7.9-8,18.1c-0.2,5.6-0.9,11.2-1.3,16.8c0,0,0.1,0,0.1,0c-0.3-8.6-0.6-17.3-0.9-26.6
		c-3.5,7.3-7,14-10,21c-2.8,6.7-8.3,12.5-5.6,21.1C235.6,2409.7,234.8,2413.2,236.4,2415.9z"/>
	<path d="M2.8,2755.2c-2.1-1.6-3.7-2.9-5.3-4.1c1.5-1.8,2.7-4.7,4.5-5.2c1.7-0.5,5.2,0.9,6,2.5c2,3.7,4.7,4.6,8.5,4.9
		c21.4,2,42.7,4.2,64.1,6c1.9,0.2,4-1.5,6-2.3c3.1-1.1,7.1-3.9,9-2.9c3.1,1.7,4.2,6,2.2,10.1c-1.3,2.7-1.6,5.8-5.6,6.1
		c-3.7,0.3-5.8-1-7.3-4.5c-0.7-1.5-3.4-2.7-5.2-2.8c-21.4-1.6-42.8-3-64.2-4.4c-3.9-0.3-7.6-0.1-10.6,3.2c-0.8,0.9-3,0.6-4.5,0.8
		c0-1.7-0.4-3.5,0-5C0.8,2756.4,2.2,2755.7,2.8,2755.2z"/>
	<path d="M57.9,1797.4c-3.2,0.5-6.5,1.5-9.7,1.4c-3-0.1-7.2-0.5-8.7-2.5c-4.5-5.8-10.3-4.9-16-4.6c-8.1,0.4-16.1,1.5-24.2,2
		c-4,0.3-6.7,1.3-8.3,5.6c-0.6,1.6-4.5,2.8-6.9,2.7c-1.6-0.1-3.9-2.5-4.3-4.3c-0.7-2.8-0.5-5.9-0.2-8.9c0.4-3.4,5.4-4.9,7.8-2.1
		c2.7,3.1,5.8,3.5,9.4,3.3c10.8-0.4,21.6-0.9,32.4-1.3c3.6-0.1,6.2-1.2,8.1-4.7c2.8-5,7.6-4.8,10.3,0.5c2.6,5,4.3,10.5,10.1,13
		C57.8,1797.5,57.9,1797.4,57.9,1797.4z"/>
	<path d="M176.7,2137.6c2.4,2.1,6,5.1,9.4,8c-3.5,2.2-5.9,5.8-3.7,10.9c5.5,12.9,11.1,25.7,16.7,38.5c0.3,0.7,1,1.2,2.3,2.7
		c1.9-4.4,3.5-8,5.1-11.7c-0.9,6.4-3.7,13.1,3.2,18.5c-4.3,4.4-10.3,7.5-8.7,15.2c-2.1-4.2-3.7-7.8-5.7-11.1c-2.1-3.2-2.1-6-0.2-9.3
		c0.8-1.5,1.3-3.9,0.7-5.3c-4.7-11.7-9.5-23.4-14.9-34.9c-1.1-2.4-4.6-4-7.2-5.4c-6.6-3.7-7.3-9.1-1.5-13.6
		C173.8,2139,175.5,2138.3,176.7,2137.6z"/>
	<path d="M56,1725.2c3.4,3.5,6.8,6.9,10.1,10.6c9.6,10.8,19,21.8,28.7,32.5c1.7,1.9,4.2,3.8,6.5,4.1c3.9,0.5,5.8,2.6,7.6,5.4
		c1.8,2.8,3,5.5,0.3,8.6c-1.9,2.1-3.3,3.9-6.6,2.4c-3.6-1.6-7.2-3.7-6.5-7.8c0.9-4.8-1.4-7.4-4-10.5c-10.8-12.4-21.5-24.8-32.2-37.3
		c-1.9-2.2-3.3-4.7-4.9-7.1C55.3,1725.9,55.6,1725.6,56,1725.2z"/>
	<path d="M137.8,2649.3c0.2,4.7-0.1,8.9,0.5,13c0.5,3.5,5.1,5.3,10.2,4.5c-9.1,6.5-10.2,15.6-9,25.6c-0.5-2.8-0.8-5.6-1.5-8.3
		c-0.4-1.7-1.2-3.3-1.8-4.9c-1.5,1-3.1,2-3.9,2.6c-0.6-1.7-1.9-3.8-2.1-6.1c-0.2-2.7-0.3-7.1,1.2-8c6.2-3.9,5.5-9.6,5.5-15.4
		c0-0.7,0-1.3,0.1-2C137.1,2650.1,137.2,2650,137.8,2649.3z"/>
	<path d="M52.9,1723.3c-2.9-0.5-6-0.5-8.5-1.7c-2.5-1.1-5.9-3-6.5-5.2c-0.8-3.2-0.3-7.3,1.1-10.4c1.3-3,9-1.5,10,1.9
		C50.6,1713.1,51.7,1718.4,52.9,1723.3z"/>
	<path d="M215.7,2044.6c1.3,9.4,2.7,18.8,4,28.1C218.4,2063.3,217.1,2054,215.7,2044.6z"/>
	<path d="M199.2,1995.3c-1.6-3.2-3.5-6.3-4.8-9.6c-2.9-7.3-5.6-14.8-8.4-22.2C190.4,1974.1,194.8,1984.7,199.2,1995.3z"/>
	<path d="M262.6,2866.5c-0.6-7.6-1.1-15.2-1.8-22.9c-0.7,0.1-1.3,0.1-2,0.2c-0.2,7.6,0.9,15.2,1.8,22.8
		C261.3,2866.5,262,2866.5,262.6,2866.5z"/>
	<path d="M247.5,2841.8c0.9-2.5,1.6-4.4,2.3-6.3c2.2,0.8,5.3,1.1,6.4,2.7c1,1.5,0.7,5.3-0.5,6.5c-2.9,3-2.9,5.9-2,9.6
		c4.8,20.9,9.4,41.9,14.3,62.7c0.4,1.9,2.7,3.3,4.1,5c2,2.6,6,5.5,5.6,7.7c-0.7,3.5-4.3,5.8-8.9,5.3c-2.9-0.4-6,0.3-7.5-3.4
		c-1.4-3.4-0.9-5.8,1.9-8.4c1.2-1.1,1.5-4,1-5.9c-5.2-20.8-10.5-41.6-15.9-62.4c-1-3.8-2.3-7.2-6.3-9c-1.1-0.5-1.5-2.7-2.2-4.1
		c1.6-0.6,3.2-1.5,4.8-1.5C245.7,2840.3,246.8,2841.4,247.5,2841.8z"/>
</g>
<g id="Слой_2">
</g>
</svg>
