<?xml version="1.0" encoding="utf-8"?>
<!-- Generator: Adobe Illustrator 20.1.0, SVG Export Plug-In . SVG Version: 6.00 Build 0)  -->
<svg version="1.1" id="Слой_1" xmlns="http://www.w3.org/2000/svg" xmlns:xlink="http://www.w3.org/1999/xlink" x="0px" y="0px"
	 viewBox="0 0 400 2934.9" style="enable-background:new 0 0 400 2934.9;" xml:space="preserve">
<style type="text/css">
	.st0{opacity:0.51;}
</style>
<path class="st0" d="M339.2,588.7c1.2,1.1,2.5,2.2,3.6,3.4c2.4,2.6,4.9,5.1,7.1,7.9c1.3,1.7,2.9,4,2.8,5.9c-0.2,3.8-1.4,7.6-2,10.4
	c-1.9-1.9-4.6-4.3-6.8-7c-1.2-1.4-3-3.9-2.5-5c2.8-5.9-0.8-10.1-3.3-14.8C338.5,589.3,338.9,589,339.2,588.7z"/>
<path class="st0" d="M361.1,761.8c4.6-8.1,1.2-15.9-1.2-23.7c1.6,1.6,3.1,3.1,4.7,4.7c0.5-0.1,1-0.3,1.5-0.4c0.4-3.8,0.9-7.5,1.2-11
	c5.8,16.6,5.8,16.6,2.8,23.8c-2.7-2.7-4.1-1.2-5.5,1.4C363.7,758.4,362.3,760.1,361.1,761.8z"/>
<path class="st0" d="M315.7,537.2c0.5-1.3,1.8-2.8,1.5-3.9c-0.8-3.1-2.2-6.1-3.3-9.1c2,2.9,4,5.8,6.4,9.2c0.7-1.7,1.2-2.8,1.2-2.7
	c1.3,2.1,3.1,4.9,4.6,7.7c0.8,1.5,1.3,3.3,1.5,5c0.3,2.2,0.2,4.5,0.3,6.8C322.3,551.1,316.2,544.9,315.7,537.2z"/>
<path class="st0" d="M344.9,928.4c-6.8-9.1-1.6-15,5.8-21.3c0.9,4,3.2,8.2,2.2,11.6C351.9,922.3,347.9,925,344.9,928.4z"/>
<path class="st0" d="M339.6,954.7c0.2,3,1.3,7.6,0.4,11.8c-0.9,4-3.9,7.5-6.4,12.1c-1.9-3.5-3.6-5.4-3.9-7.4
	c-0.3-2.4-0.2-5.5,1.1-7.2C333.4,960.3,337,957.3,339.6,954.7z"/>
<path class="st0" d="M346.7,1024.7c-1.8-0.8-2.9-0.9-3.3-1.4c-1.7-2.4-3.5-1.7-5.6-0.6c-2.6,1.3-5.5,1.6-6.7-1.6
	c-0.6-1.7-0.3-4.7,0.9-6c1.9-2.2,4.7-2.6,7.6-0.5c1.4,1,3.7,0.7,5.4,1.5c1.7,0.8,4.2,2,4.3,3.2
	C349.4,1021.1,347.7,1022.9,346.7,1024.7z"/>
<path class="st0" d="M290.8,1348.8c-1.1-3.4-2.5-6.8-3.3-10.4c-0.4-1.6,0.1-3.6,0.8-5.1c1-2.5,2.5-4.8,3.8-7.3
	c8,3.7,8.8,10.7,2.1,16c-2.1,1.7-3.2,4.7-4.7,7.1C289.9,1349,290.4,1348.9,290.8,1348.8z"/>
<path class="st0" d="M301.2,1112.4c0.6,3.8,2.1,8.6,1.8,13.3c-0.2,2.9-3.3,5.6-5.5,8.9c-2.1-2.5-4.2-3.9-4.6-5.7
	c-0.5-2.5-0.5-5.7,0.7-7.7C295.6,1117.8,298.7,1115.2,301.2,1112.4z"/>
<path class="st0" d="M307.5,1054.8c-6.4-9.7-2.5-16,6.6-19.9C317.1,1042.9,314.9,1049.8,307.5,1054.8z"/>
<path class="st0" d="M361.6,665.3c2.7,2.9,5.8,5.4,7.7,8.6c1,1.6,0.3,4.6-0.4,6.8c-0.5,1.7-2.2,3.2-4,5.6c-2.1-3.2-5.4-6-5.8-9.3
	C358.7,673.2,360.7,669,361.6,665.3z"/>
<path class="st0" d="M270.8,231.3c-2-2.1-4.8-3.9-6-6.5c-0.9-1.9-0.5-6.3,0.7-6.9c5-2.7,4.6-7.2,4.8-9.8c1.1,3.1,3.1,7.6,4.4,12.4
	c0.5,1.9-0.1,4.4-0.8,6.4C273.4,228.3,272.1,229.5,270.8,231.3z"/>
<path class="st0" d="M284.9,404c1.8,2,5,4.8,6.8,8.3c1.2,2.3,0.9,5.9,0,8.5c-0.3,1-4.7,1.6-6.4,0.8c-2.8-1.4-4.4-4.4-3.2-8
	C283.1,410.1,284.1,406.7,284.9,404z"/>
<path class="st0" d="M317.4,487.2c3.2,2.6,6.5,4.3,8.2,7c1.2,1.9,0.5,5.3-0.1,7.8c-0.2,0.7-3.6,1.2-5.2,0.6c-3-1.1-5.6-3.2-4.9-7.1
	C315.7,493.2,316.5,490.9,317.4,487.2z"/>
<path class="st0" d="M297.6,1217c-7.4-5.9-6.8-10.4,1.8-15.3C306.4,1207.1,306,1211.1,297.6,1217z"/>
<path class="st0" d="M235.3,1511.6c1.2-2.4,2.1-4.1,2.1-5.7c-0.1-2.6-1-5.6-2.5-7.7c-0.7-1-4.5-1.3-5.2-0.5
	c-1.5,1.7-3.1,4.9-2.5,6.6c1.1,2.8,3.3,5.1,5.6,7.8C233.6,1512,234.4,1511.8,235.3,1511.6z"/>
<path class="st0" d="M375.4,792.1c-0.8-1.8-1.2-3.8-2.4-5.2c-3.3-4-1.2-7.1,2.1-9.1c1.4-0.8,4.9-0.1,6.2,1.2
	c2.8,2.8,2.4,6.2-0.5,9.2c-1.5,1.6-2.6,3.6-3.8,5.5C376.5,793.1,376,792.6,375.4,792.1z"/>
<path class="st0" d="M294.3,1254.1c-1.6-1.2-2.7-2.4-3.9-3c-4.2-1.9-4.2-5.3-2-8.1c1.5-1.9,4.9-3.5,7.3-3.2c3.1,0.4,4.2,5.5,2.4,8.8
	C297,1250.4,295.6,1252.1,294.3,1254.1z"/>
<path class="st0" d="M370.8,853.7c-1.2-2.8-2.2-5.3-3.4-7.7c-1.7-3.3,0-5.5,2.5-7.2c2-1.4,4.8-3.3,6.4-0.2c1.2,2.3,1.7,5.8,0.7,8.1
	C375.9,849.4,373,851.3,370.8,853.7z"/>
<path class="st0" d="M362.8,895.6c-0.6-3-0.7-5.1-1.4-7c-1.4-3.4-0.6-6.1,2.7-7.3c1.9-0.7,5.3-0.9,6.4,0.2c2.3,2.4,2.4,5.9-0.3,8.5
	C368,892.1,365.3,893.7,362.8,895.6z"/>
<path class="st0" d="M304.4,1367.3c3.6-3.3,5.7-6.6,8.4-7.3c3-0.7,6.2,2.4,5.2,5.6c-0.9,2.9-3.6,5.6-6.2,7.4
	C311.2,1373.5,307.8,1370,304.4,1367.3z"/>
<path class="st0" d="M279.6,274.5c0.8,1.1,2.5,3,3.8,5.3c1.6,2.9,1.3,5.9-1.7,7.9c-3.4,2.2-5.7-0.3-7.6-2.5c-2-2.3-2.7-5.1,0.3-7.4
	C275.8,276.6,277.6,275.7,279.6,274.5z"/>
<path class="st0" d="M371.5,600.8c7.4,2.5,10.2,5.9,8.5,10.3c-1.1,2.8-3,4.3-6.3,2.9C368.8,611.9,368.2,608.7,371.5,600.8z"/>
<path class="st0" d="M280.4,345.1c1.7-1.4,3.5-3.9,5.8-4.7c2.5-0.8,6.3,4.6,6,7.9s-2.3,5.2-5.6,4.9
	C282.5,352.9,281.4,349.8,280.4,345.1z"/>
<path class="st0" d="M304,1301.2c0.8-4.3,4.1-8,6.9-7.8c3.5,0.3,5.4,2.4,5.3,6c-0.2,3.9-2.7,6.6-6.3,6.4
	C307.8,1305.7,306,1302.9,304,1301.2z"/>
<path class="st0" d="M327.3,441.5c-0.7,0.4-2.2,2.3-3.7,2.4c-3.9,0.2-8.3-4.1-7.1-7.2c0.8-2.1,3.8-4.9,5.7-4.7
	C326.1,432.3,327.6,435.7,327.3,441.5z"/>
<path class="st0" d="M410.3,723.4c-3.4,3-5.4,6.2-7.7,6.4c-3.3,0.3-6.1-2.9-5.2-6.3c0.5-2.3,3.3-5.4,5.3-5.6
	C404.5,717.6,406.8,720.7,410.3,723.4z"/>
<path class="st0" d="M279.8,194.6c3.2-2.4,5.1-4.5,7.4-5.3s6.3,3.8,5.5,6.9c-0.7,2.4-3.2,4.3-4.9,6.5
	C285.4,200.3,283.1,198,279.8,194.6z"/>
<path class="st0" d="M322.4,1053.9c-0.1,5.3-3.3,9-6.2,8c-2.1-0.8-4.3-3.4-5-5.7c-0.8-2.8,3.9-7,6.9-6.1
	C320.1,1050.7,321.5,1053.1,322.4,1053.9z"/>
<path class="st0" d="M338.4,999.9c-1,4.3-5,9-7.4,7.9c-2.1-1-3.8-3.8-4.5-6.2c-0.8-2.6,3.6-6.7,6.5-5.9
	C335.1,996.1,336.6,998.4,338.4,999.9z"/>
<path class="st0" d="M273.9,1515.6c-3.1-4.6-3.7-7.8-0.3-10.6c2.6-2.3,4.9-1.3,6.8,1.1s1.9,8.5-0.5,9.5
	C277.9,1516.3,275.3,1515.6,273.9,1515.6z"/>
<path class="st0" d="M374.6,669.7c3.4-2.9,5.5-6.1,7.5-6c3.4,0,6.5,2.9,5.6,6.7c-0.5,2.1-3.6,5.4-5.1,5.2
	C380.1,675.2,378,672.4,374.6,669.7z"/>
<path class="st0" d="M395.5,848.8c-3.5,2.6-5.7,5.5-8.1,5.7c-3.5,0.3-5.4-3.6-4.4-6.3c0.8-2.4,3.8-4.7,6.3-5.6
	C390.2,842.2,392.7,845.8,395.5,848.8z"/>
<path class="st0" d="M288.4,137.8c1.9-1.3,3.7-3.3,5.8-3.9c2.8-0.7,6.9,3.8,6,7c-0.5,2-2.7,4.2-4.6,4.9
	C292.9,146.6,289.2,142.3,288.4,137.8z"/>
<path class="st0" d="M401,802.3c-0.9,4.4-4.5,8.5-7,7.3c-2.1-0.9-4.3-3.7-4.6-6c-0.6-3.7,2.6-6,5.8-5.7
	C397.3,798.2,399.1,800.8,401,802.3z"/>
<path class="st0" d="M373.3,545.7c-0.8,0.7-2.2,2.9-4.1,3.4c-3.1,0.8-7.3-3.4-6.6-6.5c0.5-2,2.3-4.6,4.2-5.2
	C369.8,536.4,373.3,540.4,373.3,545.7z"/>
<path class="st0" d="M309.2,302.8c-3.3,2.5-5.1,4.9-7.1,5.1c-3.6,0.4-5.7-2.4-6.1-5.9c-0.3-3.4,2.1-5.9,5-5.4
	C303.6,297,305.6,299.9,309.2,302.8z"/>
<path class="st0" d="M362.5,924.2c0.5-5.1,2.9-7.4,6.3-7c1.7,0.2,3.8,2.9,4.4,4.8c0.9,2.9-3.6,7.5-6.4,6.6
	C364.8,928.1,363.5,925.4,362.5,924.2z"/>
<path class="st0" d="M309.8,1150.9c1.1-5.1,3.5-7.6,6.8-6.8c1.7,0.4,3.8,3.7,3.9,5.7c0.1,3.1-2.2,6-5.7,5.3
	C312.8,1154.5,311.1,1152,309.8,1150.9z"/>
<path class="st0" d="M317.8,395.5c-1.6-2.5-3.9-4.8-4.6-7.5c-0.3-1.2,2.4-4.2,4.2-4.7c3-0.9,6.7,2.8,6.1,6c-0.4,2.2-2.2,4.1-3.4,6.1
	C319.4,395.4,318.6,395.5,317.8,395.5z"/>
<path class="st0" d="M323.5,1274.9c-0.8-1.3-2.9-3.3-3-5.3c-0.1-3.4,2.1-6.1,5.8-6.2c3.2-0.1,4.7,2.2,4.7,5.3
	C331,1272.5,328.9,1274.4,323.5,1274.9z"/>
<path class="st0" d="M397.2,604.6c-4.8-0.5-8-1.7-7.2-5.4c0.4-2.2,2.9-5.2,4.8-5.5c3.6-0.5,5.8,2.6,5.4,6.1
	C400,601.7,398,603.4,397.2,604.6z"/>
<path class="st0" d="M306,88.7c-1.4-2.5-3.8-4.9-4-7.4c-0.1-1.5,3.2-3.3,4.9-5c1.6,2.2,3.9,4.3,4.5,6.7c0.4,1.5-1.9,3.7-3.1,5.6
	C307.5,88.7,306.7,88.7,306,88.7z"/>
<path class="st0" d="M341.1,1322.2c-0.8-1.2-2.7-2.9-2.9-4.8c-0.4-3.5,1.6-6.5,5.3-6.1c1.8,0.2,4.1,3.1,4.5,5.1
	C348.6,1319.9,346.1,1321.7,341.1,1322.2z"/>
<path class="st0" d="M307,1455.4c-2.4-4.3-3.2-7.3-0.3-9.9c2.4-2.1,4.6-1.3,6.4,1.1c2.1,2.9,2.6,6.2-0.4,8.4
	C311.2,1455.9,308.5,1455.3,307,1455.4z"/>
<path class="st0" d="M352.3,978.4c-0.2,5.2-2.1,7.7-5.5,7.1c-1.9-0.3-4.6-2.9-4.9-4.8c-0.5-3.8,2.7-5.7,6-5.4
	C349.7,975.5,351.4,977.7,352.3,978.4z"/>
<path class="st0" d="M323,236.8c-3.1,2.3-5.7,5.1-6.4,4.6c-2.3-1.3-4.5-3.6-5.4-6c-0.4-1,3.3-4.9,4.1-4.6
	C317.7,231.7,319.6,234,323,236.8z"/>
<path class="st0" d="M372.7,1379.9c-3.4,2.9-5.4,5.1-7.8,6.3c-0.5,0.3-4.3-3.6-4-4.7c0.7-2.4,2.9-4.7,5.1-6
	C366.8,1375,369.4,1377.7,372.7,1379.9z"/>
<path class="st0" d="M330.3,1068.4c-3.3,2.6-5.3,5.3-7.3,5.4c-1.6,0-4.4-3.1-4.7-5.1c-0.5-3.4,2.4-5.7,5.7-5.3
	C325.8,1063.6,327.4,1065.9,330.3,1068.4z"/>
<path class="st0" d="M391.1,536.2c-5-0.4-7.6-2.2-7.1-5.7c0.3-1.8,2.7-4.3,4.5-4.5c3.3-0.4,5.8,2,5.5,5.4
	C393.8,533.3,391.8,535.1,391.1,536.2z"/>
<path class="st0" d="M390.1,505.2c1.7-1.3,4-4,5-3.6c2.2,0.8,4.5,3.1,5.3,5.2c0.4,1.1-2.8,5-3.7,4.8c-2.4-0.5-4.4-2.7-6.6-4.2
	C390.1,506.7,390.1,505.9,390.1,505.2z"/>
<path class="st0" d="M321.1,1199c-1.4-1.9-4.2-4.2-3.8-5.5c0.7-2.3,3.4-4.1,5.2-6.1c1.5,1.7,4,3.3,4.1,5c0,2.2-2,4.4-3.1,6.5
	C322.7,1199,321.9,1199,321.1,1199z"/>
<path class="st0" d="M389.3,910c-3.2,2.3-5.2,3.8-7.3,5.3c-1.4-2-3.9-3.8-4-5.9c-0.2-3.2,2.6-5.2,5.7-4.4
	C385.5,905.5,386.8,907.6,389.3,910z"/>
<path class="st0" d="M343.6,360.1c-0.9,0.7-2.3,2.7-4,2.9c-3.3,0.4-5.7-1.8-5.9-5.2c-0.2-2.7,1.1-5,4.3-4.9
	C341.5,353.1,343.4,355.1,343.6,360.1z"/>
<path class="st0" d="M379.3,440.9c-2.9,2.4-5.1,5-6,4.6c-2.2-0.9-4.4-2.9-5.5-5c-0.4-0.7,2.8-4.6,4-4.5
	C374,436.4,375.9,438.6,379.3,440.9z"/>
<path class="st0" d="M322.9,158.2c-2.7,2.1-5.2,4.8-5.9,4.4c-2.1-1.3-4.1-3.5-5-5.7c-0.3-0.7,3.2-4.2,4.6-4
	C318.6,153.1,320.2,155.7,322.9,158.2z"/>
<path class="st0" d="M343.1,288.2c-2.9,2.4-5,4.9-5.7,4.6c-2.2-1.1-4.2-3.1-5.6-5.2c-0.3-0.4,2.7-4.1,3.6-3.9
	C337.6,284.2,339.6,286.1,343.1,288.2z"/>
<path class="st0" d="M364.6,343.2c-2.8,2.1-4.9,4.5-5.7,4.2c-2.1-1.1-4.1-3-5-5.1c-0.3-0.8,2.9-4.4,4-4.1
	C360,338.5,361.6,340.8,364.6,343.2z"/>
<path class="st0" d="M371.2,400c-2.2-3.3-4.4-5.1-4.4-7c0-1.5,2.5-3.1,3.8-4.7c1.7,1.7,4.1,3.3,4.7,5.3
	C375.7,394.8,373.3,396.9,371.2,400z"/>
<path class="st0" d="M326.6,1122.7c1.8,3.2,3.9,5.2,3.6,6.7c-0.4,1.9-2.8,3.3-4.4,4.9c-1.5-1.7-4.1-3.3-4-5
	C321.8,1127.6,324.2,1125.8,326.6,1122.7z"/>
<path class="st0" d="M397.1,1389.6c-3,2.1-4.7,4.1-6.6,4.3c-1.1,0.1-3.9-3.1-3.6-3.8c0.9-2.1,2.9-3.8,4.5-5.6
	C392.9,1385.9,394.4,1387.2,397.1,1389.6z"/>
<path class="st0" d="M342.2,1259.5c2.9-2.2,4.6-4.5,6.4-4.6c1.2-0.1,3.8,2.9,3.7,4.5c-0.1,1.6-2.4,4.3-4,4.5
	C346.9,1264.1,345.1,1261.7,342.2,1259.5z"/>
<path class="st0" d="M320.7,40.5c-2.6,1.9-4.8,4.1-5.3,3.8c-2-1.5-3.6-3.6-5.3-5.5c1.4-1.3,3.3-3.8,4.2-3.5
	C316.5,36,318,38.2,320.7,40.5z"/>
<path class="st0" d="M374,1321.1c-2.6,2.3-4.3,3.8-6,5.3c-1.3-1.5-3.9-3.3-3.7-4.6c0.4-1.9,2.5-3.8,4.3-4.7
	C369.4,1316.7,371.5,1319.1,374,1321.1z"/>
<path class="st0" d="M343.7,1207.9c-3.1,2.1-4.8,4.2-6.7,4.3c-1.2,0.1-4.1-3.2-3.8-3.8c0.9-1.9,2.8-3.8,4.7-4.6
	C338.8,1203.4,340.8,1205.7,343.7,1207.9z"/>
<path class="st0" d="M358.1,966.6c2.7-2.1,4.3-4.2,6-4.3c1.3-0.1,4.1,2.9,3.9,3.5c-0.8,1.9-2.5,3.9-4.3,4.6
	C362.7,970.8,360.7,968.5,358.1,966.6z"/>
<path class="st0" d="M358.1,276.5c-2.3-3-4.5-4.6-4.6-6.3c-0.1-1.4,2.3-2.9,3.5-4.4c1.4,1.5,3.4,2.9,4,4.7
	C361.4,271.6,359.7,273.5,358.1,276.5z"/>
<path class="st0" d="M320,113.7c-1.2-1.9-3-3.7-3.4-5.8c-0.2-0.9,2.3-2.4,3.5-3.6c1.4,1.6,3.3,3,3.9,4.8c0.4,1.2-1.3,3-2.1,4.5
	C321.3,113.7,320.7,113.7,320,113.7z"/>
<path class="st0" d="M396.3,380.1c2.6-1.8,4.3-3.9,5.3-3.6c1.6,0.5,3.4,2.3,4,3.9c0.3,0.7-2.2,3.5-3.3,3.4
	C400.7,383.8,399.1,382,396.3,380.1z"/>
<path class="st0" d="M333.6,1095.6c-1.7-2.5-3.7-4.3-3.3-5.1c0.8-1.8,2.7-3.1,4.2-4.6c1,1.3,3,2.7,2.9,3.8
	C337.1,1091.4,335.3,1092.9,333.6,1095.6z"/>
<path class="st0" d="M384.6,938.4c-1.4-2.6-3-4.2-2.8-5.4c0.4-1.5,2.2-3.6,3.5-3.7c1.3,0,3.8,2.4,3.6,3.3
	C388.7,934.4,386.7,935.8,384.6,938.4z"/>
<path class="st0" d="M330.7,168.6c2.5-1.6,4.1-3.3,5-3c1.5,0.5,3.1,2.3,3.4,3.7c0.2,1-2.1,3.4-3.1,3.3
	C334.5,172.4,333.2,170.6,330.7,168.6z"/>
<path class="st0" d="M332.5,133.6c-1.9-2.6-3.5-4-3.8-5.6c-0.2-0.8,1.8-2.2,2.9-3.2c1.1,1.2,2.8,2.3,3.3,3.7
	C335,129.5,333.7,131,332.5,133.6z"/>
<path class="st0" d="M387.1,1320.3c1.3,2.3,2.8,3.7,2.6,4.8c-0.2,1.1-2,2.8-3.1,2.8c-1,0-3.1-1.9-3-2.7
	C383.9,1323.7,385.5,1322.5,387.1,1320.3z"/>
<path class="st0" d="M361.4,1260c-1.1-2.4-2.4-3.8-2.2-4.9c0.3-1.2,2-2,3.1-3c0.9,1.2,2.4,2.4,2.4,3.6
	C364.7,1256.8,363.1,1257.9,361.4,1260z"/>
<path class="st0" d="M342.3,1186.1c1.3-0.9,2.6-2.1,4-2.4c0.5-0.1,2.4,2.3,2.1,3c-0.6,1.4-2,2.9-3.4,3.3c-1.1,0.3-2.6-0.9-3.9-1.5
	C341.5,1187.7,341.9,1186.9,342.3,1186.1z"/>
<path class="st0" d="M360,219.7c1.9-1.6,3.4-3.4,3.9-3.1c1.4,0.7,2.6,2.1,3.4,3.4c0.2,0.2-1.6,2.4-2.2,2.3
	C363.6,222.1,362.3,221,360,219.7z"/>
<path class="st0" d="M335.1,1120.3c2.1-1.1,3.3-2.4,4.4-2.3c1,0.1,1.8,1.7,2.7,2.7c-1,0.9-2,2.4-3.1,2.5
	C338,1123.2,336.9,1121.7,335.1,1120.3z"/>
<path class="st0" d="M317,1412.1c-1.2-2-2.5-3.3-2.3-4.2c0.2-1,1.8-1.8,2.8-2.7c0.9,1,2.4,2,2.4,3
	C319.9,1409.2,318.4,1410.2,317,1412.1z"/>
<path class="st0" d="M44.5,443.8c-5.9-0.1-10-5.7-8.5-10.5c2.8-8.4,4.7-9.1,12.4-5c1.3,0.7,2.7,1.3,4.1,1.8c3,1.1,2.8,3,1.2,5
	c-1.8,2.3-3.7,4.7-5.8,6.7C46.8,442.9,45.2,443.5,44.5,443.8z"/>
<path class="st0" d="M127.2,618.5c0.1-4.2,4.4-8.3,8.4-8c2.6,0.2,7.5,6.4,7.5,9.6c0.1,4.9-3.4,9.3-7.5,9.2
	C130.1,629.1,127.1,625.2,127.2,618.5z"/>
<path class="st0" d="M78,984.4c0,1.3,0.5,3-0.1,3.9c-1.3,2.1-2.9,5.1-4.8,5.4c-1.9,0.4-4.6-1.7-6.6-3.2c-0.9-0.7-1.2-2.3-1.7-3.5
	c-0.8-2-4.8-3.5-1.7-6.2c3.3-2.9,7-6.8,11.7-4.7c2.2,1,3.1,4.9,4.5,7.5C78.9,984,78.5,984.2,78,984.4z"/>
<path class="st0" d="M145.7,892.1c-1.8,1.2-3.6,3.4-5.8,3.8c-3.1,0.6-6.9,0.9-9.6-0.3c-3.4-1.5-4.1-7.3-2-10.6
	c2.1-3.4,5.3-5,9.3-4.3c1,0.2,2.1,1.1,2.7,2C142.3,885.7,144,889,145.7,892.1z"/>
<path class="st0" d="M182.6,771.6c-0.1,5.1-3.6,9.8-7.3,9.8c-4.1-0.1-8-4.7-7.9-9.4c0.1-5.3,3.8-8.8,9.3-8.9
	C180.9,763.1,182.7,765.7,182.6,771.6z"/>
<path class="st0" d="M172.8,1193.2c-0.1,4.7-0.5,8.9,0,13c0.4,3.5,4.9,5.5,9.9,4.9c-9.4,6.1-10.9,15.1-10.1,25.2
	c-0.3-2.8-0.6-5.6-1.1-8.3c-0.3-1.7-1.1-3.4-1.6-5c-1.6,0.9-3.1,1.9-4,2.4c-0.5-1.7-1.7-3.9-1.8-6.2c-0.1-2.7,0-7.1,1.5-7.9
	c6.4-3.6,5.9-9.4,6.2-15.1c0-0.7,0.1-1.3,0.2-2C172,1194.1,172.2,1194,172.8,1193.2z"/>
<path class="st0" d="M129.3,264.4c-2.9-0.6-5.9-0.8-8.4-2s-5.8-3.2-6.3-5.5c-0.7-3.2,0-7.3,1.6-10.3c1.5-2.9,9-1.1,9.9,2.3
	C127.4,254.1,128.3,259.5,129.3,264.4z"/>
<path class="st0" d="M105.8,494c0.2-6.9,1.9-9.5,6.4-9.9c1.1-0.1,2.4,0,3.4,0.5c2.7,1.2,5.8,14.7,3.4,16c-2.2,1.3-5.6,1.4-8.2,0.9
	C107.1,500.8,105.7,498,105.8,494z"/>
<path class="st0" d="M110.1,720.6c0,6-1.5,8-6.2,8c-4.6,0.1-6.9-2.6-7-8.2c0-6.5,2.4-10.3,6.8-10.3
	C107.9,710.1,110.1,713.7,110.1,720.6z"/>
<path class="st0" d="M160.5,542.8c-0.2,7.5-1.7,9.8-6.4,9.5s-7.7-4.7-7.6-11.1c0.1-4.1,2.8-6.7,7-6.7
	C157.5,534.5,160.7,538.2,160.5,542.8z"/>
<path class="st0" d="M69.3,267.4c2.7-2.3,4.7-5.2,7-5.5c2.1-0.3,5.1,1.7,6.6,3.6c1.3,1.6,1.6,4.4,1.7,6.7c0.1,2.1-0.2,5.9-1.1,6.1
	c-2.4,0.7-6.2,0.9-7.8-0.5C73.1,275.3,71.7,271.6,69.3,267.4z"/>
<path class="st0" d="M88.4,1050.7c0-6.1,3.3-9,9.1-7.9c4.4,0.8,5.5,2.8,4.1,7c-0.4,1.1-0.9,2.2-0.9,3.3c0.1,4.4-2.1,6.6-6.3,6.5
	c-4.4-0.1-5.9-3-6-7C88.3,1052,88.4,1051.4,88.4,1050.7z"/>
<path class="st0" d="M177,982.7c-3.9,0-6.2-2.7-6.2-7.3c0-4.9,4.9-10.5,9-8.9c2.9,1.1,5.4,5,6.5,8.2
	C187.4,977.7,180.9,982.7,177,982.7z"/>
<path class="st0" d="M139.6,1215.8c1.1,5.4,3.6,9.2,0.7,13.8c-2.9,4.6-5.9,5.9-10.5,3.2c-3.1-1.8-4.2-7.3-1.2-10.2
	C131.6,1219.8,135.7,1218.2,139.6,1215.8z"/>
<path class="st0" d="M87.2,53.5c-5.6-0.2-9.3-4.6-9.1-10.3c0.1-4,2.9-6.9,6.4-6.8c4.2,0.2,7.7,6,7.6,12.5
	C92,52.8,89.9,53.9,87.2,53.5z"/>
<path class="st0" d="M39.8,601.4c0-0.1-0.4-1.2-0.4-2.3c0-1.8,0.1-5.2,0.6-5.3c2.7-0.5,5.9-1,8.3,0c3,1.3,4.3,11.3,1.9,13.7
	c-1.5,1.5-4.1,2.9-6.2,2.8C41.2,610.1,39.6,606.4,39.8,601.4z"/>
<path class="st0" d="M72.4,99.8c0.2-5.8,2.3-9.1,5.7-9c4.1,0.2,8.3,6.6,7.9,12.3c-0.2,3.1-1.4,5.4-5.2,5.3
	C76.2,108.2,72.2,104.3,72.4,99.8z"/>
<path class="st0" d="M63.4,1108.5c-2.4-1.6-4.6-2.3-4.8-3.4c-0.6-3.8-1.3-7.8-0.5-11.5c0.7-3.4,4.3-4.5,7.7-3.6
	c3.5,0.9,3.9,3.5,3.2,6.7c-0.4,1.9,0.2,4.2-0.6,5.9C67.3,1104.7,65.2,1106.4,63.4,1108.5z"/>
<path class="st0" d="M75.3,1206.1c0.6,4.6-0.4,8.7-5.8,9.4c-1.5,0.2-3.9-1.6-4.9-3.1c-1.1-1.7-1.4-4.1-1.4-6.1c0-4.9,3.7-8,8.4-7.7
	C76.8,1199,75.7,1202.7,75.3,1206.1z"/>
<path class="st0" d="M59.5,791.4c-0.2,1.5,0.1,3.3-0.7,4.4c-1.4,2-3.4,3.6-5.1,5.3c-1.7-1.8-3.5-3.4-5-5.3c-0.6-0.7-0.5-1.9-0.8-2.9
	c-0.9-2.5-2.6-5.5,0.7-7c2.5-1.2,5.9-2,8.3-1.2c1.6,0.5,2.3,4.1,3.4,6.3C60,791.1,59.8,791.2,59.5,791.4z"/>
<path class="st0" d="M74.7,884.4c0.3,7.1-1.3,9.5-5.9,8.9c-2.8-0.3-5.1-1.8-4.5-4.8c0.9-4.2-3.8-10.6,4.2-12.2
	C73.1,875.4,74.4,877.4,74.7,884.4z"/>
<path class="st0" d="M35.3,1193.8c5.5,0.1,7.5,2.3,6.6,6.4c-0.6,2.9-1.4,6-3.1,8.3c-1,1.4-3.9,1.5-5.9,2.2c-0.2-1.7-0.4-3.3-0.7-5
	c-0.1-1-0.3-2.1-0.5-3.1c-0.3-1.9-1.5-4.3-0.8-5.6C32,1195.3,34.4,1194.4,35.3,1193.8z"/>
<path class="st0" d="M21.3,524.5c-0.1-1.1-1-3.1-0.3-4.4c0.7-1.2,3.2-2.6,4.3-2.2c1.7,0.5,3.8,2.3,4.3,4c0.8,2.4,1,5.4,0.2,7.8
	c-0.6,1.7-3.2,3.9-4.9,3.9c-2,0-4.5-1.8-5.8-3.6C18.5,529.2,20.4,526.6,21.3,524.5z"/>
<path class="st0" d="M1,163.4c2.1,1.6,4.1,2.4,4.6,3.7c0.4,1-1,2.8-1.8,4.1c-0.8,1.2-2,2.2-3,3.3c-2.7,2.9-5.5,2.1-7.9-0.3
	c-2.6-2.6-1-4.1,1.7-5.6C-3.2,167.4-1.4,165.5,1,163.4z"/>
<path class="st0" d="M7.2,91.3c3.6,1.8,6.4,6.2,4.6,9.1c-1.1,1.7-4.1,2.7-6.3,3c-1.1,0.1-3.1-1.8-3.7-3.2c-0.3-0.7,1.5-2.3,2.3-3.6
	C5,95,6,93.3,7.2,91.3z"/>
<path class="st0" d="M52.6,1356.2c1,1.1,3.8,2.8,3.7,4.3c-0.3,5.2-5.7,3.2-8.6,4.9c-0.3,0.2-2.6-2-2.6-3
	C45,1358.5,47.7,1357,52.6,1356.2z"/>
<path class="st0" d="M33.4,1483.4c-2.8-1.9-6.3-3.2-6.3-4.6c-0.1-3.7,3.4-4.8,6.4-4.4c1.5,0.2,3.4,2.5,3.6,4
	C37.3,1479.7,35.1,1481.3,33.4,1483.4z"/>
<path class="st0" d="M51.3,1365.4c1.5,2,3,3.5,2.8,3.8c-1.2,1.7-2.6,3.5-4.4,4.5c-0.6,0.3-2.4-1.8-3.7-2.8
	C47.6,1369.2,49.1,1367.6,51.3,1365.4z"/>
<path class="st0" d="M35.5,1486.9c-1.5,1.2-3,2.4-4.5,3.5c-0.5-0.7-1.6-2-1.5-2.1c1.4-1.4,2.9-2.6,4.4-3.8
	C34.5,1485.3,35,1486.1,35.5,1486.9z"/>
<path class="st0" d="M228.8,2880c2.2-3.3,4.3-6.5,6.5-9.8c0.8-1.2,1.2-2.7,1.8-4c-4,5.6-8,11.3-12,16.9
	C226.3,2882,227.6,2881,228.8,2880z"/>
<path class="st0" d="M257.6,1858.7c3.1,9.8,6.1,19.6,9.5,29.4c0.7,2.1,2.9,3.7,4.3,5.6c1.3,1.8,3.6,3.9,3.4,5.6
	c-0.5,4.6-2.1,9.1-3,12.8c-2.4-3.2-5.4-6.2-7.2-9.8c-1.1-2.1-0.7-5.2-0.6-7.8c0.1-2.2,1.4-4.6,0.9-6.6c-2-8-4.6-15.9-6.9-23.9
	C257.6,1862.3,257.8,1860.4,257.6,1858.7C257.7,1858.6,257.6,1858.7,257.6,1858.7z"/>
<path class="st0" d="M277.1,2037.9c1.3,1.1,2.6,2.1,3.8,3.2c2.5,2.5,5.1,4.9,7.4,7.6c1.4,1.7,3.1,3.8,3.1,5.8c0,3.8-1,7.7-1.5,10.5
	c-2-1.9-4.8-4.1-7.1-6.6c-1.3-1.4-3.2-3.8-2.7-4.8c2.5-6-1.3-10.1-3.9-14.6C276.4,2038.6,276.8,2038.2,277.1,2037.9z"/>
<path class="st0" d="M306.7,2209.9c4.2-8.3,0.5-15.9-2.3-23.6c1.6,1.5,3.3,3,4.9,4.5c0.5-0.2,1-0.3,1.5-0.5c0.3-3.8,0.5-7.6,0.7-11
	c6.6,16.3,6.6,16.3,3.9,23.6c-2.8-2.6-4.2-1-5.5,1.7C309.1,2206.4,307.8,2208.1,306.7,2209.9z"/>
<path class="st0" d="M232.5,1930.5c0.5-1.3,1.6-2.9,1.3-4c-0.9-3.1-2.4-6-3.7-9c2.1,2.8,4.3,5.6,6.8,8.9c0.7-1.7,1.1-2.8,1-2.7
	c1.4,2.1,3.3,4.7,5,7.5c0.9,1.5,1.5,3.2,1.8,4.9c0.4,2.2,0.4,4.4,0.6,6.8C239.7,1944.1,233.3,1938.2,232.5,1930.5z"/>
<path class="st0" d="M297.9,2377c-7.2-8.8-2.3-15,4.9-21.5c1.1,3.9,3.6,8.1,2.8,11.4C304.7,2370.6,300.7,2373.5,297.9,2377z"/>
<path class="st0" d="M293.8,2403.5c0.3,3,1.6,7.6,0.9,11.8c-0.7,4-3.5,7.6-5.9,12.4c-2-3.4-3.8-5.2-4.2-7.3
	c-0.4-2.3-0.4-5.4,0.8-7.3C287.9,2409.4,291.3,2406.2,293.8,2403.5z"/>
<path class="st0" d="M304,2473.2c-1.9-0.7-2.9-0.7-3.3-1.3c-1.8-2.3-3.5-1.5-5.6-0.3c-2.5,1.5-5.5,1.8-6.8-1.3
	c-0.7-1.7-0.5-4.7,0.6-6.1c1.8-2.3,4.6-2.8,7.5-0.8c1.5,1,3.8,0.5,5.5,1.2s4.3,1.8,4.4,3.1C306.6,2469.4,304.9,2471.3,304,2473.2z"
	/>
<path class="st0" d="M262.7,2799.4c-1.3-3.4-2.8-6.7-3.7-10.2c-0.4-1.6,0-3.6,0.5-5.2c0.9-2.6,2.3-4.9,3.5-7.4
	c8.2,3.3,9.3,10.3,2.8,15.9c-2,1.8-3,4.8-4.4,7.3C261.8,2799.7,262.2,2799.5,262.7,2799.4z"/>
<path class="st0" d="M262.5,2562.8c0.8,3.8,2.5,8.5,2.3,13.2c-0.1,2.9-3.1,5.8-5.1,9.2c-2.2-2.4-4.4-3.7-4.9-5.5
	c-0.6-2.4-0.7-5.6,0.4-7.7C257.1,2568.5,260.2,2565.6,262.5,2562.8z"/>
<path class="st0" d="M266.2,2504.9c-6.8-9.4-3.3-15.9,5.7-20.2C275.3,2492.7,273.3,2499.7,266.2,2504.9z"/>
<path class="st0" d="M302.9,2113.5c2.9,2.8,6,5.2,8.1,8.3c1.1,1.6,0.5,4.6-0.1,6.8c-0.5,1.8-2,3.2-3.7,5.7c-2.3-3.1-5.7-5.8-6.2-9
	C300.4,2121.5,302.2,2117.2,302.9,2113.5z"/>
<path class="st0" d="M192.8,1683.9c-2.1-2-5-3.7-6.3-6.3c-1-1.8-0.8-6.2,0.4-6.9c4.9-3,4.3-7.4,4.3-10c1.3,3.1,3.5,7.5,4.9,12.2
	c0.6,1.9,0.1,4.4-0.5,6.4C195.3,1680.8,194,1682,192.8,1683.9z"/>
<path class="st0" d="M141.6,1815.9c1.8,2,5.2,4.6,7.1,8c1.3,2.3,1.1,5.9,0.3,8.5c-0.3,1-4.6,1.9-6.4,1.1c-2.9-1.3-4.6-4.2-3.6-7.9
	C140.1,1822.1,140.9,1818.6,141.6,1815.9z"/>
<path class="st0" d="M177.8,1897.6c3.3,2.5,6.7,4,8.5,6.7c1.3,1.8,0.8,5.3,0.2,7.8c-0.1,0.7-3.6,1.4-5.2,0.9c-3.1-1-5.7-2.9-5.2-6.8
	C176.4,1903.7,177,1901.3,177.8,1897.6z"/>
<path class="st0" d="M263.6,2667.5c-7.6-5.6-7.2-10.1,1.1-15.3C272,2657.1,271.7,2661.2,263.6,2667.5z"/>
<path class="st0" d="M322.4,2239.4c-0.9-1.7-1.4-3.7-2.6-5.1c-3.4-3.9-1.6-7.1,1.7-9.1c1.4-0.9,4.9-0.3,6.3,0.9
	c2.9,2.7,2.7,6-0.1,9.2c-1.5,1.7-2.4,3.8-3.6,5.7C323.5,2240.5,322.9,2240,322.4,2239.4z"/>
<path class="st0" d="M261.9,2704.6c-1.7-1.2-2.8-2.3-4.1-2.8c-4.3-1.7-4.4-5.2-2.3-8c1.5-2,4.8-3.7,7.1-3.6c3.1,0.2,4.5,5.3,2.8,8.7
	C264.5,2700.9,263.2,2702.6,261.9,2704.6z"/>
<path class="st0" d="M320.5,2301.2c-1.3-2.7-2.5-5.2-3.8-7.5c-1.8-3.2-0.2-5.5,2.2-7.3c2-1.5,4.7-3.5,6.4-0.5
	c1.3,2.2,1.9,5.7,1.1,8.1C325.4,2296.7,322.6,2298.8,320.5,2301.2z"/>
<path class="st0" d="M314.4,2343.5c-0.7-3-0.9-5.1-1.7-6.9c-1.5-3.4-0.8-6.1,2.4-7.4c1.9-0.8,5.2-1.2,6.4-0.1
	c2.4,2.3,2.7,5.8,0.1,8.5C319.4,2339.7,316.8,2341.5,314.4,2343.5z"/>
<path class="st0" d="M277.1,2817.3c3.5-3.4,5.4-6.8,8.1-7.6c3-0.9,6.3,2.1,5.5,5.4c-0.7,3-3.4,5.8-5.9,7.7
	C284.1,2823.2,280.6,2819.9,277.1,2817.3z"/>
<path class="st0" d="M203.5,1726.7c0.8,1,2.7,2.9,4,5.1c1.7,2.9,1.5,5.9-1.3,8c-3.3,2.4-5.7-0.1-7.7-2.2c-2.1-2.2-2.9-5-0.1-7.4
	C199.9,1728.9,201.6,1727.9,203.5,1726.7z"/>
<path class="st0" d="M309.9,2048.5c7.5,2.2,10.4,5.4,8.9,9.9c-1,2.9-2.9,4.4-6.1,3.2C307.7,2059.8,306.9,2056.6,309.9,2048.5z"/>
<path class="st0" d="M274.7,1874.9c1.6-1.5,3.3-4.1,5.6-5c2.4-0.9,6.5,4.3,6.4,7.6c-0.2,3.3-2.1,5.3-5.4,5.2
	C277.2,1882.6,275.9,1879.5,274.7,1874.9z"/>
<path class="st0" d="M273.7,2751.3c0.7-4.3,3.7-8.2,6.5-8.1c3.5,0.2,5.5,2.2,5.5,5.8c0,3.9-2.4,6.7-6,6.6
	C277.8,2755.6,275.8,2752.8,273.7,2751.3z"/>
<path class="st0" d="M252.8,1929.3c-0.6,0.5-2.1,2.4-3.6,2.6c-3.9,0.4-8.4-3.7-7.4-6.9c0.7-2.1,3.6-5,5.5-5
	C251.1,1920.1,252.8,1923.5,252.8,1929.3z"/>
<path class="st0" d="M354.1,2169.3c-3.3,3.1-5.1,6.4-7.4,6.7c-3.3,0.4-6.2-2.6-5.5-6.1c0.4-2.3,3-5.5,5.1-5.9
	C348.1,2163.8,350.6,2166.8,354.1,2169.3z"/>
<path class="st0" d="M200.2,1646.9c3.1-2.6,4.9-4.8,7.1-5.7c2.2-0.9,6.5,3.5,5.8,6.6c-0.6,2.5-3,4.5-4.6,6.7
	C206,1652.3,203.7,1650.1,200.2,1646.9z"/>
<path class="st0" d="M281,2503.4c0.1,5.3-2.9,9.2-5.8,8.2c-2.2-0.7-4.4-3.2-5.2-5.5c-1-2.7,3.6-7.2,6.6-6.4
	C278.6,2500.2,280.2,2502.6,281,2503.4z"/>
<path class="st0" d="M294.6,2448.7c-0.8,4.3-4.6,9.2-7,8.2c-2.1-0.9-4-3.6-4.8-6c-0.9-2.6,3.3-6.8,6.3-6.2
	C291.1,2445.1,292.8,2447.3,294.6,2448.7z"/>
<path class="st0" d="M316.1,2117.2c3.3-3,5.2-6.3,7.2-6.4c3.3-0.1,6.7,2.6,5.9,6.5c-0.4,2.2-3.4,5.5-4.9,5.4
	C321.9,2122.5,319.6,2119.8,316.1,2117.2z"/>
<path class="st0" d="M344.9,2295.2c-3.3,2.7-5.4,5.7-7.9,6c-3.5,0.5-5.5-3.3-4.7-6.1c0.7-2.5,3.6-4.9,6.1-5.9
	C339.4,2288.9,342,2292.4,344.9,2295.2z"/>
<path class="st0" d="M206.3,1589.7c1.9-1.4,3.5-3.5,5.6-4.1c2.8-0.9,7,3.5,6.3,6.7c-0.5,2-2.5,4.3-4.4,5.1
	C211.1,1598.4,207.3,1594.2,206.3,1589.7z"/>
<path class="st0" d="M348.4,2248.6c-0.7,4.4-4.1,8.6-6.7,7.6c-2.1-0.9-4.4-3.5-4.9-5.7c-0.8-3.7,2.3-6.1,5.6-6
	C344.5,2244.6,346.4,2247.1,348.4,2248.6z"/>
<path class="st0" d="M309.3,1993.4c-0.8,0.7-2.1,3-4,3.5c-3.1,0.9-7.5-3.1-6.8-6.2c0.4-2,2.1-4.7,3.9-5.4
	C305.3,1984.3,309,1988.1,309.3,1993.4z"/>
<path class="st0" d="M234.4,1753.6c-3.2,2.7-4.9,5.1-6.8,5.4c-3.6,0.5-5.8-2.2-6.3-5.6s1.8-6,4.7-5.6
	C228.5,1748.1,230.6,1750.9,234.4,1753.6z"/>
<path class="st0" d="M315.3,2372c0.3-5.1,2.6-7.5,6-7.2c1.7,0.1,4,2.7,4.6,4.6c1,2.8-3.2,7.7-6.1,6.9
	C317.8,2375.8,316.4,2373.2,315.3,2372z"/>
<path class="st0" d="M272.8,2600.8c0.9-5.1,3.1-7.7,6.5-7.1c1.7,0.3,4,3.5,4.1,5.5c0.3,3.1-1.9,6.1-5.4,5.5
	C275.9,2604.3,274.2,2601.9,272.8,2600.8z"/>
<path class="st0" d="M314.3,1923.6c-1.7-2.4-4.1-4.6-4.9-7.3c-0.3-1.2,2.2-4.3,4-4.9c3-1,6.8,2.5,6.4,5.8c-0.3,2.2-2,4.1-3.1,6.2
	C315.9,1923.4,315.1,1923.5,314.3,1923.6z"/>
<path class="st0" d="M292,2724.1c-0.9-1.3-3.1-3.1-3.2-5.1c-0.3-3.4,1.8-6.2,5.6-6.4c3.2-0.2,4.8,2,4.9,5.1
	C299.4,2721.4,297.4,2723.4,292,2724.1z"/>
<path class="st0" d="M369,2224.9c-3.5,2.7-5.6,5.6-7.7,5.6c-1.7,0-4.7-3.6-4.6-5.4c0.1-2,2.9-5.1,5-5.5
	C363.3,2219.2,365.5,2222.2,369,2224.9z"/>
<path class="st0" d="M351.8,2104.5c2.7-2.8,4.1-5.2,6.1-6c2.4-1,6.6,3.5,5.9,6.4c-0.5,2.1-2.8,3.9-4.3,5.8
	C357.3,2108.9,355.1,2107.1,351.8,2104.5z"/>
<path class="st0" d="M335.8,2051.2c-4.9-0.3-8.1-1.3-7.5-5.1c0.3-2.2,2.7-5.4,4.5-5.7c3.6-0.6,5.9,2.4,5.7,5.9
	C338.4,2048.2,336.5,2050,335.8,2051.2z"/>
<path class="st0" d="M370.4,2156c-3.2,2.5-5.3,5.5-7,5.2c-2.1-0.3-5.3-3.5-5.1-5.1c0.2-2.1,3-5,5.2-5.6
	C364.9,2150.2,367.3,2153.4,370.4,2156z"/>
<path class="st0" d="M226.5,1533.2c-1.8-1.6-3.5-3.4-5.1-5.3c-1.7,1.6-4.3,3.3-4.2,4.7c0.3,2.5,2.8,4.8,4.3,7.2
	c0.8-0.1,1.6-0.1,2.4-0.2c1-1.9,3.2-4.2,2.8-5.7C226.7,1533.7,226.6,1533.5,226.5,1533.2z"/>
<path class="st0" d="M311.7,2770.6c-0.8-1.2-2.8-2.8-3.2-4.7c-0.6-3.5,1.3-6.6,5-6.3c1.8,0.1,4.3,2.9,4.8,4.9
	C319.1,2767.9,316.7,2769.9,311.7,2770.6z"/>
<path class="st0" d="M337.8,2896.1c0.6-4.9,1.6-7.8,5.5-8.3c3.2-0.3,4.5,1.6,4.5,4.6c0,3.6-1.5,6.5-5.2,6.6
	C340.9,2899,339.1,2896.9,337.8,2896.1z"/>
<path class="st0" d="M307.6,2426.6c0,5.2-1.8,7.8-5.2,7.4c-1.9-0.3-4.8-2.7-5.1-4.6c-0.7-3.7,2.4-5.8,5.8-5.7
	C304.9,2423.8,306.6,2426,307.6,2426.6z"/>
<path class="st0" d="M245.2,1687c-3,2.5-5.4,5.3-6.2,4.9c-2.3-1.2-4.6-3.4-5.6-5.7c-0.4-0.9,3-5,3.9-4.7
	C239.7,1682.2,241.7,1684.4,245.2,1687z"/>
<path class="st0" d="M345.8,2826.9c-3.3,3.1-5.1,5.3-7.5,6.6c-0.5,0.3-4.5-3.4-4.2-4.6c0.6-2.4,2.7-4.9,4.8-6.3
	C339.7,2822.2,342.4,2824.7,345.8,2826.9z"/>
<path class="st0" d="M357.1,2017.3c-3.2,2.8-4.8,5.3-6.8,5.7c-3.3,0.5-5.9-2-5.6-5.3c0.2-1.9,2.7-5.1,3.9-5
	C351,2012.9,353.3,2015,357.1,2017.3z"/>
<path class="st0" d="M289.6,2517.5c-3.2,2.7-5.1,5.6-7.1,5.7c-1.6,0.1-4.5-2.9-4.9-4.9c-0.6-3.4,2.1-5.8,5.5-5.5
	C284.9,2513,286.6,2515.2,289.6,2517.5z"/>
<path class="st0" d="M326.6,1983.2c-5-0.2-7.7-1.8-7.3-5.3c0.2-1.8,2.5-4.4,4.3-4.7c3.3-0.6,5.9,1.7,5.8,5.2
	C329.2,1980.2,327.3,1982,326.6,1983.2z"/>
<path class="st0" d="M324.2,1952.2c1.7-1.4,3.8-4.1,4.9-3.8c2.2,0.7,4.6,2.9,5.5,5c0.4,1.1-2.6,5.1-3.5,4.9
	c-2.4-0.4-4.5-2.5-6.8-3.9C324.3,1953.7,324.3,1953,324.2,1952.2z"/>
<path class="st0" d="M286.2,2648.5c-1.4-1.8-4.4-4-4-5.3c0.6-2.4,3.2-4.3,4.9-6.4c1.5,1.6,4.2,3.1,4.3,4.8c0.1,2.2-1.8,4.4-2.8,6.7
	C287.8,2648.3,287,2648.4,286.2,2648.5z"/>
<path class="st0" d="M384.5,2202.9c-1.9,1.4-3.9,4-5.5,3.8c-1.9-0.3-4.6-3.1-4.7-4.8c0-1.7,2.7-4.6,4.5-4.9c1.6-0.3,3.7,2.4,5.6,3.7
	C384.4,2201.4,384.5,2202.1,384.5,2202.9z"/>
<path class="st0" d="M341.5,2356.7c-3.1,2.5-5.1,4.1-7,5.7c-1.5-1.9-4-3.7-4.2-5.7c-0.3-3.2,2.3-5.3,5.5-4.6
	C337.5,2352.3,338.9,2354.4,341.5,2356.7z"/>
<path class="st0" d="M271.3,1809.4c-0.9,0.7-2.2,2.8-3.9,3.1c-3.3,0.5-5.7-1.5-6.1-5c-0.3-2.7,0.8-5,4-5
	C268.9,1802.4,270.8,1804.4,271.3,1809.4z"/>
<path class="st0" d="M366.3,2930.4c-1.7,0-3,0.7-3.8,1.8c1.4,2.7,2.6,5.5,3.6,8.3c2-1.3,3.7-3.4,6.5-6.1
	C369.5,2932.4,367.9,2930.4,366.3,2930.4z"/>
<path class="st0" d="M394.6,2145c-2.9,2.7-5.1,5.8-6,5.4c-2.2-0.9-4.4-3-5.2-5.1c-0.4-1,2.5-4.4,4.1-4.5
	C389.3,2140.6,391.3,2142.9,394.6,2145z"/>
<path class="st0" d="M310.5,1888.5c-2.8,2.5-4.8,5.2-5.8,4.9c-2.3-0.8-4.5-2.7-5.7-4.8c-0.4-0.7,2.6-4.8,3.8-4.7
	C305.1,1884.2,307.1,1886.3,310.5,1888.5z"/>
<path class="st0" d="M241.6,1608.5c-2.6,2.2-5,5-5.7,4.6c-2.2-1.2-4.3-3.3-5.3-5.5c-0.3-0.7,3.1-4.4,4.4-4.2
	C237.1,1603.7,238.8,1606.2,241.6,1608.5z"/>
<path class="st0" d="M385.5,2100c3.1-2.4,5-4.9,6.5-4.7c1.8,0.2,4.3,2.9,4.4,4.5s-2.5,4.5-4.1,4.7
	C390.7,2104.7,388.7,2102.3,385.5,2100z"/>
<path class="st0" d="M378.8,2236.3c1.9-1.4,3.8-3.5,5.9-3.8c1.3-0.1,4.1,2.9,3.9,4.3c-0.2,1.9-2.4,4.5-4.1,4.9
	c-1.6,0.3-3.7-2.1-5.5-3.2C378.9,2237.8,378.8,2237,378.8,2236.3z"/>
<path class="st0" d="M267.6,1737.6c-2.8,2.5-4.8,5.1-5.5,4.8c-2.3-1-4.3-3-5.8-5c-0.3-0.4,2.5-4.2,3.4-4.1
	C262,1733.7,264,1735.5,267.6,1737.6z"/>
<path class="st0" d="M364.5,2292.3c-1.3-1.8-3.2-3.4-3.6-5.3c-0.7-3.1,1.6-5.3,4.5-5c1.6,0.2,4.2,2.5,4.2,3.9c0,2.1-1.8,4.2-2.8,6.3
	C366,2292.2,365.3,2292.3,364.5,2292.3z"/>
<path class="st0" d="M291.5,1791.5c-2.7,2.3-4.7,4.7-5.5,4.4c-2.1-1-4.2-2.8-5.2-4.8c-0.4-0.8,2.7-4.5,3.8-4.3
	C286.7,1787,288.4,1789.2,291.5,1791.5z"/>
<path class="st0" d="M300.7,1847.9c-2.4-3.2-4.6-4.9-4.7-6.8c-0.1-1.5,2.3-3.3,3.6-4.9c1.7,1.7,4.2,3.1,5,5.1
	C304.9,1842.5,302.6,1844.7,300.7,1847.9z"/>
<path class="st0" d="M288.4,2572c2,3.1,4.1,5.1,3.9,6.6c-0.3,1.9-2.7,3.4-4.1,5.1c-1.5-1.6-4.2-3.1-4.3-4.8
	C283.8,2577,286.1,2575.1,288.4,2572z"/>
<path class="st0" d="M370.7,2835.5c-2.9,2.2-4.5,4.3-6.4,4.6c-1.1,0.2-4-2.9-3.7-3.7c0.8-2.2,2.8-3.9,4.3-5.8
	C366.3,2831.9,367.9,2833.2,370.7,2835.5z"/>
<path class="st0" d="M388.4,2034.5c-1.4-1.7-3.7-3.3-3.9-5.1c-0.1-1.5,2.3-3.3,3.5-4.9c1.7,1.5,4.2,2.7,4.8,4.5
	c0.4,1.3-1.6,3.5-2.5,5.3C389.8,2034.4,389.1,2034.4,388.4,2034.5z"/>
<path class="st0" d="M409.1,2180.4c-2.8,2.3-4.4,4.7-6.1,4.8c-1.4,0.1-4.4-2.7-4.2-4c0.2-1.9,2.3-4.3,4.1-5
	C404,2175.8,406.1,2178.3,409.1,2180.4z"/>
<path class="st0" d="M310,2707.9c2.8-2.3,4.4-4.7,6.2-4.9c1.2-0.1,3.9,2.8,3.9,4.3c0,1.6-2.2,4.4-3.8,4.7
	C315,2712.3,313,2710,310,2707.9z"/>
<path class="st0" d="M382.8,1990.6c-2.9,2.2-4.6,4.5-6.1,4.4c-1.7-0.2-4.1-2.4-4.3-4c-0.2-1.3,2.3-4,3.8-4.2
	C377.8,1986.5,379.7,1988.6,382.8,1990.6z"/>
<path class="st0" d="M344.6,2768.1c-2.5,2.4-4.1,4-5.7,5.5c-1.4-1.5-4.1-3.2-3.9-4.4c0.3-1.9,2.3-3.9,4.1-4.9
	C339.8,2763.9,342,2766.2,344.6,2768.1z"/>
<path class="st0" d="M358.7,2328.9c-2.2-2.7-4.7-4.6-4.4-5.6c0.6-2.1,2.7-3.8,4.3-5.6c1.4,1.3,4,2.7,4,4
	C362.5,2323.7,360.6,2325.6,358.7,2328.9z"/>
<path class="st0" d="M212.5,1881.3c-2.7,2.1-4.7,4.6-5.6,4.2c-1.9-0.8-3.8-2.8-4.4-4.8c-0.3-0.9,2.6-4.1,3.5-3.9
	C207.9,1877.3,209.6,1879.2,212.5,1881.3z"/>
<path class="st0" d="M309.2,2656.3c-3,2.3-4.7,4.4-6.5,4.6c-1.2,0.1-4.2-3-3.9-3.6c0.8-1.9,2.6-4,4.5-4.8
	C304.2,2652,306.2,2654.3,309.2,2656.3z"/>
<path class="st0" d="M312.8,2414.6c2.6-2.2,4.1-4.3,5.8-4.6c1.2-0.2,4.3,2.7,4,3.3c-0.7,1.9-2.3,4-4.1,4.8
	C317.6,2418.6,315.5,2416.4,312.8,2414.6z"/>
<path class="st0" d="M282.1,1725.2c-2.5-2.9-4.7-4.4-4.8-6.1c-0.2-1.4,2.1-3,3.3-4.5c1.5,1.5,3.5,2.8,4.2,4.5
	C285.1,1720.2,283.5,1722.1,282.1,1725.2z"/>
<path class="st0" d="M399.1,2223.3c2.6-2,4.3-4.4,5.5-4.1c1.8,0.4,3.1,2.6,4.6,4.1c-1.4,1.4-2.7,3.7-4.3,3.9
	C403.5,2227.4,401.8,2225.2,399.1,2223.3z"/>
<path class="st0" d="M236.8,1564.2c-1.3-1.9-3.1-3.6-3.7-5.6c-0.2-0.9,2.2-2.5,3.4-3.7c1.4,1.5,3.5,2.8,4.1,4.6
	c0.4,1.2-1.2,3-1.9,4.6C238,1564.1,237.4,1564.2,236.8,1564.2z"/>
<path class="st0" d="M397,2909.3c-2.5,2.3-3.9,4.3-5.7,4.7c-0.9,0.2-3.8-2.7-3.6-3.6c0.5-1.8,2.3-3.7,4-4.6
	C392.5,2905.5,394.5,2907.6,397,2909.3z"/>
<path class="st0" d="M376.4,2290.4c2.3-2.2,3.6-4.5,5.1-4.6c1.3-0.1,4,2.4,3.9,3.6c-0.1,1.6-2.1,3.6-3.7,4.2
	C380.7,2294,378.9,2292,376.4,2290.4z"/>
<path class="st0" d="M324.8,1827c2.5-2,4.1-4.1,5.2-3.8c1.7,0.4,3.5,2.1,4.2,3.7c0.3,0.7-2,3.6-3.1,3.6
	C329.4,1830.5,327.8,1828.8,324.8,1827z"/>
<path class="st0" d="M294.1,2544.5c-1.8-2.4-3.8-4.2-3.5-5c0.7-1.8,2.6-3.2,4-4.8c1.1,1.2,3.1,2.6,3,3.7
	C297.4,2540.2,295.7,2541.8,294.1,2544.5z"/>
<path class="st0" d="M338.1,2385.2c-1.6-2.6-3.2-4.1-3-5.2c0.3-1.5,2.1-3.7,3.3-3.8c1.3-0.1,3.9,2.2,3.8,3.2
	C341.9,2381,340.1,2382.5,338.1,2385.2z"/>
<path class="st0" d="M249.9,1618.6c2.4-1.7,4-3.5,4.9-3.3c1.5,0.4,3.2,2.1,3.5,3.6c0.2,1-2,3.5-2.9,3.4
	C253.9,1622.2,252.5,1620.5,249.9,1618.6z"/>
<path class="st0" d="M250.1,1583.6c-2-2.5-3.7-3.8-4.1-5.4c-0.2-0.8,1.7-2.2,2.7-3.4c1.2,1.2,2.9,2.1,3.4,3.5
	C252.5,1579.3,251.2,1580.9,250.1,1583.6z"/>
<path class="st0" d="M382.6,1889.6c1.7-1.6,2.9-3.4,3.6-3.2c1.5,0.4,2.7,1.7,4,2.7c-0.9,1.2-1.8,3.3-2.7,3.3
	C386.2,1892.4,384.8,1890.9,382.6,1889.6z"/>
<path class="st0" d="M357.6,2766.6c1.4,2.2,3,3.5,2.8,4.6c-0.1,1.2-1.8,2.8-3,2.9c-1,0.1-3.2-1.8-3.1-2.6
	C354.6,2770.2,356.1,2768.9,357.6,2766.6z"/>
<path class="st0" d="M329.2,2707.5c-1.2-2.3-2.6-3.7-2.4-4.8c0.2-1.2,1.9-2.1,3-3.1c0.9,1.2,2.5,2.3,2.5,3.5
	C332.4,2704.2,330.8,2705.4,329.2,2707.5z"/>
<path class="st0" d="M306.8,2634.5c1.3-0.9,2.5-2.2,3.9-2.6c0.5-0.1,2.5,2.2,2.3,2.9c-0.5,1.4-1.8,3-3.2,3.5c-1,0.4-2.6-0.8-4-1.3
	C306.1,2636.2,306.5,2635.4,306.8,2634.5z"/>
<path class="st0" d="M382.2,2323.8c-2.3,1.7-3.6,3.1-5,3.4c-0.8,0.2-2.8-1.8-2.7-2.5c0.2-1.3,1.5-3,2.7-3.2
	C378.3,2321.2,379.8,2322.6,382.2,2323.8z"/>
<path class="st0" d="M347.7,1799c-1.6-1.7-3.3-2.7-3.5-3.8c-0.1-0.9,1.8-2.8,2.8-2.8c1.1,0,2.6,1.6,3.1,2.8
	C350.4,1795.9,348.9,1797.3,347.7,1799z"/>
<path class="st0" d="M281.4,1668.4c1.9-1.7,3.2-3.5,3.7-3.3c1.4,0.6,2.7,1.9,3.6,3.2c0.2,0.2-1.5,2.5-2.1,2.4
	C285.2,1670.5,283.8,1669.5,281.4,1668.4z"/>
<path class="st0" d="M296.7,2569.1c2-1.2,3.2-2.5,4.3-2.5c1,0.1,1.9,1.6,2.8,2.6c-1,0.9-1.9,2.5-3,2.6
	C299.8,2571.9,298.6,2570.5,296.7,2569.1z"/>
<path class="st0" d="M374.8,2807c-1.3-2-2.7-3.1-2.5-4.1c0.2-1.1,1.7-1.9,2.7-2.9c0.9,1,2.5,1.9,2.6,2.9
	C377.6,2803.9,376.2,2805.1,374.8,2807z"/>
<path class="st0" d="M331.8,1749c-1.3-1.6-2.4-2.6-2.9-3.8c-0.1-0.3,1.7-2.1,2-2c1.1,0.5,2.3,1.5,2.8,2.6
	C333.8,1746.3,332.7,1747.5,331.8,1749z"/>
<path class="st0" d="M-41.5,1630c9.6-0.3,19.1-0.7,28.7-0.9c4.8-0.1,9.3,0.1,12.7-4.9c2.4-3.5,8.2-1.3,9.7,3.3
	c0.4,1.4,0.2,3.1,0.8,4.4c1.2,2.8,2.5,5.9-1,7.2c-2.4,0.9-6.7,0.8-8.2-0.7c-7.2-7.7-15.6-7.4-25.1-6c-5.7,0.9-11.7-0.6-17.6-0.9
	C-41.5,1630.9-41.5,1630.5-41.5,1630z"/>
<path class="st0" d="M66.6,2077.2c-0.1-4.2,4-8.5,8.1-8.4c2.6,0,7.7,6,8,9.2c0.4,4.9-3,9.4-7.1,9.5
	C70.1,2087.6,66.8,2083.8,66.6,2077.2z"/>
<path class="st0" d="M33.8,2444.9c0,1.3,0.6,2.9,0,3.9c-1.2,2.2-2.7,5.2-4.5,5.6c-1.9,0.5-4.6-1.5-6.7-2.9c-1-0.6-1.3-2.3-1.9-3.5
	c-0.9-2-4.9-3.2-2-6.1c3.2-3.1,6.7-7.1,11.5-5.2c2.2,0.9,3.3,4.8,4.9,7.3C34.7,2444.4,34.3,2444.6,33.8,2444.9z"/>
<path class="st0" d="M97.4,2349.7c-1.7,1.3-3.5,3.5-5.6,4c-3.1,0.8-6.8,1.2-9.6,0.1c-3.5-1.4-4.4-7.1-2.5-10.5
	c1.9-3.5,5.1-5.2,9.1-4.7c1,0.1,2.2,1,2.8,1.9C93.6,2343.4,95.5,2346.6,97.4,2349.7z"/>
<path class="st0" d="M128.9,2227.6c0.2,5.1-3.2,10-6.9,10.1c-4.1,0.1-8.2-4.3-8.3-9c-0.1-5.3,3.4-8.9,8.9-9.3
	C126.7,2219.2,128.6,2221.7,128.9,2227.6z"/>
<path class="st0" d="M137.8,2649.3c0.2,4.7-0.1,8.9,0.5,13c0.5,3.5,5.1,5.3,10.2,4.5c-9.1,6.5-10.2,15.6-9,25.6
	c-0.5-2.8-0.8-5.6-1.5-8.3c-0.4-1.7-1.2-3.3-1.8-4.9c-1.5,1-3.1,2-3.9,2.6c-0.6-1.7-1.9-3.8-2.1-6.1c-0.2-2.7-0.3-7.1,1.2-8
	c6.2-3.9,5.5-9.6,5.5-15.4c0-0.7,0-1.3,0.1-2C137.1,2650.1,137.2,2650,137.8,2649.3z"/>
<path class="st0" d="M52.9,1723.3c-2.9-0.5-6-0.5-8.5-1.7c-2.5-1.1-5.9-3-6.5-5.2c-0.8-3.2-0.3-7.3,1.1-10.4c1.3-3,9-1.5,10,1.9
	C50.6,1713.1,51.7,1718.4,52.9,1723.3z"/>
<path class="st0" d="M39.7,1953.7c-0.1-6.9,1.4-9.6,6-10.2c1.1-0.1,2.4-0.1,3.4,0.3c2.7,1.1,6.4,14.4,4.1,15.8
	c-2.2,1.4-5.5,1.6-8.1,1.3C41.3,1960.4,39.8,1957.8,39.7,1953.7z"/>
<path class="st0" d="M54.2,2179.9c0.3,6-1.1,8-5.8,8.3c-4.6,0.3-7.1-2.3-7.3-7.9c-0.3-6.5,1.9-10.4,6.3-10.6
	C51.5,2169.5,53.8,2173,54.2,2179.9z"/>
<path class="st0" d="M96.6,2000c0.1,7.5-1.3,9.8-6,9.8c-4.7-0.1-7.9-4.3-8.1-10.7c-0.1-4.1,2.5-6.8,6.7-7
	C93.2,1991.9,96.5,1995.4,96.6,2000z"/>
<path class="st0" d="M-6.9,1728.9c2.6-2.4,4.4-5.4,6.7-5.9c2-0.4,5.1,1.5,6.8,3.3c1.4,1.5,1.8,4.3,2,6.6c0.2,2.1,0.1,5.9-0.9,6.2
	c-2.4,0.8-6.1,1.2-7.8-0.2C-2.8,1736.7-4.2,1733-6.9,1728.9z"/>
<path class="st0" d="M47.1,2510.6c-0.3-6.1,2.9-9.1,8.7-8.3c4.4,0.6,5.6,2.5,4.4,6.9c-0.3,1.1-0.8,2.3-0.8,3.4
	c0.3,4.4-1.8,6.7-6,6.8c-4.4,0.1-6.1-2.7-6.3-6.7C47.2,2512,47.2,2511.3,47.1,2510.6z"/>
<path class="st0" d="M156.6,2398.6c-3.8-0.8-5.5-3.9-4.5-8.4c1-4.8,6.9-9.3,10.7-6.8c2.6,1.6,4.2,6.1,4.7,9.4
	C167.8,2395.9,160.4,2399.5,156.6,2398.6z"/>
<path class="st0" d="M105.7,2673.3c1.3,5.3,4,9.1,1.3,13.8s-5.7,6.1-10.4,3.6c-3.2-1.7-4.5-7.1-1.6-10.1
	C97.9,2677.7,101.9,2675.8,105.7,2673.3z"/>
<path class="st0" d="M1.4,1514.5c-5.6,0-9.5-4.2-9.6-9.9c-0.1-4,2.6-7,6.1-7c4.2,0,7.9,5.6,8.1,12.1
	C6.2,1513.6,4.2,1514.7,1.4,1514.5z"/>
<path class="st0" d="M-11.3,1561.4c-0.1-5.8,1.9-9.2,5.3-9.2c4.1,0,8.6,6.2,8.4,11.9c-0.1,3.1-1.2,5.4-4.9,5.5
	C-7.1,1569.7-11.2,1565.9-11.3,1561.4z"/>
<path class="st0" d="M24.7,2569.5c-2.5-1.5-4.7-2.1-5-3.2c-0.8-3.7-1.6-7.8-1-11.5c0.6-3.4,4.1-4.7,7.5-4c3.5,0.7,4,3.3,3.5,6.5
	c-0.3,1.9,0.4,4.2-0.3,5.9C28.5,2565.5,26.5,2567.3,24.7,2569.5z"/>
<path class="st0" d="M41,2666.5c0.9,4.6,0,8.7-5.4,9.7c-1.5,0.3-4-1.4-5-2.9c-1.2-1.6-1.6-4-1.6-6.1c-0.2-4.9,3.3-8.2,8-8
	C42.2,2659.3,41.2,2663,41,2666.5z"/>
<path class="st0" d="M6.7,2252.9c-0.1,1.5,0.2,3.3-0.5,4.4c-1.3,2.1-3.2,3.7-4.8,5.5c-1.8-1.7-3.6-3.3-5.2-5.1
	c-0.6-0.7-0.5-1.9-0.9-2.8c-1-2.5-2.8-5.3,0.3-7.1c2.4-1.3,5.8-2.3,8.2-1.6c1.6,0.4,2.5,4,3.6,6.2C7.2,2252.5,7,2252.7,6.7,2252.9z"
	/>
<path class="st0" d="M26.1,2345.1c0.6,7.1-0.8,9.5-5.5,9.2c-2.8-0.2-5.2-1.5-4.7-4.6c0.7-4.2-4.3-10.4,3.7-12.4
	C24,2336.2,25.5,2338.1,26.1,2345.1z"/>
<path class="st0" d="M0.5,2656c5.5-0.2,7.6,2,6.9,6.1c-0.5,2.9-1.1,6-2.7,8.4c-1,1.5-3.8,1.7-5.8,2.4c-0.3-1.6-0.6-3.3-0.9-4.9
	c-0.2-1-0.4-2.1-0.6-3.1c-0.4-1.9-1.7-4.2-1-5.5C-2.8,2657.6-0.3,2656.6,0.5,2656z"/>
<path class="st0" d="M25,2817.4c1.1,1.1,3.9,2.6,3.9,4.2c-0.1,5.2-5.5,3.5-8.4,5.2c-0.3,0.2-2.7-1.8-2.7-2.9
	C17.6,2820.1,20.2,2818.5,25,2817.4z"/>
<path class="st0" d="M24.1,2826.6c1.6,1.9,3.2,3.3,3,3.7c-1.1,1.8-2.5,3.6-4.2,4.7c-0.5,0.3-2.5-1.7-3.8-2.7
	C20.6,2830.6,22,2829,24.1,2826.6z"/>
<path class="st0" d="M262.6,2866.5c-0.6-7.6-1.1-15.2-1.8-22.9c-0.7,0.1-1.3,0.1-2,0.2c-0.2,7.6,0.9,15.2,1.8,22.8
	C261.3,2866.5,262,2866.5,262.6,2866.5z"/>
<path class="st0" d="M187.3,68.1c-2-2.1-4.8-3.9-6-6.5c-0.9-1.9-0.5-6.3,0.7-6.9c5-2.7,4.6-7.2,4.8-9.8c1.1,3.1,3.1,7.6,4.4,12.4
	c0.5,1.9-0.1,4.4-0.8,6.4C189.9,65.1,188.6,66.3,187.3,68.1z"/>
<path class="st0" d="M196.1,111.3c0.8,1.1,2.5,3,3.8,5.3c1.6,2.9,1.3,5.9-1.7,7.9c-3.4,2.2-5.7-0.3-7.6-2.5c-2-2.3-2.7-5.1,0.3-7.4
	C192.3,113.4,194.1,112.5,196.1,111.3z"/>
<path class="st0" d="M196.9,181.9c1.7-1.4,3.5-3.9,5.8-4.7c2.5-0.8,6.3,4.6,6,7.9s-2.3,5.2-5.6,4.9
	C199,189.7,197.9,186.6,196.9,181.9z"/>
<path class="st0" d="M196.3,31.4c3.2-2.4,5.1-4.5,7.4-5.3s6.3,3.8,5.5,6.9c-0.7,2.4-3.2,4.3-4.9,6.5
	C201.9,37.1,199.6,34.8,196.3,31.4z"/>
<path class="st0" d="M225.7,139.6c-3.3,2.5-5.1,4.9-7.1,5.1c-3.6,0.4-5.7-2.4-6.1-5.9c-0.3-3.4,2.1-5.9,5-5.4
	C220.1,133.8,222.1,136.7,225.7,139.6z"/>
<path class="st0" d="M234.3,232.3c-1.6-2.5-3.9-4.8-4.6-7.5c-0.3-1.2,2.4-4.2,4.2-4.7c3-0.9,6.7,2.8,6.1,6c-0.4,2.2-2.2,4.1-3.4,6.1
	C235.9,232.2,235.1,232.3,234.3,232.3z"/>
<path class="st0" d="M239.5,73.6c-3.1,2.3-5.7,5.1-6.4,4.6c-2.3-1.3-4.5-3.6-5.4-6c-0.4-1,3.3-4.9,4.1-4.6
	C234.2,68.5,236.1,70.8,239.5,73.6z"/>
<path class="st0" d="M138,164c-6.4,0-6.4,10,0,10S144.4,164,138,164z"/>
<path class="st0" d="M78,140c-2.7,0.1-5,2.2-5,5v4c0,2.6,2.3,5.1,5,5s5-2.2,5-5v-4C83,142.4,80.7,139.9,78,140z"/>
<path class="st0" d="M175.5,253.5c-0.9-0.9-2.3-1.5-3.5-1.5c-1.3,0.1-2.6,0.5-3.5,1.5s-1.5,2.2-1.5,3.5v2c0,1.3,0.6,2.6,1.5,3.5
	s2.3,1.5,3.5,1.5c1.3-0.1,2.6-0.5,3.5-1.5s1.5-2.2,1.5-3.5v-2C177,255.7,176.4,254.4,175.5,253.5z"/>
<path class="st0" d="M197.5,346c-5.5,0-5.5,10,0,10S203,346,197.5,346z"/>
<path class="st0" d="M42,200c-6.4,0-6.4,10,0,10S48.4,200,42,200z"/>
<path class="st0" d="M119,408c-5.5,0-5.5,10,0,10S124.5,408,119,408z"/>
<path class="st0" d="M236.7,352c-5.5,0-5.5,10,0,10S242.2,352,236.7,352z"/>
<path class="st0" d="M230,276c-2.7,0.1-5,2.2-5,5v8c0,2.6,2.3,5.1,5,5s5-2.2,5-5v-8C235,278.4,232.7,275.9,230,276z"/>
<path class="st0" d="M102,276c-2.7,0.1-5,2.2-5,5v6c0,2.6,2.3,5.1,5,5s5-2.2,5-5v-6C107,278.4,104.7,275.9,102,276z"/>
<path class="st0" d="M142.9,344c-5.5,0-5.5,10,0,10S148.4,344,142.9,344z"/>
<path class="st0" d="M34,302c-6.4,0-6.4,10,0,10S40.4,302,34,302z"/>
<path class="st0" d="M248,508c-6.4,0-6.4,10,0,10S254.4,508,248,508z"/>
<path class="st0" d="M226.5,424c-5.5,0-5.5,10,0,10S232,424,226.5,424z"/>
<path class="st0" d="M183.8,412c-5.5,0-5.5,10,0,10S189.3,412,183.8,412z"/>
<path class="st0" d="M194,564c-6.4,0-6.4,10,0,10S200.4,564,194,564z"/>
<path class="st0" d="M214,738c-6.4,0-6.4,10,0,10S220.4,738,214,738z"/>
<path class="st0" d="M174,688c-6.4,0-6.4,10,0,10S180.4,688,174,688z"/>
<path class="st0" d="M92,672c-6.4,0-6.4,10,0,10S98.4,672,92,672z"/>
<path class="st0" d="M215,649c0-2.6-2.2-5-4.8-5c-1.1-0.5-2.3-0.6-3.5-0.4c-0.3,0-0.5,0.1-0.8,0.2c-1.7-0.4-3.6-0.4-5.3,0.2
	c-2.6,0.9-4.2,3.4-3.5,6.2v0.1c-0.1,0.8-0.1,1.7,0.1,2.5c0,0.1-0.1,0.2-0.1,0.3c-0.6,2.6-0.4,5.4,0.8,7.7c1.6,3.1,5.4,3.6,8.5,2.7
	c4.9-1.4,8.3-6.5,7.5-11.4C214.6,651.2,215,650.1,215,649z"/>
<path class="st0" d="M269,567v12c0,6.4,10,6.4,10,0v-12C279,560.6,269,560.6,269,567z"/>
<path class="st0" d="M330,626c-2.7,0.1-5,2.2-5,5v6c0,2.6,2.3,5.1,5,5s5-2.2,5-5v-6C335,628.4,332.7,625.9,330,626z"/>
<path class="st0" d="M312,710c-2.7,0.1-5,2.2-5,5v4c0,2.6,2.3,5.1,5,5s5-2.2,5-5v-4C317,712.4,314.7,709.9,312,710z"/>
<path class="st0" d="M243.5,633.5c-0.9-0.9-2.3-1.5-3.5-1.5c-1.3,0.1-2.6,0.5-3.5,1.5s-1.5,2.2-1.5,3.5v2c0,1.3,0.6,2.6,1.5,3.5
	s2.3,1.5,3.5,1.5c1.3-0.1,2.6-0.5,3.5-1.5s1.5-2.2,1.5-3.5v-2C245,635.7,244.4,634.4,243.5,633.5z"/>
<path class="st0" d="M272,714c-6.4,0-6.4,10,0,10S278.4,714,272,714z"/>
<path class="st0" d="M278,828c-6.4,0-6.4,10,0,10S284.4,828,278,828z"/>
<path class="st0" d="M174,802c-6.4,0-6.4,10,0,10S180.4,802,174,802z"/>
<path class="st0" d="M126,796c-6.4,0-6.4,10,0,10C132.4,806,132.4,796,126,796z"/>
<path class="st0" d="M32,672c-6.4,0-6.4,10,0,10S38.4,672,32,672z"/>
<path class="st0" d="M104,544c-6.4,0-6.4,10,0,10S110.4,544,104,544z"/>
<path class="st0" d="M196,486c-6.4,0-6.4,10,0,10S202.4,486,196,486z"/>
<path class="st0" d="M274,456c-6.4,0-6.4,10,0,10S280.4,456,274,456z"/>
<path class="st0" d="M56,374c-6.4,0-6.4,10,0,10S62.4,374,56,374z"/>
<path class="st0" d="M188,284c-6.4,0-6.4,10,0,10S194.4,284,188,284z"/>
<path class="st0" d="M102,204c-6.4,0-6.4,10,0,10S108.4,204,102,204z"/>
<path class="st0" d="M201.8,1032.6c-4.9,2.1-8.2,4.7-10.8,4.2c-2.1-0.4-5-5.1-4.5-7.1c0.6-2.2,4.8-4.8,7.4-4.8
	C196.1,1024.9,198.2,1028.8,201.8,1032.6z"/>
<path class="st0" d="M208.5,895.9c4-2.4,6.3-4.7,9-5.1c3.2-0.5,7.4,5.5,5.8,8.5c-1.2,2.2-4.3,3.5-6.6,5.3
	C214.3,902.1,211.9,899.6,208.5,895.9z"/>
<path class="st0" d="M219.6,957.3c-4.5,2-7.8,4.7-9.8,4c-2.5-0.9-5.7-5.2-5.2-6.9c0.8-2.3,4.9-4.7,7.7-4.8
	C214.1,949.5,216.3,953.6,219.6,957.3z"/>
<path class="st0" d="M235.2,801.4c-4.6,2.3-7.2,4.7-9.7,4.5c-4.2-0.3-6.8-3.7-5.7-7.3c0.6-2,4.6-4.9,6-4.5
	C228.8,795.1,231,798,235.2,801.4z"/>
<path class="st0" d="M226.1,1012.3c-2.6,1-5.7,3.5-7.7,2.8c-2.2-0.8-5-4.5-4.7-6.4s4.4-4.4,6.7-4.3c2.1,0.1,4,3.5,6,5.5
	C226.4,1010.7,226.2,1011.5,226.1,1012.3z"/>
<path class="st0" d="M251.9,951.2c-4.2,2.3-7.7,5.1-8.6,4.5c-2.5-1.5-4.7-4.4-5.2-7c-0.2-1.2,4.1-4.2,6.1-4
	C246.4,945.1,248.4,948.1,251.9,951.2z"/>
<path class="st0" d="M251.1,899.4c4.4-1.8,7.3-4.1,9.1-3.5c2.1,0.7,4.7,4.2,4.4,6.1c-0.3,1.8-4.1,4.3-6.2,4.1
	C256.5,906,254.6,902.8,251.1,899.4z"/>
<path class="st0" d="M211.3,1047.7c2.7-1,5.5-2.9,8.1-2.7c1.6,0.2,4.4,4.3,3.9,5.7c-0.7,2-4,4.4-6.2,4.3c-2-0.1-4.1-3.2-6.1-4.9
	C211.1,1049.3,211.2,1048.5,211.3,1047.7z"/>
<path class="st0" d="M180.7,1105.7c-1.1-2.3-3.2-4.5-3.2-6.8c-0.1-3.6,3.2-5.4,6.8-4.4c1.9,0.6,4.6,3.8,4.3,5.4
	c-0.4,2.3-3.2,4.2-5,6.2C182.6,1105.9,181.6,1105.8,180.7,1105.7z"/>
<path class="st0" d="M269.9,828.2c-1.3-2.2-3.8-4.6-3.6-6.6c0.2-1.7,3.5-3,5.5-4.5c1.7,2,4.5,4,4.9,6.1c0.2,1.6-2.7,3.5-4.3,5.2
	C271.6,828.3,270.8,828.3,269.9,828.2z"/>
<path class="st0" d="M261.7,993.7c-3.9,1.8-6.5,4-8.7,3.7c-1.8-0.3-4.8-4.1-4.3-5.4c0.7-2,3.8-4.2,6.2-4.4
	C256.4,987.4,258.5,990.7,261.7,993.7z"/>
<path class="st0" d="M273.2,778.5c-4.1,1.7-6.7,3.8-8.5,3.3c-2-0.6-4.5-3.7-4.4-5.5c0.1-1.5,3.7-3.8,5.7-3.7
	C267.9,772.8,269.8,775.6,273.2,778.5z"/>
<path class="st0" d="M274.9,692c-3.8,1.6-6.9,3.8-7.9,3.2c-2.2-1.3-4-4.1-4.4-6.4c-0.2-1,4.1-3.9,5.2-3.4
	C270.2,686.4,271.8,688.9,274.9,692z"/>
<path class="st0" d="M279.5,925.9c3.5-1.7,6.2-3.9,7.6-3.4c2.1,0.8,3.3,3.6,4.9,5.6c-2.1,1.2-4.3,3.4-6.4,3.4
	C284,931.4,282.3,928.6,279.5,925.9z"/>
<path class="st0" d="M239.4,1038.5c3.6-1.6,6.3-3.8,7.7-3.2c2.1,0.9,3.2,3.7,4.7,5.6c-2.1,1.2-4.2,3.4-6.2,3.2
	C243.9,1044,242.3,1041.2,239.4,1038.5z"/>
<path class="st0" d="M195.8,1106.5c3.3-1.8,5.5-4,7.4-3.7c1.7,0.3,4.3,3.6,4,4.9c-0.5,1.7-3.4,3.5-5.5,3.7
	C200.4,1111.5,198.5,1108.9,195.8,1106.5z"/>
<path class="st0" d="M298.2,788c-1.6-3.2-3.5-5.4-3.1-6.9c0.4-1.4,3.6-3.1,5.1-2.8c1.6,0.3,3.9,3.1,3.7,4.5
	C303.6,784.4,301,785.6,298.2,788z"/>
<path class="st0" d="M297.7,980.7c-3.5,1.4-5.8,3.2-7.5,2.8c-1.6-0.4-2.6-3-3.8-4.7c1.9-1,3.7-2.8,5.6-2.8
	C293.5,975.9,295,978.3,297.7,980.7z"/>
<path class="st0" d="M314.6,874.2c-2-2.7-4.4-4.6-4.1-6.1c0.2-1.5,3.1-2.5,4.9-3.8c1.5,1.8,3.6,3.4,4.2,5.4
	C319.8,870.6,317,872.1,314.6,874.2z"/>
<path class="st0" d="M313.7,945.9c-1.5-2.9-3.3-4.8-2.9-5.9c0.7-1.5,2.9-2.4,4.5-3.6c1,1.4,3,3,2.8,4.2
	C317.9,942.2,315.9,943.4,313.7,945.9z"/>
<path class="st0" d="M315.7,731.5c3.4-0.9,5.4-2.1,6.7-1.5c1.5,0.6,3,2.7,3,4.1c0,0.9-3,2.7-4.1,2.4
	C319.5,736,318.3,734,315.7,731.5z"/>
<path class="st0" d="M296.3,667.4c2.5-1.4,4.4-3,5.2-2.7c1.7,0.8,2.9,2.6,4.4,4c-1.4,1.1-3,3.1-4.1,2.9
	C300.1,671.4,298.7,669.4,296.3,667.4z"/>
<path class="st0" d="M246,1094.7c-1.2-2.3-2.8-4.1-2.3-4.9c0.7-1.2,2.8-2.3,4.4-2.3c1,0,3,2.6,2.7,3.3
	C250.1,1092.1,248.2,1093,246,1094.7z"/>
<path class="st0" d="M281.3,1029.7c2.6-0.9,4.4-2.1,5.5-1.7c1.3,0.5,2,2.3,2.9,3.6c-1.3,0.8-2.8,2.3-3.9,2.1
	C284.4,1033.5,283.4,1031.7,281.3,1029.7z"/>
<path class="st0" d="M332.1,799.5c-1-2.2-2.1-3.6-1.9-4.6c0.2-0.8,2.4-1.9,3.1-1.6c1.2,0.4,2.8,2,2.7,2.9
	C336.1,797.2,334.2,798,332.1,799.5z"/>
<path class="st0" d="M257.7,1161.8c0.9-4.1,6-7.2,9.9-6.1c2.5,0.7,5.9,7.8,5.3,10.9c-0.9,4.8-5.3,8.3-9.3,7.4
	C258.4,1172.7,256.2,1168.3,257.7,1161.8z"/>
<path class="st0" d="M132.3,1509c-0.3,1.3-0.2,3-1,3.8c-1.7,1.8-3.9,4.3-5.8,4.3c-2,0-4.1-2.6-5.8-4.5c-0.8-0.8-0.7-2.5-0.9-3.8
	c-0.4-2.1-3.9-4.4-0.4-6.4c3.8-2.2,8.3-5.2,12.4-2.1c1.9,1.4,2,5.5,2.9,8.3C133.3,1508.7,132.8,1508.9,132.3,1509z"/>
<path class="st0" d="M190.8,1376.1c-1.6,1.4-3.2,3.8-5.3,4.5c-3,1-6.7,1.7-9.6,0.8c-3.6-1.1-5-6.7-3.3-10.3c1.7-3.6,4.7-5.6,8.7-5.4
	c1,0,2.2,0.8,2.9,1.7C186.6,1370.2,188.7,1373.2,190.8,1376.1z"/>
<path class="st0" d="M219.5,1258c-1.3,5.9-3.1,7.5-7.7,6.6c-4.5-0.9-6.2-4.1-5.1-9.5c1.3-6.4,4.5-9.5,8.8-8.7
	C219.6,1247.2,220.9,1251.2,219.5,1258z"/>
<path class="st0" d="M176,1126.6c0-0.1-0.1-1.2,0.1-2.3c0.4-1.8,1.2-5,1.7-5c2.8,0.1,6,0.3,8.1,1.8c2.6,1.9,1.8,11.9-1,13.8
	c-1.8,1.2-4.6,1.9-6.6,1.4C175.5,1135.4,174.7,1131.4,176,1126.6z"/>
<path class="st0" d="M155,1316.4c-0.5,1.4-0.6,3.2-1.6,4.1c-1.8,1.7-4,2.8-6.1,4.1c-1.3-2.1-2.7-4.1-3.8-6.2c-0.4-0.8,0-2-0.2-3
	c-0.3-2.6-1.4-5.9,2.1-6.7c2.7-0.7,6.2-0.7,8.4,0.6c1.5,0.9,1.4,4.5,2,6.9C155.6,1316.2,155.3,1316.3,155,1316.4z"/>
<path class="st0" d="M150.2,1410.6c-1.2,7-3.2,9-7.6,7.5c-2.7-0.9-4.6-2.8-3.3-5.6c1.8-3.9-1.5-11.2,6.7-11
	C150.5,1401.4,151.4,1403.6,150.2,1410.6z"/>
<path class="st0" d="M51.5,1467.3c-5.6-1.6-9.4-7.8-7.4-11.9c0.7-1.5,3.7-2.9,5.6-2.8c3.2,0.1,6.2,8.2,4.6,12.3
	C53.9,1466.1,52.1,1466.8,51.5,1467.3z"/>
<path class="st0" d="M75,1284.6c-0.3-0.8-1.1-2.4-1.8-4.1c3.4-1.5-1.7-9.5,5.3-7.5c2.5,0.7,5.3,4.6,5.8,7.4
	C85,1283.5,80,1285.8,75,1284.6z"/>
<path class="st0" d="M21.2,1523.9c0.8-4.3,1.4-7.4,2-10.6c1.9,0.9,5.1,1.6,5.4,2.9C29.4,1520.2,26.6,1522.2,21.2,1523.9z"/>
<path class="st0" d="M156.3,1423.5c-0.5-4.1,2.2-8.6,5.1-8.8c1.9-0.1,6.1,5.6,6.6,8.8c0.7,4.9-1.4,9.5-4.3,9.8
	C159.7,1433.7,157.1,1430.1,156.3,1423.5z"/>
<path class="st0" d="M164.2,1791.3c0.1,1.3,0.7,2.9,0.4,3.9c-0.7,2.2-1.5,5.3-2.8,5.8c-1.4,0.5-3.5-1.3-5.1-2.5
	c-0.8-0.6-1.1-2.2-1.6-3.4c-0.8-1.9-3.9-3-2-6c2-3.2,4.2-7.4,7.9-5.7c1.7,0.8,2.8,4.6,4.2,7C164.8,1790.8,164.5,1791,164.2,1791.3z"
	/>
<path class="st0" d="M202.2,1693.4c-1.1,1.4-2.2,3.7-3.7,4.3c-2.2,0.9-4.8,1.5-7,0.6c-2.6-1.2-3.8-6.9-2.7-10.4
	c1.1-3.6,3.2-5.4,6.2-5.1c0.7,0.1,1.7,0.9,2.2,1.7C198.9,1687.4,200.5,1690.5,202.2,1693.4z"/>
<path class="st0" d="M156.1,1526.4c0.7,6-0.1,8.1-3.5,8.5c-3.3,0.5-5.3-2-6-7.5c-0.8-6.5,0.5-10.4,3.7-10.9
	C153.3,1516.2,155.3,1519.5,156.1,1526.4z"/>
<path class="st0" d="M91.2,1414.5c0-0.1-0.4-1.1-0.5-2.2c-0.2-1.8-0.6-5.1-0.2-5.3c1.9-0.8,4.2-1.5,6-0.7c2.3,1,4.4,10.8,3,13.4
	c-0.9,1.7-2.6,3.2-4.1,3.3C93.3,1423,91.6,1419.4,91.2,1414.5z"/>
<path class="st0" d="M127.9,1601.3c0,1.5,0.4,3.2,0,4.4c-0.8,2.1-2,3.9-3,5.8c-1.4-1.6-2.9-3.1-4.2-4.8c-0.5-0.6-0.6-1.9-0.9-2.8
	c-0.9-2.4-2.5-5.2-0.4-7c1.6-1.4,4-2.5,5.8-2c1.2,0.4,2.1,3.9,3.2,6C128.3,1601,128.1,1601.2,127.9,1601.3z"/>
<path class="st0" d="M149.9,1692.3c1,7,0.2,9.5-3.2,9.4c-2.1-0.1-3.9-1.3-3.8-4.3c0.1-4.3-4-10.2,1.6-12.5
	C147.7,1683.5,148.9,1685.4,149.9,1692.3z"/>
<path class="st0" d="M98,1775.9c-4.2,0.2-8.5-4.6-8.2-9.1c0.1-1.7,1.7-3.8,3-4.4c2.2-0.9,6.4,5.9,6.4,10.3
	C99.3,1774,98.3,1775.1,98,1775.9z"/>
<path class="st0" d="M64.9,1595c-0.5-0.7-1.4-2-2.3-3.3c1.9-2.4-3.7-8.5,1.6-8.7c1.9-0.1,4.8,2.8,6,5.3
	C71.4,1591,68.7,1594.7,64.9,1595z"/>
<path class="st0" d="M92.5,1838.7c-0.6-4.3-1-7.5-1.4-10.7c1.5,0.3,3.9,0,4.4,1.1C97.2,1832.8,95.8,1835.5,92.5,1838.7z"/>
<path class="st0" d="M42.1,1474c1,2,2.7,3.9,2.8,6c0.1,1.2-2.1,2.6-3.4,3.7c-0.1,0.1-1.8-2.1-1.8-3.2c0-2.1,0.7-4.2,1.1-6.3
	C41.2,1474,41.6,1474,42.1,1474z"/>
<path class="st0" d="M250.4,1306.9c1.3,3.3,2.9,6.7,3.8,10.2c0.5,1.6,0.1,3.6-0.5,5.1c-0.9,2.5-2.2,4.9-3.4,7.5
	c-8.2-3.3-9.3-10.2-2.9-15.9c2-1.8,2.9-4.9,4.3-7.3C251.3,1306.7,250.8,1306.8,250.4,1306.9z"/>
<path class="st0" d="M250.5,1438.9c7.7,5.5,7.3,10-1,15.4C242.3,1449.2,242.5,1445.2,250.5,1438.9z"/>
<path class="st0" d="M251.9,1401.7c1.7,1.1,2.8,2.3,4.1,2.8c4.3,1.7,4.5,5.1,2.4,8c-1.4,2-4.7,3.8-7.1,3.6c-3.1-0.2-4.5-5.3-2.9-8.7
	C249.4,1405.5,250.7,1403.7,251.9,1401.7z"/>
<path class="st0" d="M235.9,1289.1c-3.4,3.5-5.3,6.9-8,7.7c-3,0.9-6.3-2.1-5.5-5.3c0.7-2.9,3.3-5.8,5.8-7.7
	C228.7,1283.3,232.3,1286.6,235.9,1289.1z"/>
<path class="st0" d="M239.7,1355.1c-0.6,4.3-3.7,8.2-6.5,8.2c-3.5-0.1-5.5-2.1-5.6-5.7c0-3.9,2.3-6.7,6-6.7
	C235.7,1350.8,237.6,1353.5,239.7,1355.1z"/>
<path class="st0" d="M258.5,1139.5c3.3,4.4,4.1,7.6,0.9,10.6c-2.5,2.4-4.8,1.6-6.8-0.7c-2-2.3-2.3-8.4,0-9.5
	C254.5,1139,257.1,1139.5,258.5,1139.5z"/>
<path class="st0" d="M221.6,1382.4c0.9,1.3,3.1,3.1,3.3,5.1c0.3,3.4-1.8,6.2-5.5,6.5c-3.2,0.3-4.8-2-5-5
	C214.3,1385.2,216.3,1383.2,221.6,1382.4z"/>
<path class="st0" d="M201.6,1336.1c0.9,1.2,2.8,2.8,3.1,4.6c0.6,3.5-1.3,6.6-5,6.4c-1.8-0.1-4.3-2.9-4.8-4.9
	C194.2,1338.8,196.6,1336.9,201.6,1336.1z"/>
<path class="st0" d="M228.6,1201.3c2.6,4.2,3.6,7.1,0.8,9.9c-2.3,2.2-4.5,1.5-6.4-0.8c-2.2-2.8-2.9-6.1,0-8.4
	C224.4,1201,227.1,1201.5,228.6,1201.3z"/>
<path class="st0" d="M167,1280.2c3.2-3.1,5.1-5.4,7.5-6.7c0.5-0.3,4.5,3.4,4.2,4.5c-0.6,2.4-2.6,4.8-4.8,6.3
	C173.1,1284.7,170.4,1282.2,167,1280.2z"/>
<path class="st0" d="M228,1458.1c1.5,1.8,4.4,4,4.1,5.3c-0.6,2.3-3.2,4.3-4.9,6.4c-1.6-1.6-4.2-3.1-4.4-4.8
	c-0.1-2.2,1.8-4.5,2.8-6.7C226.4,1458.2,227.2,1458.1,228,1458.1z"/>
<path class="st0" d="M142.1,1271.7c2.9-2.3,4.5-4.3,6.4-4.6c1.1-0.2,4.1,2.9,3.8,3.6c-0.8,2.1-2.7,3.9-4.2,5.8
	C146.5,1275.2,144.9,1274,142.1,1271.7z"/>
<path class="st0" d="M203.8,1398.8c-2.8,2.3-4.4,4.7-6.1,4.9c-1.2,0.2-3.9-2.7-3.9-4.3c0-1.6,2.2-4.4,3.8-4.7
	C198.8,1394.4,200.8,1396.7,203.8,1398.8z"/>
<path class="st0" d="M168.8,1338.9c2.5-2.4,4.1-4,5.7-5.6c1.4,1.4,4.1,3.1,3.9,4.4c-0.3,1.9-2.3,3.9-4,4.9
	C173.6,1343.1,171.4,1340.8,168.8,1338.9z"/>
<path class="st0" d="M205,1450.4c3-2.3,4.6-4.4,6.5-4.6c1.2-0.2,4.3,3,4,3.6c-0.8,1.9-2.6,3.9-4.5,4.8
	C210.1,1454.6,208,1452.4,205,1450.4z"/>
<path class="st0" d="M155.7,1340.4c-1.4-2.2-3-3.5-2.8-4.7c0.1-1.1,1.9-2.9,2.9-3s3.2,1.7,3.1,2.5
	C158.8,1336.9,157.2,1338.1,155.7,1340.4z"/>
<path class="st0" d="M184.6,1399.3c1.2,2.3,2.6,3.7,2.5,4.8c-0.2,1.2-1.9,2.1-2.9,3.2c-1-1.2-2.5-2.3-2.6-3.5
	C181.4,1402.7,183,1401.5,184.6,1399.3z"/>
<path class="st0" d="M220.9,1245.1c1.3,1.9,2.7,3.2,2.5,4.1c-0.1,1-1.7,1.9-2.7,2.8c-1-1-2.5-1.9-2.6-2.9
	C218.2,1248.1,219.6,1247,220.9,1245.1z"/>
<path class="st0" d="M293,1089c1.4,1.8,3.3,3.4,4,5.4c0.2,0.9-2.1,2.6-3.2,3.9c-1.5-1.4-3.6-2.6-4.3-4.4c-0.5-1.2,1-3.1,1.7-4.7
	C291.8,1089.1,292.4,1089,293,1089z"/>
<path class="st0" d="M68.5,1692.3c-0.8-3.1-1.8-6.2-2.4-9.4c-0.3-1.4,0.1-3.3,0.6-4.6c0.7-2.3,1.8-4.3,2.8-6.6
	c5.9,3.3,6.5,9.7,1.5,14.5c-1.5,1.5-2.3,4.3-3.4,6.4C67.8,1692.5,68.2,1692.4,68.5,1692.3z"/>
<path class="st0" d="M73.5,1573.1c-5.4-5.3-5-9.4,1.3-13.8C79.9,1564.2,79.6,1567.8,73.5,1573.1z"/>
<path class="st0" d="M71,1606.7c-1.2-1.1-2-2.2-2.9-2.7c-3.1-1.7-3.1-4.8-1.5-7.3c1.1-1.7,3.6-3.2,5.4-2.9c2.3,0.4,3.1,5,1.8,8
	C73,1603.3,72,1604.9,71,1606.7z"/>
<path class="st0" d="M78.5,1709.1c2.6-3,4.2-6,6.2-6.6c2.2-0.6,4.5,2.2,3.8,5.1c-0.7,2.6-2.6,5.1-4.5,6.7
	C83.4,1714.7,80.9,1711.5,78.5,1709.1z"/>
<path class="st0" d="M78.2,1649.3c0.6-3.9,3-7.2,5.1-7.1c2.6,0.3,4,2.2,3.9,5.4c-0.1,3.5-2,6-4.6,5.8
	C80.9,1653.4,79.6,1650.8,78.2,1649.3z"/>
<path class="st0" d="M56.1,1843.2c-2.3-4.2-2.7-7.1-0.2-9.6c1.9-2.1,3.6-1.2,5,1s1.4,7.7-0.4,8.6C59,1843.9,57.1,1843.2,56.1,1843.2
	z"/>
<path class="st0" d="M92.5,1625.5c-0.6-1.2-2.1-3-2.2-4.8c-0.1-3.1,1.5-5.5,4.3-5.6c2.3-0.1,3.4,2,3.4,4.8
	C98,1623.3,96.4,1625.1,92.5,1625.5z"/>
<path class="st0" d="M105.4,1668.3c-0.6-1.1-2-2.6-2.1-4.3c-0.3-3.2,1.2-5.9,3.9-5.5c1.3,0.2,3,2.8,3.3,4.6
	C110.9,1666.2,109,1667.8,105.4,1668.3z"/>
<path class="st0" d="M80.4,1788.8c-1.8-3.9-2.3-6.6-0.2-9c1.8-1.9,3.4-1.2,4.7,1c1.5,2.6,1.9,5.6-0.3,7.6
	C83.4,1789.2,81.5,1788.7,80.4,1788.8z"/>
<path class="st0" d="M128.5,1720.5c-2.5,2.6-4,4.6-5.7,5.7c-0.4,0.3-3.2-3.3-2.9-4.3c0.5-2.2,2.1-4.3,3.7-5.4
	C124.2,1716,126.1,1718.5,128.5,1720.5z"/>
<path class="st0" d="M90.7,1556.9c-1-1.7-3.1-3.8-2.8-5c0.5-2.1,2.5-3.7,3.8-5.5c1.1,1.5,2.9,3,3,4.5c0,2-1.5,4-2.3,5.9
	C91.9,1556.9,91.3,1556.9,90.7,1556.9z"/>
<path class="st0" d="M146.4,1729.3c-2.2,1.9-3.4,3.7-4.8,3.9c-0.8,0.1-2.9-2.8-2.6-3.4c0.7-1.9,2.1-3.4,3.3-5.1
	C143.4,1725.9,144.5,1727.1,146.4,1729.3z"/>
<path class="st0" d="M106.2,1611.6c2.1-2,3.4-4.1,4.7-4.2c0.9-0.1,2.8,2.6,2.7,4.1c-0.1,1.4-1.8,3.9-2.9,4.1
	C109.6,1615.7,108.3,1613.6,106.2,1611.6z"/>
<path class="st0" d="M129.5,1667.3c-1.9,2.1-3.2,3.4-4.4,4.8c-1-1.4-2.9-3-2.7-4.2c0.3-1.7,1.8-3.4,3.2-4.3
	C126.1,1663.3,127.7,1665.5,129.5,1667.3z"/>
<path class="st0" d="M107.3,1564.9c-2.3,1.9-3.5,3.8-4.9,3.9c-0.9,0.1-3-2.9-2.8-3.4c0.7-1.7,2.1-3.4,3.4-4.2
	C103.7,1560.8,105.1,1562.9,107.3,1564.9z"/>
<path class="st0" d="M139.1,1666.6c1,2.1,2.1,3.3,1.9,4.3c-0.1,1-1.5,2.5-2.3,2.5c-0.7,0-2.3-1.7-2.2-2.4
	C136.8,1669.6,137.9,1668.6,139.1,1666.6z"/>
<path class="st0" d="M120.3,1612c-0.8-2.2-1.8-3.4-1.6-4.4c0.2-1.1,1.5-1.8,2.3-2.7c0.7,1.1,1.8,2.2,1.8,3.3
	C122.7,1609.1,121.5,1610.1,120.3,1612z"/>
<path class="st0" d="M87.7,1749.6c-0.9-1.8-1.8-3-1.7-3.8c0.1-0.9,1.3-1.6,2.1-2.4c0.7,0.9,1.8,1.8,1.8,2.7S88.7,1747.9,87.7,1749.6
	z"/>
<path class="st0" d="M28.9,1887.2c-1-1.7-2.3-3.3-2.7-5.1c-0.1-0.8,1.6-2.3,2.5-3.3c1,1.4,2.6,2.5,3,4.2c0.3,1.1-0.9,2.7-1.4,4.2
	C29.8,1887.1,29.3,1887.2,28.9,1887.2z"/>
<path class="st0" d="M142.3,1564.1c1,1.8,2.6,3.5,2.7,5.3c0,1.1-2.2,2.5-3.6,3.4c-0.1,0.1-1.8-1.9-1.7-2.8c0.1-2,0.8-3.9,1.3-5.8
	C141.4,1564.2,141.8,1564.2,142.3,1564.1z"/>
<path class="st0" d="M246.3,1979.3c-1-0.7-1.9-1.3-2.8-2c-1.9-1.6-3.8-3.2-5.6-4.9c-1.1-1.1-2.4-2.5-2.6-4c-0.4-2.8-0.1-5.8-0.1-7.9
	c1.5,1.2,3.5,2.6,5.3,4.2c1,0.9,2.5,2.5,2.2,3.3c-1,4.6,1.9,7.3,4,10.4C246.7,1978.7,246.5,1979,246.3,1979.3z"/>
<path class="st0" d="M155.6,1872.4c-1.9,6.5,1.3,11.8,3.9,17.2c-1.2-1-2.4-1.9-3.6-2.9c-0.3,0.2-0.6,0.3-0.9,0.5
	c0.2,2.8,0.4,5.6,0.6,8.2c-5.9-11.4-5.9-11.4-4.9-17c2.1,1.7,2.8,0.4,3.4-1.7C154.4,1875.2,155.1,1873.8,155.6,1872.4z"/>
<path class="st0" d="M287,2071.1c-0.2,1-0.8,2.3-0.4,3.1c0.9,2.2,2.2,4.2,3.3,6.3c-1.6-1.9-3.4-3.7-5.3-6c-0.3,1.3-0.4,2.2-0.4,2.1
	c-1.1-1.4-2.6-3.2-4-5.1c-0.7-1-1.3-2.2-1.7-3.4c-0.5-1.6-0.7-3.2-1.1-5C280.9,2061.7,285.7,2065.5,287,2071.1z"/>
<path class="st0" d="M284.8,1866.1c5.6,5.8,3,10.8-1,16.3c-1.1-2.8-3.2-5.6-3-8.1C281.1,1871.4,283.4,1869,284.8,1866.1z"/>
<path class="st0" d="M167.7,1943c-2.2-1.8-4.4-3.3-6.1-5.4c-0.9-1.1-0.8-3.3-0.6-5c0.1-1.4,1-2.5,1.8-4.5c1.8,2.1,4.3,3.8,4.9,6.1
	C168.6,1936.9,167.8,1940.2,167.7,1943z"/>
<path class="st0" d="M324.1,2164.8c-1.4-1.3-3.8-2.9-5.4-5.3c-1.1-1.6-1.3-4.2-1-6.2c0.1-0.8,2.8-1.8,4.1-1.4c2,0.7,3.4,2.7,3.1,5.5
	C324.4,2160.1,324.2,2162.8,324.1,2164.8z"/>
<path class="st0" d="M292.3,2107.9c-2.4-1.5-4.8-2.4-6.2-4.2c-1-1.2-1.1-3.8-0.9-5.7c0-0.5,2.2-1.3,3.3-1.1c2.1,0.5,4,1.6,4.1,4.5
	C292.6,2103.2,292.5,2105.1,292.3,2107.9z"/>
<path class="st0" d="M142.4,1852c0.8,1.2,1.3,2.6,2.2,3.5c2.6,2.6,1.8,5.1-0.2,6.9c-0.8,0.8-3.2,0.7-4.2-0.1
	c-2.2-1.7-2.4-4.2-0.9-6.8c0.8-1.4,1.2-3,1.8-4.5C141.6,1851.3,142,1851.6,142.4,1852z"/>
<path class="st0" d="M277.7,1923.9c1.1,1.9,2.1,3.6,3.2,5.2c1.5,2.2,0.7,4-0.7,5.6c-1.2,1.3-2.7,3-4.1,0.9c-1.1-1.5-1.8-4-1.5-5.9
	C275,1927.7,276.6,1925.9,277.7,1923.9z"/>
<path class="st0" d="M277.5,1892.3c0.8,2.1,1.1,3.7,1.8,4.9c1.3,2.4,1.1,4.4-0.8,5.7c-1.2,0.8-3.3,1.3-4.2,0.6
	c-1.8-1.5-2.3-4-0.9-6.3C274.6,1895.5,276.1,1893.9,277.5,1892.3z"/>
<path class="st0" d="M169.7,1991.5c-5.1-1-7.3-3.1-6.8-6.5c0.4-2.2,1.4-3.5,3.7-2.9C170,1983,170.8,1985.3,169.7,1991.5z"/>
<path class="st0" d="M291.8,2142.5c0.3-0.4,1.1-2,2.1-2.2c2.5-0.6,5.8,2,5.5,4.4c-0.2,1.6-1.8,4-3.1,4.2
	C293.8,2149.1,292.4,2146.8,291.8,2142.5z"/>
<path class="st0" d="M128.8,1906.5c1.8-2.6,2.7-5.2,4.1-5.6c2.1-0.6,4.3,1.4,4.2,4c0,1.7-1.4,4.3-2.7,4.8
	C133.3,1910,131.3,1908,128.8,1906.5z"/>
<path class="st0" d="M158.8,1941.5c-1.8,2.5-2.8,5.1-4,5.3c-2.1,0.4-4.6-1.3-4.5-4.3c0-1.7,1.7-4.4,2.6-4.4
	C154.5,1938.1,156.2,1939.9,158.8,1941.5z"/>
<path class="st0" d="M262.4,1930.5c1.9-2.3,2.9-4.7,4.5-5.1c2.2-0.7,3.9,1.9,3.7,4.1c-0.2,1.9-1.9,3.9-3.4,4.9
	C266.7,1934.7,264.6,1932.3,262.4,1930.5z"/>
<path class="st0" d="M124.6,1847.6c0-3.3,1.8-6.7,3.6-6.2c1.5,0.5,3.2,2.2,3.8,3.8c0.9,2.7-0.9,4.7-3,4.9
	C127.5,1850.2,126,1848.5,124.6,1847.6z"/>
<path class="st0" d="M175.6,2032c0.5-0.6,1.1-2.4,2.3-2.9c1.9-0.9,5.2,1.6,5,4c-0.1,1.5-0.9,3.6-2,4.3
	C179.1,2038.4,176.3,2035.9,175.6,2032z"/>
<path class="st0" d="M274,1871.4c0.3,3.8-0.9,5.8-3.2,5.8c-1.1,0.1-2.9-1.6-3.5-3c-0.9-2,1.3-6,3.3-5.6
	C272,1868.8,273.2,1870.6,274,1871.4z"/>
<path class="st0" d="M113.5,1866.8c2-2.3,3.1-4.6,4.5-4.8c1.1-0.2,3.4,2.2,3.5,3.6c0.1,1.5-1.4,4-2.7,4.5
	C117.8,1870.5,116.1,1868.5,113.5,1866.8z"/>
<path class="st0" d="M136.8,1954c-1.5,2.3-2.1,4.2-3.4,5c-1.5,0.9-4.6-2-4.5-4.2c0.1-1.6,1.4-3.1,2.2-4.7
	C132.8,1951.2,134.4,1952.3,136.8,1954z"/>
<path class="st0" d="M152.5,1991.8c3.2-0.2,5.4,0.2,5.4,3.1c0,1.6-1.2,4.2-2.4,4.6c-2.3,0.8-4.1-1.2-4.3-3.8
	C151.2,1994.2,152.2,1992.8,152.5,1991.8z"/>
<path class="st0" d="M119.5,1917.7c1.8-2.1,2.9-4.5,4-4.4c1.4,0,3.8,2.1,3.8,3.3c0.1,1.6-1.5,3.9-2.8,4.6
	C123.7,1921.5,121.8,1919.3,119.5,1917.7z"/>
<path class="st0" d="M142.1,2018.7c1.8-2.3,2.6-4.3,3.9-4.8c2.1-0.7,4,1,4.2,3.4c0.1,1.4-1.2,4-2,4
	C146.5,2021.4,144.8,2020,142.1,2018.7z"/>
<path class="st0" d="M165.3,2041.1c3.3-0.3,5.2,0.6,5.3,3.3c0,1.3-1.2,3.5-2.3,3.8c-2.1,0.7-4-0.7-4.3-3.3
	C164,2043.5,165,2042,165.3,2041.1z"/>
<path class="st0" d="M170,2063.7c-1,1.2-2.1,3.4-2.8,3.2c-1.5-0.3-3.3-1.7-4.1-3.2c-0.4-0.8,1.2-4,1.8-3.9c1.6,0.1,3.2,1.4,4.8,2.3
	C169.8,2062.6,169.9,2063.1,170,2063.7z"/>
<path class="st0" d="M105.7,1884.4c1.1-1.2,2.1-3.3,3.2-3.3c1.3,0.1,3.3,1.9,3.5,3.1c0.2,1.3-1.3,3.6-2.4,4c-1,0.4-2.6-1.4-4-2.2
	C105.9,1885.5,105.7,1885,105.7,1884.4z"/>
<path class="st0" d="M258.5,1884.9c1.8-2.1,2.9-3.5,4-4.8c1.2,1.3,3,2.4,3.3,3.8c0.5,2.3-1,4.1-3.1,3.9
	C261.5,1887.8,260.4,1886.4,258.5,1884.9z"/>
<path class="st0" d="M104.9,1927.9c1.6-2.2,2.7-4.7,3.4-4.5c1.5,0.5,3.2,1.8,3.9,3.3c0.4,0.7-1.2,3.5-2.2,3.7
	C108.8,1930.7,107.2,1929.2,104.9,1927.9z"/>
<path class="st0" d="M185.3,2109.4c1.6-2.1,2.6-4.3,3.3-4.1c1.6,0.4,3.2,1.6,4.2,3c0.3,0.5-1.2,3.8-2,3.8
	C189.2,2112.1,187.7,2110.7,185.3,2109.4z"/>
<path class="st0" d="M115.3,1960.3c-1.8,2-2.8,4.1-3.8,4c-1.2,0-3.1-1.8-3.3-2.9c-0.2-1.2,1.2-3.5,2.2-3.8
	C111.5,1957.3,113,1958.9,115.3,1960.3z"/>
<path class="st0" d="M106,1859.3c-1.1,1.2-2.1,2.9-3.5,3.3c-0.8,0.2-3-1.8-3-2.8c-0.1-1.4,1.1-3.5,2.2-4c1-0.4,2.6,1.2,3.9,1.9
	C105.8,1858.2,106,1858.8,106,1859.3z"/>
<path class="st0" d="M182.8,1856.7c1,1.2,2.4,2.2,2.9,3.6c0.8,2.2-0.5,4-2.4,4.1c-1.1,0-3-1.5-3.1-2.5c-0.2-1.5,0.8-3.3,1.2-4.9
	C181.8,1856.9,182.3,1856.7,182.8,1856.7z"/>
<path class="st0" d="M120,2008.8c1.1,1.1,2.7,2.1,3,3.4c0.2,1.1-1.2,2.6-1.8,3.9c-1.3-1-3-1.6-3.6-2.9c-0.4-0.9,0.7-2.7,1.1-4.1
	C119.1,2009,119.5,2008.9,120,2008.8z"/>
<path class="st0" d="M91.9,1903.2c1.6-1.9,2.4-3.9,3.5-4.1c0.9-0.2,3.1,1.6,3.1,2.6c0.1,1.4-1.1,3.4-2.2,4
	C95.7,1906.1,94.1,1904.4,91.9,1903.2z"/>
<path class="st0" d="M128,2040.6c1.7-1.9,2.5-3.7,3.5-3.8c1.1,0,2.9,1.4,3.2,2.6c0.3,0.9-1.1,3.1-2.1,3.4
	C131.7,2043.2,130.2,2041.8,128,2040.6z"/>
<path class="st0" d="M250.1,1906.9c1.7,1.8,3.5,3,3.4,3.7c-0.2,1.6-1.4,3-2.2,4.5c-1-0.8-2.9-1.6-3-2.6
	C248.1,1911.1,249.2,1909.5,250.1,1906.9z"/>
<path class="st0" d="M143.9,2095.3c1.5-1.8,2.6-3.8,3.2-3.6c1.3,0.4,2.8,1.7,3.3,3.1c0.3,0.6-1.3,3.2-1.9,3.2
	C147.3,2097.8,146,2096.6,143.9,2095.3z"/>
<path class="st0" d="M94.1,1870.7c-1.5,1.7-2.4,3.6-3.2,3.5c-1.2-0.1-2.3-1.6-3.4-2.6c0.8-1.2,1.4-3,2.4-3.3
	C90.8,1868,92.2,1869.5,94.1,1870.7z"/>
<path class="st0" d="M175.2,1859.1c-1.3,1.8-1.9,3.6-2.9,3.8c-0.8,0.2-2.8-1.4-2.9-2.3c-0.1-1.2,1-2.8,2-3.4
	C172.1,1856.8,173.4,1858.2,175.2,1859.1z"/>
<path class="st0" d="M138.3,2114.9c-0.9,1.3-1.5,2.8-2,2.7c-1-0.2-1.9-1-2.9-1.6c0.5-1,0.8-2.6,1.4-2.7
	C135.6,2113.2,136.7,2114.2,138.3,2114.9z"/>
<path class="st0" d="M168.1,1835c1.3-1.5,2-2.6,2.9-2.9c0.5-0.2,2,1.1,2,1.6c0,1-0.7,2.3-1.4,2.6
	C170.9,1836.6,169.8,1835.7,168.1,1835z"/>
<path class="st0" d="M222.9,2252.2c0,1.3,0.3,2.9,0,3.9c-0.6,2.2-1.3,5.2-2.1,5.6c-0.9,0.5-2.2-1.5-3.2-2.9
	c-0.5-0.6-0.6-2.3-0.9-3.5c-0.4-2-2.3-3.2-0.9-6.1c1.5-3.1,3.2-7.1,5.4-5.2c1,0.9,1.6,4.8,2.3,7.3
	C223.3,2251.7,223.1,2251.9,222.9,2252.2z"/>
<path class="st0" d="M253,2157c-0.8,1.3-1.7,3.5-2.7,4c-1.5,0.8-3.2,1.2-4.5,0.1c-1.7-1.4-2.1-7.1-1.2-10.5c0.9-3.5,2.4-5.2,4.3-4.7
	c0.5,0.1,1,1,1.3,1.9C251.2,2150.7,252.1,2153.9,253,2157z"/>
<path class="st0" d="M267.9,2034.9c0.1,5.1-1.5,10-3.3,10.1c-1.9,0.1-3.9-4.3-3.9-9c0-5.3,1.6-8.9,4.2-9.3
	C266.9,2026.5,267.8,2029,267.9,2034.9z"/>
<path class="st0" d="M232.5,1987.2c0.1,6-0.5,8-2.7,8.3s-3.4-2.3-3.5-7.9c-0.1-6.5,0.9-10.4,3-10.6
	C231.3,1976.8,232.3,1980.3,232.5,1987.2z"/>
<path class="st0" d="M280.4,2305.9c1.4-5.9,3.6-8.5,6.1-7c1.9,1.1,1.9,3.1,0.3,7.2c-0.4,1-0.9,2.1-1.2,3.2c-1,4.3-2.5,6.3-4.5,5.9
	c-2-0.4-2.1-3.3-1.2-7.2C280.1,2307.3,280.3,2306.6,280.4,2305.9z"/>
<path class="st0" d="M269.7,2246c-1.8,0.2-3-2.4-3.1-7c-0.1-4.9,2.1-10.7,4.1-9.3c1.4,0.9,2.7,4.8,3.3,7.9
	C274.5,2240.6,271.5,2245.9,269.7,2246z"/>
<path class="st0" d="M210,2060.2c0,1.5,0.1,3.3-0.2,4.4c-0.6,2.1-1.5,3.7-2.3,5.5c-0.9-1.7-1.7-3.3-2.5-5.1
	c-0.3-0.7-0.2-1.9-0.4-2.8c-0.5-2.5-1.3-5.3,0.1-7.1c1.1-1.3,2.7-2.3,3.9-1.6c0.8,0.4,1.2,4,1.7,6.2
	C210.3,2059.8,210.2,2060,210,2060.2z"/>
<path class="st0" d="M219.2,2152.4c0.3,7.1-0.4,9.5-2.6,9.2c-1.3-0.2-2.5-1.5-2.2-4.6c0.3-4.2-2-10.4,1.8-12.4
	C218.2,2143.5,218.9,2145.4,219.2,2152.4z"/>
<path class="st0" d="M190.2,2308.1c-0.3,1-0.2,2.3-0.8,2.9c-1.1,1.5-2.5,3.5-3.6,3.6c-1.2,0.1-2.3-1.8-3.2-3.2
	c-0.4-0.6-0.3-1.9-0.4-2.9c-0.1-1.6-2.1-3.1,0.1-4.9c2.4-1.9,5.1-4.4,7.4-2.2c1.1,1,0.9,4.1,1.3,6.2
	C190.8,2307.9,190.6,2308,190.2,2308.1z"/>
<path class="st0" d="M179.1,2292.1c-1,0.6-2,1.6-3.2,1.8c-1.8,0.4-3.9,0.5-5.5,0c-2-0.6-2.5-3.2-1.4-4.8s2.9-2.4,5.2-2.1
	c0.6,0,1.3,0.5,1.6,0.9C176.9,2289.3,178,2290.7,179.1,2292.1z"/>
<path class="st0" d="M126.4,2301.9c-5.1,0.1-9.9-3.4-9.9-7.1c0-4.1,4.5-8.1,9.2-8.1c5.3,0,8.8,3.6,9.1,9.1
	C134.8,2299.9,132.3,2301.7,126.4,2301.9z"/>
<path class="st0" d="M175.8,2228.3c-6,0.2-8-1.3-8.2-6c-0.2-4.6,2.5-7,8.1-7.1c6.5-0.2,10.4,2.1,10.5,6.5
	C186.3,2225.8,182.7,2228,175.8,2228.3z"/>
<path class="st0" d="M184.8,2359.5c1-4.6,3.4-6.4,6.5-5c2.3,1.1,2.6,2.7,1.1,5.8c-0.4,0.8-0.9,1.6-1.1,2.4c-0.7,3.4-2.3,4.8-4.7,4.2
	c-2.5-0.6-2.9-2.9-2.2-6C184.6,2360.6,184.8,2360.1,184.8,2359.5z"/>
<path class="st0" d="M246.6,2317.8c-2.2-0.4-3-2.7-2.3-6.2c0.8-3.7,4.5-7.4,6.6-5.8c1.4,1.1,2.2,4.4,2.3,6.9
	C253.3,2315.2,248.8,2318.3,246.6,2317.8z"/>
<path class="st0" d="M103.9,2179.1c-1.5-0.1-3.3,0.1-4.4-0.6c-2.1-1.3-3.6-3.3-5.4-4.9c1.7-1.8,3.4-3.5,5.2-5.1
	c0.7-0.6,1.9-0.5,2.8-0.8c2.5-0.9,5.4-2.7,7.1,0.5c1.2,2.4,2.2,5.9,1.4,8.2c-0.4,1.6-4.1,2.4-6.3,3.5
	C104.3,2179.6,104.1,2179.4,103.9,2179.1z"/>
<path class="st0" d="M138,2290c0.3,3.2-0.5,4.3-3.2,4.2c-1.6-0.1-3-0.7-2.7-2.1c0.4-1.9-2.5-4.7,2.1-5.6
	C136.8,2286,137.7,2286.8,138,2290z"/>
<path class="st0" d="M260.8,2300.1c-1.8,2.3-3.5,4.6-5.3,6.9c-0.6,0.8-1,1.9-1.5,2.8c3.2-3.9,6.5-7.9,9.7-11.8
	C262.8,2298.7,261.7,2299.4,260.8,2300.1z"/>
<path class="st0" d="M199.8,2640.3c-0.2-2.2-1.1-5.5-0.4-8.5c0.6-2.9,2.9-5.4,4.9-8.8c1.5,2.5,2.8,3.8,3.1,5.3
	c0.3,1.7,0.2,3.9-0.8,5.2C204.5,2636.2,201.8,2638.4,199.8,2640.3z"/>
<path class="st0" d="M193.3,2590c1.5,0.5,2.2,0.6,2.5,1c1.4,1.7,2.7,1.2,4.4,0.3c2-1,4.3-1.2,5.3,1.1c0.5,1.2,0.3,3.4-0.6,4.4
	c-1.5,1.6-3.6,1.9-5.9,0.4c-1.1-0.8-2.9-0.4-4.3-1c-1.3-0.5-3.3-1.4-3.4-2.3C191.2,2592.7,192.6,2591.4,193.3,2590z"/>
<path class="st0" d="M273.9,2344.7c0.3,2.6,0.7,5.2,0.7,7.8c0,1.2-0.7,2.5-1.4,3.5c-1.2,1.6-2.7,2.9-4.1,4.3
	c-5.5-4.1-4.9-9.1,1.1-11.6c1.9-0.8,3.2-2.7,4.8-4.1C274.7,2344.7,274.3,2344.7,273.9,2344.7z"/>
<path class="st0" d="M227.6,2526.8c-0.5-2.7-1.8-6.2-1.5-9.5c0.1-2.1,2.5-4.1,4.2-6.5c1.7,1.8,3.3,2.8,3.7,4.1
	c0.4,1.7,0.4,4-0.5,5.5C231.9,2522.8,229.5,2524.8,227.6,2526.8z"/>
<path class="st0" d="M223.5,2568.2c5.1,6.9,2.2,11.5-4.9,14.4C216.1,2576.7,217.8,2571.8,223.5,2568.2z"/>
<path class="st0" d="M246.7,2435.3c4.6,5.5,3.4,8.5-3.9,10.3C238.3,2440.6,239.4,2437.9,246.7,2435.3z"/>
<path class="st0" d="M255.4,2410.1c1,1.2,1.6,2.2,2.5,2.8c2.9,2.1,2.2,4.5,0.1,6c-1.5,1-4.3,1.5-6,0.9c-2.3-0.8-2.3-4.6-0.3-6.6
	C252.8,2412.1,254.1,2411.2,255.4,2410.1z"/>
<path class="st0" d="M266.7,2329.2c-3.3,1.6-5.4,3.5-7.6,3.5c-2.4,0-4.3-2.8-3-4.9c1.1-1.9,3.7-3.3,6-4
	C262.7,2323.6,264.7,2326.6,266.7,2329.2z"/>
<path class="st0" d="M256,2375.4c-1.4,2.8-4.4,4.8-6.5,4.2c-2.6-0.9-3.7-2.7-2.9-5.2c0.8-2.7,3.1-4.1,5.8-3.2
	C253.8,2371.5,254.7,2373.9,256,2375.4z"/>
<path class="st0" d="M211.9,2568.9c0-3.8,2.5-6.5,4.7-5.7c1.7,0.6,3.4,2.4,3.9,4.1c0.7,2-3,5.1-5.3,4.4
	C213.7,2571.3,212.5,2569.5,211.9,2568.9z"/>
<path class="st0" d="M200.1,2607.8c0.7-3.1,3.8-6.5,5.6-5.7c1.6,0.7,3,2.7,3.6,4.4c0.6,1.9-2.7,4.8-5,4.3
	C202.8,2610.5,201.5,2608.9,200.1,2607.8z"/>
<path class="st0" d="M220.4,2499.3c-0.8,3.6-2.6,5.4-5.2,4.9c-1.3-0.3-3-2.6-3.1-4c-0.2-2.2,1.6-4.3,4.3-3.8
	C218.1,2496.7,219.3,2498.4,220.4,2499.3z"/>
<path class="st0" d="M236.9,2390.1c0.4,1.1,1.7,2.8,1.4,4.2c-0.5,2.4-2.6,3.9-5.5,3.2c-2.4-0.6-3.2-2.4-2.6-4.6
	C230.8,2390.4,232.7,2389.4,236.9,2390.1z"/>
<path class="st0" d="M231.5,2353.8c0.4,1,1.5,2.5,1.4,3.9c-0.3,2.5-2.3,4.3-5,3.2c-1.3-0.5-2.6-2.9-2.6-4.4
	C225.4,2354,227.6,2353.2,231.5,2353.8z"/>
<path class="st0" d="M176.2,2285.9c-0.6,3.5-1.4,5.6-4.5,5.8c-2.5,0.1-3.5-1.3-3.4-3.4c0.1-2.6,1.3-4.6,4.2-4.6
	C173.9,2283.8,175.2,2285.3,176.2,2285.9z"/>
<path class="st0" d="M189.5,2623.4c0.1-3.7,1.6-5.6,4.2-5.2c1.5,0.3,3.7,2.1,3.9,3.4c0.5,2.7-2,4.1-4.6,4
	C191.5,2625.5,190.3,2623.8,189.5,2623.4z"/>
<path class="st0" d="M217.3,2307.6c3.1-1.4,4.9-2.5,6.9-2.9c0.4-0.1,2.7,3.3,2.2,4.1c-0.9,1.5-3,2.8-4.9,3.3
	C220.9,2312.1,219.4,2309.8,217.3,2307.6z"/>
<path class="st0" d="M205.5,2558.6c2.6-1.9,4.1-3.9,5.7-3.9c1.2,0,3.4,2.2,3.7,3.6c0.4,2.5-1.8,4.1-4.4,3.8
	C209.1,2561.9,207.8,2560.3,205.5,2558.6z"/>
<path class="st0" d="M226,2443.5c0.7,1.5,2.5,3.7,1.9,4.5c-0.9,1.5-3.3,2.3-5,3.3c-0.8-1.4-2.5-3.1-2.3-4.2c0.4-1.5,2.2-2.6,3.4-4
	C224.7,2443.3,225.4,2443.4,226,2443.5z"/>
<path class="st0" d="M207.6,2519.5c-1.5-2.3-3.1-3.8-2.9-4.8c0.3-1.4,2.2-2.4,3.3-3.6c1.1,1.2,3.2,2.3,3.2,3.5
	C211.3,2516.1,209.5,2517.4,207.6,2519.5z"/>
<path class="st0" d="M200.4,2296.2c2.6-0.9,4.2-2,5.7-1.8c0.9,0.1,2.4,2.9,2,3.4c-1,1.3-2.9,2.1-4.4,3.1
	C202.9,2299.6,202,2298.4,200.4,2296.2z"/>
<path class="st0" d="M220.1,2397.4c-2.6,1-4.2,2.3-5.6,2c-0.9-0.2-2.4-2.8-2.1-3.8c0.3-1.1,2.5-2.5,3.8-2.4
	C217.3,2393.2,218.3,2395.2,220.1,2397.4z"/>
<path class="st0" d="M206.3,2348.3c2.4-1.1,3.9-1.9,5.4-2.5c0.7,1.3,2.4,3.1,2,3.9c-0.6,1.2-2.5,2.2-4.1,2.5
	C209.1,2352.3,207.9,2350.2,206.3,2348.3z"/>
<path class="st0" d="M210.3,2433.1c2.7-0.9,4.4-2,5.8-1.7c0.9,0.2,2.5,3,2.2,3.3c-1,1.1-2.7,2.2-4.3,2.3
	C213.2,2437.1,212.2,2435.1,210.3,2433.1z"/>
<path class="st0" d="M185.2,2631.9c-2.1,1.5-3.3,3-4.6,3.2c-0.9,0.1-3.3-2-3-2.5c0.6-1.3,1.9-2.8,3.3-3.3
	C181.5,2628.9,183.1,2630.5,185.2,2631.9z"/>
<path class="st0" d="M130.4,2275.1c2-1.6,3.1-3,4.5-3.2c0.7-0.1,2.9,2,2.7,2.7c-0.4,1.3-1.9,2.6-3.2,3.2
	C133.8,2277.9,132.3,2276.3,130.4,2275.1z"/>
<path class="st0" d="M202.6,2539.1c1.4,1.8,2.9,3.1,2.6,3.7c-0.6,1.3-2.1,2.2-3.2,3.3c-0.8-0.9-2.4-1.9-2.3-2.7
	C199.9,2542.1,201.3,2541,202.6,2539.1z"/>
<path class="st0" d="M196.3,2346.5c-0.6-1.8-1.5-3.1-1.2-3.8c0.3-0.8,1.9-1.5,2.8-1.3c0.8,0.1,2,1.9,1.8,2.5
	C199.3,2344.7,197.9,2345.3,196.3,2346.5z"/>
<path class="st0" d="M205.7,2393.4c0.4,1.8,1.2,3.1,0.8,3.8c-0.4,0.8-1.8,1-2.9,1.5c-0.4-1-1.4-2.1-1.2-3
	C202.6,2395,204.1,2394.5,205.7,2393.4z"/>
<path class="st0" d="M207.8,2448.6c-1.2,0.3-2.3,1-3.4,0.9c-0.4,0-1.4-2.1-1.1-2.5c0.7-0.9,2-1.7,3.1-1.7c0.8-0.1,1.8,1.1,2.7,1.8
	C208.6,2447.6,208.2,2448.1,207.8,2448.6z"/>
<path class="st0" d="M201.1,2521.4c-1.6,0.8-2.5,1.7-3.4,1.7c-0.8-0.1-1.4-1.2-2.1-1.9c0.8-0.6,1.5-1.7,2.4-1.8
	C198.7,2519.4,199.7,2520.4,201.1,2521.4z"/>
<path class="st0" d="M191.6,2314.9c0.6,1.7,1.4,2.7,1,3.4s-1.7,0.9-2.6,1.4c-0.5-0.9-1.5-1.9-1.4-2.6
	C188.9,2316.5,190.1,2315.9,191.6,2314.9z"/>
<path class="st0" d="M287.5,2298.5c-1.1,5.4-2.2,10.7-3.3,16.2c0.5,0.1,1,0.2,1.5,0.3c1.7-5.2,2.4-10.7,3.2-16.1
	C288.5,2298.8,287.9,2298.6,287.5,2298.5z"/>
<path class="st0" d="M110.3,2587.2c-5,0.9-10.3-1.8-11-5.4c-0.7-4,3.1-8.7,7.8-9.5c5.2-0.8,9.3,2.1,10.4,7.5
	C118.4,2583.9,116.1,2586.1,110.3,2587.2z"/>
<path class="st0" d="M147.2,2506.6c-5.9,1.1-8.1,0-9-4.6c-0.9-4.5,1.3-7.4,6.8-8.3c6.4-1.2,10.6,0.4,11.4,4.8
	C157.1,2502.5,154,2505.2,147.2,2506.6z"/>
<path class="st0" d="M68.3,2469.7c-1.5,0.1-3.2,0.7-4.4,0.1c-2.3-1-4.1-2.7-6.1-4c1.4-2,2.8-4,4.3-5.9c0.6-0.7,1.8-0.8,2.6-1.3
	c2.3-1.3,4.9-3.5,7.1-0.7c1.6,2.2,3.1,5.4,2.7,7.9c-0.2,1.6-3.6,3-5.6,4.4C68.7,2470.2,68.5,2470,68.3,2469.7z"/>
<path class="st0" d="M243.5,2583.7c2,1.3,4.1,2,4,2.7c-0.2,1.4-1.3,3-2.6,3.8c-0.6,0.4-3.4-0.8-3.4-1.4
	C241.4,2587.4,242.5,2585.9,243.5,2583.7z"/>
<path class="st0" d="M223.2,2580.8c-1.4-0.8-2.9-1.1-2.9-1.6c0-1,0.7-2.1,1.2-3.1c1,0.3,2.7,0.5,2.8,1
	C224.6,2577.9,223.7,2579.1,223.2,2580.8z"/>
<path class="st0" d="M36.5,2595.1c-0.8-5,2-10.3,5.7-10.8c4.1-0.6,8.6,3.3,9.3,8c0.7,5.3-2.3,9.2-7.8,10.3
	C39.6,2603.1,37.4,2600.9,36.5,2595.1z"/>
<path class="st0" d="M154.9,2555.7c-0.1-1.5-0.6-3.3,0-4.4c1-2.2,2.7-4,4.1-6c2,1.5,4,2.9,5.8,4.5c0.7,0.6,0.7,1.8,1.2,2.7
	c1.3,2.4,3.4,4.9,0.5,7.1c-2.2,1.6-5.5,3-8,2.5c-1.6-0.2-2.9-3.7-4.3-5.7C154.4,2556.2,154.6,2555.9,154.9,2555.7z"/>
<path class="st0" d="M49.8,2604.9c-3.1,0.8-4.3,0.1-4.6-2.6c-0.1-1.6,0.3-3.1,1.7-3c1.9,0.1,4.3-3.1,5.9,1.3
	C53.6,2603.1,52.9,2604.1,49.8,2604.9z"/>
<path class="st0" d="M63.6,2595.3c1.9,1.8,3.4,2.7,3.8,4c0.2,0.7-1.6,3.2-2.3,3.1c-1.3-0.2-2.8-1.5-3.6-2.7
	C61.2,2599.1,62.6,2597.3,63.6,2595.3z"/>
<path class="st0" d="M217.8,2765.3c0.2,5.1-3.2,10-6.9,10.1c-4.1,0.1-8.2-4.3-8.3-9c-0.1-5.3,3.4-8.9,8.9-9.3
	C215.6,2756.9,217.5,2759.4,217.8,2765.3z"/>
<path class="st0" d="M143.1,2717.6c0.3,6-1.1,8-5.8,8.3c-4.6,0.3-7.1-2.3-7.3-7.9c-0.3-6.5,1.9-10.4,6.3-10.6
	C140.4,2707.2,142.7,2710.7,143.1,2717.6z"/>
<path class="st0" d="M95.6,2790.6c-0.1,1.5,0.2,3.3-0.5,4.4c-1.3,2.1-3.2,3.7-4.8,5.5c-1.8-1.7-3.6-3.3-5.2-5.1
	c-0.6-0.7-0.5-1.9-0.9-2.8c-1-2.5-2.8-5.3,0.3-7.1c2.4-1.3,5.8-2.3,8.2-1.6c1.6,0.4,2.5,4,3.6,6.2
	C96.1,2790.2,95.9,2790.4,95.6,2790.6z"/>
<path class="st0" d="M232.8,2633c1.5-1.8,2.6-3.8,3.2-3.6c1.3,0.4,2.8,1.7,3.3,3.1c0.3,0.6-1.3,3.2-1.9,3.2
	C236.2,2635.5,234.9,2634.3,232.8,2633z"/>
<path class="st0" d="M227.1,2652.7c-0.9,1.3-1.5,2.8-2,2.7c-1-0.2-1.9-1-2.9-1.6c0.5-1,0.8-2.6,1.4-2.7
	C224.5,2650.9,225.6,2651.9,227.1,2652.7z"/>
<path class="st0" d="M215.3,2839.6c-5.1,0.1-9.9-3.4-9.9-7.1c0-4.1,4.5-8.1,9.2-8.1c5.3,0,8.8,3.6,9.1,9.1
	C223.7,2837.6,221.2,2839.4,215.3,2839.6z"/>
<path class="st0" d="M192.8,2716.8c-1.5-0.1-3.3,0.1-4.4-0.6c-2.1-1.3-3.6-3.3-5.4-4.9c1.7-1.8,3.4-3.5,5.2-5.1
	c0.7-0.6,1.9-0.5,2.8-0.8c2.5-0.9,5.4-2.7,7.1,0.5c1.2,2.4,2.2,5.9,1.4,8.2c-0.4,1.6-4.1,2.4-6.3,3.5
	C193.2,2717.3,193,2717.1,192.8,2716.8z"/>
<path class="st0" d="M226.9,2827.7c0.3,3.2-0.5,4.3-3.2,4.2c-1.6-0.1-3-0.7-2.7-2.1c0.4-1.9-2.5-4.7,2.1-5.6
	C225.7,2823.7,226.5,2824.6,226.9,2827.7z"/>
<path class="st0" d="M219.3,2812.8c2-1.6,3.1-3,4.5-3.2c0.7-0.1,2.9,2,2.7,2.7c-0.4,1.3-1.9,2.6-3.2,3.2
	C222.7,2815.6,221.2,2814,219.3,2812.8z"/>
<path class="st0" d="M59.2,2770.6c2.4,0.9,4.8,1.7,7,2.9c1,0.6,1.8,1.7,2.4,2.7c0.9,1.7,1.4,3.5,2.1,5.3c-5.6,2.7-9.7-0.1-9.5-6.1
	c0-1.9-1-3.8-1.6-5.7C59.5,2770,59.4,2770.3,59.2,2770.6z"/>
<path class="st0" d="M126.1,2833.8c6.5-1.3,8.6,1.1,7.3,7.9C127.3,2843.1,125.4,2841,126.1,2833.8z"/>
<path class="st0" d="M108,2815.3c1.4-0.3,2.5-0.3,3.4-0.8c2.9-1.4,4.8,0.2,5.2,2.6c0.3,1.7-0.4,4.2-1.6,5.4
	c-1.6,1.5-4.9-0.2-5.8-2.7C108.6,2818.4,108.3,2816.9,108,2815.3z"/>
<path class="st0" d="M43.2,2769.5c0,3.4,0.9,6,0,7.8c-1,2-4.1,2.3-5.4,0.3c-1.2-1.8-1.3-4.5-1.1-6.7
	C36.8,2770.3,40.1,2770,43.2,2769.5z"/>
<path class="st0" d="M78.5,2799.2c1.9,2.4,2.4,5.8,1,7.2c-1.8,1.7-3.8,1.8-5.6,0.1c-2-1.9-2.3-4.4-0.5-6.2
	C74.3,2799.2,76.7,2799.5,78.5,2799.2z"/>
<path class="st0" d="M83.5,2821.5c1.1,0.2,3.1-0.1,4.1,0.8c1.9,1.5,2.3,3.9,0.6,5.9c-1.4,1.7-3.3,1.5-5,0.1
	C81.3,2826.6,81.3,2824.7,83.5,2821.5z"/>
<path class="st0" d="M50.3,2809.6c1,0.2,2.8-0.1,3.9,0.6c2.1,1.4,2.7,3.8,0.8,5.6c-0.9,0.9-3.5,0.8-4.8,0.1
	C48.1,2814.7,48.3,2812.5,50.3,2809.6z"/>
<path class="st0" d="M124.9,2854.5c1.6,0.1,4.2-0.4,4.6,0.5c0.9,1.5,0.7,3.7,0.9,5.6c-1.5,0-3.6,0.7-4.5-0.1c-1.2-1-1.4-3-2.1-4.6
	C124.2,2855.5,124.5,2855,124.9,2854.5z"/>
<path class="st0" d="M83.1,2838.5c-0.2,2.5,0.3,4.5-0.5,5.5c-0.5,0.7-3.3,0.7-4.1,0c-0.8-0.8-1.2-3.2-0.6-4.2
	C78.5,2839,80.6,2839.1,83.1,2838.5z"/>
<path class="st0" d="M109.8,2862.7c0.3-2.6,0-4.5,0.8-5.5c0.5-0.7,3.6-0.7,3.7-0.3c0.6,1.3,0.8,3.2,0.3,4.6
	C114.4,2862.2,112.3,2862.1,109.8,2862.7z"/>
<path class="st0" d="M74.1,2848.6c1.8,0.5,3.1,0.4,3.6,1c0.5,0.7,0.2,2,0.1,3c-1-0.1-2.4,0.2-3-0.4
	C74.2,2851.9,74.4,2850.5,74.1,2848.6z"/>
<path class="st0" d="M122.1,2871.8c-0.2,1.1-0.1,2.3-0.6,3.2c-0.2,0.3-2.3,0.2-2.6-0.2c-0.5-0.9-0.7-2.4-0.2-3.3
	c0.3-0.7,1.7-1,2.6-1.4C121.5,2870.7,121.8,2871.3,122.1,2871.8z"/>
<path class="st0" d="M195.9,2777.6c-2.5-2.1-4.5-4.3-6.9-5.9c-2-1.4-5.2,0.1-7.2,3.1c1.1-7.8-3-12.7-8.7-16.8c1.7,1.1,3.2,2.3,5,3.2
	c1.1,0.6,2.3,1,3.4,1.4c0.2-1.3,0.5-2.6,0.6-3.2c1.2,0.5,2.9,0.8,4.1,1.8c1.5,1.2,3.8,3.2,3.5,4.4c-1,5.1,2.2,7.4,5.2,10.2
	c0.4,0.3,0.7,0.6,1,1C195.9,2776.9,195.9,2777,195.9,2777.6z"/>
<path class="st0" d="M25.1,2738.6c4.2,3.3,8.3,6.7,12.5,10c0.3-0.4,0.6-0.7,0.9-1.1c-3.8-3.7-8.2-6.8-12.5-9.9
	C25.7,2737.9,25.3,2738.3,25.1,2738.6z"/>
<path class="st0" d="M170.7,2813.9c1.2,0.9,3.3,2.1,4.5,3.8c1.1,1.7,1.3,4,2.1,6.7c-2-0.4-3.3-0.3-4.2-0.9c-1-0.7-2.1-1.7-2.3-2.9
	C170.5,2818.3,170.7,2815.8,170.7,2813.9z"/>
<path class="st0" d="M182,2810.4c0.2-1.8,0.1-3.1,0.6-3.9c0.4-0.5,2.6-0.7,2.7-0.4c0.4,0.9,0.5,2.3,0.1,3.3
	C185.3,2809.9,183.7,2809.9,182,2810.4z"/>
<path class="st0" d="M98.2,2763.6c-2.7-2.3-3.6-6.4-1.8-8.4c1.9-2.2,6.1-2.2,8.6,0c2.8,2.5,2.9,6,0.5,9
	C103.6,2766.5,101.4,2766.3,98.2,2763.6z"/>
<path class="st0" d="M158.5,2747.8c-3.2-2.7-3.5-4.4-1.4-6.9s4.6-2.6,7.5,0c3.5,2.9,4.4,5.9,2.4,8.3
	C165.1,2751.4,162.3,2750.9,158.5,2747.8z"/>
<path class="st0" d="M158.5,2834.4c0.2,1.6,0.7,3.2,0.3,3.4c-0.8,0.5-2.2,0.6-3.2,0.2c-0.5-0.2-1-2.2-0.7-2.5
	C155.5,2834.9,156.8,2834.9,158.5,2834.4z"/>
<path class="st0" d="M151.2,2822.1c-0.2-1.1-0.7-2.1-0.4-2.3c0.6-0.4,1.4-0.5,2.2-0.7c0.3,0.7,0.9,1.7,0.7,2
	C153.3,2821.6,152.3,2821.7,151.2,2822.1z"/>
<path class="st0" d="M61.6,2727c2.4-2.7,6.5-3.5,8.4-1.7c2.1,1.9,2,6.2-0.3,8.6c-2.6,2.7-6.1,2.8-9,0.4
	C58.5,2732.3,58.8,2730.1,61.6,2727z"/>
<path class="st0" d="M135,2773.8c0.8-0.7,1.5-1.8,2.4-2c1.7-0.4,3.4-0.3,5.1-0.4c0.1,1.7,0.2,3.4,0.1,5.1c0,0.6-0.7,1.2-0.9,1.9
	c-0.7,1.7-1.2,4-3.7,3.4c-1.8-0.5-4-1.7-4.9-3.2c-0.6-1,0.7-3.2,1.3-4.9C134.6,2773.8,134.8,2773.8,135,2773.8z"/>
<path class="st0" d="M62,2738.6c-1.8-1.4-2-2.3-0.6-3.6c0.8-0.8,1.8-1.2,2.4-0.4c0.8,1.1,3.6,1,1.8,3.8
	C64.7,2739.9,63.8,2739.9,62,2738.6z"/>
<path class="st0" d="M73.3,2741.8c-0.2,1.8,0,3-0.5,3.9c-0.3,0.4-2.4,0.5-2.7,0.1c-0.4-0.8-0.4-2.2-0.1-3.2
	C70.2,2742.2,71.8,2742.2,73.3,2741.8z"/>
<path class="st0" d="M109.4,2089.3c0.2-6.9,1.9-9.5,6.4-9.9c1.1-0.1,2.4,0,3.4,0.5c2.7,1.2,5.8,14.7,3.4,16
	c-2.2,1.3-5.6,1.4-8.2,0.9C110.7,2096.1,109.3,2093.3,109.4,2089.3z"/>
<path class="st0" d="M113.7,2315.9c0,6-1.5,8-6.2,8c-4.6,0.1-6.9-2.6-7-8.2c0-6.5,2.4-10.3,6.8-10.3
	C111.5,2305.4,113.7,2309,113.7,2315.9z"/>
<path class="st0" d="M43.4,2196.7c0-0.1-0.4-1.2-0.4-2.3c0-1.8,0.1-5.2,0.6-5.3c2.7-0.5,5.9-1,8.3,0c3,1.3,4.3,11.3,1.9,13.7
	c-1.5,1.5-4.1,2.9-6.2,2.8C44.8,2205.4,43.2,2201.7,43.4,2196.7z"/>
<path class="st0" d="M24.9,2119.8c-0.1-1.1-1-3.1-0.3-4.4c0.7-1.2,3.2-2.6,4.3-2.2c1.7,0.5,3.8,2.3,4.3,4c0.8,2.4,1,5.4,0.2,7.8
	c-0.6,1.7-3.2,3.9-4.9,3.9c-2,0-4.5-1.8-5.8-3.6C22.1,2124.5,24,2121.9,24.9,2119.8z"/>
<path class="st0" d="M95.6,2267.3c-6.4,0-6.4,10,0,10S102,2267.3,95.6,2267.3z"/>
<path class="st0" d="M35.6,2267.3c-6.4,0-6.4,10,0,10S42,2267.3,35.6,2267.3z"/>
<path class="st0" d="M107.6,2139.3c-6.4,0-6.4,10,0,10S114,2139.3,107.6,2139.3z"/>
</svg>
