<?xml version="1.0" encoding="utf-8"?>
<!-- Generator: Adobe Illustrator 20.1.0, SVG Export Plug-In . SVG Version: 6.00 Build 0)  -->
<svg version="1.1" id="Слой_1" xmlns="http://www.w3.org/2000/svg" xmlns:xlink="http://www.w3.org/1999/xlink" x="0px" y="0px"
	 viewBox="0 0 100 45.3" style="enable-background:new 0 0 100 45.3;" xml:space="preserve">
<style type="text/css">
	.st0{fill:none;stroke:#444D59;stroke-width:2;stroke-miterlimit:10;}
	.st1{fill:none;stroke:#455443;stroke-width:1.5;stroke-miterlimit:10;}
	.st2{fill:none;stroke:#455443;stroke-miterlimit:10;}
</style>
<path class="st0" d="M5.8,3.1c2.7-0.5,5.8-0.9,9.2-0.9c6.7,0,11.7,2.4,14.6,6.6c2.5,3.7,3.7,8,3.7,13.3c0,4.7-1,10.4-4.3,15
	c-3,4.2-8.2,6.8-15.3,6.8c-2.7,0-5.3-0.1-8-0.3V3.1z"/>
<path class="st1" d="M24.7,40.3c2.1,1.6,4.8,2.5,8,2.5c5.3,0,8.5-2.7,8.5-6.5c0-3.7-1.7-5.7-7.4-7.2c-7.3-1.9-9-4.6-9-8.2
	c0-4.3,3.8-7.6,9.6-7.6c3.3,0,5.8,0.8,7,1.6"/>
<path class="st2" d="M53.5,32.2c-0.7-0.5-1.2-1-2.2-1.8c-2.1,1.6-3.8,2.1-5.8,2.1c-2.7,0-5.1-1.7-5.1-4.2c0-2.3,1.8-3.6,3.7-4.5
	v-0.1c-1.1-1.2-1.6-2.3-1.6-3.3c0-1.8,1.5-3.6,4.1-3.6c2,0,3.4,1.3,3.4,3c0,1.6-1.1,2.9-4.5,4.2l0,0.1c2.2,2.1,4.5,4.2,5.7,5.3
	c0.9-1,1.6-2.4,2-5h1c-0.4,2.6-1.2,4.4-2.3,5.4c1.1,0.9,2,1.7,2.9,2.4H53.5z"/>
<path class="st1" d="M76.6,18c0,8.2,0,16.5,0,24.7"/>
<path class="st1" d="M59.8,18.1c2.9,6.6,5.9,13.2,8.2,19.9c1.6-6.9,5.3-13.4,8.1-19.8"/>
<path class="st1" d="M59.2,42.7c0-8.2,0-16.5,0-24.7"/>
<path class="st1" d="M98.4,18c0,8.2,0,16.5,0,24.7"/>
<path class="st1" d="M81.6,18.1c2.9,6.6,5.9,13.2,8.2,19.9c1.6-6.9,5.3-13.4,8.1-19.8"/>
<path class="st1" d="M81,42.7c0-8.2,0-16.5,0-24.7"/>
</svg>
