<?xml version="1.0" encoding="utf-8"?>
<!-- Generator: Adobe Illustrator 20.1.0, SVG Export Plug-In . SVG Version: 6.00 Build 0)  -->
<svg version="1.1" id="Слой_1" xmlns="http://www.w3.org/2000/svg" xmlns:xlink="http://www.w3.org/1999/xlink" x="0px" y="0px"
	 viewBox="0 0 1000 89.4" style="enable-background:new 0 0 1000 89.4;" xml:space="preserve">
<style type="text/css">
	.st0{fill:#666666;}
</style>
<g>
	<path class="st0" d="M19.7,20.5l0.1-0.1c3.1,0.1,4.8,0.1,5.3,0.1c0.4,0,2.2,0,5.3-0.1l0.1,0.1v0.9l-0.1,0.1c-0.9,0-1.5,0.1-2,0.1
		c-0.5,0-0.8,0.1-1,0.3c-0.2,0.1-0.3,0.5-0.4,1C27,23.5,27,24.1,27,25l0,4.3v8.2c0,2.1,0,3.5,0,4.3l0.1,3.2h3.8c3,0,4.9,0,5.6-0.1
		c0.7-0.1,1.5-0.3,2.2-0.5c0.1-0.3,0.3-1,0.6-2.1c0.3-1.1,0.4-1.8,0.4-1.9l0.2-0.1h0.9l0.1,0.1c-0.1,0.5-0.2,1.5-0.3,2.9
		c-0.1,1.4-0.2,2.6-0.2,3.5l-0.1,0.1c-2.4-0.1-5.4-0.1-9.3-0.1l-5.4,0c-1.2,0-2.5,0-3.8,0.1l-0.1-0.1V46l0.1-0.2
		c0.8-0.4,1.2-0.6,1.3-0.7c0.1-0.1,0.2-0.9,0.2-2.4c0.1-1.5,0.1-3.3,0.1-5.5v-8l0-3.6c0-1.4,0-2.3-0.1-2.7s-0.1-0.7-0.3-0.8
		c-0.1-0.1-0.3-0.2-0.7-0.3c-0.3-0.1-1.2-0.2-2.5-0.2l-0.1-0.1V20.5z"/>
	<path class="st0" d="M46.2,34.1l-0.7-0.2l-0.1-0.2v-2.3c2.2-1.6,4.3-2.4,6.4-2.4c1.4,0,2.6,0.3,3.5,0.8c0.9,0.5,1.6,1.2,2,2
		c0.4,0.8,0.6,1.7,0.6,2.8l-0.1,3.7v5.5c0,0.8,0.1,1.2,0.2,1.4c0.1,0.2,0.2,0.3,0.4,0.3c0.1,0.1,0.4,0.1,0.8,0.1l1.1,0.1l0.1,0.2
		v0.7l-0.1,0.1c-0.9-0.1-1.7-0.1-2.5-0.1c-0.7,0-1.6,0-2.7,0.1l-0.3-0.3l0.1-3l-4,3.2c-0.7,0.3-1.4,0.4-2.2,0.4
		c-1,0-1.8-0.2-2.6-0.5c-0.7-0.4-1.3-0.9-1.6-1.5c-0.4-0.6-0.6-1.4-0.6-2.3c0-1.8,0.6-3.2,1.7-4.3c1.1-1,4.2-1.9,9.3-2.6
		c0-1.8-0.4-3.1-1.2-3.9c-0.8-0.7-1.9-1.1-3.3-1.1c-0.7,0-1.4,0.1-2,0.3c-0.6,0.2-0.9,0.4-1,0.5c-0.1,0.1-0.4,0.9-1,2.3L46.2,34.1z
		 M54.8,37c-3.5,0.6-5.6,1.2-6.5,1.9S47,40.6,47,42c0,1.9,1,2.9,2.9,2.9c1.6,0,3.3-1,4.9-2.9V37z"/>
	<path class="st0" d="M61,21.6l-0.2-0.2v-0.8l0.1-0.2c2.4-0.3,4.4-0.7,6-1.4l0.4,0.2c-0.1,1.4-0.2,4.3-0.2,8.6v4.7
		c0.2-0.3,0.7-0.8,1.3-1.4c0.6-0.6,1.2-1.1,1.6-1.3c0.4-0.3,1-0.5,1.7-0.7c0.7-0.2,1.4-0.3,2.2-0.3c1.4,0,2.6,0.3,3.7,1
		c1.1,0.7,1.8,1.6,2.4,2.8c0.5,1.2,0.8,2.4,0.8,3.7c0,1.2-0.2,2.4-0.6,3.6c-0.4,1.1-0.9,2.1-1.5,2.8c-0.3,0.4-1,1-1.8,1.6
		c-1.7,1.2-2.9,2-3.6,2.3c-0.7,0.3-1.6,0.5-2.7,0.5c-0.9,0-1.7-0.1-2.4-0.4s-1.4-0.6-2.2-1.1l-1.5,1.4l-0.6-0.2
		c0.2-2.3,0.4-4.8,0.4-7.7v-9.8l-0.1-3.6c0-1.4-0.1-2.3-0.1-2.9c0-0.6-0.1-0.9-0.2-1c-0.1-0.1-0.2-0.2-0.4-0.2
		C63.1,21.7,62.3,21.6,61,21.6z M67.1,34.9v7c0,0.6,0,1,0.1,1.1c0.1,0.2,0.3,0.5,0.7,0.8c0.4,0.4,1,0.7,1.7,0.9
		c0.7,0.3,1.4,0.4,2.2,0.4c1.8,0,3.1-0.7,4.1-2c1-1.4,1.5-3.1,1.5-5.2c0-1.3-0.2-2.5-0.6-3.5c-0.4-1-1-1.8-1.9-2.3
		c-0.8-0.5-1.8-0.8-2.8-0.8c-1.2,0-2.3,0.4-3.2,1.1C67.9,33.2,67.3,34,67.1,34.9z"/>
	<path class="st0" d="M83.5,38.1c0-1.5,0.3-2.9,0.9-4.3c0.6-1.4,1.7-2.5,3.2-3.5c1.5-1,3.3-1.5,5.4-1.5c2.6,0,4.7,0.8,6.3,2.5
		c1.6,1.6,2.4,3.7,2.4,6.3c0,2.8-0.9,5.2-2.8,7c-1.9,1.8-4.1,2.7-6.8,2.7c-1.7,0-3.3-0.5-4.6-1.4c-1.4-0.9-2.4-2.1-3-3.4
		C83.8,41.2,83.5,39.7,83.5,38.1z M87,36.9c0,1.7,0.2,3.3,0.7,4.6c0.4,1.4,1.2,2.5,2.1,3.3c1,0.8,2.1,1.2,3.3,1.2
		c1.5,0,2.7-0.6,3.6-1.7c1-1.2,1.4-2.9,1.4-5.2c0-2.6-0.5-4.8-1.5-6.5c-1-1.7-2.5-2.5-4.5-2.5c-1.6,0-2.9,0.6-3.8,1.7
		C87.5,33,87,34.7,87,36.9z"/>
	<path class="st0" d="M110.1,29l0.4,0.2c-0.1,0.7-0.1,2-0.2,3.8l1.4-1.8c0.5-0.6,0.9-1,1.2-1.3s0.8-0.6,1.2-0.7
		c0.5-0.2,1-0.3,1.4-0.3c0.5,0,1.1,0.1,1.5,0.3l0.1,0.3c-0.2,1.6-0.3,3.1-0.3,4.3h-0.8c-0.5-1.1-1.3-1.7-2.4-1.7
		c-0.8,0-1.4,0.2-2,0.7c-0.6,0.5-0.9,1.1-1.1,1.8c-0.2,0.7-0.3,1.7-0.3,2.8v2.1c0,0.4,0,1.3,0.1,2.7c0,1.4,0.1,2.3,0.2,2.5
		s0.1,0.4,0.3,0.5c0.1,0.1,0.3,0.2,0.5,0.2c0.2,0,1.1,0.1,2.6,0.2l0.2,0.1v0.8l-0.2,0.2c-1.6-0.1-3.4-0.1-5.2-0.1
		c-1.4,0-2.9,0-4.5,0.1l-0.2-0.2v-0.8l0.2-0.1c1.2-0.1,1.9-0.1,2-0.2c0.2,0,0.3-0.1,0.4-0.2c0.1-0.1,0.2-0.3,0.2-0.5
		c0-0.2,0.1-1,0.1-2.4s0.1-2.4,0.1-3.1v-3.7c0-0.5,0-1.2-0.1-2c0-0.9-0.1-1.4-0.1-1.6c0-0.2-0.1-0.3-0.3-0.4c-0.2-0.1-0.5-0.1-1-0.1
		l-1.6,0l-0.2-0.1v-0.8l0.1-0.1C106.5,30.1,108.5,29.6,110.1,29z"/>
	<path class="st0" d="M121.9,34.1l-0.7-0.2l-0.1-0.2v-2.3c2.2-1.6,4.3-2.4,6.4-2.4c1.4,0,2.6,0.3,3.5,0.8c0.9,0.5,1.6,1.2,2,2
		c0.4,0.8,0.6,1.7,0.6,2.8l-0.1,3.7v5.5c0,0.8,0.1,1.2,0.2,1.4c0.1,0.2,0.2,0.3,0.4,0.3c0.1,0.1,0.4,0.1,0.8,0.1l1.1,0.1l0.1,0.2
		v0.7l-0.1,0.1c-0.9-0.1-1.7-0.1-2.5-0.1c-0.7,0-1.6,0-2.7,0.1l-0.3-0.3l0.1-3l-4,3.2c-0.7,0.3-1.4,0.4-2.2,0.4
		c-1,0-1.8-0.2-2.6-0.5c-0.7-0.4-1.3-0.9-1.6-1.5c-0.4-0.6-0.6-1.4-0.6-2.3c0-1.8,0.6-3.2,1.7-4.3c1.1-1,4.2-1.9,9.3-2.6
		c0-1.8-0.4-3.1-1.2-3.9c-0.8-0.7-1.9-1.1-3.3-1.1c-0.7,0-1.4,0.1-2,0.3c-0.6,0.2-0.9,0.4-1,0.5c-0.1,0.1-0.4,0.9-1,2.3L121.9,34.1z
		 M130.6,37c-3.5,0.6-5.6,1.2-6.5,1.9s-1.3,1.7-1.3,3.1c0,1.9,1,2.9,2.9,2.9c1.6,0,3.3-1,4.9-2.9V37z"/>
	<path class="st0" d="M137.9,32.1v-0.5l0.1-0.2c1.2-0.4,2.1-0.8,2.8-1.2c0-3.2,0-5.1-0.1-5.6c1.3-0.4,2.3-0.9,3.1-1.4l0.4,0.4
		c-0.1,0.8-0.3,3-0.4,6.8c0.6,0,1.3,0,2,0c1.5,0,2.5,0,3.1-0.1l0.1,0.1l-0.4,1.6l-0.1,0.2c-0.6,0-1.3,0-2.1,0c-0.7,0-1.6,0-2.7,0
		l-0.1,7.6c0,1.7,0,2.9,0.1,3.4c0.1,0.5,0.3,1,0.7,1.3c0.4,0.3,0.9,0.5,1.6,0.5c0.8,0,1.6-0.2,2.3-0.6l0.4,0.7
		c-0.3,0.2-1,0.8-2.1,1.9c-0.6,0.3-1.3,0.4-2,0.4c-2.8,0-4.2-1.3-4.2-4c0-1,0-1.8,0.1-2.5c0-0.2,0-0.4,0-0.6v-7.7h-0.8
		c-0.6,0-1.2,0-1.9,0.1L137.9,32.1z"/>
	<path class="st0" d="M150.7,38.1c0-1.5,0.3-2.9,0.9-4.3c0.6-1.4,1.7-2.5,3.2-3.5c1.5-1,3.3-1.5,5.4-1.5c2.6,0,4.7,0.8,6.3,2.5
		c1.6,1.6,2.4,3.7,2.4,6.3c0,2.8-0.9,5.2-2.8,7c-1.9,1.8-4.1,2.7-6.8,2.7c-1.7,0-3.3-0.5-4.6-1.4c-1.4-0.9-2.4-2.1-3-3.4
		C151,41.2,150.7,39.7,150.7,38.1z M154.2,36.9c0,1.7,0.2,3.3,0.7,4.6c0.4,1.4,1.2,2.5,2.1,3.3c1,0.8,2.1,1.2,3.3,1.2
		c1.5,0,2.7-0.6,3.6-1.7c1-1.2,1.4-2.9,1.4-5.2c0-2.6-0.5-4.8-1.5-6.5c-1-1.7-2.5-2.5-4.5-2.5c-1.6,0-2.9,0.6-3.8,1.7
		C154.6,33,154.2,34.7,154.2,36.9z"/>
	<path class="st0" d="M177.3,29l0.4,0.2c-0.1,0.7-0.1,2-0.2,3.8l1.4-1.8c0.5-0.6,0.9-1,1.2-1.3s0.8-0.6,1.2-0.7
		c0.5-0.2,1-0.3,1.4-0.3c0.5,0,1.1,0.1,1.5,0.3l0.1,0.3c-0.2,1.6-0.3,3.1-0.3,4.3h-0.8c-0.5-1.1-1.3-1.7-2.4-1.7
		c-0.8,0-1.4,0.2-2,0.7c-0.6,0.5-0.9,1.1-1.1,1.8c-0.2,0.7-0.3,1.7-0.3,2.8v2.1c0,0.4,0,1.3,0.1,2.7c0,1.4,0.1,2.3,0.2,2.5
		s0.1,0.4,0.3,0.5c0.1,0.1,0.3,0.2,0.5,0.2c0.2,0,1.1,0.1,2.6,0.2l0.2,0.1v0.8l-0.2,0.2c-1.6-0.1-3.4-0.1-5.2-0.1
		c-1.4,0-2.9,0-4.5,0.1l-0.2-0.2v-0.8l0.2-0.1c1.2-0.1,1.9-0.1,2-0.2c0.2,0,0.3-0.1,0.4-0.2c0.1-0.1,0.2-0.3,0.2-0.5
		c0-0.2,0.1-1,0.1-2.4s0.1-2.4,0.1-3.1v-3.7c0-0.5,0-1.2-0.1-2c0-0.9-0.1-1.4-0.1-1.6c0-0.2-0.1-0.3-0.3-0.4c-0.2-0.1-0.5-0.1-1-0.1
		l-1.6,0l-0.2-0.1v-0.8l0.1-0.1C173.7,30.1,175.7,29.6,177.3,29z"/>
	<path class="st0" d="M186,56.7c0.4-1,0.7-2,0.9-2.9h0.4c0.6,0.7,1.3,1,2,1c0.9,0,1.6-0.4,2.3-1.3s1.6-2.8,2.8-5.8
		c-0.5-1.3-0.9-2.6-1.4-3.7l-3-7.3c-0.3-0.8-0.8-1.8-1.4-3.2c-0.6-1.4-1-2.2-1.1-2.3c-0.1-0.1-0.3-0.3-0.5-0.4
		c-0.2-0.1-0.7-0.2-1.5-0.4l-0.1-0.1v-0.7l0.2-0.1c1.4,0.1,2.9,0.1,4.4,0.1c1.8,0,3.1,0,4.1-0.1l0.1,0.1v0.7l-0.1,0.1
		c-0.1,0-0.5,0-1.1,0.1c-0.6,0-1,0.1-1.2,0.3c-0.2,0.2-0.2,0.3-0.2,0.5c0,0.2,0.2,0.9,0.6,2.1c0.4,1.2,0.8,2.2,1.1,3.1l1.2,2.9
		c0.8,1.9,1.4,3.3,1.8,4.2l1-2.2c0.3-0.8,0.8-2,1.5-3.6l1.5-3.9c0.4-1,0.6-1.6,0.7-1.9c0.1-0.2,0.1-0.4,0.1-0.5
		c0-0.3-0.1-0.5-0.3-0.6c-0.2-0.1-0.6-0.2-1.3-0.3l-0.8-0.1l-0.1-0.1v-0.8l0.1-0.1c1,0.1,2.3,0.1,3.7,0.1c1.3,0,2.3,0,3.1-0.1
		l0.1,0.1v0.8l-0.1,0.1c-0.5,0-0.8,0.1-1.1,0.2c-0.3,0.1-0.5,0.3-0.8,0.6c-0.2,0.3-0.7,1.1-1.3,2.4c-0.6,1.3-1.3,2.7-1.9,4.1l-1.8,4
		l-4.3,10c-0.4,0.9-0.8,1.8-1.4,2.8c-0.6,1-1.2,1.7-2,2.1c-0.8,0.4-1.6,0.7-2.5,0.7C187.4,57.3,186.7,57.1,186,56.7z"/>
	<path class="st0" d="M213.3,40.1c0-1.1,0.2-2.2,0.7-3.3c0.5-1,1.3-1.9,2.4-2.7c1.1-0.8,2.5-1.1,4.1-1.1c2,0,3.6,0.6,4.8,1.9
		c1.2,1.3,1.9,2.9,1.9,4.8c0,2.2-0.7,3.9-2.1,5.3c-1.4,1.4-3.2,2.1-5.2,2.1c-1.3,0-2.5-0.4-3.5-1.1c-1-0.7-1.8-1.6-2.3-2.6
		C213.5,42.5,213.3,41.4,213.3,40.1z M215.9,39.2c0,1.3,0.2,2.5,0.5,3.5c0.3,1,0.9,1.9,1.6,2.5s1.6,0.9,2.5,0.9c1.1,0,2-0.4,2.8-1.3
		c0.7-0.9,1.1-2.2,1.1-4c0-2-0.4-3.7-1.2-4.9c-0.8-1.3-1.9-1.9-3.4-1.9c-1.2,0-2.2,0.4-2.9,1.3S215.9,37.5,215.9,39.2z"/>
	<path class="st0" d="M236.3,45.9l0.1,0.1v0.6l-0.1,0.1c-0.3,0-0.8,0-1.7-0.1c-0.7,0-1.5-0.1-2.3-0.1c-1,0-2.2,0-3.4,0.1l-0.1-0.1
		V46l0.1-0.1c0.9-0.1,1.4-0.1,1.6-0.1s0.2-0.1,0.3-0.2c0.1-0.1,0.1-0.2,0.2-0.4c0-0.2,0.1-0.8,0.1-1.8c0-1,0.1-1.8,0.1-2.3v-5.5
		l-1.8,0.1l-0.1-0.1v-0.4l0.1-0.1l1.9-0.9v-0.8c0-0.9,0-1.7,0.1-2.1c0.1-0.5,0.2-0.9,0.5-1.3c0.2-0.4,0.6-0.9,1.2-1.6
		c0.6-0.6,1.1-1.1,1.5-1.5c0.4-0.4,0.8-0.7,1.1-0.8c0.3-0.1,0.7-0.2,1.1-0.2c0.4,0,0.7,0.1,1.2,0.2l0,2.3l-0.3,0.1
		c-0.5-0.5-1.1-0.7-1.8-0.7c-0.5,0-0.9,0.1-1.3,0.3c-0.4,0.2-0.6,0.5-0.7,1c-0.1,0.5-0.2,1.2-0.2,2.3v2.9h1.5c0.8,0,1.5,0,2.2-0.1
		l0.1,0.2l-0.3,1.2l-0.1,0.1c-0.3,0-0.5,0-0.6,0l-1.8,0h-1.1v5.7c0,0.3,0,1,0.1,2.1c0,1.1,0.1,1.7,0.1,1.9s0.1,0.3,0.2,0.4
		c0.1,0.1,0.2,0.1,0.4,0.2C234.5,45.9,235.2,45.9,236.3,45.9z"/>
	<path class="st0" d="M246.1,41.8l0.1-0.1h0.7l0.1,0.1c0,1.2,0.1,1.9,0.2,2.2c0.1,0.3,0.3,0.6,0.8,0.8c0.4,0.3,1,0.5,1.7,0.7
		c0.7,0.2,1.4,0.3,2.2,0.3c1,0,1.9-0.2,2.7-0.6c0.8-0.4,1.4-0.9,1.9-1.6c0.4-0.7,0.7-1.5,0.7-2.4c0-0.6-0.1-1.2-0.3-1.6
		c-0.2-0.5-0.5-0.8-0.9-1.1c-0.4-0.3-0.8-0.5-1.3-0.6c-0.5-0.1-1.2-0.3-2.2-0.4c-0.9-0.2-1.7-0.3-2.2-0.4c-0.5-0.1-1.1-0.3-1.6-0.6
		s-1-0.6-1.3-1c-0.4-0.4-0.6-0.9-0.8-1.4c-0.2-0.6-0.3-1.2-0.3-1.8c0-1.8,0.6-3.2,1.8-4.3c1.2-1.1,2.9-1.7,4.9-1.7
		c0.8,0,1.7,0.1,2.7,0.3c1,0.2,1.8,0.5,2.6,0.9l0.1,0.2c-0.2,0.9-0.3,2.1-0.4,3.7l-0.1,0.1h-0.7l-0.1-0.1c0-1.1,0-1.8-0.1-2.1
		s-0.5-0.7-1.3-1.1s-1.7-0.7-2.7-0.7c-0.8,0-1.6,0.2-2.3,0.5s-1.2,0.8-1.6,1.5s-0.5,1.4-0.5,2.1c0,0.6,0.1,1.1,0.3,1.5
		c0.2,0.4,0.5,0.8,0.8,1c0.3,0.3,0.7,0.4,1.2,0.6c0.5,0.1,1.3,0.3,2.5,0.5c1.7,0.2,2.9,0.5,3.6,0.9c0.8,0.3,1.4,0.9,1.8,1.6
		c0.5,0.7,0.7,1.6,0.7,2.6c0,2-0.8,3.7-2.5,5c-1.6,1.3-3.6,2-6,2c-2,0-3.7-0.3-5.1-1l-0.1-0.2C246,45.3,246.1,43.9,246.1,41.8z"/>
	<path class="st0" d="M260.9,54.3c0.3-0.8,0.6-1.5,0.7-2.2h0.3c0.5,0.5,1,0.8,1.5,0.8c0.7,0,1.3-0.3,1.7-1c0.5-0.7,1.2-2.1,2.1-4.4
		c-0.4-1-0.7-2-1.1-2.9L264,39c-0.2-0.6-0.6-1.4-1-2.5c-0.5-1.1-0.7-1.7-0.8-1.8c-0.1-0.1-0.2-0.2-0.3-0.3s-0.5-0.2-1.1-0.3
		l-0.1-0.1v-0.6l0.1-0.1c1.1,0.1,2.2,0.1,3.3,0.1c1.3,0,2.4,0,3.1-0.1l0.1,0.1v0.6l-0.1,0.1c-0.1,0-0.4,0-0.9,0.1
		c-0.5,0-0.8,0.1-0.9,0.2c-0.1,0.1-0.2,0.3-0.2,0.4c0,0.2,0.1,0.7,0.4,1.6c0.3,0.9,0.6,1.7,0.8,2.3l0.9,2.2c0.6,1.5,1,2.5,1.4,3.2
		l0.8-1.7c0.3-0.6,0.6-1.5,1.1-2.7l1.2-3c0.3-0.8,0.5-1.3,0.5-1.4c0-0.2,0.1-0.3,0.1-0.4c0-0.2-0.1-0.3-0.2-0.4s-0.5-0.1-1-0.2
		l-0.6-0.1l-0.1-0.1v-0.6l0.1-0.1c0.8,0.1,1.7,0.1,2.8,0.1c1,0,1.8,0,2.4-0.1l0.1,0.1v0.6l-0.1,0.1c-0.3,0-0.6,0.1-0.8,0.1
		s-0.4,0.2-0.6,0.5s-0.5,0.8-1,1.8c-0.5,1-1,2-1.5,3.1l-1.4,3l-3.3,7.6c-0.3,0.7-0.6,1.4-1.1,2.1c-0.4,0.8-0.9,1.3-1.5,1.6
		c-0.6,0.3-1.3,0.5-1.9,0.5C262,54.8,261.4,54.6,260.9,54.3z"/>
	<path class="st0" d="M277.8,42.5h0.6l0.1,0.1c0,0.8,0.1,1.5,0.1,2c0.3,0.4,0.8,0.8,1.5,1.1c0.7,0.3,1.4,0.4,2.1,0.4
		c1,0,1.8-0.3,2.4-0.8s0.9-1.2,0.9-1.9c0-0.4-0.1-0.8-0.3-1.1c-0.2-0.3-0.5-0.5-1-0.7c-0.4-0.2-1.2-0.4-2.4-0.7
		c-1-0.2-1.7-0.4-2-0.5c-0.4-0.1-0.8-0.3-1.1-0.6s-0.6-0.7-0.8-1.1c-0.2-0.4-0.3-0.9-0.3-1.5c0-1.3,0.5-2.3,1.5-3
		c1-0.8,2.3-1.1,3.8-1.1c0.6,0,1.3,0.1,2.1,0.3c0.7,0.2,1.3,0.3,1.7,0.5l0.1,0.2c-0.1,0.4-0.1,1.4-0.1,3l-0.1,0.1H286l-0.1-0.1
		c0-0.6-0.1-1-0.2-1.2c-0.1-0.2-0.2-0.5-0.5-0.8c-0.3-0.3-0.7-0.5-1.2-0.7c-0.5-0.2-1-0.3-1.6-0.3c-0.6,0-1.1,0.1-1.5,0.3
		s-0.7,0.4-0.9,0.8c-0.2,0.3-0.4,0.8-0.4,1.3c0,0.4,0.1,0.7,0.2,1c0.1,0.3,0.4,0.5,0.7,0.7c0.3,0.2,0.6,0.3,0.9,0.4l1.5,0.4
		c1.3,0.3,2.3,0.6,2.8,0.8s1,0.6,1.3,1.1c0.3,0.5,0.5,1.1,0.5,1.7c0,1.3-0.5,2.4-1.6,3.4s-2.5,1.4-4.1,1.4c-0.6,0-1.3-0.1-2.2-0.2
		c-0.9-0.1-1.6-0.3-2.3-0.4l-0.1-0.2l0.1-0.9c0-0.3,0.1-0.6,0.1-0.9c0-0.3,0-0.9,0-1.9L277.8,42.5z"/>
	<path class="st0" d="M289.3,35.5v-0.4l0.1-0.1c0.9-0.3,1.6-0.6,2.2-0.9c0-2.5,0-3.9-0.1-4.3c1-0.3,1.8-0.7,2.4-1.1l0.3,0.3
		c-0.1,0.6-0.2,2.3-0.3,5.2c0.5,0,1,0,1.5,0c1.1,0,1.9,0,2.4-0.1l0.1,0.1l-0.3,1.2l-0.1,0.1c-0.5,0-1,0-1.6,0c-0.5,0-1.2,0-2,0
		l-0.1,5.8c0,1.3,0,2.2,0.1,2.6c0.1,0.4,0.2,0.7,0.5,1c0.3,0.2,0.7,0.3,1.2,0.3c0.6,0,1.2-0.2,1.8-0.5l0.3,0.5
		c-0.2,0.2-0.8,0.6-1.6,1.4c-0.5,0.2-1,0.3-1.5,0.3c-2.1,0-3.2-1-3.2-3.1c0-0.8,0-1.4,0.1-1.9c0-0.2,0-0.3,0-0.5v-5.9h-0.6
		c-0.4,0-0.9,0-1.5,0.1L289.3,35.5z"/>
	<path class="st0" d="M310.6,44.6l-0.5,1c-1,0.6-1.9,1-2.6,1.2s-1.5,0.3-2.1,0.3c-1.1,0-2.2-0.2-3.2-0.7s-1.8-1.2-2.5-2.3
		c-0.6-1.1-1-2.3-1-3.8c0-1,0.1-1.9,0.4-2.7c0.2-0.8,0.5-1.4,0.8-1.8c0.3-0.4,0.7-0.8,1.4-1.3s1.3-0.8,2-1.1s1.5-0.4,2.3-0.4
		c1.1,0,2.1,0.3,3,0.8c0.9,0.5,1.5,1.2,1.8,2s0.5,1.7,0.5,2.6c0,0.3,0,0.6,0,0.8l-0.2,0.2c-0.6,0.1-1.5,0.2-2.6,0.3
		s-1.8,0.1-2.2,0.1h-4.5c0,2,0.5,3.4,1.5,4.3s2.1,1.4,3.5,1.4c0.7,0,1.3-0.1,1.9-0.3c0.6-0.2,1.3-0.5,1.9-0.9L310.6,44.6z
		 M301.6,38.8c0.2,0,0.8,0.1,2,0.1s2,0.1,2.5,0.1c1.3,0,2.1,0,2.4-0.1c0-0.2,0-0.4,0-0.5c0-1.5-0.3-2.6-0.9-3.3
		c-0.6-0.7-1.4-1.1-2.4-1.1c-1.1,0-2,0.4-2.6,1.2S301.6,37.2,301.6,38.8z"/>
	<path class="st0" d="M317.2,33.1l0.3,0.2c-0.1,0.6-0.1,1.4-0.1,2.2l1.3-1.2c0.4-0.3,0.6-0.6,0.8-0.7c0.1-0.1,0.4-0.2,0.9-0.3
		s0.9-0.2,1.4-0.2c0.9,0,1.8,0.2,2.5,0.7c0.7,0.5,1.2,1.1,1.6,1.9c1.3-1.2,2-1.9,2.2-2c0.2-0.1,0.5-0.3,1-0.4
		c0.5-0.1,0.9-0.2,1.4-0.2c0.7,0,1.4,0.2,2.1,0.5s1.1,0.7,1.5,1.3s0.6,1.1,0.6,1.7s0.1,1.4,0.1,2.5v1.5c0,0.2,0,1.3,0.1,3.5
		c0,0.9,0.1,1.4,0.3,1.6c0.2,0.2,0.8,0.3,1.7,0.3L337,46v0.6l-0.1,0.1c-1.2-0.1-2-0.1-2.4-0.1c-0.2,0-0.9,0-2.1,0.1l-0.2-0.2
		c0.1-1.2,0.2-2.8,0.2-4.8v-1.7c0-1.5-0.1-2.6-0.2-3.2c-0.1-0.6-0.5-1.1-1-1.5c-0.5-0.4-1.1-0.6-1.9-0.6c-0.5,0-1,0.1-1.4,0.3
		c-0.4,0.2-0.8,0.5-1.2,0.9c-0.4,0.4-0.5,0.8-0.6,1.1c0,0.3-0.1,1-0.1,1.9v1.8c0,0.4,0,1.2,0.1,2.3s0.1,1.8,0.1,2
		c0,0.2,0.1,0.3,0.2,0.4c0.1,0.1,0.2,0.1,0.3,0.2c0.1,0,0.6,0.1,1.5,0.1l0.1,0.1v0.6l-0.1,0.1c-1.2-0.1-2.3-0.1-3.4-0.1
		c-1,0-2.1,0-3.4,0.1l-0.1-0.1V46l0.1-0.1c0.9-0.1,1.4-0.1,1.6-0.1s0.2-0.1,0.3-0.2c0.1-0.1,0.2-0.2,0.2-0.4c0-0.2,0.1-0.8,0.1-1.8
		c0-1,0.1-1.8,0.1-2.3v-1.6c0-1.1-0.1-1.9-0.2-2.5s-0.5-1.1-0.9-1.5c-0.5-0.4-1.1-0.6-1.8-0.6c-0.6,0-1.1,0.1-1.5,0.3
		c-0.5,0.2-0.8,0.5-1.1,0.8c-0.3,0.3-0.5,0.6-0.6,0.9c-0.1,0.3-0.1,0.9-0.1,1.8v2.1c0,0.4,0,1.2,0.1,2.3s0.1,1.8,0.1,2
		c0,0.2,0.1,0.3,0.2,0.4c0.1,0.1,0.2,0.1,0.3,0.2c0.1,0,0.6,0.1,1.5,0.1l0.1,0.1v0.6l-0.1,0.1c-1.2-0.1-2.3-0.1-3.4-0.1
		c-1.1,0-2.2,0-3.4,0.1l-0.1-0.1V46l0.1-0.1c0.9-0.1,1.4-0.1,1.6-0.1s0.2-0.1,0.3-0.2c0.1-0.1,0.2-0.2,0.2-0.4
		c0-0.2,0.1-0.8,0.1-1.8c0-1,0.1-1.8,0.1-2.3v-2.8c0-0.4,0-0.9-0.1-1.5c0-0.7-0.1-1.1-0.1-1.2s-0.1-0.3-0.2-0.3
		c-0.1-0.1-0.4-0.1-0.7-0.1l-1.2,0l-0.1-0.1v-0.6l0.1-0.1C314.5,34,316,33.6,317.2,33.1z"/>
	<path class="st0" d="M345.3,26.7l0.1-0.1c1.6,0.1,2.7,0.1,3.3,0.1l6.6-0.1c1.9,0,3.4,0.2,4.6,0.5c1.2,0.4,2.3,1,3.2,1.8
		c0.9,0.9,1.7,1.9,2.1,3c0.5,1.2,0.7,2.4,0.7,3.7c0,1.3-0.2,2.5-0.7,3.8c-0.4,1.2-1.1,2.4-1.9,3.3c-0.8,1-1.7,1.8-2.8,2.4
		s-2.1,1-3.1,1.2c-1,0.2-2.1,0.3-3.2,0.3c-0.7,0-2.1,0-4.2-0.1c-0.7,0-1.1,0-1.3,0c-0.7,0-1.4,0-2.4,0.1l-0.1-0.1v-0.5l0.1-0.1
		c0.6-0.3,0.9-0.5,1-0.5c0.1-0.1,0.1-0.9,0.2-2.5c0.1-1.6,0.1-2.8,0.1-3.6v-5.2l0-3.2c0-0.7,0-1.3,0-1.7c0-0.4-0.1-0.8-0.1-0.9
		s-0.1-0.3-0.2-0.4s-0.2-0.1-0.3-0.2c-0.1-0.1-0.4-0.1-0.7-0.1l-1.1-0.1l-0.1-0.1V26.7z M350.5,45.2c1,0.2,2.1,0.3,3.3,0.3
		c2.2,0,4-0.4,5.3-1.1c1.3-0.7,2.3-1.8,3-3.3s1-3.1,1-4.9c0-2.7-0.7-4.7-2.1-6.2s-3.7-2.2-6.7-2.2c-1.3,0-2.5,0.1-3.7,0.3
		c-0.1,1.5-0.1,3.3-0.1,5.2v4.4l0,4.2C350.5,42.7,350.5,43.8,350.5,45.2z"/>
	<path class="st0" d="M368,54.3c0.3-0.8,0.6-1.5,0.7-2.2h0.3c0.5,0.5,1,0.8,1.5,0.8c0.7,0,1.3-0.3,1.7-1c0.5-0.7,1.2-2.1,2.1-4.4
		c-0.4-1-0.7-2-1.1-2.9L371,39c-0.2-0.6-0.6-1.4-1-2.5c-0.5-1.1-0.7-1.7-0.8-1.8c-0.1-0.1-0.2-0.2-0.3-0.3c-0.1-0.1-0.5-0.2-1.1-0.3
		l-0.1-0.1v-0.6l0.1-0.1c1.1,0.1,2.2,0.1,3.3,0.1c1.3,0,2.4,0,3.1-0.1l0.1,0.1v0.6l-0.1,0.1c-0.1,0-0.4,0-0.9,0.1
		c-0.5,0-0.8,0.1-0.9,0.2c-0.1,0.1-0.2,0.3-0.2,0.4c0,0.2,0.1,0.7,0.4,1.6c0.3,0.9,0.6,1.7,0.8,2.3l0.9,2.2c0.6,1.5,1,2.5,1.4,3.2
		l0.8-1.7c0.3-0.6,0.6-1.5,1.1-2.7l1.2-3c0.3-0.8,0.5-1.3,0.5-1.4c0-0.2,0.1-0.3,0.1-0.4c0-0.2-0.1-0.3-0.2-0.4
		c-0.2-0.1-0.5-0.1-1-0.2l-0.6-0.1l-0.1-0.1v-0.6l0.1-0.1c0.8,0.1,1.7,0.1,2.8,0.1c1,0,1.8,0,2.4-0.1l0.1,0.1v0.6l-0.1,0.1
		c-0.3,0-0.6,0.1-0.8,0.1c-0.2,0.1-0.4,0.2-0.6,0.5c-0.2,0.2-0.5,0.8-1,1.8c-0.5,1-1,2-1.5,3.1l-1.4,3l-3.3,7.6
		c-0.3,0.7-0.6,1.4-1.1,2.1s-0.9,1.3-1.5,1.6c-0.6,0.3-1.3,0.5-1.9,0.5C369,54.8,368.5,54.6,368,54.3z"/>
	<path class="st0" d="M388.3,33.1l0.3,0.2c-0.1,0.6-0.1,1.5-0.1,2.5c0.8-0.6,1.5-1.3,2.2-1.9c0.2-0.2,0.4-0.3,0.6-0.4
		s0.5-0.2,0.9-0.3s0.8-0.1,1.2-0.1c0.7,0,1.4,0.1,2.1,0.4s1.2,0.6,1.5,1c0.3,0.4,0.6,0.9,0.7,1.4s0.2,1.2,0.2,2v2.5
		c0,0.2,0,1.3,0.1,3.5c0,0.9,0.1,1.4,0.3,1.6s0.8,0.3,1.8,0.3L400,46v0.6l-0.1,0.1c-1.2-0.1-2-0.1-2.4-0.1c-0.2,0-0.9,0-2.1,0.1
		l-0.2-0.2c0.1-1.2,0.2-2.8,0.2-4.8v-1.9c0-1.1,0-1.9-0.1-2.4s-0.2-0.9-0.5-1.3c-0.3-0.4-0.6-0.7-1.1-0.9c-0.4-0.2-1-0.3-1.6-0.3
		c-0.5,0-0.9,0-1.3,0.1c-0.3,0.1-0.7,0.3-1.2,0.6c-0.4,0.3-0.8,0.6-1,0.9c-0.2,0.3-0.3,0.5-0.4,0.8c0,0.2-0.1,0.7-0.1,1.5v2.5
		c0,0.2,0,0.9,0.1,2c0,1.1,0.1,1.8,0.1,2c0,0.2,0.1,0.3,0.2,0.4s0.2,0.1,0.3,0.2c0.1,0,0.6,0.1,1.5,0.1l0.1,0.1v0.6l-0.1,0.1
		c-1.2-0.1-2.3-0.1-3.4-0.1c-1.1,0-2.2,0-3.4,0.1l-0.1-0.1V46l0.1-0.1c0.9-0.1,1.4-0.1,1.6-0.1s0.2-0.1,0.3-0.2
		c0.1-0.1,0.2-0.2,0.2-0.4c0-0.2,0.1-0.8,0.1-1.8c0-1,0.1-1.8,0.1-2.3v-2.8c0-0.4,0-0.9-0.1-1.5c0-0.7-0.1-1.1-0.1-1.2
		s-0.1-0.3-0.2-0.3c-0.1-0.1-0.4-0.1-0.7-0.1l-1.2,0l-0.1-0.1v-0.6l0.1-0.1C385.5,34,387.1,33.6,388.3,33.1z"/>
	<path class="st0" d="M403.3,37l-0.6-0.1l-0.1-0.1V35c1.7-1.2,3.3-1.9,4.9-1.9c1.1,0,2,0.2,2.7,0.6s1.2,0.9,1.6,1.5
		c0.3,0.6,0.5,1.3,0.5,2.1l-0.1,2.8v4.2c0,0.6,0,0.9,0.1,1s0.2,0.2,0.3,0.2c0.1,0,0.3,0.1,0.6,0.1l0.8,0.1l0.1,0.1v0.6l-0.1,0.1
		c-0.7-0.1-1.3-0.1-1.9-0.1c-0.6,0-1.2,0-2,0.1l-0.2-0.2l0.1-2.3l-3.1,2.4c-0.5,0.2-1.1,0.3-1.7,0.3c-0.8,0-1.4-0.1-1.9-0.4
		s-1-0.7-1.2-1.1s-0.4-1.1-0.4-1.8c0-1.4,0.4-2.5,1.3-3.2c0.9-0.8,3.2-1.4,7.1-2c0-1.4-0.3-2.4-0.9-3c-0.6-0.6-1.5-0.9-2.5-0.9
		c-0.5,0-1,0.1-1.5,0.2s-0.7,0.3-0.8,0.4C404.1,35.3,403.9,35.9,403.3,37L403.3,37z M409.9,39.3c-2.6,0.4-4.3,0.9-4.9,1.4
		c-0.7,0.5-1,1.3-1,2.4c0,1.5,0.7,2.2,2.2,2.2c1.3,0,2.5-0.7,3.7-2.2V39.3z"/>
	<path class="st0" d="M420,33.1l0.3,0.2c-0.1,0.6-0.1,1.4-0.1,2.2l1.3-1.2c0.4-0.3,0.6-0.6,0.8-0.7c0.1-0.1,0.4-0.2,0.9-0.3
		s0.9-0.2,1.4-0.2c0.9,0,1.8,0.2,2.5,0.7c0.7,0.5,1.2,1.1,1.6,1.9c1.3-1.2,2-1.9,2.2-2c0.2-0.1,0.5-0.3,1-0.4
		c0.5-0.1,0.9-0.2,1.4-0.2c0.7,0,1.4,0.2,2.1,0.5s1.1,0.7,1.5,1.3s0.6,1.1,0.6,1.7s0.1,1.4,0.1,2.5v1.5c0,0.2,0,1.3,0.1,3.5
		c0,0.9,0.1,1.4,0.3,1.6c0.2,0.2,0.8,0.3,1.7,0.3l0.1,0.1v0.6l-0.1,0.1c-1.2-0.1-2-0.1-2.4-0.1c-0.2,0-0.9,0-2.1,0.1l-0.2-0.2
		c0.1-1.2,0.2-2.8,0.2-4.8v-1.7c0-1.5-0.1-2.6-0.2-3.2c-0.1-0.6-0.5-1.1-1-1.5c-0.5-0.4-1.1-0.6-1.9-0.6c-0.5,0-1,0.1-1.4,0.3
		c-0.4,0.2-0.8,0.5-1.2,0.9c-0.4,0.4-0.5,0.8-0.6,1.1c0,0.3-0.1,1-0.1,1.9v1.8c0,0.4,0,1.2,0.1,2.3s0.1,1.8,0.1,2
		c0,0.2,0.1,0.3,0.2,0.4c0.1,0.1,0.2,0.1,0.3,0.2c0.1,0,0.6,0.1,1.5,0.1l0.1,0.1v0.6l-0.1,0.1c-1.2-0.1-2.3-0.1-3.4-0.1
		c-1,0-2.1,0-3.4,0.1l-0.1-0.1V46l0.1-0.1c0.9-0.1,1.4-0.1,1.6-0.1s0.2-0.1,0.3-0.2c0.1-0.1,0.2-0.2,0.2-0.4c0-0.2,0.1-0.8,0.1-1.8
		c0-1,0.1-1.8,0.1-2.3v-1.6c0-1.1-0.1-1.9-0.2-2.5s-0.5-1.1-0.9-1.5c-0.5-0.4-1.1-0.6-1.8-0.6c-0.6,0-1.1,0.1-1.5,0.3
		c-0.5,0.2-0.8,0.5-1.1,0.8c-0.3,0.3-0.5,0.6-0.6,0.9c-0.1,0.3-0.1,0.9-0.1,1.8v2.1c0,0.4,0,1.2,0.1,2.3s0.1,1.8,0.1,2
		c0,0.2,0.1,0.3,0.2,0.4c0.1,0.1,0.2,0.1,0.3,0.2c0.1,0,0.6,0.1,1.5,0.1l0.1,0.1v0.6l-0.1,0.1c-1.2-0.1-2.3-0.1-3.4-0.1
		c-1.1,0-2.2,0-3.4,0.1l-0.1-0.1V46l0.1-0.1c0.9-0.1,1.4-0.1,1.6-0.1s0.2-0.1,0.3-0.2c0.1-0.1,0.2-0.2,0.2-0.4
		c0-0.2,0.1-0.8,0.1-1.8c0-1,0.1-1.8,0.1-2.3v-2.8c0-0.4,0-0.9-0.1-1.5c0-0.7-0.1-1.1-0.1-1.2s-0.1-0.3-0.2-0.3
		c-0.1-0.1-0.4-0.1-0.7-0.1l-1.2,0l-0.1-0.1v-0.6l0.1-0.1C417.3,34,418.8,33.6,420,33.1z"/>
	<path class="st0" d="M445.7,33.1l0.3,0.2c-0.1,1.2-0.2,2.8-0.2,4.7v3.2c0,0.2,0,0.9,0.1,2c0,1.1,0.1,1.8,0.1,2
		c0,0.2,0.1,0.3,0.2,0.4c0.1,0.1,0.2,0.1,0.3,0.2c0.1,0,0.6,0.1,1.5,0.1l0.1,0.1v0.6l-0.1,0.1c-1.2-0.1-2.3-0.1-3.4-0.1
		c-1.1,0-2.2,0-3.4,0.1l-0.1-0.1V46l0.1-0.1c0.9-0.1,1.4-0.1,1.6-0.1s0.2-0.1,0.3-0.2c0.1-0.1,0.2-0.2,0.2-0.4
		c0-0.2,0.1-0.8,0.1-1.8c0-1,0.1-1.8,0.1-2.3v-2.8c0-0.4,0-0.9-0.1-1.5s-0.1-1.1-0.1-1.2s-0.1-0.3-0.2-0.3c-0.1-0.1-0.4-0.1-0.7-0.1
		l-1.2,0l-0.1-0.1v-0.6l0.1-0.1C443,34,444.5,33.6,445.7,33.1z M444.5,26.8c0.4,0,0.8,0.2,1.1,0.5s0.5,0.7,0.5,1.1
		c0,0.4-0.2,0.8-0.5,1.1s-0.7,0.5-1.1,0.5c-0.4,0-0.8-0.2-1.1-0.5c-0.3-0.3-0.5-0.7-0.5-1.1s0.2-0.8,0.5-1.1S444.1,26.8,444.5,26.8z
		"/>
	<path class="st0" d="M461.2,45.1l-0.6,0.9c-1.2,0.7-2.6,1-4.1,1c-2.1,0-3.7-0.6-4.8-1.9s-1.7-2.8-1.7-4.8c0-0.9,0.1-1.7,0.3-2.4
		c0.2-0.7,0.4-1.3,0.7-1.7c0.3-0.5,0.6-0.8,1-1.1s1-0.6,1.8-1.1s1.5-0.8,1.9-0.9c0.4-0.1,1-0.2,1.8-0.2c1.5,0,2.7,0.3,3.6,0.8
		c-0.2,1.1-0.3,2.3-0.4,3.6l-0.1,0.1H460l-0.1-0.1c0-0.8-0.1-1.3-0.2-1.6c-0.1-0.3-0.4-0.6-1.1-0.9s-1.4-0.5-2.2-0.5
		c-0.8,0-1.5,0.2-2.1,0.5c-0.6,0.3-1.1,0.9-1.4,1.6c-0.3,0.7-0.5,1.6-0.5,2.7c0,0.9,0.1,1.7,0.4,2.5c0.2,0.8,0.6,1.5,1,2.1
		c0.4,0.5,0.9,1,1.6,1.3c0.7,0.3,1.4,0.5,2.2,0.5c0.5,0,1-0.1,1.5-0.2s1-0.3,1.7-0.7L461.2,45.1z"/>
	<path class="st0" d="M463.2,42.5h0.6l0.1,0.1c0,0.8,0.1,1.5,0.1,2c0.3,0.4,0.8,0.8,1.5,1.1c0.7,0.3,1.4,0.4,2.1,0.4
		c1,0,1.8-0.3,2.4-0.8s0.9-1.2,0.9-1.9c0-0.4-0.1-0.8-0.3-1.1c-0.2-0.3-0.5-0.5-1-0.7c-0.4-0.2-1.2-0.4-2.4-0.7
		c-1-0.2-1.7-0.4-2-0.5c-0.4-0.1-0.8-0.3-1.1-0.6c-0.4-0.3-0.6-0.7-0.8-1.1c-0.2-0.4-0.3-0.9-0.3-1.5c0-1.3,0.5-2.3,1.5-3
		c1-0.8,2.3-1.1,3.8-1.1c0.6,0,1.3,0.1,2.1,0.3c0.7,0.2,1.3,0.3,1.7,0.5l0.1,0.2c-0.1,0.4-0.1,1.4-0.1,3l-0.1,0.1h-0.6l-0.1-0.1
		c0-0.6-0.1-1-0.2-1.2c-0.1-0.2-0.2-0.5-0.5-0.8c-0.3-0.3-0.7-0.5-1.2-0.7c-0.5-0.2-1-0.3-1.6-0.3c-0.6,0-1.1,0.1-1.5,0.3
		s-0.7,0.4-0.9,0.8c-0.2,0.3-0.4,0.8-0.4,1.3c0,0.4,0.1,0.7,0.2,1s0.4,0.5,0.7,0.7c0.3,0.2,0.6,0.3,0.9,0.4l1.5,0.4
		c1.3,0.3,2.3,0.6,2.8,0.8s1,0.6,1.3,1.1c0.3,0.5,0.5,1.1,0.5,1.7c0,1.3-0.5,2.4-1.6,3.4s-2.5,1.4-4.1,1.4c-0.6,0-1.3-0.1-2.2-0.2
		s-1.6-0.3-2.3-0.4l-0.1-0.2l0.1-0.9c0-0.3,0.1-0.6,0.1-0.9c0-0.3,0-0.9,0-1.9L463.2,42.5z"/>
	<path class="st0" d="M484.3,37l-0.6-0.1l-0.1-0.1V35c1.7-1.2,3.3-1.9,4.9-1.9c1.1,0,2,0.2,2.7,0.6s1.2,0.9,1.6,1.5
		c0.3,0.6,0.5,1.3,0.5,2.1l-0.1,2.8v4.2c0,0.6,0,0.9,0.1,1s0.2,0.2,0.3,0.2c0.1,0,0.3,0.1,0.6,0.1l0.8,0.1l0.1,0.1v0.6l-0.1,0.1
		c-0.7-0.1-1.3-0.1-1.9-0.1c-0.6,0-1.2,0-2,0.1l-0.2-0.2l0.1-2.3l-3.1,2.4c-0.5,0.2-1.1,0.3-1.7,0.3c-0.8,0-1.4-0.1-1.9-0.4
		s-1-0.7-1.2-1.1s-0.4-1.1-0.4-1.8c0-1.4,0.4-2.5,1.3-3.2c0.9-0.8,3.2-1.4,7.1-2c0-1.4-0.3-2.4-0.9-3c-0.6-0.6-1.5-0.9-2.5-0.9
		c-0.5,0-1,0.1-1.5,0.2s-0.7,0.3-0.8,0.4C485.1,35.3,484.8,35.9,484.3,37L484.3,37z M490.8,39.3c-2.6,0.4-4.3,0.9-4.9,1.4
		c-0.7,0.5-1,1.3-1,2.4c0,1.5,0.7,2.2,2.2,2.2c1.3,0,2.5-0.7,3.7-2.2V39.3z"/>
	<path class="st0" d="M500.6,33.1l0.3,0.2c-0.1,0.6-0.1,1.5-0.1,2.5c0.8-0.6,1.5-1.3,2.2-1.9c0.2-0.2,0.4-0.3,0.6-0.4
		s0.5-0.2,0.9-0.3s0.8-0.1,1.2-0.1c0.7,0,1.4,0.1,2.1,0.4s1.2,0.6,1.5,1c0.3,0.4,0.6,0.9,0.7,1.4s0.2,1.2,0.2,2v2.5
		c0,0.2,0,1.3,0.1,3.5c0,0.9,0.1,1.4,0.3,1.6s0.8,0.3,1.8,0.3l0.1,0.1v0.6l-0.1,0.1c-1.2-0.1-2-0.1-2.4-0.1c-0.2,0-0.9,0-2.1,0.1
		l-0.2-0.2c0.1-1.2,0.2-2.8,0.2-4.8v-1.9c0-1.1,0-1.9-0.1-2.4s-0.2-0.9-0.5-1.3c-0.3-0.4-0.6-0.7-1.1-0.9c-0.4-0.2-1-0.3-1.6-0.3
		c-0.5,0-0.9,0-1.3,0.1c-0.3,0.1-0.7,0.3-1.2,0.6c-0.4,0.3-0.8,0.6-1,0.9c-0.2,0.3-0.3,0.5-0.4,0.8c0,0.2-0.1,0.7-0.1,1.5v2.5
		c0,0.2,0,0.9,0.1,2c0,1.1,0.1,1.8,0.1,2c0,0.2,0.1,0.3,0.2,0.4s0.2,0.1,0.3,0.2c0.1,0,0.6,0.1,1.5,0.1l0.1,0.1v0.6l-0.1,0.1
		c-1.2-0.1-2.3-0.1-3.4-0.1c-1.1,0-2.2,0-3.4,0.1l-0.1-0.1V46l0.1-0.1c0.9-0.1,1.4-0.1,1.6-0.1s0.2-0.1,0.3-0.2
		c0.1-0.1,0.2-0.2,0.2-0.4c0-0.2,0.1-0.8,0.1-1.8c0-1,0.1-1.8,0.1-2.3v-2.8c0-0.4,0-0.9-0.1-1.5c0-0.7-0.1-1.1-0.1-1.2
		s-0.1-0.3-0.2-0.3c-0.1-0.1-0.4-0.1-0.7-0.1l-1.2,0l-0.1-0.1v-0.6l0.1-0.1C497.9,34,499.4,33.6,500.6,33.1z"/>
	<path class="st0" d="M522.2,27.4v-0.6l0.1-0.1c1.8-0.2,3.3-0.6,4.6-1l0.3,0.2c-0.1,1.1-0.2,3.3-0.2,6.5v9.3c0,1,0,1.8,0,2.5
		c0,0.7,0.1,1.1,0.2,1.3c0.1,0.1,0.2,0.2,0.4,0.3s0.7,0.2,1.6,0.2l0.1,0.1v0.5l-0.1,0.1c-1-0.1-1.8-0.1-2.4-0.1
		c-0.5,0-1.2,0-2.2,0.1l-0.2-0.2c0-0.9,0-1.6,0-1.9c0,0,0-0.2,0-0.5c-0.5,0.4-1,0.8-1.6,1.3c-0.8,0.7-1.3,1.1-1.5,1.3
		c-0.4,0.2-1.1,0.3-1.9,0.3c-1.3,0-2.4-0.3-3.3-1s-1.6-1.5-1.9-2.5c-0.4-1-0.6-2-0.6-3.1c0-1.1,0.2-2.1,0.6-3.1c0.4-1,1-1.7,1.7-2.2
		s1.5-0.9,2.4-1.4c0.9-0.5,1.7-0.7,2.6-0.7c1.2,0,2.3,0.3,3.4,0.9l-0.1-3.2c0-1.1,0-1.9-0.1-2.3c0-0.4-0.1-0.7-0.1-0.8
		c-0.1-0.1-0.2-0.1-0.3-0.2s-0.7-0.1-1.7-0.1L522.2,27.4z M524.6,36.4c-0.6-0.7-1.2-1.2-1.9-1.5s-1.4-0.5-2.1-0.5
		c-0.8,0-1.5,0.2-2.2,0.6c-0.7,0.4-1.2,1.1-1.5,1.9c-0.3,0.8-0.5,1.8-0.5,2.8c0,1.7,0.4,3,1.3,4c0.8,1,1.9,1.5,3.2,1.5
		c0.7,0,1.3-0.2,1.8-0.5c0.5-0.3,1-0.7,1.3-1.3s0.5-1.1,0.6-1.6s0.1-1.5,0.1-3V36.4z"/>
	<path class="st0" d="M564.3,26.7l0.1,0.1v0.7l-0.1,0.1c-1,0-1.7,0.1-1.9,0.2s-0.4,0.2-0.5,0.4c-0.1,0.2-0.2,0.5-0.2,1
		c0,0.5,0,1.9-0.1,4.3V40c0,0.9,0,2,0,3.2c0,1.2,0.1,1.9,0.2,2.1c0.1,0.2,0.3,0.3,0.5,0.4c0.2,0.1,0.9,0.1,2,0.2l0.1,0.1v0.7
		l-0.1,0.1c-1.5-0.1-2.9-0.1-4-0.1c-0.8,0-2.1,0-4,0.1l-0.1-0.1V46l0.1-0.1c1,0,1.7-0.1,1.9-0.2s0.4-0.2,0.5-0.4
		c0.1-0.2,0.2-0.5,0.2-1s0-2,0.1-4.3V29.6l-4.9,10.2c-1.2,2.6-2.3,5-3.2,7.2h-0.6c-0.5-1.2-1-2.2-1.3-2.9l-6.8-14.1V40
		c0,0.9,0,2,0,3.2c0,1.2,0.1,1.9,0.2,2.1c0.1,0.2,0.3,0.3,0.5,0.4s0.9,0.2,2,0.2l0.1,0.1v0.7l-0.1,0.1l-0.9,0
		c-0.9,0-1.7-0.1-2.4-0.1c-0.3,0-1.4,0-3.4,0.1l-0.1-0.1V46l0.1-0.1c1,0,1.7-0.1,1.9-0.1s0.4-0.2,0.5-0.4s0.2-0.5,0.2-1
		c0-0.5,0-1.9,0.1-4.3v-6.5c0-0.9,0-1.9,0-3.1c0-1.2-0.1-1.9-0.2-2.1c-0.1-0.2-0.3-0.3-0.5-0.4s-0.9-0.2-2-0.2l-0.1-0.1v-0.7
		l0.1-0.1c0.7,0,1.5,0.1,2.6,0.1c1,0,1.9,0,2.7-0.1c0.8,1.8,1.6,3.5,2.3,5l5.4,11l4.8-10.1c1.3-2.7,2.2-4.7,2.6-5.9
		c0.9,0,1.8,0.1,2.7,0.1C562.2,26.7,563.2,26.7,564.3,26.7z"/>
	<path class="st0" d="M568,37l-0.6-0.1l-0.1-0.1V35c1.7-1.2,3.3-1.9,4.9-1.9c1.1,0,2,0.2,2.7,0.6s1.2,0.9,1.6,1.5
		c0.3,0.6,0.5,1.3,0.5,2.1l-0.1,2.8v4.2c0,0.6,0,0.9,0.1,1s0.2,0.2,0.3,0.2c0.1,0,0.3,0.1,0.6,0.1l0.8,0.1l0.1,0.1v0.6l-0.1,0.1
		c-0.7-0.1-1.3-0.1-1.9-0.1c-0.6,0-1.2,0-2,0.1l-0.2-0.2l0.1-2.3l-3.1,2.4c-0.5,0.2-1.1,0.3-1.7,0.3c-0.8,0-1.4-0.1-1.9-0.4
		s-1-0.7-1.2-1.1s-0.4-1.1-0.4-1.8c0-1.4,0.4-2.5,1.3-3.2c0.9-0.8,3.2-1.4,7.1-2c0-1.4-0.3-2.4-0.9-3c-0.6-0.6-1.5-0.9-2.5-0.9
		c-0.5,0-1,0.1-1.5,0.2s-0.7,0.3-0.8,0.4C568.8,35.3,568.6,35.9,568,37L568,37z M574.6,39.3c-2.6,0.4-4.3,0.9-4.9,1.4
		c-0.7,0.5-1,1.3-1,2.4c0,1.5,0.7,2.2,2.2,2.2c1.3,0,2.5-0.7,3.7-2.2V39.3z"/>
	<path class="st0" d="M580.2,35.5v-0.4l0.1-0.1c0.9-0.3,1.6-0.6,2.2-0.9c0-2.5,0-3.9-0.1-4.3c1-0.3,1.8-0.7,2.4-1.1l0.3,0.3
		c-0.1,0.6-0.2,2.3-0.3,5.2c0.5,0,1,0,1.5,0c1.1,0,1.9,0,2.4-0.1l0.1,0.1l-0.3,1.2l-0.1,0.1c-0.5,0-1,0-1.6,0c-0.5,0-1.2,0-2,0
		l-0.1,5.8c0,1.3,0,2.2,0.1,2.6c0.1,0.4,0.2,0.7,0.5,1c0.3,0.2,0.7,0.3,1.2,0.3c0.6,0,1.2-0.2,1.8-0.5l0.3,0.5
		c-0.2,0.2-0.8,0.6-1.6,1.4c-0.5,0.2-1,0.3-1.5,0.3c-2.1,0-3.2-1-3.2-3.1c0-0.8,0-1.4,0.1-1.9c0-0.2,0-0.3,0-0.5v-5.9h-0.6
		c-0.4,0-0.9,0-1.5,0.1L580.2,35.5z"/>
	<path class="st0" d="M601.5,44.6l-0.5,1c-1,0.6-1.9,1-2.6,1.2s-1.5,0.3-2.1,0.3c-1.1,0-2.2-0.2-3.2-0.7s-1.8-1.2-2.5-2.3
		c-0.6-1.1-1-2.3-1-3.8c0-1,0.1-1.9,0.4-2.7c0.2-0.8,0.5-1.4,0.8-1.8c0.3-0.4,0.7-0.8,1.4-1.3s1.3-0.8,2-1.1s1.5-0.4,2.3-0.4
		c1.1,0,2.1,0.3,3,0.8c0.9,0.5,1.5,1.2,1.8,2s0.5,1.7,0.5,2.6c0,0.3,0,0.6,0,0.8l-0.2,0.2c-0.6,0.1-1.5,0.2-2.6,0.3
		s-1.8,0.1-2.2,0.1h-4.5c0,2,0.5,3.4,1.5,4.3s2.1,1.4,3.5,1.4c0.7,0,1.3-0.1,1.9-0.3c0.6-0.2,1.3-0.5,1.9-0.9L601.5,44.6z
		 M592.4,38.8c0.2,0,0.8,0.1,2,0.1s2,0.1,2.5,0.1c1.3,0,2.1,0,2.4-0.1c0-0.2,0-0.4,0-0.5c0-1.5-0.3-2.6-0.9-3.3
		c-0.6-0.7-1.4-1.1-2.4-1.1c-1.1,0-2,0.4-2.6,1.2S592.4,37.2,592.4,38.8z"/>
	<path class="st0" d="M608.3,33.1l0.3,0.2c-0.1,0.5-0.1,1.5-0.1,2.9l1.1-1.3c0.3-0.4,0.7-0.8,0.9-1c0.3-0.2,0.6-0.4,0.9-0.6
		c0.4-0.1,0.7-0.2,1.1-0.2c0.4,0,0.8,0.1,1.2,0.3l0.1,0.2c-0.2,1.3-0.2,2.4-0.3,3.3h-0.6c-0.4-0.9-1-1.3-1.8-1.3
		c-0.6,0-1.1,0.2-1.5,0.6c-0.4,0.4-0.7,0.8-0.9,1.4c-0.1,0.6-0.2,1.3-0.2,2.1v1.6c0,0.3,0,1,0.1,2.1s0.1,1.7,0.1,1.9
		c0,0.2,0.1,0.3,0.2,0.4c0.1,0.1,0.2,0.1,0.4,0.2s0.8,0.1,2,0.1l0.1,0.1v0.6l-0.1,0.1c-1.3-0.1-2.6-0.1-3.9-0.1
		c-1.1,0-2.2,0-3.4,0.1l-0.1-0.1V46l0.1-0.1c0.9-0.1,1.4-0.1,1.6-0.1s0.2-0.1,0.3-0.2c0.1-0.1,0.2-0.2,0.2-0.4
		c0-0.2,0.1-0.8,0.1-1.8c0-1,0.1-1.8,0.1-2.3v-2.8c0-0.4,0-0.9-0.1-1.5c0-0.7-0.1-1.1-0.1-1.2s-0.1-0.3-0.2-0.3
		c-0.1-0.1-0.4-0.1-0.7-0.1l-1.2,0l-0.1-0.1v-0.6l0.1-0.1C605.6,34,607.1,33.6,608.3,33.1z"/>
	<path class="st0" d="M619.6,33.1l0.3,0.2c-0.1,1.2-0.2,2.8-0.2,4.7v3.2c0,0.2,0,0.9,0.1,2c0,1.1,0.1,1.8,0.1,2
		c0,0.2,0.1,0.3,0.2,0.4c0.1,0.1,0.2,0.1,0.3,0.2c0.1,0,0.6,0.1,1.5,0.1l0.1,0.1v0.6l-0.1,0.1c-1.2-0.1-2.3-0.1-3.4-0.1
		c-1.1,0-2.2,0-3.4,0.1l-0.1-0.1V46l0.1-0.1c0.9-0.1,1.4-0.1,1.6-0.1s0.2-0.1,0.3-0.2c0.1-0.1,0.2-0.2,0.2-0.4
		c0-0.2,0.1-0.8,0.1-1.8c0-1,0.1-1.8,0.1-2.3v-2.8c0-0.4,0-0.9-0.1-1.5s-0.1-1.1-0.1-1.2s-0.1-0.3-0.2-0.3c-0.1-0.1-0.4-0.1-0.7-0.1
		l-1.2,0l-0.1-0.1v-0.6l0.1-0.1C616.9,34,618.4,33.6,619.6,33.1z M618.4,26.8c0.4,0,0.8,0.2,1.1,0.5s0.5,0.7,0.5,1.1
		c0,0.4-0.2,0.8-0.5,1.1s-0.7,0.5-1.1,0.5c-0.4,0-0.8-0.2-1.1-0.5c-0.3-0.3-0.5-0.7-0.5-1.1s0.2-0.8,0.5-1.1S618,26.8,618.4,26.8z"
		/>
	<path class="st0" d="M625.8,37l-0.6-0.1l-0.1-0.1V35c1.7-1.2,3.3-1.9,4.9-1.9c1.1,0,2,0.2,2.7,0.6s1.2,0.9,1.6,1.5
		c0.3,0.6,0.5,1.3,0.5,2.1l-0.1,2.8v4.2c0,0.6,0,0.9,0.1,1s0.2,0.2,0.3,0.2c0.1,0,0.3,0.1,0.6,0.1l0.8,0.1l0.1,0.1v0.6l-0.1,0.1
		c-0.7-0.1-1.3-0.1-1.9-0.1c-0.6,0-1.2,0-2,0.1l-0.2-0.2l0.1-2.3l-3.1,2.4c-0.5,0.2-1.1,0.3-1.7,0.3c-0.8,0-1.4-0.1-1.9-0.4
		s-1-0.7-1.2-1.1s-0.4-1.1-0.4-1.8c0-1.4,0.4-2.5,1.3-3.2c0.9-0.8,3.2-1.4,7.1-2c0-1.4-0.3-2.4-0.9-3c-0.6-0.6-1.5-0.9-2.5-0.9
		c-0.5,0-1,0.1-1.5,0.2s-0.7,0.3-0.8,0.4C626.6,35.3,626.3,35.9,625.8,37L625.8,37z M632.4,39.3c-2.6,0.4-4.3,0.9-4.9,1.4
		c-0.7,0.5-1,1.3-1,2.4c0,1.5,0.7,2.2,2.2,2.2c1.3,0,2.5-0.7,3.7-2.2V39.3z"/>
	<path class="st0" d="M642.6,25.7l0.3,0.2c-0.1,1.1-0.2,3.3-0.2,6.5v8.9c0,0.2,0,0.9,0.1,2c0,1.1,0.1,1.8,0.1,2
		c0,0.2,0.1,0.3,0.2,0.4s0.2,0.1,0.3,0.2c0.1,0,0.6,0.1,1.5,0.1L645,46v0.6l-0.1,0.1c-1.2-0.1-2.3-0.1-3.4-0.1c-1.1,0-2.2,0-3.4,0.1
		l-0.1-0.1V46l0.1-0.1c0.9-0.1,1.4-0.1,1.6-0.1s0.2-0.1,0.3-0.2c0.1-0.1,0.2-0.2,0.2-0.4c0-0.2,0.1-0.8,0.1-1.8c0-1,0.1-1.8,0.1-2.3
		v-7.3l-0.1-3c0-1-0.1-1.8-0.1-2.2s-0.1-0.6-0.1-0.7s-0.2-0.1-0.3-0.2s-0.7-0.1-1.7-0.1l-0.1-0.1v-0.6l0.1-0.1
		C639.8,26.5,641.4,26.2,642.6,25.7z"/>
	<path class="st0" d="M679.6,26.7l0.1,0.1v0.7l-0.1,0.1c-1,0-1.7,0.1-1.9,0.2s-0.4,0.2-0.5,0.4c-0.1,0.2-0.2,0.5-0.2,1
		c0,0.5,0,1.9-0.1,4.3V40c0,0.9,0,2,0,3.2c0,1.2,0.1,1.9,0.2,2.1c0.1,0.2,0.3,0.3,0.5,0.4c0.2,0.1,0.9,0.1,2,0.2l0.1,0.1v0.7
		l-0.1,0.1c-1.5-0.1-2.9-0.1-4-0.1c-0.8,0-2.1,0-4,0.1l-0.1-0.1V46l0.1-0.1c1,0,1.7-0.1,1.9-0.2s0.4-0.2,0.5-0.4
		c0.1-0.2,0.2-0.5,0.2-1s0-2,0.1-4.3V29.6l-4.9,10.2c-1.2,2.6-2.3,5-3.2,7.2h-0.6c-0.5-1.2-1-2.2-1.3-2.9l-6.8-14.1V40
		c0,0.9,0,2,0,3.2c0,1.2,0.1,1.9,0.2,2.1c0.1,0.2,0.3,0.3,0.5,0.4s0.9,0.2,2,0.2l0.1,0.1v0.7l-0.1,0.1l-0.9,0
		c-0.9,0-1.7-0.1-2.4-0.1c-0.3,0-1.4,0-3.4,0.1l-0.1-0.1V46l0.1-0.1c1,0,1.7-0.1,1.9-0.1s0.4-0.2,0.5-0.4s0.2-0.5,0.2-1
		c0-0.5,0-1.9,0.1-4.3v-6.5c0-0.9,0-1.9,0-3.1c0-1.2-0.1-1.9-0.2-2.1c-0.1-0.2-0.3-0.3-0.5-0.4s-0.9-0.2-2-0.2l-0.1-0.1v-0.7
		l0.1-0.1c0.7,0,1.5,0.1,2.6,0.1c1,0,1.9,0,2.7-0.1c0.8,1.8,1.6,3.5,2.3,5l5.4,11l4.8-10.1c1.3-2.7,2.2-4.7,2.6-5.9
		c0.9,0,1.8,0.1,2.7,0.1C677.6,26.7,678.5,26.7,679.6,26.7z"/>
	<path class="st0" d="M692.9,44.6l-0.5,1c-1,0.6-1.9,1-2.6,1.2s-1.5,0.3-2.1,0.3c-1.1,0-2.2-0.2-3.2-0.7s-1.8-1.2-2.5-2.3
		c-0.6-1.1-1-2.3-1-3.8c0-1,0.1-1.9,0.4-2.7c0.2-0.8,0.5-1.4,0.8-1.8c0.3-0.4,0.7-0.8,1.4-1.3s1.3-0.8,2-1.1s1.5-0.4,2.3-0.4
		c1.1,0,2.1,0.3,3,0.8c0.9,0.5,1.5,1.2,1.8,2s0.5,1.7,0.5,2.6c0,0.3,0,0.6,0,0.8l-0.2,0.2c-0.6,0.1-1.5,0.2-2.6,0.3
		s-1.8,0.1-2.2,0.1h-4.5c0,2,0.5,3.4,1.5,4.3s2.1,1.4,3.5,1.4c0.7,0,1.3-0.1,1.9-0.3c0.6-0.2,1.3-0.5,1.9-0.9L692.9,44.6z
		 M683.9,38.8c0.2,0,0.8,0.1,2,0.1s2,0.1,2.5,0.1c1.3,0,2.1,0,2.4-0.1c0-0.2,0-0.4,0-0.5c0-1.5-0.3-2.6-0.9-3.3
		c-0.6-0.7-1.4-1.1-2.4-1.1c-1.1,0-2,0.4-2.6,1.2S683.9,37.2,683.9,38.8z"/>
	<path class="st0" d="M706.6,45.1l-0.6,0.9c-1.2,0.7-2.6,1-4.1,1c-2.1,0-3.7-0.6-4.8-1.9s-1.7-2.8-1.7-4.8c0-0.9,0.1-1.7,0.3-2.4
		c0.2-0.7,0.4-1.3,0.7-1.7c0.3-0.5,0.6-0.8,1-1.1s1-0.6,1.8-1.1s1.5-0.8,1.9-0.9c0.4-0.1,1-0.2,1.8-0.2c1.5,0,2.7,0.3,3.6,0.8
		c-0.2,1.1-0.3,2.3-0.4,3.6l-0.1,0.1h-0.6l-0.1-0.1c0-0.8-0.1-1.3-0.2-1.6c-0.1-0.3-0.4-0.6-1.1-0.9s-1.4-0.5-2.2-0.5
		c-0.8,0-1.5,0.2-2.1,0.5c-0.6,0.3-1.1,0.9-1.4,1.6c-0.3,0.7-0.5,1.6-0.5,2.7c0,0.9,0.1,1.7,0.4,2.5c0.2,0.8,0.6,1.5,1,2.1
		c0.4,0.5,0.9,1,1.6,1.3c0.7,0.3,1.4,0.5,2.2,0.5c0.5,0,1-0.1,1.5-0.2s1-0.3,1.7-0.7L706.6,45.1z"/>
	<path class="st0" d="M712,25.7l0.3,0.2c-0.1,1.1-0.2,3.3-0.2,6.5v3.5c0.8-0.7,1.5-1.3,2.2-1.9c0.2-0.2,0.4-0.3,0.6-0.4
		s0.5-0.2,0.9-0.3s0.8-0.1,1.2-0.1c0.7,0,1.4,0.1,2.1,0.4s1.2,0.6,1.5,1c0.3,0.4,0.6,0.9,0.7,1.4c0.1,0.5,0.2,1.2,0.2,2v2.5
		c0,0.2,0,1.3,0.1,3.5c0,0.9,0.1,1.4,0.3,1.6s0.8,0.3,1.7,0.3l0.1,0.1v0.6l-0.1,0.1c-1.2-0.1-2-0.1-2.4-0.1c-0.2,0-0.9,0-2.1,0.1
		l-0.2-0.2c0.1-1.2,0.2-2.8,0.2-4.8v-1.9c0-1.1,0-1.9-0.1-2.4s-0.2-0.9-0.5-1.3c-0.3-0.4-0.6-0.7-1.1-0.9c-0.4-0.2-1-0.3-1.6-0.3
		c-0.6,0-1.2,0.1-1.6,0.3c-0.4,0.2-0.9,0.5-1.3,0.9s-0.7,0.8-0.8,1c-0.1,0.3-0.1,0.8-0.1,1.6v2.5c0,0.2,0,0.9,0.1,2
		c0,1.1,0.1,1.8,0.1,2c0,0.2,0.1,0.3,0.2,0.4s0.2,0.1,0.3,0.2c0.1,0,0.6,0.1,1.5,0.1l0.1,0.1v0.6l-0.1,0.1c-1.2-0.1-2.3-0.1-3.4-0.1
		c-1.1,0-2.2,0-3.4,0.1l-0.1-0.1V46l0.1-0.1c0.9-0.1,1.4-0.1,1.6-0.1s0.2-0.1,0.3-0.2c0.1-0.1,0.2-0.2,0.2-0.4
		c0-0.2,0.1-0.8,0.1-1.8c0-1,0.1-1.8,0.1-2.3v-7.3l-0.1-3c0-1-0.1-1.8-0.1-2.2s-0.1-0.6-0.1-0.7s-0.2-0.1-0.3-0.2s-0.7-0.1-1.7-0.1
		l-0.1-0.1v-0.6l0.1-0.1C709.2,26.5,710.7,26.2,712,25.7z"/>
	<path class="st0" d="M727.1,37l-0.6-0.1l-0.1-0.1V35c1.7-1.2,3.3-1.9,4.9-1.9c1.1,0,2,0.2,2.7,0.6s1.2,0.9,1.6,1.5
		c0.3,0.6,0.5,1.3,0.5,2.1l-0.1,2.8v4.2c0,0.6,0,0.9,0.1,1s0.2,0.2,0.3,0.2c0.1,0,0.3,0.1,0.6,0.1l0.8,0.1l0.1,0.1v0.6l-0.1,0.1
		c-0.7-0.1-1.3-0.1-1.9-0.1c-0.6,0-1.2,0-2,0.1l-0.2-0.2l0.1-2.3l-3.1,2.4c-0.5,0.2-1.1,0.3-1.7,0.3c-0.8,0-1.4-0.1-1.9-0.4
		s-1-0.7-1.2-1.1s-0.4-1.1-0.4-1.8c0-1.4,0.4-2.5,1.3-3.2c0.9-0.8,3.2-1.4,7.1-2c0-1.4-0.3-2.4-0.9-3c-0.6-0.6-1.5-0.9-2.5-0.9
		c-0.5,0-1,0.1-1.5,0.2s-0.7,0.3-0.8,0.4C727.8,35.3,727.6,35.9,727.1,37L727.1,37z M733.6,39.3c-2.6,0.4-4.3,0.9-4.9,1.4
		c-0.7,0.5-1,1.3-1,2.4c0,1.5,0.7,2.2,2.2,2.2c1.3,0,2.5-0.7,3.7-2.2V39.3z"/>
	<path class="st0" d="M743.4,33.1l0.3,0.2c-0.1,0.6-0.1,1.5-0.1,2.5c0.8-0.6,1.5-1.3,2.2-1.9c0.2-0.2,0.4-0.3,0.6-0.4
		s0.5-0.2,0.9-0.3s0.8-0.1,1.2-0.1c0.7,0,1.4,0.1,2.1,0.4s1.2,0.6,1.5,1c0.3,0.4,0.6,0.9,0.7,1.4s0.2,1.2,0.2,2v2.5
		c0,0.2,0,1.3,0.1,3.5c0,0.9,0.1,1.4,0.3,1.6s0.8,0.3,1.8,0.3l0.1,0.1v0.6l-0.1,0.1c-1.2-0.1-2-0.1-2.4-0.1c-0.2,0-0.9,0-2.1,0.1
		l-0.2-0.2c0.1-1.2,0.2-2.8,0.2-4.8v-1.9c0-1.1,0-1.9-0.1-2.4s-0.2-0.9-0.5-1.3c-0.3-0.4-0.6-0.7-1.1-0.9c-0.4-0.2-1-0.3-1.6-0.3
		c-0.5,0-0.9,0-1.3,0.1c-0.3,0.1-0.7,0.3-1.2,0.6c-0.4,0.3-0.8,0.6-1,0.9c-0.2,0.3-0.3,0.5-0.4,0.8c0,0.2-0.1,0.7-0.1,1.5v2.5
		c0,0.2,0,0.9,0.1,2c0,1.1,0.1,1.8,0.1,2c0,0.2,0.1,0.3,0.2,0.4s0.2,0.1,0.3,0.2c0.1,0,0.6,0.1,1.5,0.1l0.1,0.1v0.6l-0.1,0.1
		c-1.2-0.1-2.3-0.1-3.4-0.1c-1.1,0-2.2,0-3.4,0.1l-0.1-0.1V46l0.1-0.1c0.9-0.1,1.4-0.1,1.6-0.1s0.2-0.1,0.3-0.2
		c0.1-0.1,0.2-0.2,0.2-0.4c0-0.2,0.1-0.8,0.1-1.8c0-1,0.1-1.8,0.1-2.3v-2.8c0-0.4,0-0.9-0.1-1.5c0-0.7-0.1-1.1-0.1-1.2
		s-0.1-0.3-0.2-0.3c-0.1-0.1-0.4-0.1-0.7-0.1l-1.2,0l-0.1-0.1v-0.6l0.1-0.1C740.6,34,742.2,33.6,743.4,33.1z"/>
	<path class="st0" d="M760.7,33.1l0.3,0.2c-0.1,1.2-0.2,2.8-0.2,4.7v3.2c0,0.2,0,0.9,0.1,2c0,1.1,0.1,1.8,0.1,2
		c0,0.2,0.1,0.3,0.2,0.4c0.1,0.1,0.2,0.1,0.3,0.2c0.1,0,0.6,0.1,1.5,0.1l0.1,0.1v0.6l-0.1,0.1c-1.2-0.1-2.3-0.1-3.4-0.1
		c-1.1,0-2.2,0-3.4,0.1l-0.1-0.1V46l0.1-0.1c0.9-0.1,1.4-0.1,1.6-0.1s0.2-0.1,0.3-0.2c0.1-0.1,0.2-0.2,0.2-0.4
		c0-0.2,0.1-0.8,0.1-1.8c0-1,0.1-1.8,0.1-2.3v-2.8c0-0.4,0-0.9-0.1-1.5s-0.1-1.1-0.1-1.2s-0.1-0.3-0.2-0.3c-0.1-0.1-0.4-0.1-0.7-0.1
		l-1.2,0l-0.1-0.1v-0.6l0.1-0.1C758,34,759.5,33.6,760.7,33.1z M759.5,26.8c0.4,0,0.8,0.2,1.1,0.5s0.5,0.7,0.5,1.1
		c0,0.4-0.2,0.8-0.5,1.1S760,30,759.5,30c-0.4,0-0.8-0.2-1.1-0.5c-0.3-0.3-0.5-0.7-0.5-1.1s0.2-0.8,0.5-1.1S759.1,26.8,759.5,26.8z"
		/>
	<path class="st0" d="M776.2,45.1l-0.6,0.9c-1.2,0.7-2.6,1-4.1,1c-2.1,0-3.7-0.6-4.8-1.9s-1.7-2.8-1.7-4.8c0-0.9,0.1-1.7,0.3-2.4
		c0.2-0.7,0.4-1.3,0.7-1.7c0.3-0.5,0.6-0.8,1-1.1s1-0.6,1.8-1.1s1.5-0.8,1.9-0.9c0.4-0.1,1-0.2,1.8-0.2c1.5,0,2.7,0.3,3.6,0.8
		c-0.2,1.1-0.3,2.3-0.4,3.6l-0.1,0.1H775l-0.1-0.1c0-0.8-0.1-1.3-0.2-1.6c-0.1-0.3-0.4-0.6-1.1-0.9s-1.4-0.5-2.2-0.5
		c-0.8,0-1.5,0.2-2.1,0.5c-0.6,0.3-1.1,0.9-1.4,1.6c-0.3,0.7-0.5,1.6-0.5,2.7c0,0.9,0.1,1.7,0.4,2.5c0.2,0.8,0.6,1.5,1,2.1
		c0.4,0.5,0.9,1,1.6,1.3c0.7,0.3,1.4,0.5,2.2,0.5c0.5,0,1-0.1,1.5-0.2s1-0.3,1.7-0.7L776.2,45.1z"/>
	<path class="st0" d="M778.2,42.5h0.6l0.1,0.1c0,0.8,0.1,1.5,0.1,2c0.3,0.4,0.8,0.8,1.5,1.1c0.7,0.3,1.4,0.4,2.1,0.4
		c1,0,1.8-0.3,2.4-0.8s0.9-1.2,0.9-1.9c0-0.4-0.1-0.8-0.3-1.1c-0.2-0.3-0.5-0.5-1-0.7c-0.4-0.2-1.2-0.4-2.4-0.7
		c-1-0.2-1.7-0.4-2-0.5c-0.4-0.1-0.8-0.3-1.1-0.6c-0.4-0.3-0.6-0.7-0.8-1.1c-0.2-0.4-0.3-0.9-0.3-1.5c0-1.3,0.5-2.3,1.5-3
		c1-0.8,2.3-1.1,3.8-1.1c0.6,0,1.3,0.1,2.1,0.3c0.7,0.2,1.3,0.3,1.7,0.5l0.1,0.2c-0.1,0.4-0.1,1.4-0.1,3l-0.1,0.1h-0.6l-0.1-0.1
		c0-0.6-0.1-1-0.2-1.2c-0.1-0.2-0.2-0.5-0.5-0.8c-0.3-0.3-0.7-0.5-1.2-0.7c-0.5-0.2-1-0.3-1.6-0.3c-0.6,0-1.1,0.1-1.5,0.3
		s-0.7,0.4-0.9,0.8c-0.2,0.3-0.4,0.8-0.4,1.3c0,0.4,0.1,0.7,0.2,1s0.4,0.5,0.7,0.7c0.3,0.2,0.6,0.3,0.9,0.4l1.5,0.4
		c1.3,0.3,2.3,0.6,2.8,0.8s1,0.6,1.3,1.1c0.3,0.5,0.5,1.1,0.5,1.7c0,1.3-0.5,2.4-1.6,3.4s-2.5,1.4-4.1,1.4c-0.6,0-1.3-0.1-2.2-0.2
		s-1.6-0.3-2.3-0.4l-0.1-0.2l0.1-0.9c0-0.3,0.1-0.6,0.1-0.9c0-0.3,0-0.9,0-1.9L778.2,42.5z"/>
	<path class="st0" d="M19,51.4v-1.8h187.3v1.8H19z"/>
	<path class="st0" d="M206.3,51.4v-1.8h6v1.8H206.3z"/>
	<path class="st0" d="M212.3,51.4v-1.8H789v1.8H212.3z"/>
</g>
</svg>
