<svg xmlns="http://www.w3.org/2000/svg" xmlns:xlink="http://www.w3.org/1999/xlink" version="1.1" id="Слой_1" x="0" y="0" viewBox="0 0 685 605" xml:space="preserve"><style type="text/css">
	.st0{fill:#C7D8D5;stroke:#000000;stroke-width:0.5;stroke-miterlimit:10;}
	.st1{fill:#E6E6E6;stroke:#000000;stroke-width:0.75;stroke-miterlimit:10;}
	.st2{fill:#CCCCCC;stroke:#000000;stroke-width:0.5;stroke-miterlimit:10;}
	.st3{opacity:0;fill:#FFFFFF;}
	.st4{fill:url(#SVGID_1_);}
	.st5{fill:#9FA6AA;}
	.st6{fill:#BDC4C9;}
	.st7{opacity:0;fill:#E2E2E2;}
	.st8{fill:url(#SVGID_2_);}
	.st9{fill:none;stroke:#283018;stroke-miterlimit:10;}
	.st10{fill:url(#SVGID_3_);stroke:url(#SVGID_4_);stroke-miterlimit:10;}
	.st11{fill:#A4D7E8;stroke:#676767;stroke-miterlimit:10;}
	.st12{fill:#A1BF89;stroke:#676767;stroke-width:0.5;stroke-miterlimit:10;}
	.st13{fill:#FFFFFF;}
	.st14{fill:#E2E2E2;stroke:#000000;stroke-width:0.5;stroke-miterlimit:10;}
	.st15{fill:#666666;stroke:#000000;stroke-width:0.25;stroke-miterlimit:10;}
	.st16{fill:none;stroke:#000000;stroke-width:0.5;stroke-miterlimit:10;}
	.st17{fill:#808080;stroke:#000000;stroke-width:0.25;stroke-miterlimit:10;}
	.st18{fill:#CCCCCC;stroke:#000000;stroke-width:0.25;stroke-miterlimit:10;}
	.st19{fill:#999999;stroke:#000000;stroke-width:0.25;stroke-miterlimit:10;}
	.st20{fill:#B3B3B3;stroke:#000000;stroke-width:0.25;stroke-miterlimit:10;}
	.st21{fill:#808080;stroke:#000000;stroke-width:0.5;stroke-miterlimit:10;}
	.st22{fill:#937E6A;stroke:#000000;stroke-width:0.5;stroke-miterlimit:10;}
	.st23{fill:#E1E7EF;stroke:#000000;stroke-width:0.75;stroke-miterlimit:10;}
	.st24{fill:#CCCBBC;stroke:#000000;stroke-width:0.25;stroke-miterlimit:10;}
	.st25{fill:#C9AC81;stroke:#000000;stroke-width:0.25;stroke-miterlimit:10;}
	.st26{fill:#7BB79A;stroke:#000000;stroke-width:0.25;stroke-miterlimit:10;}
	.st27{fill:#B9B3BC;stroke:#000000;stroke-width:0.25;stroke-miterlimit:10;}
	.st28{fill:#828E86;stroke:#000000;stroke-width:0.25;stroke-miterlimit:10;}
	.st29{fill:#F9EFF7;stroke:#000000;stroke-width:0.25;stroke-miterlimit:10;}
	.st30{fill:#D8D6BA;stroke:#000000;stroke-width:0.25;stroke-miterlimit:10;}
	.st31{fill:url(#SVGID_5_);stroke:#283018;stroke-miterlimit:10;}
	.st32{fill:url(#SVGID_6_);}
	.st33{fill:url(#SVGID_7_);}
	.st34{fill:url(#SVGID_8_);}
	.st35{fill:url(#SVGID_9_);}
	.st36{fill:#E1E7EF;stroke:#000000;stroke-width:0.5;stroke-miterlimit:10;}
	.st37{fill:#BDC4C9;stroke:#000000;stroke-width:0.5;stroke-miterlimit:10;}
	.st38{opacity:0.35;fill:#E2E2E2;}
	.st39{fill:none;stroke:#94A5C8;stroke-width:1.7054;}
	.st40{fill:#35486D;}
	.st41{fill:#94A5C8;}
	.st42{fill:none;stroke:#35486D;stroke-width:1.7054;}
	.st43{fill:#B588A8;}
	.st44{fill:#74877A;}
	.st45{fill:#5E6861;}
	.st46{fill:none;stroke:#000000;stroke-miterlimit:10;}
	.st47{stroke:#201600;stroke-linecap:round;stroke-miterlimit:10;}
	.st48{fill:#E2E2E2;stroke:#201600;stroke-linecap:round;stroke-miterlimit:10;}
</style>
<g id="socio"><path class="st0" d="M586.2 269.1c-0.8-1-1.1-2.2-0.3-6.5 0.5-3 1.1-4.5 1.9-8.2 1.6-6.5 1.6-7.2 3-8.7 0.3-0.5 2.2-1.2 6-3.2 4.7-2.5 5.8-3 6.9-2.5 1.4 0.2 1.4 1.2 3.3 4 2.2 3.2 4.1 6 5.8 6 1.1-0.2 1.1-1.2 3.8-5.7 2.2-4 3-4.5 3.8-4.7 1.1-0.2 1.6 0.2 5.2 1.7 4.4 2 4.4 1.5 5.8 2.5 2.5 1.5 3.3 3.7 4.4 7.2 1.4 3.7 0.8 4.5 2.2 11.2 1.1 5.2 1.9 6.2 1.1 7.2 -1.4 1.7-4.1 1-11.8 1.5 -6.9 0.5-6.9 1.2-14.3 1.7 -2.2 0-6 0.2-11 0 -0.8 0-4.4-0.5-11.8-1.7C588.3 270.3 587.3 270.1 586.2 269.1z"/><path class="st0" d="M579.8 264.4c1.9-1 1.1-3.2 2.5-8.2 0.3-1 1.4-3.2 3.3-7.7 2.2-5 2.7-5.7 3.6-6.5 2.5-2.5 4.7-2.7 4.4-3.7 -0.3-1.5-4.9-3-7.4-1.5 -1.4 1-1.1 2.2-3.3 5.2 -1.4 1.7-1.9 2.7-2.7 2.7 -2.5 0.2-5.5-5.2-5.5-5.5 -1.1-2-1.1-3.2-1.9-3.5 -1.1-0.2-1.9 0.7-4.7 2.5 -3.8 2.2-3.8 1.7-5.2 3 -1.4 1.2-1.9 3.2-3.3 7.7 0 0.2-1.1 3.2-1.6 7.4 -0.5 3.7-0.3 4.2 0 4.7 1.1 1.2 2.7 0.7 8.5 1.2 3.6 0.5 8.2 1.2 8.5 1.2C578.5 264.6 579 264.9 579.8 264.4z"/><path class="st0" d="M644.3 264.4c-1.9-1-1.1-3.2-2.5-8.2 -0.3-1-1.4-3.2-3.3-7.7 -2.2-5-2.7-5.7-3.6-6.5 -2.5-2.5-4.7-2.7-4.4-3.7 0.3-1.5 4.9-3 7.4-1.5 1.4 1 1.1 2.2 3.3 5.2 1.4 1.7 1.9 2.7 2.7 2.7 2.5 0.2 5.5-5.2 5.5-5.5 1.1-2 1.1-3.2 1.9-3.5 1.1-0.2 1.9 0.7 4.7 2.5 3.8 2.2 4.1 1.7 5.2 3 1.4 1.2 1.9 3.2 3.3 7.7 0 0.2 1.1 3.2 1.6 7.4 0.5 3.7 0.3 4.2 0 4.7 -1.1 1.2-2.7 0.7-8.5 1.2 -3.6 0.5-8.2 1.2-8.5 1.2C646 264.6 645.2 264.9 644.3 264.4z"/><path class="st0" d="M600.2 215.2c-1.1 2.2-3.3 7.2-0.5 12.4 2.5 5 7.7 6.5 8.5 6.7 1.1 0.2 4.7 1.2 8.5 0.2 0.5-0.2 4.7-1.5 7.1-5.2 1.4-2.2 1.4-4.5 1.4-8.9 0-3.5 0-5.2-1.1-7.2 -2.2-4.2-7.1-5.5-8-5.7 -1.4-0.5-4.7-1.5-8.5-0.2C603.2 208.8 601.2 212.7 600.2 215.2z"/><path class="st0" d="M634.7 228.1c-3.6-5.5-0.5-11.4 0.3-13.2 0.8-1.7 2.2-4 4.9-5.5 4.1-2 8.5-0.5 8.8-0.2 6 2.2 7.1 9.2 7.1 9.9 0 0.7 0.8 7-4.1 11.2 -1.1 1-3.8 3.5-8.2 3.2C638.3 233.3 635.3 228.9 634.7 228.1z"/><path class="st0" d="M578.2 232.6c-2.5-0.5-4.4-2-6-1.7 -0.3 0-1.1 0-2.5 0 -0.3 0-0.5 0-1.1 0 -2.5-0.5-4.9-1.7-4.9-1.7 2.5-1.2 2.7-2 2.7-2.5 -0.3-0.5-2.2-0.2-2.5-1 0-0.5 1.1-0.7 1.9-1.7 0.5-0.7 0.5-1.2 0.5-2.5 0.3-1.2 0.5-2.7 0.5-4 0.3-2.2 0.5-4.2 1.9-6.2 1.6-2.5 3.8-3.7 5.2-4.5 1.6-1 3-1.7 4.9-1.7 1.6 0 3.6 0.7 4.4 1.5l0.3 0.2c1.1 0.5 2.2-0.7 3.3-0.5 0.8 0 1.1 1 2.5 3 2.2 3.7 1.9 3 2.5 4.2 0.8 2 0.8 2 1.9 5.7 0 0 0.3 1 2.7 6.7 -1.1 0.2-2.5 0.5-2.5 1 0 0.7 1.6 1.2 1.6 1.5 0 0.2-1.9-0.2-3.6 0 -2.7 0.2-3 1.7-6 3C585.3 231.9 581.8 233.3 578.2 232.6z"/></g>
<g id="cat"><path class="st1" d="M415.6 123.9c3.1-0.5 4.7-0.7 7.5-0.5 3.1 0.2 3.6 1 6.7 1.2 1.7 0 4.4 0.2 8.1-1 3.9-1.4 6.4-3.8 7.2-5 1.4-1.7 5-5.2 5-11 0-1.2 0-5-2.8-8.3 -0.6-1-2.8-3.3-6.4-4.3 -2.5-0.7-5.6-0.5-5.8 0.5 -0.3 0.7 1.1 1.2 4.2 3.6 3.1 2.4 4.4 3.6 5 5 1.4 3.1-0.3 6.4-0.8 7.9 -0.6 1-2.8 5.7-8.1 7.2 -0.6 0.2-5.3 1.2-7.2-1.2 -1.4-1.9 0-4.3 1.1-10.3 0.8-4.1 1.7-9.5 0-15.5 -0.8-3.1-2.2-5.2-4.4-8.8 -2.2-3.6-3.9-6.2-6.9-8.3 -1.4-1.2-1.4-0.7-8.9-4.3 -6.7-3.1-7.5-3.6-8.1-4.8 -1.4-2.1-0.6-2.6-2.2-8.1 -1.1-3.6-1.9-5.5-3.3-6.7 -2.2-1.7-3.9-1-5.6-3.1 -1.1-1.4-0.6-1.9-1.9-3.8 -1.4-2.4-4.2-4.5-5.3-3.8 -0.3 0.2-0.6 0.5-0.8 3.6 -0.3 3.6-0.3 3.8-0.6 4.3 -1.1 1.7-3.1 0.5-5.6 2.4 -1.4 1-0.8 1.4-2.8 3.1 -1.4 1.2-3.3 2.4-3.9 1.9 0-0.2 0-0.2 0-0.2s-0.3 3.1 1.1 5.2c1.9 2.9 5.3 1.9 6.4 4.3 0.8 1.9-0.8 3.1-1.4 6.9 -1.1 5.2 0.6 9.8 1.4 11.7 2.2 5.7 4.7 5.2 6.4 10.3 1.1 3.6-0.3 3.6 0.3 10.7 0.6 6.7 1.9 9.8 0.3 11.4 -1.4 1.4-3.6 0.5-4.7 1.9 -0.8 1.2 0 3.1 0.8 4.8 0.8 0.2 3.9 1.2 6.9 0 3.6-1.4 6.1-5 6.4-9.3 0.3 0.7 1.1 1.4 2.2 2.4 2.2 2.1 4.2 2.9 4.2 3.3 -0.3 0.7-5.8-1.4-7.8 1 -1.1 1.2-1.1 3.3-0.3 4.5 1.1 1.7 3.9 1 12.8 0.5C412.3 123.9 411.4 124.4 415.6 123.9z"/></g>
<g id="carving"><path class="st2" d="M435.3 210.8c-0.5 1.3 1.8 2.7 5.9 5.5 4.6 3.2 7.3 4.2 8.2 4.6 2.3 1.1 3.4 1.5 4.6 1.5 4.1 0 7.3-3.2 9.8-5.5 3.4-3.4 3.9-5.3 6.1-5.3 1.4 0 2.5 0.6 4.8 2.3 1.4 0.8 2 1.5 5 4.2 4.3 4 4.6 4.2 4.6 4.9 0.2 1.1-0.5 1.7-5.2 7.4 -7.7 9.3-6.4 7.8-6.4 8 -0.2 0.2-0.7 0.6-1.1 1.5 -0.5 0.8-0.5 1.7-0.2 2.3 1.4-0.6 3.2-1.5 5-3 1.1-1.1 1.4-1.5 3.2-3.8 3.4-3.8 3.9-3.8 5.7-6.3 1.8-2.5 2.7-3.8 2.7-5.3 0-0.8-0.2-2.7-5.7-7.6 -5.7-5.1-8.6-5.7-8.6-8 0-1.3 0.9-1.5 4.6-5.7 3-3.6 4.3-5.3 5.2-7.2 1.6-3.6 0.9-5.7 3.2-8 1.1-1.3 2.5-1.9 2.7-1.9 1.8-0.8 3-0.8 5.7-1.1 0.2 0 2.3-0.4 6.1-1.1 6.8-1.3 7.1-1.3 7.5-1.1 2.5 1.7-1.1 11.4-6.6 17.5 -1.8 2.1-4.6 5.3-8 7 -1.6 0.8-2.7 1.5-4.6 2.7 -0.5 0.4-1.4 0.8-2 1.7 -0.5 0.6-2 2.1-1.6 2.5 0.7 0.6 6.4-3 9.1-4.9 3-1.9 4.8-3.2 6.8-5.3 1.4-1.3 3.9-4 6.1-7.8 2.7-4.6 4.1-7 3.9-10.3 -0.2-1.9-0.9-3.6 0-4.2s2.3 0.2 5-0.4c1.4-0.2 2.7-0.8 2.7-1.3 0-0.4-2.5-0.4-2.7-0.4 -3 0-4.1 0.8-4.8 0.2 -0.9-0.6 0.2-2.1 0.2-4.4 0.2-2.1-1.1-4.6-3.9-9.3 -1.8-3.2-3.4-6.1-3.9-5.9 -0.5 0.2 0.5 3.4 1.4 5.9 1.4 3.4 2 3.4 3 6.1 0.7 1.7 2 6.1 0 7.8 -0.7 0.6-1.4 0.4-5.7 1.1 -3.4 0.4-3 0.6-7.5 1.3 -5.7 0.8-4.1 0.2-6.8 0.8 -1.8 0.4-2.5 0.6-3.2 0.2 -1.4-0.8-1.8-3.4-0.7-4.9 1.4-1.7 3.6-1.3 4.3-2.7 0.5-1.3-0.9-2.3-0.2-3.4 0.5-0.8 1.6-0.6 2-1.3 0.7-1.3-0.5-3.2-2-5.3 -1.8-2.5-3-4-5-4.4 -0.5 0-2.3-0.4-3.6 0.6 -1.6 1.1-1.6 3.4-1.8 7.8 0 4.6 0.7 5.5 1.1 5.9 1.1 0.8 2 0.6 2.7 1.7 0.5 0.6 0.2 1.3 0 3.2 -0.2 3 0.2 3.2-0.2 3.8 -1.1 1.9-5.2 0.6-11.2 1.5 -6.4 0.8-11.2 3.6-10.9 3.8 0 0.2 0.7 0 5.5-0.8 3.2-0.4 4.8-0.6 6.1-0.8 1.1-0.2 0.5 0 6.1-0.4 3.4-0.2 4.1-0.2 4.6 0.2 1.1 1.1-0.2 3.6-1.1 5.3 -1.1 2.3-2.5 3.8-4.6 6.3 -1.8 2.1-2 2.1-3.6 4 -1.8 2.1-2.3 3-3.4 4.4 -1.1 1.5-1.6 1.7-7.3 7 -5 4.6-5.7 5.5-7.3 5.5 -1.4 0-3-0.8-6.1-2.5 -3.2-1.7-4.8-2.5-6.4-4.2 -1.8-1.7-2.5-3-4.1-3.2C437.2 209.5 435.6 210 435.3 210.8z"/><ellipse transform="matrix(0.7071 -0.7071 0.7071 0.7071 -2.2833 396.4502)" class="st3" cx="477.4" cy="201" rx="61.8" ry="44.8"/></g>
<linearGradient id="SVGID_1_" gradientUnits="userSpaceOnUse" x1="71.19" y1="564.49" x2="72.34" y2="597.31" gradientTransform="matrix(1 0 0 -1 0 632)"><stop offset="0" stop-color="#000000"/><stop offset="0.81" stop-color="#005559"/></linearGradient>
<g id="galaxy"><path class="st4" d="M6.7 45.2c0.1-2.5 8.3-3.9 45.8-8.1 9.6-1 39.8-4.1 69.6 1.2 5.1 0.9 13.8 2.7 15 7.7 1.1 4.5-4.5 9.7-6.7 11.7 -4.1 3.8-8.5 5.5-12.7 7 -3.6 1.3-7.5 2.5-12 3 -8.3 1-15.4 0.6-23-0.1 -6.9-0.7-15.8-1.6-27.5-4.4 -8.7-2.1-15.3-4.4-28.5-9.2C7.2 47 6.6 45.9 6.7 45.2z"/><path class="st5" d="M131.4 103.7c0.6 0 2.5-12.1 2.2-22.9 0-1.3 0-2.1 0-2.6 0-0.8-0.3-8.2-2.2-14.6 -1.5-5.1-3.1-11.6-9.8-18.7 -4.3-4.9-9.8-10.8-21.8-15.2 -4.9-1.8-14.5-5.1-26.2-4.4 -12 0.8-18.2 5.6-20.3 7.2 -6.2 4.6-6.5 9.2-6.5 12.1 -0.3 2.8-0.3 9.2 7.7 15.4 2.5 1.8 6.5 4.9 13.8 6.7 2.5 0.5 11.1 2.8 18.5 0.8 5.2-1.3 7.1-4.1 8-5.6 2.8-3.9 1.2-7.4 0.6-8.7 -0.9-1.8-2.5-5.4-8.6-7.7 -4.6-1.8-10.5-2.3-10.8-1.8 -0.3 0.5 6.8 1.8 11.4 5.1 5.2 3.9 7.1 10.8 0.3 13.6 -4.6 1.8-11.7 1.5-16.6 0.3C58.2 59.5 57 50 56.7 48.2c-0.3-2.6-0.9-6.9 4.6-10.8C68 33 78.2 32.8 80 32.8c12-0.3 20.9 3.9 24.9 5.9 12.6 5.9 18.2 13.9 22.2 24.4C135.1 85.9 130.8 103.7 131.4 103.7z"/><path class="st6" d="M27.7-0.1c-0.6 0-2.5 12.1-2.2 22.9 0 1.3 0 2.1 0 2.6 0 0.8 0.3 8.2 2.2 14.6 1.5 5.1 3.1 11.6 9.8 18.7 4.3 4.9 9.8 10.8 21.8 15.2 4.9 1.8 14.5 5.1 26.2 4.4 12-0.8 18.2-5.6 20.3-7.2 6.2-4.6 6.5-9.2 6.5-12.1 0.3-2.8 0.3-9.2-7.7-15.4 -2.5-1.8-6.5-4.9-13.8-6.7 -2.5-0.5-11.1-2.8-18.5-0.8 -5.2 1.3-7.1 4.1-8 5.6 -2.8 3.9-1.2 7.4-0.6 8.7 0.9 1.8 2.5 5.4 8.6 7.7C77 60 82.8 60.5 83.1 60s-6.8-1.8-11.4-5.1c-5.2-3.9-7.1-10.8-0.3-13.6C76 39.5 83.1 39.7 88 41c12.9 3.1 14.2 12.6 14.5 14.4 0.3 2.6 0.9 6.9-4.6 10.8 -6.8 4.4-16.9 4.6-18.8 4.6 -12 0.3-20.9-3.9-24.9-5.9C41.6 59 36 51 32 40.5 23.7 17.6 28.3-0.1 27.7-0.1z"/><ellipse transform="matrix(0.3585 -0.9335 0.9335 0.3585 0.2639 98.6728)" class="st7" cx="71.9" cy="49.1" rx="41.1" ry="70.5"/></g>
<radialGradient id="SVGID_2_" cx="331.93" cy="329.07" r="310.27" gradientTransform="matrix(1 0 0 -1 0 632)" gradientUnits="userSpaceOnUse"><stop offset="0.03" style="stop-color:#000000;stop-opacity:0.82"/><stop offset="0.08" style="stop-color:#172B34;stop-opacity:0.82"/><stop offset="0.13" style="stop-color:#264757;stop-opacity:0.82"/><stop offset="0.25" style="stop-color:#008E94;stop-opacity:0.82"/><stop offset="0.37" style="stop-color:#00596A;stop-opacity:0.82"/><stop offset="0.46" style="stop-color:#71ACB1;stop-opacity:0.82"/><stop offset="0.57" style="stop-color:#7CB2B7;stop-opacity:0.82"/><stop offset="0.58" style="stop-color:#76AEB4;stop-opacity:0.82"/><stop offset="0.68" style="stop-color:#0F737D;stop-opacity:0.82"/><stop offset="0.8" style="stop-color:#006A74;stop-opacity:0.8"/><stop offset="0.97" style="stop-color:#006A74;stop-opacity:0.9"/></radialGradient><path class="st8" d="M653.5 271.4c-40.7 26.6-76.4 34-85 32.8 -11.9-1.6-23.2-5.8-23.2-5.8l0 0c-9.4-3.8-15.7-8.2-27.9-17 -13.4-9.6-13-11.1-23.8-18.1 -12.1-7.8-25.2-14.6-25.2-14.6 -1.7-0.9-4.3-2.4-7.5-4.2 -16.4-9.3-28.3-16.4-31.4-18.3 -29.2-17.4-43.8-26-58-30 -11.7-3.3-30.9-6.3-57.4 0.1 -0.3 0.1-0.7-0.1-0.7-0.5 -0.6-5.3-0.3-12.3 4.3-18.4l0 0c14.7-8.9 27.3-12.4 36.1-13.9 9.9-1.7 23-2.2 39.7-9.3 5.9-2.5 10.7-5.2 11-9 0.3-4.4-5.5-8.1-10-11 -10-6.4-19.9-7.4-20-7 -0.1 0.3 7.3 1.5 14.5 7.5 2.9 2.5 6.6 5.5 6.1 8.5 -0.6 3.5-6.6 5.4-16.2 7.5 -15.1 3.3-25.8 4.3-32.3 5.3 -17 2.4-26 3.7-35.6 8.7 -9.9 5.2-15.5 12.1-26.7 26 -16.2 20.1-13.4 20.9-26.3 38 -13.3 17.6-16.7 19.5-22.3 35 -3.8 10.4-11 30-9.8 55.5 1 23.6 7 35.8 4 37.3 -7 3.4-53.2-40-57.3-95.3 -1.4-18.1 2.6-26.7 19-85 9.9-35.2 17.4-63.9 22-82 -8 2.2-18.2 4.3-30 5 -13.7 0.8-25.5-0.4-34.5-2 -1.5-7.6-3-15.2-4.5-23 -1.7-9-3.3-17.8-4.8-26.6 -0.7 1.3-1.9 3-3.6 4.9 0 0-3.5 3.9-8.7 6.7 -17.9 9.5-41 7-41 7 -29.2-2.9-55.9-11.7-76.2-20.3 -0.5-0.2-0.9 0.3-0.7 0.7 13.2 33.9 24.7 63.5 33.9 87.6 56.5 147.3 68.6 187.4 105.3 251.1 13.2 22.8 26.7 46.8 49.7 75.9 27 34.2 76.5 88.2 157.8 138.2 0.2 0.1 0.4 0.1 0.5 0 1.6-0.8 2.8-1.3 3.4-1.7 0 0 0.5-0.2 1.3-0.5 0.5-0.2 1-0.1 1.3 0.2 0.1-0.1 0.2-0.1 0.3-0.2 0.7-0.5 1.9-0.2 2.3 0.6 0 0.1 0.1 0.1 0.1 0.2 0.1-0.1 0.2-0.1 0.2-0.2 0.8-0.7 1.9-0.6 2.5 0.2 0.2-0.2 0.4-0.5 0.5-0.7 0.1-1.2 0.7-1.5 0.8-1.5 1-0.5 2.6 1.6 3 1.2 0.4-0.3-0.7-1.7-0.2-2.2 0.2-0.2 0.6-0.1 1.5 0 2.7 0.5 2.5 0.3 4 0.7 1.1 0.3 1.6 0.5 2.3 0.9 0.5 0.3 0.6 0.5 1.1 0.7 0.8 0.5 1.7 0.7 2.4 0.7 0.2-0.3 0.5-0.5 0.9-0.6 1.9-0.4 3.8-0.5 4.9 0.6 0.1-0.1 0.2-0.1 0.3-0.2 1.1-0.8 2.4 0.3 2.6 1.4 0 0 0 0 0.1 0 0.2-0.3 0.5-0.6 1-0.8 1.7-0.7 5.6-1.5 7.5-0.6 0.4 0 0.7-0.1 1.1-0.1 0.8-0.6 1.8-0.6 2.4-0.1 0.6-0.2 1.4 0 1.9 0.5 0.1 0.1 0.3 0.2 0.5 0.2 1-0.2 2-0.2 3-0.1 0.3 0 0.6-0.3 0.6-0.6 -0.1-1 0.1-1.3 0.3-1.4 0.3-0.2 0.6 0.6 1.9 1 0.7 0.3 1.1 0.2 1.6 0.6 0.4 0.3 0.4 0.7 0.6 0.7 0.4 0 0.5-1.3 1.3-1.7 0.5-0.2 0.8 0.1 1.8 0.4 0.6 0.2 1.4 0.4 2.4 0.5 0.1 0 0.3-0.1 0.4-0.1 1-0.7 2.1-0.3 2.5 0.6 0.1 0.2 0.3 0.3 0.5 0.3 1 0 2-0.1 2.9-0.1 0.2 0 0.3-0.1 0.4-0.3 0.5-0.8 1.5-1.1 2.3-0.6 0.4 0.2 0.7 0.4 0.9 0.7 0.1-0.2 0.2-0.4 0.2-0.6 0.1-0.2 0.5-0.5 2.3-0.6 0.3 0 0.7 0 1.2 0 -0.6-1.5-0.5-1.9-0.4-2 0.3-0.2 0.9 0.4 2.1 0.9 0.8 0.3 1.6 0.4 2.1 0.5 0.4-0.1 0.7 0 1.1 0.2 0.2 0.1 0.4 0.1 0.6-0.1 0.8-0.7 2.2-0.6 2.6 0.4 0.1 0.2 0.1 0.3 0.2 0.5 0.3-0.1 0.6-0.2 0.9-0.3 0.9-0.3 1.9 0.3 2.1 1.2 0 0 0 0.1 0.1 0.3l0 0c0.2-0.2 0.4-0.4 0.7-0.5 0.5-0.7 1.3-1.1 2.2-0.5 -0.1 0.1-0.1 0.2-0.2 0.3 0.6-1.2 2.3-1 3 0 0 0.1 0.1 0.1 0.1 0.2 0.3 0.1 0.6 0.2 0.9 0.2 1.1 0.2 2.1 0.3 3 0.3 0.1 0 0.2 0 0.2-0.1 0.7-0.3 1.3-0.6 1.7-0.7 0.8-0.3 1.6-0.8 1.7-1.4 0-0.5-0.4-0.8-0.3-0.9 0.1-0.2 0.7-0.1 2.9 0.7 0.1 0 0.2 0.1 0.3 0 0.5-0.1 1.1-0.1 1.7 0.1 0.9-0.2 1.8-0.1 2.8 0.3 0.2 0 0.5 0 0.7 0s0.4 0.1 0.4 0.1c0.1 0 0.2 0.1 0.4 0.2 1 0.6 1.9 1 2.9 1.4 0.3 0.1 0.6 0 0.7-0.3 0.2-0.4 0.4-0.7 0.7-0.8 0.7-0.2 1.2 0.6 2.3 1.1 0.7 0.3 1.7 0.6 3.3 0.4 0.1 0 0.1 0 0.2 0l1.9 0.3c0.2 0 0.3 0 0.4-0.1 1.1-0.9 1.8-1 2.3-0.8 0.4 0.1 0.5 0.3 1.6 0.8 0.7 0.3 1.1 0.5 1.3 0.4 0.7-0.2 0.7-1.1 1.5-1.5 0.2-0.1 0.5-0.1 1.1-0.1 0.9 0 1.7 0 2.7 0.4 0.3 0.1 0.7 0.3 1.1 0.6 0.7-0.2 1-0.3 1.7-0.6 0.1-0.3 0.5-0.5 0.8-0.3 0.4 0.2 0.8 0.4 1 0.5 1.8 0.9 3.6 1.7 4.7 1.1 0.2-0.1 0.3-0.3 0.8-0.5 1.2-0.4 1.7-0.4 3-0.6 0.5 0 0.8 0.1 1.1 0.4 1.2 0 2.5-0.1 3.7 0.1 0.4 0.1 0.9 0.3 1.2 0.6 0.2-0.3 0.5-0.5 0.8-0.5 1.4-0.2 4.1-0.8 5.9-0.3 0.1 0 0.1 0 0.2 0 1.8-0.1 3.5-0.1 4.8 0.7 0.2-0.1 0.3-0.2 0.5-0.3 0.4-0.2 0.7-0.2 0.9-0.2 0.9-0.1 2.8-0.1 2.9-0.2 0 0 0 0 0.1 0s0.1 0 0.2-0.1c-12.2-9-113.4-31-193.3-109.1 -10.5-10.3-18.5-19.4-23.7-25.7 -3.1-3.9-6.2-8.2-9.4-13 -5.2-7.7-15.1-23.7-23.3-46 -4.1-11.1-6.4-21.2-11-41.3 -4.6-20-5.5-28.6-5.8-36 -0.4-10.3 0.3-18.9 1.1-24.8 0-0.2 0.2-0.4 0.3-0.4 4-1.7 22.7-9.2 39-0.2 9.1 5 14 13.7 19.5 23.2 3.2 5.5 5.6 11.5 10.2 23.1 7.6 19.2 6 17.9 9 24 0 0 9.7 19.6 30 34 6.1 4.3 18.4 11.6 23.1 14.2 0.2 0.1 0.7 0.4 1.5 0.8 2.2 1.2 6.2 3.6 11 6.8 2.9 2 5.2 3.8 6.8 5.1 0.1 0.1 0.2 0.2 0.2 0.4 0.4 11.3 2.2 20.4 4 26.7 3.1 11.2 7.8 27.5 21.9 37.8l0 0c3 2 6.2 3.9 9.4 5.8 25.1 14.5 50.3 22.2 72.8 26.2 0.5 0.1 0.8-0.5 0.5-0.9 -3-4-3.8-7.6-4.1-9.9 -1.1-9.3 9.4-24.9 21.4-30.2 1-0.4 2.5-1 2.4-1.4 -0.3-1.1-18.7 3.8-35.3 5.1 -16.9 1.3-40.4 3-57-11.5 -17.8-15.6-22.3-44.9-14-54 1.5-1.6 4.3-3.5 9.1-8.9 3.6-4 6.2-7.7 8.6-10.8 1.8-2.4 3.9-5.3 6.4-9.3 15.5-25 19.7-48.6 20.6-54.1 3.8-23.3 0.7-43.7-3.2-58.4 -0.6-2.2 1.3-4.3 3.6-4 4.5 0.7 9.6 1.9 14.9 3.9 10.1 3.7 14.5 7.1 15.1 7.5 15.3 9.5 24.6 17 32.1 22 0 0 14.1 9.5 34.7 16.2 11.4 3.7 37.2 10.1 73.6 1 0.4-0.1 0.6-0.5 0.3-0.9 -2.6-3.8-5.2-8.6-6.7-14.5 -5-20.1 6.4-37.9 11.8-44.9C654.6 271.7 654 271 653.5 271.4zM455.5 327.2c-0.9 24-13.4 60.8-42 67 -19.7 4.3-37.6-8.6-42.3-12.3 -12.1-9.5-17.5-22.4-21.2-31.2 -3.9-9.2-2.3-9.5-9-29 -6.8-19.9-10.3-25.1-12.5-28 -6.9-9.1-14.8-14-18.3-16.2 -15.6-9.5-31-10.4-38.7-10.3 1.8-4.9 4.9-11.8 10.2-19.2 3.7-5.1 10.9-14.9 23.8-21.8 13.7-7.3 26.3-7.5 33-7.5 15.5-0.1 26.5 4.4 39 9.5 22.9 9.3 37.6 21.7 42 25.7 8.1 7.2 17.4 15.4 25 29.3C447.6 288.8 456.3 305.5 455.5 327.2z"/><path class="st9" d="M653.5 271.4c-40.7 26.6-76.4 34-85 32.8 -11.9-1.6-23.2-5.8-23.2-5.8l0 0c-9.4-3.8-15.7-8.2-27.9-17 -13.4-9.6-13-11.1-23.8-18.1 -12.1-7.8-25.2-14.6-25.2-14.6 -1.7-0.9-4.3-2.4-7.5-4.2 -16.4-9.3-28.3-16.4-31.4-18.3 -29.2-17.4-43.8-26-58-30 -11.7-3.3-30.9-6.3-57.4 0.1 -0.3 0.1-0.7-0.1-0.7-0.5 -0.6-5.3-0.3-12.3 4.3-18.4l0 0c14.7-8.9 27.3-12.4 36.1-13.9 9.9-1.7 23-2.2 39.7-9.3 5.9-2.5 10.7-5.2 11-9 0.3-4.4-5.5-8.1-10-11 -10-6.4-19.9-7.4-20-7 -0.1 0.3 7.3 1.5 14.5 7.5 2.9 2.5 6.6 5.5 6.1 8.5 -0.6 3.5-6.6 5.4-16.2 7.5 -15.1 3.3-25.8 4.3-32.3 5.3 -17 2.4-26 3.7-35.6 8.7 -9.9 5.2-15.5 12.1-26.7 26 -16.2 20.1-13.4 20.9-26.3 38 -13.3 17.6-16.7 19.5-22.3 35 -3.8 10.4-11 30-9.8 55.5 1 23.6 7 35.8 4 37.3 -7 3.4-53.2-40-57.3-95.3 -1.4-18.1 2.6-26.7 19-85 9.9-35.2 17.4-63.9 22-82 -8 2.2-18.2 4.3-30 5 -13.7 0.8-25.5-0.4-34.5-2 -1.5-7.6-3-15.2-4.5-23 -1.7-9-3.3-17.8-4.8-26.6 -0.7 1.3-1.9 3-3.6 4.9 0 0-3.5 3.9-8.7 6.7 -17.9 9.5-41 7-41 7 -29.2-2.9-55.9-11.7-76.2-20.3 -0.5-0.2-0.9 0.3-0.7 0.7 13.2 33.9 24.7 63.5 33.9 87.6 56.5 147.3 68.6 187.4 105.3 251.1 13.2 22.8 26.7 46.8 49.7 75.9 27 34.2 76.5 88.2 157.8 138.2 0.2 0.1 0.4 0.1 0.5 0 1.6-0.8 2.8-1.3 3.4-1.7 0 0 0.5-0.2 1.3-0.5 0.5-0.2 1-0.1 1.3 0.2 0.1-0.1 0.2-0.1 0.3-0.2 0.7-0.5 1.9-0.2 2.3 0.6 0 0.1 0.1 0.1 0.1 0.2 0.1-0.1 0.2-0.1 0.2-0.2 0.8-0.7 1.9-0.6 2.5 0.2 0.2-0.2 0.4-0.5 0.5-0.7 0.1-1.2 0.7-1.5 0.8-1.5 1-0.5 2.6 1.6 3 1.2 0.4-0.3-0.7-1.7-0.2-2.2 0.2-0.2 0.6-0.1 1.5 0 2.7 0.5 2.5 0.3 4 0.7 1.1 0.3 1.6 0.5 2.3 0.9 0.5 0.3 0.6 0.5 1.1 0.7 0.8 0.5 1.7 0.7 2.4 0.7 0.2-0.3 0.5-0.5 0.9-0.6 1.9-0.4 3.8-0.5 4.9 0.6 0.1-0.1 0.2-0.1 0.3-0.2 1.1-0.8 2.4 0.3 2.6 1.4 0 0 0 0 0.1 0 0.2-0.3 0.5-0.6 1-0.8 1.7-0.7 5.6-1.5 7.5-0.6 0.4 0 0.7-0.1 1.1-0.1 0.8-0.6 1.8-0.6 2.4-0.1 0.6-0.2 1.4 0 1.9 0.5 0.1 0.1 0.3 0.2 0.5 0.2 1-0.2 2-0.2 3-0.1 0.3 0 0.6-0.3 0.6-0.6 -0.1-1 0.1-1.3 0.3-1.4 0.3-0.2 0.6 0.6 1.9 1 0.7 0.3 1.1 0.2 1.6 0.6 0.4 0.3 0.4 0.7 0.6 0.7 0.4 0 0.5-1.3 1.3-1.7 0.5-0.2 0.8 0.1 1.8 0.4 0.6 0.2 1.4 0.4 2.4 0.5 0.1 0 0.3-0.1 0.4-0.1 1-0.7 2.1-0.3 2.5 0.6 0.1 0.2 0.3 0.3 0.5 0.3 1 0 2-0.1 2.9-0.1 0.2 0 0.3-0.1 0.4-0.3 0.5-0.8 1.5-1.1 2.3-0.6 0.4 0.2 0.7 0.4 0.9 0.7 0.1-0.2 0.2-0.4 0.2-0.6 0.1-0.2 0.5-0.5 2.3-0.6 0.3 0 0.7 0 1.2 0 -0.6-1.5-0.5-1.9-0.4-2 0.3-0.2 0.9 0.4 2.1 0.9 0.8 0.3 1.6 0.4 2.1 0.5 0.4-0.1 0.7 0 1.1 0.2 0.2 0.1 0.4 0.1 0.6-0.1 0.8-0.7 2.2-0.6 2.6 0.4 0.1 0.2 0.1 0.3 0.2 0.5 0.3-0.1 0.6-0.2 0.9-0.3 0.9-0.3 1.9 0.3 2.1 1.2 0 0 0 0.1 0.1 0.3l0 0c0.2-0.2 0.4-0.4 0.7-0.5 0.5-0.7 1.3-1.1 2.2-0.5 -0.1 0.1-0.1 0.2-0.2 0.3 0.6-1.2 2.3-1 3 0 0 0.1 0.1 0.1 0.1 0.2 0.3 0.1 0.6 0.2 0.9 0.2 1.1 0.2 2.1 0.3 3 0.3 0.1 0 0.2 0 0.2-0.1 0.7-0.3 1.3-0.6 1.7-0.7 0.8-0.3 1.6-0.8 1.7-1.4 0-0.5-0.4-0.8-0.3-0.9 0.1-0.2 0.7-0.1 2.9 0.7 0.1 0 0.2 0.1 0.3 0 0.5-0.1 1.1-0.1 1.7 0.1 0.9-0.2 1.8-0.1 2.8 0.3 0.2 0 0.5 0 0.7 0s0.4 0.1 0.4 0.1c0.1 0 0.2 0.1 0.4 0.2 1 0.6 1.9 1 2.9 1.4 0.3 0.1 0.6 0 0.7-0.3 0.2-0.4 0.4-0.7 0.7-0.8 0.7-0.2 1.2 0.6 2.3 1.1 0.7 0.3 1.7 0.6 3.3 0.4 0.1 0 0.1 0 0.2 0l1.9 0.3c0.2 0 0.3 0 0.4-0.1 1.1-0.9 1.8-1 2.3-0.8 0.4 0.1 0.5 0.3 1.6 0.8 0.7 0.3 1.1 0.5 1.3 0.4 0.7-0.2 0.7-1.1 1.5-1.5 0.2-0.1 0.5-0.1 1.1-0.1 0.9 0 1.7 0 2.7 0.4 0.3 0.1 0.7 0.3 1.1 0.6 0.7-0.2 1-0.3 1.7-0.6 0.1-0.3 0.5-0.5 0.8-0.3 0.4 0.2 0.8 0.4 1 0.5 1.8 0.9 3.6 1.7 4.7 1.1 0.2-0.1 0.3-0.3 0.8-0.5 1.2-0.4 1.7-0.4 3-0.6 0.5 0 0.8 0.1 1.1 0.4 1.2 0 2.5-0.1 3.7 0.1 0.4 0.1 0.9 0.3 1.2 0.6 0.2-0.3 0.5-0.5 0.8-0.5 1.4-0.2 4.1-0.8 5.9-0.3 0.1 0 0.1 0 0.2 0 1.8-0.1 3.5-0.1 4.8 0.7 0.2-0.1 0.3-0.2 0.5-0.3 0.4-0.2 0.7-0.2 0.9-0.2 0.9-0.1 2.8-0.1 2.9-0.2 0 0 0 0 0.1 0s0.1 0 0.2-0.1c-12.2-9-113.4-31-193.3-109.1 -10.5-10.3-18.5-19.4-23.7-25.7 -3.1-3.9-6.2-8.2-9.4-13 -5.2-7.7-15.1-23.7-23.3-46 -4.1-11.1-6.4-21.2-11-41.3 -4.6-20-5.5-28.6-5.8-36 -0.4-10.3 0.3-18.9 1.1-24.8 0-0.2 0.2-0.4 0.3-0.4 4-1.7 22.7-9.2 39-0.2 9.1 5 14 13.7 19.5 23.2 3.2 5.5 5.6 11.5 10.2 23.1 7.6 19.2 6 17.9 9 24 0 0 9.7 19.6 30 34 6.1 4.3 18.4 11.6 23.1 14.2 0.2 0.1 0.7 0.4 1.5 0.8 2.2 1.2 6.2 3.6 11 6.8 2.9 2 5.2 3.8 6.8 5.1 0.1 0.1 0.2 0.2 0.2 0.4 0.4 11.3 2.2 20.4 4 26.7 3.1 11.2 7.8 27.5 21.9 37.8l0 0c3 2 6.2 3.9 9.4 5.8 25.1 14.5 50.3 22.2 72.8 26.2 0.5 0.1 0.8-0.5 0.5-0.9 -3-4-3.8-7.6-4.1-9.9 -1.1-9.3 9.4-24.9 21.4-30.2 1-0.4 2.5-1 2.4-1.4 -0.3-1.1-18.7 3.8-35.3 5.1 -16.9 1.3-40.4 3-57-11.5 -17.8-15.6-22.3-44.9-14-54 1.5-1.6 4.3-3.5 9.1-8.9 3.6-4 6.2-7.7 8.6-10.8 1.8-2.4 3.9-5.3 6.4-9.3 15.5-25 19.7-48.6 20.6-54.1 3.8-23.3 0.7-43.7-3.2-58.4 -0.6-2.2 1.3-4.3 3.6-4 4.5 0.7 9.6 1.9 14.9 3.9 10.1 3.7 14.5 7.1 15.1 7.5 15.3 9.5 24.6 17 32.1 22 0 0 14.1 9.5 34.7 16.2 11.4 3.7 37.2 10.1 73.6 1 0.4-0.1 0.6-0.5 0.3-0.9 -2.6-3.8-5.2-8.6-6.7-14.5 -5-20.1 6.4-37.9 11.8-44.9C654.6 271.7 654 271 653.5 271.4zM455.5 327.2c-0.9 24-13.4 60.8-42 67 -19.7 4.3-37.6-8.6-42.3-12.3 -12.1-9.5-17.5-22.4-21.2-31.2 -3.9-9.2-2.3-9.5-9-29 -6.8-19.9-10.3-25.1-12.5-28 -6.9-9.1-14.8-14-18.3-16.2 -15.6-9.5-31-10.4-38.7-10.3 1.8-4.9 4.9-11.8 10.2-19.2 3.7-5.1 10.9-14.9 23.8-21.8 13.7-7.3 26.3-7.5 33-7.5 15.5-0.1 26.5 4.4 39 9.5 22.9 9.3 37.6 21.7 42 25.7 8.1 7.2 17.4 15.4 25 29.3C447.6 288.8 456.3 305.5 455.5 327.2z"/><linearGradient id="SVGID_3_" gradientUnits="userSpaceOnUse" x1="162.06" y1="532.5" x2="163.81" y2="552.51" gradientTransform="matrix(1 0 0 -1 0 632)"><stop offset="0" stop-color="#000000"/><stop offset="0.72" stop-color="#005559"/></linearGradient><linearGradient id="SVGID_4_" gradientUnits="userSpaceOnUse" x1="162.99" y1="530.82" x2="162.99" y2="552.41" gradientTransform="matrix(1 0 0 -1 0 632)"><stop offset="0.03" style="stop-color:#000000;stop-opacity:0.82"/><stop offset="0.66" style="stop-color:#004A51;stop-opacity:0.87"/><stop offset="0.97" style="stop-color:#006A74;stop-opacity:0.9"/></linearGradient><path class="st10" d="M111.9 83.4c0.4-1.9 6.2-2.3 22.8-2.7 28.4-0.8 33-0.7 38-0.3 13.5 0.9 20.3 2.4 26.7 4.7 4.5 1.6 15 5.5 14.7 9 -0.5 4.7-20.3 6.6-30 6.7 -11.1 0.1-20-1-25-1.7 -6.2-0.8-10.5-1.6-15.7-2.7 -12.3-2.4-17.8-4.3-22.7-6.7C116.4 87.6 111.5 85.2 111.9 83.4z"/>
<g id="earth"><path class="st11" d="M139.1 37.2C151.4 18.9 178 13 198.6 24.1s27.3 34.8 15.1 53c-12.3 18.3-38.9 24.2-59.5 13.2S126.9 55.5 139.1 37.2z"/><path class="st12" d="M212.9 76.2c-0.7 0.9-5 6.2-12.4 9.8 -0.5 0.2-6 3-6.9 2.1 -0.5-0.6 1.4-3.4 4.1-5.1 3.1-2.1 5.5-1.9 6.4-3.8 0.5-1.3 0.5-3-0.5-3.6 -1.2-0.9-2.4 0.2-5 0 -1.9-0.2-4.3-1.1-5.5-3 -1.7-3 1-6.6 1.2-7 1.9-2.6 3.8-2.1 6.2-5.1 1.4-1.9 1.2-2.6 2.6-3.6 1.7-1.1 3.8-1.5 5.7-1.1 1.4 0.2 2.6 0.9 2.6 0.9 1 0.4 1.2 0.6 1.4 0.6 1.2-0.2 1.2-2.8 2.1-2.8 0.2 0 0.2 0 0.5 0.2 0.7 0.4 1.2 1.1 1.2 1.1 0.7 1.1 1.7 2.1 2.1 2.6C220.1 60.2 219.4 68.1 212.9 76.2z"/><path class="st12" d="M215.6 50.8c-1.4-0.9-1.9-1.7-2.4-1.5s-0.2 0.9-1 2.1c-0.2 0.4-0.7 1.1-1.4 1.3 -0.5 0.2-1-0.2-2.1-0.9 -2.6-1.5-2.9-1.7-3.3-1.7 -1.2 0-1.9 0.6-2.1 0.2 -0.5-0.2-0.2-1.1 0.5-3.2 0.7-2.8 0.7-3.2 0.7-3.8 0-0.9-0.5-1.7-1-3 -1-2.1-1.4-2.3-2.1-3.8 -0.5-1.1-1-2.6 0-3.6 1-0.9 2.6-0.9 2.9-0.9 1.7 0.2 2.9 1.3 3.8 2.1 3.3 3.2 5 4.7 6 6 3.1 4.5 5.7 10.4 4.3 11.3C217.5 51.7 216 51 215.6 50.8z"/><path class="st12" d="M198.8 39.7c1 0 1.7 1.3 2.4 2.6 0.5 0.9 0.7 1.5 0.7 2.1 0 0.4-0.5 0.9-1.2 1.9 -0.7 1.1-1 1.1-1 1.1 -0.2 0-0.2-0.2-0.5-3.4 0-1.5 0-1.9-0.5-2.3 -0.7-0.6-1.7-0.2-1.7-0.6C196.9 40.6 197.9 39.7 198.8 39.7z"/><path class="st12" d="M174.7 19c-1.2-0.4-2.4 0.4-5.7 1.9 -6.7 3.2-7.6 2.8-9.5 4.9 -1 1.1-1.4 1.9-2.9 3 -1.9 1.1-2.6 0.6-3.8 1.7 -1.4 1.3-1 2.6-2.6 4.1 -0.2 0.2-0.7 0.6-1 1.1 -0.5 0.9-0.5 1.9-0.2 2.3 0.2 1.9-1.4 3-2.6 5.1 -0.7 1.5-0.2 4.1 0.5 8.7 1 5.5 1.7 5.8 1.9 5.8 0.5 0 1.2-0.4 1.2-0.6 0.7-0.6 0.7-1.3 0.7-1.5 0.2-1.3-0.7-1.5-0.7-3 0-1.5 1-2.6 0.2-3 -0.5-0.4-1 0-1.7-0.4 -1-0.6-0.5-2.6 0.2-3.8 0.5-0.9 1.4-2.6 3.6-2.8 1.9 0 3.6 1.3 3.6 2.3 0.2 1.1-1 1.3-1.4 3.4 -0.2 0.6-0.5 2.1 0.5 3.2 0.5 0.4 1.4 1.1 1.9 0.6 1-0.4-0.5-2.3 0.5-4.5 0.5-1.1 1.7-2.3 3.3-2.8 0.7-0.2 1.2-0.4 2.1-1.1 0.7-0.4 0.7-0.6 1.4-1.1 1-0.6 1.4-0.4 3.3-0.6 2.1-0.2 3.1-0.4 3.8-1.1 0.7-0.9 0-2.3 0.5-2.6 0.5-0.2 1.4 2.6 3.1 2.8 0.7 0 1.7-0.6 2.1-1.3 0.7-1.3-1-2.3-1-4.7 0-1.7 0.7-2.6 0.2-3s-1.4 0.4-2.1 0c-0.7-0.4-0.5-1.1-1-1.1 -0.7-0.2-1.2 1.7-2.6 2.1 -1 0.2-2.1 0-2.6-0.6 -1.2-1.3 0-4.1 2.1-4.9 1.4-0.6 3.3-0.4 4.1 0.4 0.5 0.4 0.2 0.9 0.7 1.3 1 0.6 2.4 0.2 2.6 0.2 0.2 0 1.9-0.6 2.6-2.1 0.5-1.1 0-1.7 0.5-2.3 1-1.1 2.6-0.4 3.1-1.1 0.2-0.6-0.2-1.7-1-2.1 -1.7-0.9-3.6 0.9-5.3 0C175.7 21.4 176.2 19.7 174.7 19z"/><path class="st12" d="M196 44.8c0.7 0.2 0.5 1.3 0.5 2.6 0 0.9 0 1.5-0.5 1.7s-1.2-0.6-1.7-1.1 -1-1.3-0.5-1.9C194.3 45.1 195.3 44.6 196 44.8z"/><path class="st12" d="M185 26.9c-0.2 1.1 0.5 1.5 0.5 2.3 0 0.9-0.5 0.9-1.2 2.3 -0.5 1.1-1.4 2.8-0.7 4.1 0.2 0.6 1 1.3 1.4 1.3 0.7 0 0.7-1.5 2.1-2.3 1-0.4 1.2-0.2 2.4-0.6 1.7-0.9 2.4-2.3 2.4-2.6 0-0.2 1-2.3-0.5-4.1 -0.7-0.9-1.7-1.3-3.3-1.7 -1-0.2-2.1-0.6-2.9 0C185 26.1 185 26.5 185 26.9z"/><path class="st12" d="M200.8 52.3c-0.7 0.2-1.4 0.9-1.4 1.7 0 0.9 0.5 1.5 1.2 1.9 1.2 0.4 2.6 0 2.9-0.9C203.9 54 202.2 52.1 200.8 52.3z"/><path class="st12" d="M147.5 59.8c-0.7 1.5-0.7 1.7-1.4 2.8 -0.5 0.6-0.5 0.6-0.7 1.1 -0.2 0.9 0 1.7 0.2 2.1V66c1.2 2.3 1.2 2.6 1.7 3 1 0.9 1.7 0.4 2.4 1.3 0.5 0.4 0.5 1.1 0.7 1.7 0.2 1.1 0 1.7-0.2 3.4 -0.2 1.5-0.2 2.3-0.2 3.2 0.2 1.3 0.7 1.5 1 2.8 0.2 1.1-0.2 1.3 0 2.1 0 0.2 0.5 1.7 1.9 2.6 1.2 0.6 2.4 0.6 2.6 0.4 0-0.2-0.7-0.2-1-0.6 -0.5-0.6-0.2-1.5 0-2.3 0-0.2 0.2-1.1 0-1.5l0 0c-0.2-0.4 0.7-1.7 1.2-1.9 0.7-0.9 0.7-0.6 1.7-1.3 0.7-0.6 0.7-0.9 1.4-1.7 0.7-0.6 0.7-0.6 1-1.1 0.5-0.9 0-1.1 0.5-1.5 0.5-0.6 1.2-0.2 2.4-0.6 1-0.4 1.4-1.5 1.4-1.7 0.5-1.3-0.2-1.7 0.2-2.6 0.5-0.6 1-0.6 1.4-1.5 0-0.2 0.5-1.1 0-1.5 -0.2-0.2-0.2-0.2-0.7-0.4 -0.5-0.4-1-0.4-1.7-0.6 -0.2-0.2-0.2-0.2-0.5-0.2 -1.7-0.9-2.1-0.6-2.6-1.1 -0.5-0.4-0.2-0.6-1-1.5 -0.5-0.4-0.7-0.9-1.2-1.1 -0.2-0.2-1.4-1.1-3.3-1.7 -0.2 0-0.5-0.2-1.4-0.4 -1.2-0.4-1.7-0.4-2.1-0.6 -1-0.2-1.7-0.2-2.1 0C148.2 58.5 148 58.9 147.5 59.8z"/></g>
<path class="st13" d="M358.6 212.2c-0.6 2.4-2.2 4-4.8 5 -2.4 0.9-4.9 1.1-7.6 0.6 -2.3-0.5-4.2-1.2-5.7-2.2 -1.8-1.2-2.5-2.8-2.3-4.6 0.2-1.4 0.9-2.5 2.2-3.2 1.2-0.8 2.6-1 4.1-0.7 1.6 0.3 2.8 0.8 3.6 1.5 1 0.8 1.3 1.8 1.1 2.9 -0.1 0.7-0.5 1.2-1.2 1.6 -0.6 0.4-1.3 0.5-2 0.4s-1.2-0.4-1.4-0.7c-0.1-0.1-0.1-0.2-0.1-0.2 0-0.1 0.2-0.2 0.4-0.2 0.3 0 0.6-0.2 0.8-0.4 0.2-0.2 0.4-0.5 0.5-1 0.1-0.4-0.1-0.9-0.5-1.2 -0.5-0.4-1-0.6-1.6-0.7 -1.2-0.2-2.2-0.1-3.1 0.3 -0.9 0.4-1.4 1.1-1.5 2 -0.2 1.3 0.5 2.4 2.1 3.4 1.3 0.8 2.9 1.4 4.8 1.8 2 0.4 3.8 0.4 5.5-0.2 2-0.6 3.2-1.7 3.7-3.5 0.4-1.7 0.1-3.2-1.1-4.3 -0.7-0.7-2.2-1.7-4.5-2.7 -1.3-0.6-2.6-1.1-3.9-1.7 -1.5-0.6-2.5-1.4-3.2-2.1 -0.8-1-1.1-2.2-0.9-3.6 0.3-1.6 1.5-2.9 3.7-3.6 2-0.7 4.2-0.8 6.6-0.3 2.2 0.5 3.8 1.1 5 1.9 1.6 1 2.2 2.2 1.9 3.5 -0.2 0.8-0.8 1.4-1.9 1.7 -1 0.3-2 0.3-3.1 0.1 -1-0.2-1.9-0.6-2.5-1.1 -0.8-0.6-1.1-1.3-0.9-2.1 0.1-0.4 0.3-0.7 0.7-1 0.4-0.2 0.8-0.4 1.2-0.4 0.2 0 0.3 0 0.3 0 0.1 0 0.2 0.1 0.1 0.3s-0.1 0.3-0.2 0.4c-0.1 0.3 0 0.6 0.2 0.9 0.3 0.3 0.7 0.6 1.4 0.7 0.4 0.1 0.9 0.1 1.3-0.1 0.4-0.2 0.6-0.5 0.7-0.8 0.2-0.7-0.3-1.3-1.4-1.9 -0.8-0.4-1.9-0.8-3.2-1 -1.7-0.4-3.3-0.3-4.8 0.1 -1.6 0.5-2.5 1.2-2.7 2.3 -0.2 1 0.2 1.8 1 2.6 0.5 0.5 2.4 1.3 5.4 2.7 1.9 0.8 3.3 1.6 4.3 2.2 1.3 0.9 2.3 1.8 2.8 2.8C358.9 209.5 359 210.8 358.6 212.2z"/><path class="st13" d="M388 218.8c-1.3 3-3.6 5-6.8 6.2 -3.1 1.2-6.1 1.2-9.1 0.1 -3.2-1.2-5.5-3.2-7.1-6.1 -1.6-2.9-2-6-1-9.2 0.9-3.1 2.9-5.5 6.2-6.9 3.2-1.4 6.7-1.5 10.3-0.2 3.6 1.3 6.1 3.6 7.6 6.8C389.4 212.6 389.4 215.8 388 218.8zM385.6 218.9c1-2.4 0.8-5.1-0.8-8.3 -1.6-3.3-4.1-5.5-7.2-6.6 -2.4-0.9-4.8-0.8-7 0.1 -2.2 0.9-3.6 2.5-4.2 4.5 -0.9 2.9-0.4 5.9 1.3 9 1.6 3 3.8 5 6.5 6 2.2 0.8 4.3 0.9 6.3 0.1C382.9 223 384.6 221.3 385.6 218.9z"/><path class="st13" d="M408.4 235.7c-0.1 0.2-0.3 0.4-0.6 0.6 -1.1 0.8-2.5 1.3-4.2 1.5 -2.3 0.3-4.4-0.1-6.5-1.2 -3-1.7-5-3.8-6-6.6s-0.7-5.9 0.8-9.3c1.4-2.9 3.7-5 7.2-5.9 3.4-1 6.9-0.6 10.1 1.2 1.9 1 3.3 2.4 4.1 4.1 0.9 1.8 0.9 3.5 0.1 4.9 -0.7 1.2-1.8 2-3.1 2.3 -1.3 0.3-2.6 0.1-3.9-0.6 -1.1-0.6-1.8-1.4-2.3-2.4 -0.5-1.1-0.5-2.1 0-3 0.3-0.6 0.9-1.1 1.6-1.4 0.7-0.3 1.2-0.3 1.7-0.2 0.2 0 0.3 0.1 0.4 0.3 0 0.1 0 0.2-0.1 0.3 -0.2 0.1-0.3 0.3-0.4 0.4 -0.2 0.2-0.4 0.4-0.5 0.7 -0.1 0.2-0.1 0.3-0.2 0.4 -0.1 0.5-0.1 0.9 0.2 1.4 0.3 0.4 0.7 0.8 1.2 1.1 0.7 0.4 1.4 0.5 2.1 0.3s1.3-0.7 1.7-1.4c0.6-1 0.5-2.2-0.2-3.4 -0.7-1.1-1.7-2.1-3.1-2.9 -2.6-1.5-5.3-1.7-7.8-0.7s-4.5 2.8-5.8 5.5c-1.2 2.4-1.3 4.8-0.6 7.2 0.7 2.5 2.2 4.4 4.5 5.7 1.4 0.8 2.8 1.3 3.9 1.4 1.2 0.1 2.6 0 4.3-0.5 0 0 0.2-0.1 0.5-0.2 0.2-0.1 0.4-0.1 0.5-0.1s0.2 0.1 0.3 0.2C408.5 235.4 408.5 235.5 408.4 235.7z"/><path class="st13" d="M414.8 245.8c0.1 0.3 0 0.4 0 0.5 -0.1 0.2-0.3 0.1-0.6-0.1 -0.2-0.2-0.4-0.3-0.6-0.4 -0.8-0.6-1.3-1-1.5-1.2 -0.5-0.3-0.9-0.6-1.2-0.7 -0.3-0.2-0.7-0.4-1.1-0.6 -0.3-0.2-0.4-0.4-0.3-0.6 0.1-0.1 0.2-0.2 0.4-0.2 0.5 0 0.9-0.1 1.1-0.1 0.5-0.1 0.8-0.2 0.9-0.4 3.5-5.2 5.2-7.9 8.7-13.1 0.4-0.6 0.6-1.3 0.3-1.7 -0.3-0.4-0.6-0.8-0.8-0.9 -0.1-0.2-0.2-0.3-0.1-0.4 0.1-0.1 0.2-0.1 0.4-0.1 0.2 0 0.5 0 1 0.1 0.7 0.1 1.2 0.2 1.6 0.2 0.9 0.1 1.7 0.1 2.3 0.2 0.6 0 0.9 0 1.1 0 0.1 0 0.2 0 0.3 0.1 0.2 0.1 0.2 0.3 0 0.5 -0.3 0.2-0.7 0.7-1.2 1.3s-1.1 1.4-1.7 2.3c-3.7 5.4-5.6 8-9.3 13.4 -0.1 0.2-0.2 0.5-0.1 1C414.5 245 414.6 245.4 414.8 245.8zM430.5 222.2c-0.3 0.5-0.8 0.7-1.4 0.7s-1.2-0.1-1.8-0.5c-0.5-0.4-0.9-0.8-1-1.4 -0.2-0.6-0.1-1.1 0.2-1.6 0.3-0.5 0.8-0.7 1.4-0.8 0.6 0 1.2 0.1 1.8 0.5 0.6 0.4 0.9 0.9 1 1.5C430.9 221.2 430.9 221.7 430.5 222.2z"/><path class="st13" d="M445.3 257.9c-2.3 2.3-5.2 3.4-8.6 3.4 -3.3 0-6.2-1.1-8.6-3.2 -2.6-2.2-4.1-4.9-4.5-8.3 -0.4-3.3 0.3-6.3 2.3-9 2-2.6 4.7-4.1 8.2-4.3s6.8 1 9.7 3.5c2.9 2.5 4.5 5.6 4.8 9.1C448.7 252.6 447.6 255.5 445.3 257.9zM443 257.1c1.8-1.9 2.6-4.5 2.2-8.1s-1.9-6.6-4.4-8.8c-2-1.7-4.2-2.5-6.6-2.4s-4.2 1-5.5 2.7c-1.9 2.4-2.5 5.4-2 8.9 0.5 3.4 1.8 6 4 8 1.8 1.5 3.7 2.3 5.9 2.4C439 259.9 441.1 259 443 257.1z"/><path class="st13" d="M254.8 270.8c3.5 1.2 6.1 3.3 7.9 6.1 1.9 2.9 2.4 5.8 1.6 9.1 -0.3 1.3-0.8 2.4-1.5 3.3s-1.6 1.7-2.6 2.2c0.5 0.3 1 0.6 1.5 1.1 0.4 0.4 0.7 0.7 0.9 1.1 0.1 0.1 0.1 0.3 0.1 0.4 0 0-0.1 0.1-0.2 0.2s-0.3 0.2-0.6 0.4c-0.3 0.2-0.5 0.3-0.7 0.4 -0.5 0.4-0.8 0.6-1.3 1 -0.1 0.1-0.2 0.1-0.2 0.1 -0.1 0-0.2-0.1-0.2-0.3 -0.1-0.5-0.3-0.9-0.6-1.2 -0.5-0.5-1.4-0.9-2.6-1.1 -8.5-1.3-12.8-2-21.4-3.3 -0.4-0.1-0.8-0.1-1.1-0.1s-0.4 0.2-0.4 0.7c0 0.3 0.1 0.7 0.3 1.2 0.2 0.6 0.3 0.9 0.3 1.1 0 0.1 0 0.2 0 0.4 0 0.1-0.1 0.1-0.2 0.1 -0.1 0-0.3-0.1-0.4-0.3s-0.4-0.6-0.8-1.4c-0.6-1.2-1.1-2.1-1.4-2.6 -0.5-0.8-1-1.7-1.5-2.7 -0.4-0.7-0.6-1.1-0.7-1.2 0-0.1 0-0.3 0-0.4 0-0.2 0.2-0.2 0.4-0.2 1 0.3 1.5 0.5 1.7 0.6 0.8 0.2 1.6 0.4 2.4 0.6 4.4 0.8 6.7 1.2 11.1 2 -1.1-1.2-2-2.6-2.5-4.2 -0.7-2-0.8-4-0.3-5.9 0.8-3.2 2.6-5.6 5-6.9S251.8 269.7 254.8 270.8zM254.4 274.3c-2.3-0.7-4.4-0.7-6.4 0.2 -2.1 0.9-3.6 2.7-4.2 5.1 -0.6 2.3-0.3 4.4 0.8 6.2 1.1 1.8 2.7 2.8 4.8 3.2 2.9 0.5 4.3 0.8 7.2 1.3 1.7 0.3 3.1 0 4.2-0.8s1.8-2 2.1-3.5c0.6-2.5 0-4.8-1.9-7.1C259.4 276.8 257.2 275.2 254.4 274.3z"/><path class="st13" d="M270.5 264.1c0.2-0.1 0.4-0.1 0.5-0.1 0.2 0.1 0.2 0.3 0 0.6 -0.1 0.3-0.2 0.5-0.3 0.6 -0.5 0.9-0.8 1.4-0.9 1.7 -0.2 0.5-0.4 1-0.5 1.3s-0.2 0.8-0.4 1.2c-0.1 0.3-0.3 0.5-0.5 0.4 -0.1 0-0.2-0.2-0.3-0.4 -0.1-0.5-0.3-0.9-0.3-1.1 -0.1-0.5-0.3-0.7-0.6-0.9 -5.8-2.5-8.7-3.7-14.5-6.2 -0.7-0.3-1.4-0.3-1.7 0 -0.4 0.4-0.6 0.8-0.8 1 -0.1 0.2-0.3 0.3-0.4 0.2 -0.1 0-0.1-0.2-0.2-0.4 0-0.2-0.1-0.5-0.1-1 0-0.7 0-1.3-0.1-1.7 -0.1-1-0.1-1.8-0.2-2.4 -0.1-0.6-0.1-1-0.1-1.1s0-0.3 0-0.3c0.1-0.2 0.3-0.3 0.5-0.1 0.3 0.2 0.8 0.6 1.4 1 0.7 0.4 1.5 0.8 2.5 1.3 5.9 2.7 8.9 4.1 14.8 6.8 0.2 0.1 0.6 0.1 1-0.1C269.8 264.4 270.1 264.3 270.5 264.1zM244.6 252.6c0.5 0.2 0.8 0.7 0.9 1.3 0.1 0.6 0 1.3-0.3 2s-0.7 1.1-1.3 1.4 -1.1 0.3-1.6 0.1c-0.5-0.2-0.9-0.7-1-1.3 -0.1-0.7-0.1-1.3 0.2-2s0.8-1.1 1.3-1.4C243.5 252.4 244 252.3 244.6 252.6z"/><path class="st13" d="M279.4 232c2.5 2.2 3.7 5 3.8 8.5 0.2 3.3-0.6 6.2-2.5 8.9 -2 2.8-4.4 4.6-7.7 5.5 -3.2 0.9-6.3 0.7-9.3-0.9 -2.9-1.6-4.7-4.1-5.3-7.7 -0.6-3.6 0.3-7.2 2.7-10.6 2.4-3.4 5.5-5.4 9.1-6.1C273.9 228.9 276.9 229.8 279.4 232zM278.7 234.4c-2-1.7-4.7-2.3-8.3-1.5 -3.7 0.8-6.7 2.8-8.7 5.7 -1.6 2.3-2.2 4.7-1.8 7.2 0.4 2.4 1.5 4.2 3.4 5.2 2.7 1.5 5.7 1.7 9.1 0.7 3.3-0.9 5.8-2.5 7.5-4.9 1.4-1.9 2-3.9 1.9-6.1C281.7 238.2 280.7 236.1 278.7 234.4z"/><path class="st13" d="M358.8 378.5c-0.8 1.1-1.8 1.9-2.9 2.5s-2.3 0.9-3.5 0.9c0 0 0 0.1 0.1 0.1 0 0.1 0.1 0.2 0.2 0.3 0.2 0.3 0.4 0.5 0.5 0.7s0.4 0.4 0.7 0.4c0.3 0.1 0.5 0.1 0.5 0.1h0.1l0 0c0.1 0.1 0 0.2-0.1 0.3 -0.1 0.1-0.2 0.2-0.3 0.3 -0.1 0.1-0.2 0.2-0.3 0.3 -0.1 0.1-0.2 0.2-0.3 0.4 -0.1 0.1-0.2 0.3-0.3 0.4 -0.1 0.2-0.2 0.2-0.2 0.1 0 0 0-0.1-0.1-0.2 -0.1-0.4-0.2-0.6-0.2-0.7 -0.1-0.3-0.2-0.5-0.3-0.7 -0.1-0.2-0.3-0.5-0.5-0.8 -0.2-0.2-0.3-0.4-0.4-0.6s-0.2-0.3-0.4-0.5c-0.2-0.2-0.2-0.4-0.1-0.6 0-0.1 0.1-0.1 0.1-0.1 0.8-0.2 1.4-0.3 1.9-0.5 0.8-0.2 1.4-0.5 2-0.9 0.7-0.4 1.3-1 1.8-1.7 0.9-1.1 1.4-2.4 1.5-3.6 0.1-1.3-0.2-2.5-0.9-3.5 -0.5-0.7-1-1.2-1.7-1.4 -0.6-0.2-1.1-0.2-1.8 0 -2 2.6-3 3.9-5 6.6 -0.1 0.1-0.1 0.4-0.1 0.7 0 0.3 0 0.6 0 0.8 0 0.2 0 0.3-0.1 0.4s-0.1 0-0.2-0.1c0 0-0.1-0.3-0.3-0.6s-0.4-0.7-0.5-1c-0.2-0.3-0.3-0.6-0.5-0.8 -0.1-0.2-0.3-0.4-0.4-0.7 -0.1-0.2-0.1-0.4-0.1-0.4 0-0.1 0.1-0.1 0.2-0.1s0.2 0 0.4 0.1c0.3 0.1 0.5 0.1 0.6 0 1.9-2.5 2.9-3.8 4.8-6.3 0.5-0.6 0.7-1.3 0.7-2.1 0-0.4 0-0.9-0.2-1.6 0-0.1 0-0.2 0-0.2l0.1-0.1c0.1 0 0.2 0.1 0.3 0.1 0.1 0 0.2 0.1 0.3 0.1 0.1 0 0.3 0 0.4 0s0.2 0 0.3 0c0 0 0.1 0 0.1 0.1s0 0.1 0 0.1c0 0.5 0 1.1-0.1 1.9 -0.1 1-0.3 1.7-0.5 2.1 0.6-0.1 1.3-0.1 1.9 0 1 0.2 1.7 0.7 2.3 1.5 1 1.5 1.5 3.1 1.4 4.8C360 376.3 359.5 377.5 358.8 378.5z"/><path class="st13" d="M365.7 397.4c0 0.1 0 0.2-0.1 0.3 -0.1 0.1-0.1 0.1-0.3 0 0 0-0.1-0.1-0.4-0.4 -0.2-0.2-0.4-0.4-0.6-0.6 -0.1-0.1-0.3-0.2-0.5-0.4s-0.3-0.2-0.3-0.2c-0.2-0.2-0.2-0.3-0.2-0.4 0 0 0.1-0.1 0.2-0.1s0.3-0.1 0.4-0.2 0.2-0.2 0.3-0.3c0.3-0.5 0.5-0.7 0.8-1.2 -0.8 0.4-1.7 0.5-2.7 0.3 -1.1-0.2-2.1-0.7-2.8-1.4 -1.1-1.1-1.7-2.4-1.9-3.9 -0.2-1.6 0.1-2.9 1-4s2-1.6 3.4-1.5 2.6 0.7 3.8 1.9c0.6 0.5 1 1.2 1.4 1.9 0.4 0.7 0.6 1.4 0.6 2 0.3-0.3 0.4-1 0.6-2 0.2-1.2 0.1-2.3-0.1-3.3 -0.3-1.3-0.8-2.4-1.5-3.1 -0.5-0.5-1-0.8-1.5-0.9 -0.6-0.2-1 0-1.3 0.4 -0.2 0.2-0.3 0.5-0.3 0.8s0.1 0.5 0.3 0.7c0.1 0.1 0.3 0.2 0.5 0.2s0.3-0.1 0.4-0.2 0.1-0.2 0.2-0.3c0-0.1 0.1-0.2 0.1-0.3 0-0.1 0-0.1 0.1-0.1 0 0 0.1 0 0.1 0.1 0.2 0.2 0.3 0.5 0.3 0.8s0 0.6-0.2 0.8c-0.3 0.4-0.6 0.5-1.1 0.5 -0.4 0-0.8-0.2-1.2-0.6 -0.4-0.4-0.6-0.9-0.6-1.5s0.1-1.1 0.5-1.6c0.5-0.6 1.2-0.8 2.1-0.5 0.8 0.3 1.6 0.8 2.4 1.6 0.8 0.8 1.4 1.8 1.8 3 0.4 1.3 0.5 2.6 0.3 3.9 -0.1 1-0.5 2-1 3.1 -0.3 0.7-0.8 1.7-1.6 2.9 -0.7 1.2-1.2 2-1.4 2.5 -0.1 0.2-0.2 0.5-0.2 0.8C365.7 397.2 365.7 397.4 365.7 397.4zM366.6 392.1c0.7-0.9 0.9-1.8 0.6-2.9 -0.2-1.1-0.8-2.1-1.8-3 -0.8-0.8-1.7-1.2-2.7-1.2s-1.8 0.3-2.4 1.1c-0.6 0.8-0.9 1.9-0.8 3.1s0.6 2.2 1.4 3c0.9 0.9 1.9 1.4 3 1.4S365.9 393 366.6 392.1z"/><path class="st13" d="M384.3 399.3c-0.9 1.2-2 2.2-3.3 3.1 -1.3 0.8-2.7 1.5-4.3 1.9 0 0 0.1 0 0.1 0.1 0.1 0 0.1 0.1 0.3 0.2 0.3 0.2 0.5 0.3 0.8 0.4s0.6 0.2 0.9 0.1c0.3 0 0.6-0.1 0.7-0.1h0.1 0.1c0.1 0.1 0.1 0.1-0.1 0.3 -0.1 0.1-0.2 0.2-0.4 0.4 -0.1 0.2-0.2 0.3-0.3 0.3 -0.1 0.1-0.2 0.2-0.3 0.4 -0.1 0.1-0.2 0.3-0.3 0.4 -0.1 0.2-0.2 0.2-0.3 0.2l-0.1-0.1c-0.2-0.3-0.3-0.5-0.4-0.6 -0.1-0.2-0.3-0.3-0.5-0.5 -0.2-0.1-0.4-0.3-0.8-0.5 -0.3-0.1-0.5-0.3-0.6-0.3 -0.2-0.1-0.4-0.2-0.6-0.3 -0.3-0.1-0.3-0.3-0.2-0.4 0-0.1 0.1-0.1 0.1-0.1 1-0.4 1.8-0.7 2.4-1 0.9-0.5 1.7-0.9 2.4-1.4 0.8-0.6 1.5-1.3 2.1-2 1-1.3 1.4-2.4 1.4-3.6s-0.6-2.1-1.6-2.7c-0.7-0.4-1.5-0.6-2.4-0.6 -0.8 0-1.5 0.2-2.3 0.6 -2.2 2.9-3.3 4.3-5.5 7.2 -0.1 0.1-0.1 0.4-0.1 0.6 0.1 0.2 0.1 0.5 0.2 0.7 0 0.2 0 0.3 0 0.3 -0.1 0.1-0.2 0.1-0.3 0 0 0-0.2-0.2-0.5-0.4 -0.3-0.3-0.6-0.5-0.9-0.7s-0.6-0.4-0.8-0.5c-0.2-0.1-0.4-0.3-0.7-0.4 -0.2-0.1-0.3-0.3-0.2-0.4 0-0.1 0.1-0.1 0.3-0.1 0.1 0 0.3 0 0.6 0 0.4 0 0.7-0.1 0.8-0.2 2.1-2.8 3.2-4.2 5.3-6.9 0.5-0.7 0.7-1.3 0.6-2.1 0-0.3-0.2-0.7-0.5-1.3 0-0.1 0-0.1 0-0.2s0.1-0.1 0.2-0.1c0.2 0 0.3 0 0.4 0s0.3 0 0.5 0 0.4-0.1 0.5-0.1 0.2-0.1 0.3-0.1c0.1 0 0.1 0 0.2 0l0.1 0.1c0.1 0.4 0.2 1 0.2 1.6 0 0.9-0.1 1.5-0.3 2 0.8-0.3 1.6-0.5 2.5-0.6 1.3-0.1 2.3 0.1 3.2 0.5 1.6 0.9 2.4 2.1 2.4 3.6C385.5 397.1 385.1 398.2 384.3 399.3z"/><path class="st13" d="M400.7 407.5c-1.4 1.8-3.3 3.1-5.8 3.9 -2.4 0.8-4.6 0.9-6.5 0.2 -2-0.7-3.2-2.1-3.7-3.9 -0.4-1.8 0.1-3.6 1.4-5.4 1.3-1.7 3.1-2.8 5.4-3.5 2.3-0.6 4.5-0.6 6.6 0 2.1 0.7 3.4 1.8 3.8 3.4C402.5 404 402.1 405.7 400.7 407.5zM399 407.7c1.1-1.4 1.3-2.9 0.8-4.5 -0.6-1.7-1.8-2.9-3.5-3.5 -1.4-0.5-2.9-0.5-4.5-0.1s-2.8 1.2-3.6 2.3c-1.2 1.6-1.6 3.4-1.1 5.2 0.5 1.8 1.6 3 3.3 3.7 1.4 0.5 2.9 0.5 4.5 0C396.5 410.2 397.9 409.2 399 407.7z"/><path class="st13" d="M140.6 268.7c-2.4 0.6-4.6 0.1-6.6-1.4 -1.9-1.4-3.1-3.4-3.6-5.8 -0.2-0.9-0.2-1.7-0.1-2.5 0.1-0.6 0.3-1.3 0.6-2.2 -1.1 0.2-1.7 0.3-2.8 0.5 -0.5 0.1-0.9 0.3-1.1 0.7 -0.1 0.2-0.3 0.5-0.4 0.8 -0.1 0.1-0.1 0.2-0.2 0.2s-0.1-0.1-0.2-0.2c-0.1-0.1-0.2-0.4-0.3-0.6 -0.2-0.4-0.4-0.8-0.8-1.3 -0.2-0.3-0.4-0.6-0.7-0.9s-0.5-0.6-0.7-0.9c-0.1-0.1-0.1-0.2-0.1-0.3s0.1-0.2 0.2-0.2c0.5 0.2 1 0.3 1.5 0.4 0.5 0.1 1 0.1 1.5 0 4.7-0.9 7.1-1.3 11.8-2.2 0.8-0.1 1.3-0.6 1.7-1.3 0.2-0.3 0.3-0.8 0.4-1.5 0-0.1 0-0.1 0.1-0.1h0.1c0 0 0.1 0 0.1 0.1 0.1 0.1 0.2 0.1 0.3 0.3 0.2 0.2 0.3 0.3 0.4 0.4 0.2 0.2 0.3 0.3 0.4 0.4 0.1 0.1 0.2 0.2 0.3 0.2s0.1 0.1 0.1 0.2c0 0.1 0 0.1 0 0.2 -0.2 0.5-0.4 1.1-0.8 1.7 -0.5 0.8-1 1.4-1.6 1.6 0.8 0.3 1.5 0.9 2.2 1.6 1 1.1 1.7 2.3 2 3.8s0.3 2.9-0.1 4.2c-0.3 1.1-0.9 2-1.7 2.8C142 268.1 141.3 268.6 140.6 268.7zM139.1 266.5c1.3-0.3 2.3-1 3.1-2.2 0.8-1.3 1-2.6 0.7-4.1 -0.3-1.3-0.8-2.3-1.6-3.1 -0.6-0.7-1.4-1.2-2.3-1.6 -3.1 0.6-4.6 0.9-7.7 1.5 0.3 0.3 0.4 0.4 0.6 0.7 0.2 0.2 0.3 0.3 0.5 0.4 0.1 0.1 0.3 0.2 0.5 0.4 0.1 0.1 0.1 0.1 0.1 0.2 0 0.2 0 0.2-0.2 0.2 0 0-0.1 0-0.3 0s-0.3 0-0.4 0c-0.2 0-0.4 0.1-0.6 0.3 -0.2 0.2-0.3 0.6-0.4 1.1 -0.1 0.5-0.1 1 0 1.5 0.4 1.9 1.3 3.3 2.7 4.2C135.4 266.7 137.2 266.9 139.1 266.5z"/><path class="st13" d="M145.9 287.9c-1.4 0.4-2.8 0.5-4.2 0.2s-2.8-0.9-4.2-1.8c0 0 0 0.1 0 0.2s0 0.2 0.1 0.4c0.1 0.4 0.2 0.7 0.3 1.1 0.1 0.3 0.3 0.6 0.5 0.9 0.3 0.3 0.5 0.4 0.5 0.5 0.1 0.1 0.1 0.1 0.1 0.2s0 0.2-0.2 0.2 -0.4 0-0.6 0.1c-0.2 0-0.3 0-0.4 0.1 -0.2 0.1-0.4 0.1-0.6 0.2 -0.2 0.1-0.3 0.2-0.4 0.2 -0.1 0-0.2 0-0.2-0.1s0-0.1 0-0.2c0.1-0.3 0.1-0.6 0.1-0.9s0-0.6-0.1-0.8c0-0.3-0.1-0.7-0.3-1.2 -0.1-0.4-0.2-0.6-0.2-0.9 -0.1-0.2-0.1-0.5-0.3-0.8 -0.1-0.1-0.1-0.3-0.1-0.4s0-0.2 0-0.3c0-0.1 0.1-0.1 0.2-0.1 0.1 0 0.2 0 0.2 0.1 0.9 0.5 1.7 0.8 2.3 1 0.9 0.4 1.8 0.6 2.6 0.7 0.9 0.1 1.8 0 2.7-0.2 1.4-0.4 2.5-1.2 3.2-2.3 0.7-1.1 0.8-2.5 0.4-4 -0.3-1-0.7-1.8-1.4-2.5 -0.6-0.6-1.2-1.1-2-1.4 -3.4 0.9-5 1.3-8.4 2.2 -0.1 0-0.3 0.2-0.4 0.5 -0.1 0.3-0.2 0.5-0.3 0.8 -0.1 0.2-0.1 0.3-0.2 0.3 -0.1 0-0.2-0.1-0.3-0.4 -0.1-0.2-0.1-0.4-0.1-0.6 -0.1-0.8-0.2-1.3-0.3-1.6 -0.1-0.5-0.2-0.8-0.3-1.1 -0.1-0.3-0.2-0.6-0.3-1 -0.1-0.3 0-0.5 0.1-0.5s0.2 0 0.3 0.1c0.3 0.3 0.4 0.5 0.6 0.6 0.2 0.2 0.4 0.3 0.6 0.3 5.8-1.5 8.7-2.2 14.6-3.7 0.3-0.1 0.5-0.1 0.6-0.2s0.2-0.2 0.1-0.5c0-0.1-0.2-0.3-0.4-0.6s-0.4-0.5-0.4-0.6c-0.1-0.2-0.1-0.3 0.1-0.3 0 0 0.1 0 0.2 0.1 0.1 0.1 0.4 0.3 1 0.8 0.5 0.4 0.8 0.7 1.1 0.9 0.4 0.3 0.9 0.7 1.5 1 0.4 0.3 0.6 0.4 0.7 0.5 0 0 0 0.1 0.1 0.1v0.1c0 0.1 0 0.2-0.2 0.2 -0.3 0-0.7 0.1-1.1 0.1 -0.4 0.1-0.9 0.2-1.4 0.3 -2.5 0.7-3.8 1-6.3 1.6 0.8 0.4 1.5 0.8 2.1 1.4 0.9 0.9 1.6 1.9 1.9 3 0.6 2.1 0.4 4-0.5 5.5C148.1 286.7 147.2 287.5 145.9 287.9z"/><path class="st13" d="M156.7 306.5c-0.3-0.2-0.5-0.4-0.7-0.5 -0.3-0.2-0.5-0.3-0.7-0.2 -4.5 1.6-6.8 2.5-11.4 4.1 -2.1 0.8-4 0.6-5.8-0.5 -1.7-1-2.9-2.7-3.5-4.9 -0.3-1-0.4-1.8-0.4-2.5 0-0.9 0.3-1.4 0.8-1.6 0.4-0.1 0.8 0.1 1.2 0.5 0.4 0.5 0.6 1 0.8 1.4 0 0.2 0 0.3-0.1 0.3 0 0-0.1 0-0.2 0 -0.1 0-0.1-0.1-0.2-0.1 -0.1 0-0.3 0-0.4 0 -0.1 0-0.1 0.1-0.2 0.1 -0.2 0.2-0.4 0.4-0.4 0.8 -0.1 0.4 0 0.8 0.1 1.2 0.4 1.5 1.3 2.6 2.6 3.1 1.2 0.5 2.5 0.5 4-0.1 1-0.4 1.5-0.5 2.5-0.9 -0.8-0.2-1.6-0.6-2.3-1.2 -1-0.8-1.7-1.9-2-3.1 -0.7-2.3-0.6-4.2 0.2-5.8 0.7-1.4 1.8-2.3 3.2-2.7 0.9-0.3 1.7-0.4 2.5-0.3 0.7 0 1.4 0.2 2.2 0.4 0.1 0 0.8 0.3 2.1 0.7 0.1 0 0.2-0.1 0.3-0.4 0-0.2 0-0.5 0.1-0.9 0-0.2 0-0.5 0.1-0.7 0-0.1 0-0.2 0.1-0.2s0.1 0.1 0.2 0.3c0.1 0.2 0.2 0.4 0.3 0.6 0.2 0.3 0.4 0.7 0.7 1.1s0.5 0.7 0.8 1.1c0.3 0.3 0.5 0.6 0.8 0.9 0.1 0.1 0.1 0.1 0.1 0.2s0 0.2-0.1 0.3c0 0-0.1 0-0.2 0 -0.1 0-0.2-0.1-0.4-0.2 -0.1-0.1-0.3-0.1-0.5-0.2 -1.3-0.6-2.5-1-3.6-1.1 -1.3-0.2-2.6-0.1-3.8 0.3 -1.5 0.5-2.6 1.3-3.3 2.5s-0.8 2.6-0.4 4.1c0.3 1.1 0.9 2 1.6 2.7 0.7 0.8 1.5 1.2 2.4 1.4 3.5-1.2 5.2-1.8 8.6-3 0.2-0.1 0.3-0.3 0.4-0.6 0.1-0.3 0.1-0.6 0.2-0.9 0-0.1 0.1-0.2 0.2-0.2 0.1 0 0.2 0 0.3 0.2 0 0.1 0.1 0.3 0.2 0.8 0.1 0.5 0.3 0.9 0.4 1.3 0.2 0.5 0.3 0.8 0.4 1.1 0.1 0.3 0.3 0.6 0.4 0.9 0.1 0.2 0.1 0.4 0 0.4C156.9 306.6 156.8 306.6 156.7 306.5z"/><path class="st13" d="M154.9 328.3c-1.5 0.6-3.1 0.4-4.7-0.9 -1.5-1.1-2.6-2.8-3.4-4.9 -0.6-1.8-0.9-3.4-0.9-4.8 0.1-1.7 0.7-2.7 1.8-3.1 0.8-0.3 1.7-0.2 2.5 0.4 0.9 0.6 1.5 1.4 1.9 2.4 0.4 1.1 0.6 2.1 0.5 2.9 -0.1 0.9-0.5 1.5-1.1 1.8 -0.4 0.2-0.9 0.1-1.3-0.1 -0.5-0.3-0.8-0.7-1-1.2s-0.2-0.9-0.2-1.2c0-0.1 0.1-0.1 0.1-0.1 0.1 0 0.1 0 0.2 0.2 0.1 0.2 0.3 0.3 0.5 0.4s0.4 0.1 0.7-0.1c0.3-0.1 0.4-0.4 0.5-0.8 0-0.4 0-0.9-0.2-1.3 -0.3-0.8-0.7-1.5-1.2-1.9 -0.5-0.5-1.1-0.6-1.6-0.4 -0.8 0.3-1.2 1.2-1.2 2.6 0 1.2 0.3 2.6 0.8 4 0.5 1.5 1.3 2.8 2.3 3.7 1.1 1.1 2.3 1.4 3.3 0.9 1.1-0.5 1.7-1.3 1.9-2.5 0.1-0.7 0-2-0.3-3.8 -0.2-1-0.4-2.1-0.5-3.1 -0.2-1.2-0.1-2.1 0.1-2.7 0.3-0.8 0.8-1.4 1.7-1.8 1-0.4 2.1 0 3.2 1 1.1 1 1.9 2.2 2.5 3.7 0.5 1.4 0.8 2.6 0.9 3.6 0.1 1.3-0.3 2.1-1.1 2.5 -0.5 0.2-1.1 0.1-1.7-0.4 -0.5-0.4-1-1-1.2-1.8 -0.3-0.7-0.4-1.3-0.4-1.9 0-0.7 0.3-1.1 0.8-1.3 0.3-0.1 0.5-0.1 0.8 0s0.5 0.3 0.7 0.6c0.1 0.1 0.1 0.2 0.1 0.2 0 0.1 0 0.1-0.1 0.2 -0.1 0-0.2 0-0.3 0.1 -0.2 0.1-0.4 0.2-0.4 0.5 -0.1 0.3 0 0.6 0.1 1.1 0.1 0.3 0.3 0.5 0.6 0.7 0.3 0.1 0.5 0.2 0.7 0.1 0.4-0.2 0.6-0.7 0.5-1.5 -0.1-0.6-0.3-1.3-0.6-2.2 -0.4-1.1-1-2-1.8-2.7 -0.8-0.8-1.6-1.1-2.2-0.8 -0.6 0.2-1 0.7-1.1 1.5 -0.1 0.5 0.1 1.9 0.5 4.3 0.3 1.5 0.4 2.6 0.5 3.5 0.1 1.2 0 2.1-0.3 2.8C156.4 327.3 155.7 327.9 154.9 328.3z"/><path class="st13" d="M154.2 338.8c-0.1 0.2-0.1 0.3-0.2 0.3 -0.1 0.1-0.2-0.1-0.3-0.3 -0.1-0.2-0.2-0.4-0.2-0.5 -0.2-0.8-0.4-1.3-0.5-1.5 -0.2-0.4-0.3-0.8-0.4-1 -0.1-0.3-0.3-0.6-0.4-0.9 -0.1-0.3-0.1-0.5 0-0.5s0.2 0 0.3 0.1c0.3 0.2 0.6 0.4 0.7 0.5 0.3 0.2 0.5 0.2 0.7 0.2 3.9-1.7 5.8-2.6 9.7-4.3 0.5-0.2 0.8-0.5 0.8-0.8 0-0.4-0.1-0.7-0.1-0.8 0-0.2 0-0.2 0.1-0.3 0.1 0 0.1 0 0.3 0.1 0.1 0.1 0.3 0.2 0.5 0.4 0.3 0.3 0.6 0.5 0.8 0.7 0.5 0.4 0.9 0.7 1.2 0.9 0.3 0.2 0.5 0.3 0.6 0.4s0.1 0.1 0.1 0.1c0.1 0.2 0 0.2-0.2 0.3 -0.2 0-0.6 0.1-1.1 0.3 -0.5 0.2-1.1 0.4-1.8 0.7 -4 1.8-6 2.7-10 4.5 -0.2 0.1-0.3 0.3-0.4 0.6C154.3 338.3 154.2 338.5 154.2 338.8zM171.5 330.5c-0.3 0.2-0.7 0.1-1.1 0 -0.4-0.2-0.6-0.5-0.8-0.9s-0.2-0.8-0.1-1.2c0.1-0.4 0.4-0.7 0.7-0.8 0.3-0.2 0.7-0.1 1.1 0.1 0.4 0.2 0.6 0.5 0.8 0.9s0.2 0.8 0.1 1.2C172.1 330 171.8 330.3 171.5 330.5z"/><path class="st13" d="M165.9 356.9c-0.1 0.1-0.3 0.1-0.6 0.1 -1 0-2-0.2-3.1-0.8 -1.5-0.8-2.6-2.1-3.4-3.9 -1.1-2.6-1.4-4.9-0.8-7 0.6-2.2 2.1-3.8 4.4-4.9 2-0.9 4.1-0.9 6.4 0 2.3 1 3.9 2.6 5.1 4.9 0.6 1.3 0.9 2.6 0.8 3.9 -0.1 1.4-0.7 2.4-1.8 3 -0.9 0.5-1.8 0.5-2.7 0.2s-1.6-1-2.1-1.9c-0.4-0.8-0.5-1.6-0.4-2.4s0.5-1.4 1.2-1.8c0.4-0.2 0.9-0.2 1.5-0.1 0.5 0.1 0.8 0.3 1 0.6 0.1 0.1 0.1 0.2 0.1 0.3 0 0.1-0.1 0.1-0.2 0.2 -0.2 0-0.3 0-0.4 0.1 -0.2 0-0.4 0.1-0.6 0.2 -0.1 0.1-0.2 0.1-0.2 0.1 -0.3 0.2-0.4 0.5-0.4 0.9s0.1 0.8 0.3 1.2c0.3 0.5 0.6 0.9 1.1 1s1 0.1 1.5-0.2c0.7-0.4 1.1-1.1 1.2-2.1 0-0.9-0.2-1.9-0.7-2.9 -0.9-1.9-2.2-3.1-4-3.6 -1.8-0.6-3.6-0.4-5.5 0.5 -1.6 0.8-2.7 2.1-3.3 3.9 -0.6 1.9-0.5 3.8 0.4 5.7 0.5 1.2 1.1 2.1 1.8 2.7s1.6 1.2 2.8 1.6c0 0 0.1 0 0.3 0.1 0.2 0 0.3 0.1 0.3 0.1 0.1 0 0.1 0.1 0.1 0.2S166 356.9 165.9 356.9z"/><path class="st13" d="M179.2 374.2c-2.1 1.2-4.3 1.4-6.7 0.6 -2.3-0.8-4.1-2.4-5.3-4.8s-1.5-4.9-0.9-7.4 2-4.2 4.1-5.4c2-1.1 4.2-1.2 6.5-0.3 2.3 0.9 4.1 2.4 5.3 4.7 1.2 2.3 1.6 4.6 1 7.1C182.7 371.1 181.3 372.9 179.2 374.2zM177.8 373.2c1.6-1 2.7-2.7 3.2-5.2 0.6-2.6 0.3-4.8-0.8-6.9 -0.8-1.6-2-2.7-3.6-3.2 -1.6-0.6-3-0.5-4.3 0.2 -1.9 1-3.2 2.8-3.8 5.4 -0.6 2.5-0.4 4.8 0.7 6.9 0.8 1.6 2 2.8 3.6 3.4S176.1 374.2 177.8 373.2z"/><path class="st13" d="M185.8 393.2c-0.1 0.1-0.3 0.2-0.6 0.2 -1 0.2-2.1 0.1-3.3-0.4 -1.6-0.6-2.9-1.8-3.9-3.4 -1.4-2.4-1.9-4.8-1.4-7 0.5-2.3 1.9-4.1 4.2-5.5 2-1.2 4.3-1.5 6.7-0.9s4.3 2 5.7 4.2c0.8 1.2 1.1 2.5 1.1 3.9 0 1.5-0.6 2.6-1.7 3.3 -0.9 0.6-1.8 0.8-2.8 0.6 -1-0.2-1.8-0.8-2.3-1.7 -0.5-0.8-0.7-1.6-0.6-2.4 0.1-0.9 0.5-1.5 1.1-2 0.4-0.3 1-0.4 1.5-0.3s0.9 0.2 1.1 0.5c0.1 0.1 0.2 0.2 0.1 0.3 0 0.1-0.1 0.2-0.2 0.2 -0.2 0-0.3 0.1-0.4 0.1 -0.2 0.1-0.4 0.1-0.6 0.2 -0.1 0.1-0.2 0.1-0.2 0.2 -0.3 0.3-0.4 0.6-0.4 1s0.1 0.8 0.4 1.1c0.3 0.5 0.7 0.8 1.3 0.9 0.5 0.1 1.1-0.1 1.6-0.4 0.7-0.5 1.1-1.3 1-2.3 0-0.9-0.3-1.9-0.9-2.8 -1.1-1.8-2.6-2.8-4.5-3.1 -1.9-0.3-3.8 0.1-5.7 1.3 -1.6 1-2.7 2.5-3.2 4.4 -0.5 2-0.2 3.9 0.8 5.7 0.7 1.1 1.4 2 2.1 2.5 0.7 0.6 1.8 0.9 3.1 1.2 0 0 0.1 0 0.4 0 0.2 0 0.3 0 0.4 0.1C185.8 392.9 185.8 393 185.8 393.2 185.9 393.1 185.8 393.2 185.8 393.2z"/><path class="st13" d="M201.7 405.3c-1.4 1.1-3 1.8-4.7 2.3 -1.7 0.4-3.5 0.5-5.3 0.3 0 0 0.1 0.1 0.1 0.2s0.1 0.2 0.2 0.3c0.2 0.3 0.4 0.6 0.7 0.9 0.2 0.3 0.5 0.5 0.9 0.6s0.6 0.2 0.7 0.2c0.1 0 0.2 0.1 0.2 0.1 0.1 0.1 0 0.2-0.1 0.3 -0.2 0.1-0.4 0.2-0.6 0.3 -0.2 0.1-0.4 0.2-0.4 0.3 -0.2 0.1-0.4 0.3-0.6 0.5 -0.2 0.2-0.3 0.3-0.4 0.4 -0.1 0.1-0.2 0.1-0.3 0 0 0 0-0.1-0.1-0.2 0-0.3 0-0.7-0.1-0.9 -0.1-0.3-0.2-0.5-0.3-0.8 -0.1-0.2-0.3-0.6-0.6-1.1 -0.2-0.3-0.4-0.6-0.5-0.7 -0.1-0.2-0.3-0.4-0.5-0.7 -0.1-0.1-0.2-0.2-0.2-0.3 -0.1-0.1-0.1-0.2-0.1-0.3 0-0.1 0.1-0.1 0.2-0.2 0.1 0 0.2 0 0.3 0 1.2 0 2.2-0.1 2.9-0.1 1.2-0.1 2.2-0.3 3.1-0.6 1.1-0.4 2.1-0.9 3-1.6 1.5-1.1 2.5-2.4 3-3.8 0.5-1.5 0.3-2.8-0.6-4.1 -0.6-0.8-1.3-1.4-2.3-1.8 -0.8-0.3-1.7-0.4-2.7-0.3 -3.6 2.5-5.4 3.8-9 6.3 -0.2 0.1-0.3 0.3-0.3 0.7 0 0.3-0.1 0.6-0.1 0.9 0 0.2-0.1 0.3-0.2 0.4 -0.1 0.1-0.2 0-0.4-0.2 -0.1-0.2-0.2-0.4-0.3-0.5 -0.4-0.7-0.6-1.2-0.8-1.4 -0.2-0.4-0.5-0.7-0.6-0.9 -0.2-0.2-0.4-0.5-0.6-0.8 -0.2-0.2-0.2-0.4-0.1-0.5 0.1 0 0.2 0 0.4 0 0.4 0.1 0.6 0.2 0.8 0.3 0.4 0.1 0.6 0.1 0.8 0 6.3-4.3 9.4-6.5 15.7-10.8 0.3-0.2 0.5-0.4 0.7-0.5s0.1-0.3 0-0.5c-0.1-0.1-0.3-0.2-0.7-0.4 -0.3-0.1-0.6-0.3-0.7-0.3 -0.1-0.1-0.1-0.2 0-0.3 0 0 0.1 0 0.3 0 0.1 0 0.6 0.1 1.4 0.3 0.6 0.1 1.1 0.2 1.5 0.3 0.6 0.1 1.2 0.2 1.9 0.3 0.5 0.1 0.8 0.1 0.9 0.1 0 0 0.1 0 0.1 0.1 0 0 0.1 0 0.1 0.1 0.1 0.1 0 0.2-0.1 0.3 -0.3 0.2-0.8 0.4-1.3 0.7 -0.5 0.3-1 0.6-1.5 1 -2.7 1.9-4.1 2.8-6.8 4.7 1 0 1.9 0.1 2.7 0.3 1.3 0.4 2.3 1.1 2.9 2 1.2 1.8 1.6 3.7 0.9 5.6C203.8 403.1 203 404.4 201.7 405.3z"/><path class="st13" d="M208.4 427.2c-1 0.4-2.3 0.4-3.8 0 -1.7-0.5-3.1-1.5-4.2-2.9 -0.7-0.9-1.2-1.8-1.5-2.6 -0.4-1-0.5-2-0.5-3.2 -0.5 0-1.1 0-1.7 0.1 -0.7 0.1-1.2 0.2-1.4 0.4 -0.3 0.2-0.4 0.4-0.4 0.7 0 0.2 0.1 0.4 0.3 0.6 0.1 0.1 0.1 0.1 0.2 0.2 0.1 0 0.1 0.1 0.2 0.1l0.1 0.1c0 0.1-0.1 0.2-0.2 0.2 -0.3 0.1-0.6 0.2-0.9 0.1 -0.4-0.1-0.8-0.3-1-0.6 -0.2-0.4-0.3-0.8-0.3-1.2 0.1-0.4 0.3-0.8 0.7-1.1 0.3-0.2 0.8-0.4 1.4-0.5 0.2 0 1.2-0.1 3-0.2 0.2-1.3 0.6-2.5 1.2-3.6 0.6-1.2 1.5-2.2 2.6-3 2.1-1.6 4.3-2.2 6.8-2s4.5 1.3 6 3.2c0.6 0.8 1 1.7 1.3 2.9 0.1 0.6 0.3 1.3 0.4 1.9 0 0.1 0.1 0.3 0.2 0.4 0.1 0.2 0.2 0.4 0.4 0.5 0.1 0.2 0.2 0.2 0.4 0.4 0.1 0.1 0.1 0.2 0 0.3 -0.1 0.1-0.1 0.1-0.2 0 -0.2-0.1-0.5-0.1-0.8-0.2 -0.4-0.1-0.8-0.1-1.2-0.1 -1.8-0.1-4-0.1-6.7 0s-5.3 0.2-7.8 0.4c0 0.9 0.2 1.8 0.4 2.6 0.3 0.9 0.7 1.8 1.3 2.6 0.8 1.1 1.7 1.9 2.6 2.2 0.7 0.3 1.6 0.4 2.9 0.5 0.1 0 0.3 0 0.4 0 0.2 0 0.3 0.1 0.3 0.2 0.1 0.2 0 0.3-0.1 0.4C208.7 427 208.6 427.1 208.4 427.2zM213.9 416.1c0.6-0.5 0.8-1.1 0.6-2 -0.1-0.7-0.5-1.5-1-2.2 -1.1-1.4-2.5-2.1-4.4-2.1 -1.7 0-3.4 0.6-4.9 1.7 -0.9 0.7-1.7 1.6-2.2 2.8 -0.5 1-0.8 2-0.9 3 1.5-0.1 2.6-0.1 3.5-0.2 1.3-0.1 2.5-0.1 3.4-0.2 1.2 0 2.4-0.1 3.5-0.2C212.6 416.7 213.5 416.5 213.9 416.1z"/><path class="st13" d="M231.1 442.3c-1.3 1.2-2.9 2.1-4.8 2.8 -1.9 0.6-3.8 1-5.8 1 0 0 0.1 0.1 0.1 0.2 0.1 0.1 0.1 0.2 0.2 0.3 0.3 0.3 0.5 0.6 0.8 0.8 0.3 0.2 0.6 0.4 1 0.5 0.3 0 0.5 0.1 0.8 0.1 0.1 0 0.2 0.1 0.2 0.1 0 0.1 0 0.2-0.2 0.2 -0.2 0.2-0.4 0.3-0.6 0.4 -0.2 0.1-0.4 0.3-0.4 0.3 -0.2 0.2-0.4 0.4-0.5 0.5s-0.3 0.3-0.4 0.5c-0.1 0.2-0.3 0.2-0.3 0.1 -0.1-0.1-0.1-0.2-0.1-0.3 0-0.3-0.1-0.6-0.2-0.9 -0.1-0.3-0.2-0.5-0.4-0.8 -0.1-0.2-0.4-0.5-0.7-1 -0.2-0.3-0.4-0.5-0.6-0.7 -0.1-0.2-0.4-0.4-0.6-0.6l-0.1-0.1 -0.1-0.1c-0.2-0.2-0.2-0.3 0-0.4 0.1-0.1 0.2-0.1 0.3-0.1 1.2-0.2 2.2-0.4 3.2-0.6 1.3-0.3 2.4-0.7 3.4-1.2 1.2-0.5 2.1-1.1 2.9-1.8 1.6-1.4 2.6-2.8 3.1-4 0.6-1.5 0.4-2.7-0.6-3.8 -0.4-0.5-0.9-0.8-1.4-1s-1.2-0.3-1.8-0.3c-0.3 0.6-0.8 1.2-1.4 1.9 -0.6 0.7-1.3 1.4-2.1 2 -0.9 0.8-2.2 1.6-3.9 2.3 -1.3 0.5-2.6 1-4 1.3 -1.1 0.3-1.9 0.4-2.2 0.3 -0.1 0-0.1 0-0.2-0.1 -0.1-0.2-0.2-0.3-0.1-0.4 0-0.1 0.1-0.1 0.1-0.2 0.2-0.1 0.3-0.1 0.3-0.1 2.5-0.7 5.1-2.3 8.1-4.8 1.4-1.2 2.4-2.6 2.9-3.9 0.6-1.5 0.5-2.7-0.3-3.6 -0.5-0.6-1.3-1-2.3-1.1 -0.8-0.1-1.6 0-2.4 0.3 -3.6 3-5.3 4.5-8.9 7.5 -0.2 0.1-0.2 0.4-0.2 0.8 0 0.3 0 0.6 0 0.9 0 0.2-0.1 0.4-0.2 0.4 -0.1 0.1-0.3 0-0.4-0.2 -0.1-0.1-0.3-0.4-0.6-0.9s-0.5-0.8-0.6-0.9c-0.3-0.4-0.5-0.7-0.7-0.9 -0.2-0.2-0.4-0.5-0.7-0.7 -0.2-0.2-0.2-0.4-0.1-0.5 0.1-0.1 0.2-0.1 0.4-0.1 0.4 0.1 0.7 0.1 0.9 0.2 0.4 0.1 0.6 0 0.8-0.1 3.4-2.9 5.2-4.3 8.6-7.2 0.8-0.7 1.3-1.5 1.4-2.4 0-0.4 0-0.9-0.1-1.7 0-0.1 0-0.2 0.1-0.3 0 0 0.1-0.1 0.2 0 0.2 0.1 0.6 0.1 1.1 0.2 0.3 0 0.5 0 0.6 0s0.3 0 0.4 0c0.1 0 0.2 0 0.2 0.1s0.1 0.1 0 0.2c0 0.6-0.1 1.3-0.3 2.1 -0.3 1.1-0.6 1.8-1 2.3 1-0.3 1.9-0.4 2.7-0.3 1.4 0.1 2.6 0.6 3.4 1.5 0.7 0.8 1.1 1.7 1.1 2.7 0 0.7 0 1.5-0.3 2.5 0.9-0.1 1.7-0.1 2.5 0 1 0.2 1.8 0.6 2.4 1.3 1.4 1.6 1.8 3.3 1.2 5.3C233.3 439.7 232.4 441 231.1 442.3z"/><path class="st13" d="M229.7 457.9c0 0.2 0 0.4-0.1 0.4 -0.1 0.1-0.3 0.1-0.5-0.1s-0.3-0.3-0.4-0.4c-0.5-0.6-0.8-1-1-1.2 -0.3-0.3-0.6-0.6-0.8-0.8 -0.2-0.2-0.5-0.4-0.7-0.7 -0.2-0.2-0.2-0.4-0.1-0.5 0.1-0.1 0.2-0.1 0.4-0.1 0.4 0.1 0.7 0.1 0.9 0.1 0.4 0 0.7 0 0.8-0.2 3.8-3.7 5.7-5.5 9.6-9.2 0.5-0.5 0.7-0.9 0.6-1.2 -0.1-0.3-0.3-0.6-0.3-0.8 -0.1-0.1-0.1-0.3 0-0.3 0.1-0.1 0.2-0.1 0.3 0 0.1 0 0.4 0.1 0.7 0.2 0.5 0.1 0.8 0.2 1.1 0.3 0.7 0.2 1.2 0.3 1.6 0.3 0.4 0.1 0.7 0.1 0.8 0.1s0.2 0 0.2 0.1c0.1 0.1 0.1 0.2-0.1 0.4 -0.2 0.2-0.6 0.5-1.2 0.9 -0.5 0.4-1.1 1-1.8 1.6 -4 3.8-5.9 5.8-9.9 9.6 -0.2 0.1-0.2 0.4-0.2 0.8C229.6 457.3 229.6 457.6 229.7 457.9zM246.6 440.8c-0.3 0.3-0.7 0.5-1.2 0.5s-0.8-0.2-1.2-0.5c-0.3-0.3-0.4-0.7-0.4-1.2s0.2-0.8 0.6-1.2c0.3-0.3 0.7-0.5 1.2-0.5s0.8 0.2 1.1 0.5 0.4 0.7 0.4 1.2C247.1 440.1 246.9 440.5 246.6 440.8z"/><path class="st13" d="M247.9 468.3c-1.5 1.6-3.3 2.3-5.5 2 -2-0.2-3.9-1.2-5.5-2.8 -1.3-1.4-2.2-2.8-2.6-4.2 -0.5-1.7-0.2-3.1 0.9-4.2 0.8-0.8 1.8-1.2 3-1.2s2.1 0.4 2.9 1.2c0.8 0.8 1.4 1.7 1.6 2.6 0.2 1 0 1.8-0.6 2.5 -0.4 0.4-0.9 0.7-1.5 0.7s-1.1-0.2-1.5-0.6 -0.6-0.8-0.6-1.1c0-0.1 0-0.2 0-0.2 0.1-0.1 0.2 0 0.3 0 0.2 0.1 0.4 0.1 0.7 0.1 0.2 0 0.5-0.2 0.8-0.5s0.4-0.6 0.3-1.1 -0.3-0.9-0.6-1.2c-0.6-0.6-1.3-1-2.1-1.1 -0.7-0.1-1.4 0.1-2 0.7 -0.8 0.8-0.9 1.9-0.4 3.3 0.4 1.2 1.2 2.3 2.3 3.5s2.4 1.9 3.8 2.2c1.6 0.4 3 0 4.1-1.2 1.1-1.1 1.5-2.3 1.3-3.6 -0.1-0.8-0.7-2-1.6-3.6 -0.5-0.9-1.1-1.8-1.6-2.7 -0.6-1-0.9-2-0.9-2.7 0-1 0.4-1.9 1.3-2.8 1-1 2.3-1.4 4-1 1.5 0.3 2.9 1 4.1 2.1 1.1 1 1.8 2 2.2 3 0.5 1.2 0.4 2.3-0.4 3.1 -0.5 0.5-1.2 0.8-2 0.7 -0.7-0.1-1.4-0.4-2-1 -0.5-0.5-0.9-1.1-1-1.7 -0.2-0.7 0-1.3 0.5-1.8 0.3-0.3 0.6-0.4 0.9-0.5 0.4 0 0.7 0 0.9 0.1 0.1 0.1 0.2 0.1 0.2 0.1 0.1 0.1 0 0.1 0 0.2 -0.1 0.1-0.2 0.2-0.3 0.3 -0.2 0.2-0.3 0.5-0.3 0.7 0 0.3 0.2 0.7 0.5 1 0.2 0.2 0.5 0.3 0.9 0.3 0.3 0 0.6-0.1 0.8-0.4 0.4-0.4 0.4-1 0-1.8 -0.3-0.5-0.8-1.1-1.5-1.8 -0.8-0.8-1.8-1.4-2.9-1.6 -1.2-0.3-2.1-0.1-2.8 0.6 -0.6 0.6-0.8 1.3-0.7 2.2 0.1 0.5 0.8 1.8 2 3.9 0.8 1.3 1.4 2.3 1.7 3.1 0.5 1.1 0.7 2.1 0.6 3C249.2 466.4 248.8 467.4 247.9 468.3z"/><path class="st13" d="M264.1 466.9c-0.1 0.2-0.3 0.2-0.4 0.1 0 0-0.3-0.3-0.7-0.6s-0.8-0.7-1.1-1.1c-3.7 4.1-5.5 6.1-9.1 10.2 -0.7 0.7-1 1.5-1.1 2.4 0 0.2 0 0.8 0.1 1.6 0 0.1 0 0.2-0.1 0.3 0 0.1-0.1 0.1-0.3 0.1 -0.1 0-0.3 0-0.4-0.1 -0.2 0-0.4 0-0.5 0 -0.5 0-0.8 0.1-1 0.1 -0.1 0-0.3 0-0.3-0.1 -0.1-0.1-0.1-0.1-0.1-0.2 -0.2-0.6-0.2-1.4 0.1-2.3 0.3-1.2 1-2.4 2-3.6 3.6-4 5.4-6 9-10 -0.3-0.3-0.6-0.5-0.9-0.7s-0.6-0.5-0.8-0.7c-0.1-0.1-0.1-0.3 0-0.4 0.2-0.2 0.3-0.3 0.4-0.5s0.3-0.2 0.5 0c0 0 0.2 0.2 0.6 0.6 0.3 0.3 0.7 0.7 1 0.9 0.4-0.5 0.6-0.7 1.1-1.2 0.5-0.6 0.7-1.1 0.6-1.3 -0.1-0.2-0.2-0.3-0.3-0.3 -0.1-0.1-0.1-0.2 0-0.4 0.1-0.1 0.1-0.1 0.2-0.1 0.4 0 0.8 0 1.2-0.1 0.4 0 0.9-0.1 1.4-0.1 0.6-0.1 1.1-0.2 1.4-0.2 0.4-0.1 0.7-0.2 1.1-0.2 0.1 0 0.1 0 0.2 0 0.1 0.1 0 0.2-0.1 0.3 -0.2 0.2-0.5 0.5-0.8 0.7 -0.6 0.6-1.3 1.2-1.9 1.9 -0.9 1-1.4 1.5-2.3 2.6 0.3 0.3 0.6 0.5 0.9 0.8s0.6 0.5 1 0.8c0.1 0.1 0.1 0.2 0 0.4C264.4 466.5 264.3 466.6 264.1 466.9z"/><path class="st13" d="M276.2 478.9c-0.5 0.6-1.1 1-1.7 1.2 -0.6 0.1-1.2 0-1.7-0.4 -0.4-0.3-0.6-0.6-0.8-0.9s-0.2-0.6-0.1-0.9c0-0.1 0-0.1 0.1-0.2 0.1 0 0.1 0 0.2 0 0.2 0.1 0.4 0.3 0.5 0.3 0.2 0.1 0.4 0.1 0.6 0 0.3-0.1 0.6-0.3 0.9-0.6 0.3-0.4 0.4-0.8 0.3-1.2 -0.1-0.5-0.4-1-0.9-1.4 -0.7-0.6-1.6-0.8-2.9-0.7 -1.1 0.1-2.1 0.5-3.2 1 -3.3 3.9-5 5.9-8.4 9.8 -0.2 0.2-0.2 0.5-0.2 0.9 0 0.3 0.1 0.7 0.1 1 0 0.2 0 0.3-0.1 0.4s-0.3 0.1-0.5-0.1 -0.3-0.3-0.4-0.4c-0.6-0.6-0.9-1-1.1-1.1 -0.4-0.3-0.7-0.6-0.9-0.8s-0.5-0.4-0.8-0.6c-0.2-0.2-0.3-0.3-0.2-0.5 0.1-0.1 0.2-0.2 0.5-0.2s0.5 0 0.7 0c0.5 0 0.9-0.1 1-0.3 3.2-3.8 4.8-5.6 8.1-9.4 0.6-0.7 1-1.5 1-2.3 0-0.5-0.2-1.3-0.6-2.3v-0.1c0.1-0.1 0.1-0.1 0.2-0.1 0.5-0.1 0.7-0.1 1.2-0.1 0.2 0 0.5-0.1 0.7-0.1 0.1 0 0.2 0 0.4-0.1 0.1 0 0.2 0 0.3 0 0 0 0.1 0.1 0.1 0.2 0.2 0.9 0.3 1.6 0.3 2.1 0 1.1-0.2 2.1-0.7 2.8 1.1-0.6 2.3-0.9 3.5-0.9 1.4 0 2.6 0.4 3.6 1.2 0.8 0.7 1.3 1.5 1.4 2.3C277 477.5 276.8 478.3 276.2 478.9z"/><path class="st13" d="M292.1 488.8c-0.4 0.1-0.7 0.1-1 0.1 -0.4 0.1-0.7 0.2-0.9 0.4 -4.2 5.6-6.3 8.4-10.5 14 -1.9 2.6-4.2 4.2-6.6 4.7 -2.4 0.6-4.5 0.1-6.3-1.4 -0.8-0.7-1.4-1.3-1.7-1.9 -0.4-0.8-0.3-1.6 0.2-2.2 0.4-0.5 0.9-0.7 1.6-0.6s1.2 0.3 1.5 0.7c0.1 0.1 0.2 0.3 0.1 0.4 0 0-0.1 0.1-0.2 0.1s-0.2 0.1-0.3 0.1c-0.2 0.1-0.3 0.2-0.4 0.3 -0.1 0.1-0.1 0.2-0.2 0.3 -0.2 0.4-0.2 0.7-0.1 1.1s0.4 0.7 0.7 1c1.2 1 2.7 1.2 4.4 0.6 1.5-0.6 3-1.8 4.4-3.6 0.9-1.2 1.4-1.8 2.3-3.1 -0.9 0.5-2 0.8-3.2 0.9 -1.5 0.1-2.8-0.2-3.7-1 -1.8-1.5-2.7-3.4-2.6-5.5 0.1-1.9 0.8-3.7 2.3-5.5 0.8-1 1.7-1.9 2.7-2.6 0.8-0.6 1.7-1.1 2.7-1.6 0.1 0 1-0.4 2.7-1.2 0.1-0.1 0.2-0.3 0.1-0.6 0-0.2-0.2-0.5-0.4-0.9 -0.1-0.2-0.2-0.5-0.3-0.7 -0.1-0.1 0-0.2 0-0.3 0.1-0.1 0.2-0.1 0.4 0 0.2 0.1 0.4 0.2 0.6 0.3 0.4 0.2 0.8 0.3 1.3 0.4s1 0.2 1.4 0.3c0.4 0 0.9 0.1 1.3 0.1 0.1 0 0.2 0 0.2 0.1 0.1 0.1 0.1 0.2 0 0.3 0 0-0.1 0.1-0.2 0.1 -0.1 0.1-0.3 0.1-0.6 0.2 -0.2 0.1-0.4 0.1-0.7 0.2 -1.7 0.6-3.2 1.3-4.5 2.2 -1.5 1-2.9 2.2-4 3.6 -1.4 1.8-2.2 3.5-2.4 5.3 -0.2 1.8 0.3 3.1 1.6 4.1 0.9 0.7 1.9 1.1 3.1 1.1s2.3-0.2 3.3-0.8c3.2-4.2 4.8-6.3 8-10.6 0.2-0.2 0.2-0.5 0.2-0.9 0-0.3-0.1-0.7-0.2-1 0-0.1 0-0.2 0.1-0.3 0.1-0.1 0.2-0.1 0.4 0 0 0 0.3 0.2 0.6 0.5 0.4 0.3 0.7 0.6 1 0.9 0.4 0.3 0.7 0.5 0.9 0.7 0.2 0.1 0.6 0.3 0.8 0.5 0.2 0.1 0.2 0.3 0.1 0.4C292.3 488.7 292.2 488.8 292.1 488.8z"/>
<g id="axe"><path class="st14" d="M505.6 307c0-0.9-0.2-2.1-0.5-3.8 -0.2-1.7-0.2-1.9-0.2-2.6 -0.5-3.8-1.7-4.5-2-6.6 -0.2-2.8 1.5-5.5 3.4-7.1 2.4-2.1 5.6-1.7 7.6-1.4 1.7 0.2 3.2 0.7 3.2 0.7 0.5 0.2 1 0.5 1.2 0.5 2.2 0.9 4.6 2.1 5.6 2.6l6.1 2.1 3.2 1.2 6.6 2.6 8.1 3.8 3.9 2.1c0.7 0.5 2 1.2 3.2 2.4 2 1.9 2.9 4.3 3.4 5.5 1 2.4 2.2 5.9 1.2 9.5 -0.2 0.7-0.7 1.7-2 3.6 -1.5 2.4-2.4 4.3-4.2 6.4 -1.7 2.4-3.4 4.5-5.4 5.9 -4.4 2.8-9.5 2.1-12.5 1.2 -2.4-2.4-5.1-5-7.6-7.3 -2.4-2.8-5.1-5.9-7.6-8.8 -1-1.2-2-2.1-3.2-3.3 -0.7-0.5-1.5-1.2-2.2-1.7 -1.5-0.7-3.2-1.4-4.9-2.8C508.1 309.8 506.9 308.2 505.6 307z"/><path class="st15" d="M528.9 295.8c1.2-0.5 2-0.9 2.4-1.4 1.7-1.4 1.7-2.8 2.9-3.3 0.7-0.2 1.7 0 2 0.7 0.5 0.9-1.7 3.1-3.2 4.3 -1.7 1.2-2.2 0.9-4.6 2.1 -3.9 1.7-5.6 3.6-6.4 2.8 -0.5-0.5-0.2-1.2 0-1.9C522.5 297.5 524.7 297.7 528.9 295.8z"/><path class="st16" d="M526.7 296.8"/><path class="st17" d="M517.4 285.9c0.2-0.2 1.2 0 2 0.5 0.7 0.7 1 1.7 1.2 1.9 1.5 5.7 1.5 10.7 1.5 10.7 0 8.3-0.5 10.2-1 12.1 -0.5 1.9-1.5 4.7-3.2 5 -1.2 0.2-2.7-0.7-2.7-1.4 0-0.5 1-0.2 2-0.7 1.2-0.7 1.7-2.6 2.2-4.3 0.7-3.8 0.7-6.9 0.7-9.2 0-9.7-0.7-11.4-1.5-12.3C518.1 287.5 517.1 286.3 517.4 285.9z"/><path class="st18" d="M520.1 299.4c-0.7-1.2-3.9 1.9-8.8 1.9 -3.9 0-6.4-1.9-7.3-0.5 -0.5 0.7-0.2 1.9 0.5 2.4 0.7 0.7 2 0.5 4.2 0.2 2.7-0.2 2.2 0.2 5.4-0.2 4.4-0.5 5.1-1.2 5.6-1.9C519.6 301.3 520.3 300.1 520.1 299.4z"/><path class="st19" d="M527.9 296.3c0-0.2 2.4-1.2 3.4-3.1 0.2-0.5 0.5-0.7 1-1.4 0.5-0.7 0.7-0.9 1-1.2 0.5-0.2 1 0.2 1.2 0.5 0.2 0.7-1 1.7-2 2.4C530.1 295.6 527.9 296.5 527.9 296.3z"/><path class="st19" d="M522 301.3c0.2-0.7 1-0.7 2.4-1.4 1.5-0.7 2-0.9 2-0.9 0.2 0.2-1 1.4-2.2 2.1 -0.7 0.5-2 1.4-2.2 1.2C522 302.2 522 301.8 522 301.3z"/><path class="st15" d="M504.2 300.1c0-0.5 0-1.2 0.5-1.4 0.7-0.5 2 0.5 3.4 1.4 3.2 1.7 6.6 1.7 8.8 1.4 1.5-0.2 2.7-1.2 3.2-0.5 0.2 0.2 0.2 0.7 0 0.9 -0.2 0.7-1.7 0.9-3.2 0.9 -2.9 0-4.2 0-6.6-0.5C506.6 302 504.4 301.5 504.2 300.1z"/><path class="st20" d="M516.9 285.9c0 0-1-0.5-1.2 0 -0.5 0.5 0.7 1.9 2 4.7 0.5 1.2 1 2.8 1.7 6.2 0.5 1.9 0.7 3.1 1 4.3 0.7 3.1 1 4.7 1 7.1 0 0.2-0.2 2.6-1.2 5.2 -0.7 1.7-1.2 2.1-1.5 2.4 -0.7 0.5-1.2 0.5-1.5 0.9 0 0.5 0.7 1.4 1.5 1.4 1.2 0 2-1.9 2.4-3.1 0.2-0.5 1.2-2.8 1.2-6.6 0-2.1-0.2-3.8-0.2-5.2 -0.2-0.9-0.2-1.7-1.2-5.9 0 0-0.7-3.1-2-7.6C518.6 287.8 518.1 286.3 516.9 285.9z"/><path class="st21" d="M510.5 310.5"/><path class="st22" d="M506.6 306.3c-3.9 0.2-5.1 4.5-11.7 12.6 -5.1 6.2-10.3 10.4-13.4 13.3 -8.8 7.3-12.7 8.8-13.4 13.5 -0.5 3.6 1.2 8.1 3.9 9 1.7 0.7 4.2 0.2 13-8.3 7.1-6.6 12.5-12.8 14.9-15.6 9-10.7 9-12.3 13-14.5 1-0.5 2.4-1.2 2.7-2.6C515.4 310.5 510.8 306 506.6 306.3z"/></g>
<g id="cell"><path class="st23" d="M278.8 183.7c-0.2-0.4-1.3-2.5-0.9-4.6 0.6-2.5 3-2.7 5.5-5.3 0.8-0.8 1.3-1.5 4.5-7.6 2.6-5.1 2.6-5.3 5.3-10.5 3.4-6.7 4-7.2 4.5-9.7 0.6-2.3 0.4-3.4 1.3-6.3 0.9-3.2 1.5-5.1 3.2-6.1 1.5-1 3-0.4 4.7-2.1 0.2-0.2 1.7-1.5 1.3-2.1 -0.6-1-4.7 1.9-8.7 0.8 -4.3-1.1-4-5.7-10.4-11.2 -1.3-1.1-3.2-2.3-7.3-4.8 -4.1-2.5-6.2-3.8-9.4-5.1 -3.8-1.5-7.3-2.5-8.7-2.7 -5.3-1.3-6.2-0.8-8.1-2.3 -3.2-2.7-3.2-8-4-7.8 -0.2 0-0.4 0.8-0.4 1.3 -0.2 4.6 1.3 6.9 0.8 9.3 -0.2 1.3-0.9 1.7-2.6 4.2 -0.9 1.3-4.9 6.5-7 10.5 -1.5 2.7-2.3 6.1-4 12.6 -2.1 8-2.1 8.8-3.6 11.2 -1.7 2.9-3.2 3.8-4 7 -0.8 3 0 4.4-1.3 5.7 -2.1 2.3-6.6 1.1-6.6 1.7 0 0.2 0.9 0.6 3.4 1.3 2.3 0.8 3.6 1.1 4 1.7 1.5 1.3 1.3 2.5 2.8 4.9 1.1 1.7 2.3 2.7 4 4 3 2.3 5.3 2.9 9.4 4.8 9.6 4.4 10.2 5.5 13.7 5.9 2.1 0.2 4.7 0 7.3-0.2 3.8-0.2 5.3-1 7.2 0 1.3 0.8 3 1.5 4 3.2 0.2 0.6 0.6 1.7 1.7 2.1 0.4 0.2 0.8 0.2 0.9 0C281.6 187 279.9 185.8 278.8 183.7z"/><path class="st24" d="M259.6 128.7c0.9-0.2 2.6-0.4 4.3 0.8 1.3 1 1.7 2.3 2.8 5.1 1.5 4.4 2.3 6.7 2.6 8 0.8 3.2 1.5 6.3 1.3 9.9 0 2.5-0.2 4.6-1.5 6.5 -1.1 1.5-2.4 2.5-3.2 2.9 -1.9 1-2.6 0.8-5.5 2.1 -2.6 1.1-2.3 1.5-3.4 1.7 -3.4 0.6-8.1-2.9-10.5-6.7 -2.8-4.2-2.6-8.2-2.6-11.6 0-2.5 0.2-7 3-11.2C251.1 130.1 257.9 128.9 259.6 128.7z"/><path class="st24" d="M267.9 118.6c-0.2 0.2-0.9 1.3-0.9 2.9s0.9 1.9 1.7 4c0.8 2.1 0 2.7 0.8 4 1.1 2.1 3.6 2.5 4.1 2.7 1.9 0.4 3.4-0.2 6.2-1.3 2.8-1.1 4.1-1.7 4.7-2.7 1.3-2.5-0.9-6.1-2.3-7.8 -3.2-3.8-8.1-4.2-10.7-3.6C270.3 116.9 268.8 117.3 267.9 118.6z"/><path class="st25" d="M258.6 120.5c-1.1 0.2-2.6-0.4-2.8-1.1s1.1-1.7 2.1-1.9c0.9-0.2 2.4-0.2 2.8 0.6C261.1 118.8 260 120.2 258.6 120.5z"/><path class="st26" d="M291 127.2c-0.4 0.2-0.6 1.1-0.4 1.7 0.2 1.7 1.7 1.7 2.1 3.4 0.6 1.7-0.6 2.5 0 3.6 0.6 1 1.7 1.3 2.4 1 0.8-0.4 0.6-1.9 0.4-3.2 -0.2-1.3-0.6-3.6-2.3-5.3C292.9 128.2 291.6 126.8 291 127.2z"/><path class="st26" d="M263.3 112.4c-2.1-0.8-3.4 0.6-4.1-0.4 -0.6-0.6-0.4-1.9 0.2-2.5 0.4-0.4 0.8-0.6 3 0 2.6 0.8 5.1 1.3 5.1 2.5 0 0.8-0.8 1.7-1.5 1.7C265.2 114.1 264.9 112.9 263.3 112.4z"/><path class="st26" d="M252.4 117.1c2.1-0.8 4.7-2.5 4.3-3.8 -0.2-0.8-1.5-1.3-2.3-1.3 -1.3-0.2-2.3 0.8-3 1.5 -1.1 1.1-2.8 3-2.3 4C249.6 118.1 252 117.3 252.4 117.1z"/><path class="st26" d="M247.5 127.6c-0.9 1.5-1.3 4-0.8 4.4 0.4 0.4 1.5-0.2 1.9-1 0.6-1-0.2-1.7 0.4-2.5 0.6-0.8 1.5-0.6 1.9-1.3 0.2-0.6-0.2-1.5-0.8-1.7C249.4 125.3 248.1 126.6 247.5 127.6z"/><path class="st26" d="M251.9 172.9c1.1-0.4 1.9 0.8 4 1 2.1 0.2 2.8-1.1 3.8-0.4 0.9 0.6 1.5 2.1 0.9 3 -1.3 2.3-9.6 1-10-1.3C250.2 174.2 250.9 173.2 251.9 172.9z"/><path class="st27" d="M268.6 170.2c-0.4-0.4-2.4-1.7-2.4-3.2 0-0.8 0.6-1.3 6.2-4.4 3-1.7 3.8-1.9 4.9-1.7 1.5 0.2 3.2 1.3 3.8 3 0.8 2.1-0.4 3.8-0.6 4.2C278.2 171.7 272.2 172.7 268.6 170.2z"/><path class="st28" d="M287.1 139.9c-0.2-0.4-1.9-3.6-5.3-4 -2.4-0.4-4.9 1-6 3 -1.1 1.9-0.9 4-0.8 5.7 0.2 1.1 0.8 7.2 4.3 8.2 2.4 0.8 4.9-1.5 5.5-2.1C287.1 148.3 289 143.8 287.1 139.9zM285.8 145.8c0-1.1 0.2-1.7 0.2-2.7 0-1 0-1.7-0.4-2.7 -0.8 1.5 0 4.2-0.2 5.7 0 0.8-0.4 2.7-1.5 2.7 -1.1 0-1.3-1.3-1.3-2.1 0-1.3 0.2-5.1-1.1-6.5 0 0.6 0 1.3 0 1.9 0 1-0.2 1.7 0 2.7 0.2 1.1 0.4 2.3-0.2 3.4 -0.6 1.1-1.7 2.1-2.4 0.6 -0.4-0.8-0.4-2.1-0.4-3 0-0.8 0-1.5 0-2.3 0-0.6-0.2-1-0.4-1.5 0-0.4-0.2-0.8-0.4-0.8s-0.4 1.1-0.4 1.9 -0.2 2.5 0.8 5.9c0.4 1.3 0.6 1.9 0.4 2.1 -0.2 0.2-0.9-0.8-1.5-1.7 -0.6-1-0.4-1.5-0.8-3.8 -0.4-2.5-0.6-3-0.4-3.8 0.4-0.8 1.1-1.7 1.9-1.5 0 0 0.4 0 0.8 0.4 0.8 0.8 0.9 2.3 1.1 3.4 0 0.4-0.2 4.6 0.6 4.2 0.8-0.2 0.2-4.2 0.2-4.9 0-1.3-0.2-2.9 0.2-4 0.2-0.4 0.6-0.4 0.8-0.2 2.6 1 2.1 5.7 2.3 8 0.2 1 0.2 0.8 0.4-0.2 0.2-0.8 0-1.3 0-2.1 0-0.8-0.2-1.5 0-2.3 0-1.3 0.4-3.2 1.1-3.4 0.2 0 0.4 0 0.6 0.6 1.7 2.5 0.6 8 0.2 8C285.9 147.4 285.9 146.2 285.8 145.8z"/><path class="st29" d="M265.4 181.2c-2.3-0.4-4.5-8.8-2.3-10.7 0.6-0.6 1.7-0.6 2.3 0 0.9 0.8 0 2.3 0.8 4.8 0.6 2.3 1.7 2.9 1.3 4.2C267.1 180.5 266.2 181.2 265.4 181.2z"/><path class="st25" d="M280.1 159c0.4-0.6 1.1-1 1.7-0.6 0.6 0.4 0.9 1.1 0.6 1.7 -0.4 0.6-1.1 1-1.7 0.6C280.1 160.5 279.9 159.5 280.1 159z"/><path class="st25" d="M289.7 134.4c0.9 0.2 1.5 1.3 1.3 2.3 -0.2 1-1.1 1.7-2.1 1.3 -0.9-0.2-1.5-1.3-1.3-2.3C287.8 134.8 288.8 134.2 289.7 134.4z"/><path class="st25" d="M238.1 145.8c0.9 0.6 1.5 1.3 1.1 2.1 -0.4 0.8-1.3 0.8-2.3 0.4 -0.9-0.6-1.5-1.3-1.1-2.1C236.2 145.5 237.4 145.3 238.1 145.8z"/><polygon class="st25" points="243 137.7 243 138.6 242.1 139.4 241.1 138.8 241.1 137.7 241.9 137.1 "/><path class="st30" d="M288.6 152.3c-0.6-0.4-0.2-1.9 0.6-2.9 0.8-1 1.3-0.8 1.9-1.7 0.8-1.1 0.4-2.1 0.9-2.5s1.3-0.2 1.7 0.2c0.9 1-0.4 3.6-0.6 3.8 -0.2 0.4-0.9 1.9-2.8 2.7C289.7 152.3 289 152.7 288.6 152.3z"/><path class="st26" d="M243.6 164.5c-0.4-0.6-0.2-0.4-2.4-3.8 -1.1-1.9-1.5-2.3-1.9-2.3 -0.8 0-1.5 1.1-1.5 2.1 0 1 0.8 1.1 2.1 2.7 0.8 1.1 0.6 1.1 2.1 3.4 1.5 2.7 2.1 2.9 2.4 2.9 0.9 0.2 2.3-0.6 2.4-1.5C246.6 167.2 245.3 166.8 243.6 164.5z"/></g>
<radialGradient id="SVGID_5_" cx="540" cy="351" r="0" gradientTransform="matrix(1 0 0 -1 0 632)" gradientUnits="userSpaceOnUse"><stop offset="0.03" style="stop-color:#000000;stop-opacity:0.82"/><stop offset="0.08" style="stop-color:#172B34;stop-opacity:0.82"/><stop offset="0.13" style="stop-color:#264757;stop-opacity:0.82"/><stop offset="0.25" style="stop-color:#008E94;stop-opacity:0.82"/><stop offset="0.37" style="stop-color:#00596A;stop-opacity:0.82"/><stop offset="0.46" style="stop-color:#71ACB1;stop-opacity:0.82"/><stop offset="0.57" style="stop-color:#7CB2B7;stop-opacity:0.82"/><stop offset="0.58" style="stop-color:#76AEB4;stop-opacity:0.82"/><stop offset="0.68" style="stop-color:#0F737D;stop-opacity:0.82"/><stop offset="0.8" style="stop-color:#006A74;stop-opacity:0.8"/><stop offset="0.97" style="stop-color:#006A74;stop-opacity:0.9"/></radialGradient><linearGradient id="SVGID_6_" gradientUnits="userSpaceOnUse" x1="641.59" y1="332.25" x2="667.15" y2="332.25" gradientTransform="matrix(1 0 0 -1 0 632)"><stop offset="0" stop-color="#000000"/><stop offset="0.77" stop-color="#005559"/></linearGradient><path class="st32" d="M658.5 267.5c3.4 5.8 7.9 15.5 8.5 28 0.3 7.1 0.8 17.6-6 27 -3.6 5-8 7.9-10.9 9.5 -2.4-3.3-6.1-9.3-7.7-17.7 -2-10.2 0.2-18.3 1.3-22.3C647.2 279.6 654.4 271.5 658.5 267.5z"/><linearGradient id="SVGID_7_" gradientUnits="userSpaceOnUse" x1="641.61" y1="332.45" x2="669.15" y2="332.45" gradientTransform="matrix(1 0 0 -1 0 632)"><stop offset="0" stop-color="#000000"/><stop offset="0.77" stop-color="#005559"/></linearGradient><path class="st33" d="M653.7 271c2.8-2.8 5.1-4.4 7.5-4 8.9 1.7 10.7 33.9 3.3 52 -1.5 3.6-4.9 11.7-11.4 13 -1.2 0.2-2.3 0.2-3.1 0.1 -2.4-3.3-6.1-9.3-7.7-17.7 -1.9-9.6 0-17.2 1.3-22.3C647.2 278.5 652 272.7 653.7 271z"/><linearGradient id="SVGID_8_" gradientUnits="userSpaceOnUse" x1="474.57" y1="15.33" x2="506.97" y2="15.33" gradientTransform="matrix(0.9426 0.3339 0.3339 -0.9426 67.4476 359.1595)"><stop offset="0" stop-color="#000000"/><stop offset="0.77" stop-color="#005559"/></linearGradient><path class="st34" d="M539.3 486.8c2.1-0.6 6.5-1.9 9.8 0.3 4.6 3.1 4 11.1 3.5 16 -0.5 5.2-1.8 18.2-12 24.5 -5.4 3.3-11.2 3.5-11.8 3.5 -3.1 0.1-7.5-0.9-9.2-1.4 -1.6-2.2-4.1-6.2-3.6-13.8 0.5-6.2 4.3-11.5 10.7-19.1C533.5 488.6 537.8 487.2 539.3 486.8z"/><linearGradient id="SVGID_9_" gradientUnits="userSpaceOnUse" x1="667.7" y1="327.3" x2="667.7" y2="327.3" gradientTransform="matrix(1 0 0 -1 0 632)"><stop offset="0" stop-color="#000000"/><stop offset="0.77" stop-color="#005559"/></linearGradient>
<g id="rocket">
<path class="st36" d="M509.2 449.7c-2.4-0.2-4.7 0.7-6.3 2.3 -1.7 1.8-1 3.3-3 4.7 -0.9 0.7-2.6 1.6-3.8 0.9 -1.9-1.1-1.6-5.3-1.4-6.8 0.5-5.4 3.3-9.5 4.9-11.7 1.9-2.8 4.3-6.3 8.9-8.8 4-2.1 7.7-2.5 9.2-2.6 3.8-0.2 6.8 0.5 8.5 1.2 -4.2 7.5-8.2 15.3-12.4 22.8C513.4 451.3 511.7 449.9 509.2 449.7z"/><path class="st36" d="M534.3 472.7c0.3 2.3-0.5 4.7-1.9 6.3 -1.7 1.8-3.3 1.2-4.7 3.2 -0.7 1.1-1.4 2.8-0.7 3.9 1 1.9 5.4 1.2 7.1 0.9 5.6-0.9 9.4-3.7 11.7-5.4 2.8-2.1 6.1-4.6 8.4-9.1 1.9-4 2.1-7.5 2.1-9.1 0-3.7-1-6.7-1.7-8.2 -7.5 4.6-15 8.9-22.4 13.5C532.4 468.6 533.9 470.2 534.3 472.7z"/><path class="st37" d="M573.3 411.8c-2.8-0.4-6.8-0.9-11.3-0.5 -7.7 0.5-13.2 2.3-15.3 3.2 -7.8 2.8-12.9 6.8-14.1 7.9 -6.1 4.9-9 10.2-12.7 16.5 -1 1.8-4.2 7.2-6.8 14.7 -0.7 2.3-1.4 4.2-1.7 5.6 1.6 1.6 3.3 3.3 4.7 4.9 1 0.9 1.9 1.9 3 2.8 1.7 1.8 3.5 3.3 5.2 5.1 8.9-3.9 15.8-7.7 20.9-10.9 10.6-6.3 13.9-10 15.1-11.2 1.2-1.4 5.6-6.3 8.9-14 1-2.3 2.8-6.7 3.7-12.5C573.4 418.8 573.4 414.8 573.3 411.8zM556.6 435.1c-5 0-9-4-9-8.9 0-4.9 4.1-8.9 9-8.9 5 0 9 4 9 8.9C565.6 431.1 561.6 435.1 556.6 435.1z"/><path class="st36" d="M542.6 439c-1-1.2-9.9 5.1-16.5 11.4 -10.3 9.8-18.3 22.3-16.9 23.5 1.6 1.4 13.6-9.5 21.7-18.6C535.9 450 543.9 440.2 542.6 439z"/></g>
<path class="st13" d="M469.1 296.2c-0.2 0-0.2 0-0.3-0.2 0-0.1-0.1-0.3-0.1-0.8 -0.1-0.5-0.2-1-0.3-1.4 -3.8 0.9-5.8 1.3-9.6 2.2 -0.7 0.2-1.2 0.5-1.6 1 -0.1 0.1-0.3 0.5-0.6 1.1 0 0.1-0.1 0.2-0.2 0.2 0 0-0.1 0-0.2-0.1s-0.1-0.2-0.2-0.2c-0.1-0.1-0.2-0.2-0.3-0.3 -0.3-0.2-0.5-0.4-0.6-0.4 -0.1-0.1-0.2-0.1-0.2-0.2s0-0.1 0-0.2c0.1-0.5 0.4-1 0.9-1.4 0.7-0.7 1.5-1.1 2.6-1.4 3.8-0.9 5.7-1.4 9.4-2.3 -0.1-0.4-0.2-0.7-0.3-1 -0.1-0.3-0.2-0.7-0.3-1 0-0.2 0-0.3 0.2-0.3s0.3-0.1 0.5-0.1 0.3 0 0.3 0.2c0 0.1 0.1 0.3 0.2 0.8 0.1 0.4 0.2 0.9 0.3 1.2 0.4-0.1 0.7-0.2 1.1-0.3 0.6-0.1 0.9-0.4 0.8-0.7 0-0.2 0-0.3-0.1-0.4 0-0.2 0-0.3 0.1-0.3s0.1 0 0.2 0.1c0.2 0.2 0.5 0.4 0.8 0.6s0.6 0.5 0.9 0.7c0.4 0.3 0.7 0.5 1 0.7s0.5 0.3 0.8 0.5c0.1 0 0.1 0.1 0.1 0.1 0 0.1 0 0.2-0.2 0.2s-0.5 0-0.8 0.1c-0.6 0.1-1.3 0.2-1.9 0.3 -1 0.2-1.4 0.3-2.4 0.5 0.1 0.4 0.2 0.7 0.3 1.1 0.1 0.4 0.2 0.8 0.3 1.1 0 0.2 0 0.3-0.2 0.3C469.4 296.1 469.3 296.2 469.1 296.2z"/><path class="st13" d="M461.3 315.8c-0.9-0.2-1.7-0.8-2.5-1.8 -1-1.1-1.5-2.4-1.7-3.8 -0.1-0.9-0.1-1.7 0-2.5s0.4-1.7 0.8-2.5c-0.4-0.2-0.8-0.4-1.2-0.6 -0.5-0.2-0.9-0.3-1.2-0.3 -0.3 0-0.5 0.2-0.5 0.3 -0.1 0.1-0.1 0.3 0 0.5 0 0.1 0 0.1 0.1 0.2 0 0.1 0.1 0.1 0.1 0.2v0.1c0 0.1-0.1 0.1-0.2 0.1 -0.2 0-0.5-0.1-0.7-0.3 -0.3-0.2-0.5-0.5-0.5-0.8 -0.1-0.3 0-0.6 0.2-0.9s0.5-0.4 0.9-0.5c0.3-0.1 0.7 0 1.2 0.1 0.1 0 0.9 0.4 2.3 1 0.6-0.9 1.3-1.6 2.1-2.2 0.9-0.6 1.9-1.1 3-1.3 2.1-0.4 4 0.1 5.7 1.4s2.8 3.2 3.1 5.6c0.1 0.9 0 1.9-0.3 3 -0.2 0.6-0.3 1.1-0.5 1.7 0 0.1 0 0.3-0.1 0.5 0 0.2 0 0.4 0 0.6s0 0.3 0.1 0.5c0 0.1 0 0.2-0.1 0.2s-0.1 0-0.2-0.1c-0.1-0.2-0.3-0.4-0.4-0.6 -0.2-0.3-0.5-0.5-0.7-0.7 -1.2-1-2.7-2.2-4.6-3.4 -1.9-1.2-3.8-2.3-5.7-3.3 -0.3 0.7-0.6 1.4-0.7 2 -0.2 0.8-0.2 1.6-0.1 2.4 0.1 1.1 0.4 2 0.9 2.8 0.3 0.5 0.9 1.1 1.7 1.7 0.1 0.1 0.2 0.1 0.3 0.2 0.1 0.1 0.2 0.2 0.1 0.3 0 0.1-0.1 0.2-0.3 0.2C461.6 315.8 461.5 315.8 461.3 315.8zM469.7 310.5c0.6-0.1 1-0.5 1.2-1.2s0.3-1.4 0.2-2.3c-0.2-1.6-1-2.9-2.3-3.8 -1.3-0.8-2.7-1.1-4.2-0.8 -0.9 0.2-1.8 0.6-2.6 1.2 -0.7 0.5-1.3 1.1-1.7 1.8 1.1 0.6 1.9 1 2.6 1.4 1 0.5 1.8 1 2.4 1.4 0.8 0.5 1.7 1.1 2.5 1.6C468.6 310.3 469.3 310.6 469.7 310.5z"/><path class="st13" d="M461.8 331.4c-0.1 0-0.3-0.1-0.5-0.2 -0.8-0.4-1.5-1-2.1-1.9 -0.9-1.2-1.3-2.6-1.2-4.1 0-2.3 0.6-4.1 1.9-5.5s3.1-2.2 5.4-2.4c2.1-0.1 3.9 0.6 5.5 2.3 1.6 1.7 2.4 3.8 2.3 6.2 0 1.4-0.4 2.6-1.1 3.6 -0.7 1.1-1.7 1.6-2.7 1.6 -0.9-0.1-1.6-0.4-2.2-1.1s-0.9-1.5-0.8-2.4c0-0.8 0.2-1.5 0.7-2 0.5-0.6 1-0.9 1.7-0.9 0.4 0 0.9 0.2 1.2 0.5 0.3 0.3 0.5 0.6 0.6 0.9 0 0.1 0 0.2 0 0.3s-0.1 0.1-0.2 0 -0.3-0.1-0.3-0.1c-0.2-0.1-0.4-0.1-0.5-0.1s-0.2 0-0.3 0c-0.3 0.1-0.5 0.2-0.7 0.5s-0.3 0.6-0.3 1c0 0.5 0.1 1 0.5 1.3 0.3 0.3 0.8 0.5 1.3 0.5 0.8 0 1.4-0.4 1.8-1.2 0.4-0.7 0.6-1.6 0.7-2.7 0-2-0.6-3.5-1.9-4.7s-2.9-1.7-4.8-1.6c-1.7 0.1-3.1 0.7-4.2 1.9 -1.2 1.2-1.8 2.6-1.8 4.4 0 1.1 0.1 2 0.4 2.7s0.8 1.5 1.6 2.3c0 0 0.1 0.1 0.2 0.2s0.2 0.2 0.2 0.2c0 0.1 0 0.1 0 0.2C462 331.4 461.9 331.5 461.8 331.4z"/><path class="st13" d="M465.2 348.6c-1.4-0.3-2.8-0.8-4-1.6 -1.2-0.8-2.3-1.8-3.2-3.1 0 0 0 0.1 0 0.2s0 0.2-0.1 0.3c-0.1 0.3-0.1 0.6-0.1 0.9s0 0.6 0.2 0.9c0.1 0.3 0.2 0.5 0.3 0.6 0 0.1 0 0.1 0 0.2s-0.1 0.1-0.2 0.1c-0.2 0-0.4-0.1-0.6-0.2s-0.3-0.1-0.4-0.1c-0.2 0-0.4-0.1-0.6-0.1s-0.4 0-0.4 0c-0.1 0-0.2-0.1-0.2-0.2 0 0 0-0.1 0.1-0.2 0.2-0.2 0.4-0.4 0.5-0.6s0.2-0.4 0.3-0.6c0.1-0.2 0.1-0.5 0.2-1 0.1-0.3 0.1-0.5 0.1-0.7s0-0.4 0.1-0.7c0-0.1 0-0.2 0-0.3 0-0.1 0-0.2 0.1-0.2s0.1 0 0.2 0 0.1 0.1 0.2 0.2c0.7 0.7 1.3 1.2 1.8 1.6 0.8 0.6 1.5 1.1 2.2 1.5 0.8 0.5 1.7 0.8 2.7 0.9 1.5 0.3 2.8 0.1 3.9-0.5s1.8-1.7 2-3.1c0.1-0.9 0-1.8-0.4-2.7 -0.3-0.7-0.8-1.3-1.5-1.9 -3.6-0.4-5.5-0.6-9.1-1 -0.2 0-0.3 0.1-0.6 0.3 -0.2 0.2-0.3 0.3-0.5 0.5 -0.1 0.1-0.2 0.2-0.3 0.2 -0.1 0-0.2-0.1-0.1-0.4 0-0.2 0-0.3 0.1-0.5 0.1-0.6 0.2-1.1 0.2-1.3 0-0.4 0.1-0.7 0.1-0.9 0-0.2 0-0.5 0-0.8 0-0.2 0.1-0.4 0.2-0.4s0.1 0.1 0.3 0.2c0.2 0.3 0.3 0.5 0.4 0.6 0.2 0.3 0.3 0.4 0.5 0.4 6.3 0.6 9.5 0.9 15.8 1.5 0.3 0 0.5 0 0.7 0s0.3-0.2 0.2-0.4c0-0.1-0.1-0.4-0.2-0.7 -0.1-0.3-0.2-0.5-0.3-0.6 0-0.2 0-0.3 0.2-0.3 0 0 0.1 0 0.2 0.1s0.3 0.4 0.8 1.1c0.3 0.5 0.6 0.9 0.8 1.2 0.3 0.4 0.7 0.9 1.1 1.5 0.3 0.4 0.5 0.6 0.5 0.7v0.1 0.1c0 0.1-0.1 0.2-0.3 0.1 -0.3-0.1-0.7-0.2-1.2-0.3 -0.5-0.1-1-0.2-1.5-0.2 -2.7-0.3-4.1-0.5-6.8-0.8 0.7 0.6 1.2 1.2 1.5 1.9 0.6 1.1 0.8 2.2 0.6 3.3 -0.3 2.1-1.2 3.6-2.8 4.4C467.7 348.7 466.5 348.9 465.2 348.6z"/><path class="st13" d="M460.3 366.8c-1.4-0.5-2.6-1.2-3.7-2.2s-2-2.1-2.8-3.5c0 0 0 0.1-0.1 0.2 0 0.1-0.1 0.2-0.1 0.3 -0.1 0.3-0.2 0.6-0.2 0.9 -0.1 0.3-0.1 0.6 0 0.9s0.2 0.5 0.2 0.6v0.1 0.1c0 0.1-0.1 0.1-0.3 0 -0.1-0.1-0.3-0.1-0.5-0.2s-0.3-0.1-0.4-0.2c-0.1 0-0.3-0.1-0.4-0.1 -0.2 0-0.3-0.1-0.5-0.1s-0.3-0.1-0.2-0.2l0.1-0.1c0.3-0.2 0.4-0.4 0.5-0.5 0.2-0.2 0.3-0.4 0.4-0.6s0.2-0.5 0.3-0.9c0.1-0.3 0.2-0.5 0.2-0.7s0.1-0.4 0.1-0.7c0-0.3 0.2-0.4 0.4-0.4 0.1 0 0.1 0.1 0.2 0.1 0.6 0.8 1.2 1.4 1.6 1.9 0.7 0.7 1.3 1.3 1.9 1.8 0.8 0.6 1.6 1 2.5 1.3 1.5 0.5 2.8 0.5 4 0.1 1.2-0.5 2.1-1.4 2.5-2.8 0.3-0.9 0.3-1.8 0-2.7 -0.2-0.8-0.6-1.5-1.2-2.1 -3.5-0.9-5.3-1.4-8.8-2.3 -0.2 0-0.4 0-0.6 0.2s-0.4 0.3-0.6 0.5c-0.1 0.1-0.2 0.1-0.3 0.1 -0.1 0-0.1-0.1-0.1-0.3 0-0.1 0.1-0.3 0.2-0.7 0.1-0.4 0.2-0.8 0.3-1.1 0.1-0.4 0.2-0.7 0.2-0.9 0-0.2 0.1-0.5 0.1-0.8 0-0.2 0.1-0.4 0.2-0.3 0.1 0 0.1 0.1 0.2 0.2s0.2 0.3 0.3 0.5c0.2 0.4 0.3 0.6 0.5 0.7 3.4 0.8 5.1 1.2 8.6 2.1 0.8 0.2 1.6 0.1 2.2-0.4 0.3-0.2 0.6-0.6 1.1-1.1 0.1-0.1 0.1-0.1 0.2-0.1s0.1 0.1 0.2 0.1c0.1 0.2 0.1 0.3 0.2 0.4 0 0.1 0.1 0.3 0.2 0.5s0.2 0.3 0.2 0.5c0.1 0.1 0.1 0.2 0.2 0.3 0 0.1 0 0.1 0 0.2s0 0.1-0.1 0.1c-0.4 0.3-0.9 0.7-1.5 1 -0.8 0.4-1.5 0.6-2 0.6 0.6 0.7 1 1.4 1.3 2.3 0.5 1.3 0.5 2.4 0.2 3.5 -0.6 2-1.7 3.4-3.4 4C462.8 367.2 461.5 367.2 460.3 366.8z"/><path class="st13" d="M449.9 385c-1.8-1-3-2.6-3.5-4.7s-0.4-4.1 0.5-6c0.9-2 2.3-3.5 4.3-4.4s3.9-1 5.9-0.3c1.9 0.7 3.3 2.2 4 4.3 0.7 2.2 0.6 4.4-0.5 6.7 -1 2.3-2.7 3.8-4.8 4.7C453.8 386.2 451.8 386.1 449.9 385zM450 383.5c1.4 0.8 3.2 0.7 5.3-0.2 2.2-0.9 3.7-2.4 4.6-4.4 0.7-1.6 0.8-3.1 0.3-4.5 -0.5-1.5-1.4-2.4-2.6-2.9 -1.8-0.7-3.7-0.5-5.8 0.4 -2 0.9-3.4 2.2-4.2 4 -0.7 1.4-0.8 2.8-0.5 4.1C447.6 381.5 448.5 382.7 450 383.5z"/>
<g id="nanotube"><ellipse transform="matrix(0.7071 -0.7071 0.7071 0.7071 -140.0565 310.3427)" class="st38" cx="304.6" cy="324.2" rx="61.8" ry="44.8"/><path id="path61509_1_" class="st39" d="M325.8 302.9l-3.4-10.6 -11.3 1.9"/><path id="path60872_1_" class="st40" d="M282.8 317.3c0.6-1.1 1.9-1.6 2.9-1.1 0.9 0.4 1.1 1.9 0.5 3l0 0c-0.6 1.1-1.9 1.6-2.9 1.1C282.3 319.8 282.2 318.5 282.8 317.3L282.8 317.3z"/><path id="path60890_1_" class="st41" d="M296.7 311.5c0.3-0.7 1.3-1.2 1.8-0.8 0.5 0.4 0.8 1.3 0.3 1.9l0 0c-0.3 0.7-1.3 1.2-1.8 0.8C296.6 313.1 296.4 312.2 296.7 311.5L296.7 311.5z"/><path id="path60892_1_" class="st41" d="M289.5 307.1c0.3-0.7 1.3-1.2 1.8-0.8s0.8 1.3 0.3 1.9l0 0c-0.3 0.7-1.3 1.2-1.8 0.8C289.1 308.7 288.9 307.9 289.5 307.1L289.5 307.1z"/><path id="path60894_1_" class="st41" d="M295.4 324.6c0.3-0.7 1.3-1.2 1.8-0.8 0.5 0.4 0.8 1.3 0.3 1.9l0 0c-0.3 0.7-1.3 1.2-1.8 0.8C295 326.2 294.8 325.4 295.4 324.6L295.4 324.6z"/><path id="path60900_1_" class="st41" d="M280.2 315.8c0.3-0.7 1.3-1.2 1.8-0.8 0.5 0.4 0.8 1.3 0.3 1.9l0 0c-0.3 0.7-1.3 1.2-1.8 0.8C279.8 317.4 279.8 316.4 280.2 315.8L280.2 315.8z"/><path id="path60922_1_" class="st41" d="M306.7 305c0.3-0.7 1.3-1.2 1.8-0.8 0.5 0.4 0.8 1.3 0.3 1.9l0 0c-0.3 0.7-1.3 1.2-1.8 0.8C306.3 306.6 306.2 305.9 306.7 305L306.7 305z"/><path id="path60924_1_" class="st41" d="M310 293.9c0.3-0.7 1.3-1.2 1.8-0.8s0.8 1.3 0.3 1.9l0 0c-0.3 0.7-1.3 1.2-1.8 0.8C309.7 295.6 309.5 294.8 310 293.9L310 293.9z"/><path id="path60926_1_" class="st41" d="M301.9 289.5c0.3-0.7 1.1-1.4 1.6-1.2s1.1 0.9 0.8 2l0 0c-0.3 0.7-1.1 1.4-1.6 1.2C302 291.2 301.6 290.2 301.9 289.5L301.9 289.5z"/><path id="path60928_1_" class="st41" d="M332.6 306.9c0.3-0.7 1.1-1.4 1.6-1.2 0.7 0.3 1.1 0.9 0.8 2l0 0c-0.3 0.7-1.1 1.4-1.6 1.2C332.7 308.6 332.3 307.7 332.6 306.9L332.6 306.9z"/><path id="path60938_1_" class="st39" d="M297.9 312.2l10.5-6.8 2.8-11.2 -8-4.8 -9.7 7.4 -2.8 11.2L297.9 312.2z"/><path id="path60934_1_" class="st42" d="M304.6 301l12.6-7.2 -2.5-9.5 -12.1 2.5 -5.1 9.3"/><path id="path60940_1_" class="st39" d="M286.1 332.6l10.8-7.1 1.1-13.2 -7.3-4.2 -8.7 8.2 -2.6 11.7"/><path id="path60930_1_" class="st42" d="M284.4 318.3l2.8-13.1 10.2-8.6 7.4 4.5 -0.9 14.1 -11.7 7.6"/><path id="path61128_1_" class="st42" d="M326.3 299.3l-9.2-5.8"/><path id="path61130_1_" class="st42" d="M314.1 320.8l-9.4-5.6"/><path id="path61132_1_" class="st39" d="M317 311l-9.4-5.6"/><path id="path61134_1_" class="st39" d="M305 330.3l-9.4-5.6"/><path id="path61188_1_" class="st41" d="M285.9 330.9c0.3-0.7 1.3-1.2 1.8-0.8 0.5 0.4 0.8 1.3 0.3 1.9l0 0c-0.3 0.7-1.3 1.2-1.8 0.8C285.7 332.6 285.6 331.6 285.9 330.9L285.9 330.9z"/><path id="path61190_1_" class="st41" d="M278.8 326.5c0.3-0.7 1.3-1.2 1.8-0.8s0.8 1.3 0.3 1.9l0 0c-0.3 0.7-1.3 1.2-1.8 0.8C278.5 328.3 278.3 327.4 278.8 326.5L278.8 326.5z"/><path id="path61192_1_" class="st41" d="M284.1 343.9c0.3-0.7 1.3-1.2 1.8-0.8s0.8 1.3 0.3 1.9l0 0c-0.3 0.7-1.3 1.2-1.8 0.8C283.7 345.5 283.8 344.6 284.1 343.9L284.1 343.9z"/><path id="path61222_1_" class="st42" d="M301.4 343.1l-10.5-6.1"/><path id="path61226_1_" class="st39" d="M294.8 349.8l-9.4-5.6"/><path id="path61228_1_" class="st39" d="M275.6 352.2l9.6-7.2 1.8-13 -7.2-4.4 -10.3 9.5 -1.8 10.7"/><path id="path61234_1_" class="st42" d="M272.1 340l2.1-13 10.1-9 7.5 4.7 -0.5 14.4 -11.7 7.6"/><path id="path61439_1_" class="st41" d="M317.8 323.9c0.3-0.7 0.4-1.6-0.3-1.9 -0.5-0.4-1.5 0-1.8 0.8l0 0c-0.3 0.7-0.4 1.6 0.3 1.9C316.4 325 317.2 324.7 317.8 323.9L317.8 323.9z"/><path id="path61441_1_" class="st41" d="M325.2 328.5c0.3-0.7 0.4-1.6-0.3-1.9 -0.5-0.4-1.5 0-1.8 0.8l0 0c-0.3 0.7-0.4 1.6 0.3 1.9C323.8 329.5 324.7 329 325.2 328.5L325.2 328.5z"/><path id="path61445_1_" class="st41" d="M307.1 331.1c0.3-0.7 0.4-1.6-0.3-1.9 -0.5-0.4-1.5 0-1.8 0.8l0 0c-0.3 0.7-0.4 1.6 0.3 1.9C305.7 332.1 306.5 331.9 307.1 331.1L307.1 331.1z"/><path id="path61447_1_" class="st41" d="M322.3 339.9c0.3-0.7 0.4-1.6-0.3-1.9 -0.5-0.4-1.5 0-1.8 0.8l0 0c-0.3 0.7-0.4 1.6 0.3 1.9C321.2 340.9 322 340.6 322.3 339.9L322.3 339.9z"/><path id="path61461_1_" class="st41" d="M318.6 312c0.3-0.7 0.4-1.6-0.3-1.9 -0.7-0.3-1.5 0-1.8 0.8l0 0c-0.3 0.7-0.4 1.6 0.3 1.9S318.1 312.5 318.6 312L318.6 312z"/><path id="path61463_1_" class="st41" d="M323.9 292.9c0.3-0.7-0.1-1.7-0.8-2s-1.5 0.4-1.8 1.1l0 0c-0.3 0.7 0.1 1.7 0.8 2C323 294.1 323.6 293.6 323.9 292.9L323.9 292.9z"/><path id="path61469_1_" class="st39" d="M316.6 323.2l1-12.4 8.5-8 8 4.8 -1.7 12.1 -8.5 7.7"/><path id="path61471_1_" class="st42" d="M326.2 313.5l0.6-14 8.5-3.2 3.8 11.5 -5.8 9"/><path id="path61473_1_" class="st39" d="M304.7 342.9l1.1-12.9 10.9-7.3 7.2 4.4 -3.4 12.3 -8.5 8"/><path id="path61475_1_" class="st42" d="M321 338.8l9.5-8.9 2.7-12.9 -7.5-4.3 -10.8 8.4 -1.8 13.3"/><path id="path61485_1_" class="st41" d="M306.3 343.6c0.3-0.7 0.4-1.6-0.3-1.9 -0.5-0.4-1.5 0-1.8 0.8l0 0c-0.3 0.7-0.4 1.6 0.3 1.9C304.8 344.7 305.8 344.2 306.3 343.6L306.3 343.6z"/><path id="path61487_1_" class="st41" d="M313.6 347.8c0.3-0.7 0.4-1.6-0.3-1.9 -0.5-0.4-1.5 0-1.8 0.8l0 0c-0.3 0.7-0.4 1.6 0.3 1.9C312.5 348.8 313 348.5 313.6 347.8L313.6 347.8z"/><path id="path61489_1_" class="st41" d="M296 350.8c0.3-0.7 0.4-1.6-0.3-1.9 -0.7-0.3-1.5 0-1.8 0.8l0 0c-0.3 0.7-0.4 1.6 0.3 1.9S295.5 351.4 296 350.8L296 350.8z"/><path id="path61497_1_" class="st39" d="M293.5 361.7l1.4-12.1 10.4-7.1 7.2 4.4 -3.7 14.3 -7 5.1"/><path id="path61499_1_" class="st42" d="M308.4 361.2l8.6-8.9 3.7-12.7 -7.5-4.3 -11.7 8 -1.3 13.4"/><path id="path60872_2_" class="st40" d="M290.4 321.8c0.6-1.1 1.9-1.6 2.9-1.1 0.9 0.4 1.1 1.9 0.5 3l0 0c-0.6 1.1-1.9 1.6-2.9 1.1C289.9 324.3 289.8 322.9 290.4 321.8L290.4 321.8z"/><path id="path60872_3_" class="st40" d="M289.5 336.3c0.6-1.1 1.9-1.6 2.9-1.1 0.9 0.4 1.1 1.9 0.5 3l0 0c-0.6 1.1-1.9 1.6-2.9 1.1S288.9 337.4 289.5 336.3L289.5 336.3z"/><path id="path60872_4_" class="st40" d="M302.3 314.1c0.6-1.1 1.9-1.6 2.9-1.1 0.9 0.4 1.1 1.9 0.5 3l0 0c-0.6 1.1-1.9 1.6-2.9 1.1C301.8 316.6 301.7 315.3 302.3 314.1L302.3 314.1z"/><path id="path60872_5_" class="st40" d="M313 320.2c0.6-1.1 1.9-1.6 2.9-1.1 0.9 0.4 1.1 1.9 0.5 3l0 0c-0.6 1.1-1.9 1.6-2.9 1.1C312.5 322.6 312.4 321.3 313 320.2L313 320.2z"/><path id="path60872_6_" class="st40" d="M300.1 342.5c0.6-1.1 1.9-1.6 2.9-1.1 0.9 0.4 1.1 1.9 0.5 3l0 0c-0.6 1.1-1.9 1.6-2.9 1.1C299.5 344.9 299.5 343.6 300.1 342.5L300.1 342.5z"/><path id="path60872_7_" class="st40" d="M311.6 334.3c0.6-1.1 1.9-1.6 2.9-1.1 0.9 0.4 1.1 1.9 0.5 3l0 0c-0.6 1.1-1.9 1.6-2.9 1.1C311.1 336.7 311 335.4 311.6 334.3L311.6 334.3z"/><path id="path60872_8_" class="st40" d="M315.1 351.6c0.6-1.1 1.9-1.6 2.9-1.1 0.9 0.4 1.1 1.9 0.5 3l0 0c-0.6 1.1-1.9 1.6-2.9 1.1C314.6 354.1 314.5 352.7 315.1 351.6L315.1 351.6z"/><path id="path60872_9_" class="st40" d="M329 328.7c0.6-1.1 1.9-1.6 2.9-1.1 0.9 0.4 1.1 1.9 0.5 3l0 0c-0.6 1.1-1.9 1.6-2.9 1.1C328.5 331.2 328.4 329.8 329 328.7L329 328.7z"/><path id="path60872_10_" class="st40" d="M337.6 307.3c0.6-1.1 1.9-1.6 2.9-1.1 0.9 0.4 1.1 1.9 0.5 3l0 0c-0.6 1.1-1.9 1.6-2.9 1.1C337.1 309.8 337 308.4 337.6 307.3L337.6 307.3z"/><path id="path60872_11_" class="st40" d="M324.2 312.3c0.6-1.1 1.9-1.6 2.9-1.1 0.9 0.4 1.1 1.9 0.5 3l0 0c-0.6 1.1-1.9 1.6-2.9 1.1C323.7 314.8 323.6 313.4 324.2 312.3L324.2 312.3z"/><path id="path60872_12_" class="st40" d="M302.9 300.4c0.6-1.1 1.9-1.6 2.9-1.1 0.9 0.4 1.1 1.9 0.5 3l0 0c-0.6 1.1-1.9 1.6-2.9 1.1C302.4 302.8 302.3 301.5 302.9 300.4L302.9 300.4z"/><path id="path60872_13_" class="st40" d="M285.5 303.8c0.6-1.1 1.9-1.6 2.9-1.1 0.9 0.4 1.1 1.9 0.5 3l0 0c-0.6 1.1-1.9 1.6-2.9 1.1C285 306.3 284.9 304.9 285.5 303.8L285.5 303.8z"/><path id="path60872_14_" class="st40" d="M272.3 325.4c0.6-1.1 1.9-1.6 2.9-1.1 0.9 0.4 1.1 1.9 0.5 3l0 0c-0.6 1.1-1.9 1.6-2.9 1.1C271.8 327.9 271.7 326.5 272.3 325.4L272.3 325.4z"/><path id="path60872_15_" class="st40" d="M300.9 286.3c0.6-1.1 1.9-1.6 2.9-1.1 0.9 0.4 1.1 1.9 0.5 3l0 0c-0.6 1.1-1.9 1.6-2.9 1.1C300.4 288.8 300.3 287.4 300.9 286.3L300.9 286.3z"/><path id="path60872_16_" class="st40" d="M325.1 298.7c0.6-1.1 1.9-1.6 2.9-1.1 0.9 0.4 1.1 1.9 0.5 3l0 0c-0.6 1.1-1.9 1.6-2.9 1.1C324.6 301.2 324.5 299.9 325.1 298.7L325.1 298.7z"/><path id="path60872_17_" class="st40" d="M315.4 292.4c0.6-1.1 1.9-1.6 2.9-1.1 0.9 0.4 1.1 1.9 0.5 3l0 0c-0.6 1.1-1.9 1.6-2.9 1.1C314.9 294.9 314.8 293.5 315.4 292.4L315.4 292.4z"/><path id="path60872_18_" class="st40" d="M312.7 283.5c0.6-1.1 1.9-1.6 2.9-1.1 0.9 0.4 1.1 1.9 0.5 3l0 0c-0.6 1.1-1.9 1.6-2.9 1.1C312.2 286 312.1 284.6 312.7 283.5L312.7 283.5z"/><path id="path60872_19_" class="st40" d="M333.1 295.4c0.6-1.1 1.9-1.6 2.9-1.1 0.9 0.4 1.1 1.9 0.5 3l0 0c-0.6 1.1-1.9 1.6-2.9 1.1C332.6 297.9 332.5 296.6 333.1 295.4L333.1 295.4z"/></g>
<g id="dna">
<path id="path5397" class="st43" d="M224 215c-0.1-0.8-0.7-1.5-1.9-1.5l-34.5-0.6c-1 0.1-1.7 0.5-1.6 1.6l0 0c0.1 0.8 0.7 1.5 1.9 1.5l34.5 0.6C223.3 216.5 224.1 215.9 224 215L224 215z"/><path id="path5399" class="st43" d="M232 223.6c0.1-0.8-0.7-1.5-1.7-1.6l-33.2-1.4c-0.9-0.1-1.7 0.5-1.6 1.4l0 0c-0.1 0.8 0.7 1.5 1.7 1.6l33.2 1.4C231.3 225.1 232.1 224.4 232 223.6L232 223.6z"/><path id="path5401" class="st43" d="M224.9 231.9c0.1-0.8-0.2-1.6-0.7-1.7l-21.9-4.3c-0.7-0.1-1.2 0.4-1.4 1.2l0 0c-0.1 0.8 0.2 1.6 0.7 1.7l21.9 4.3C224.2 233.2 224.8 232.7 224.9 231.9L224.9 231.9z"/><path id="path5403" class="st43" d="M232.3 246.5c0.1-0.8-1.7-1.6-1.9-1.9 -0.4-0.3-0.9-0.3-1.1-0.4l-31.2-0.5c-1 0.1-1.5 0.6-1.6 1.4 0.1 0.8 0.7 1.5 1.7 1.4l31.2 0.5C231 247.5 232.2 247.1 232.3 246.5z"/><path id="path5407" class="st44" d="M229.4 215.2C229.4 215.2 229.4 215.4 229.4 215.2c3.4 3.1 3.1 5 3.6 9.7 0.5 4.7-3.4 6.9-5.2 8 -1.8 1.1-23.3 12-29.9 15.3 -6.6 3.2-11 9-11.4 11.9 -0.4 2.7 1.9 6.5 2.5 7.3l0.2 0.2c2.5 2.5 5.9 5.4 10.4 8.5 3 2 5.9 3.4 8.3 4.8 0.4 0.3 0.6 0.5 0.8 0.9 0.8 1.3 1.5 2.8 2.3 4.1 -1.4 0-3.5-0.3-5.8-1 -2.5-0.8-4.7-1.9-7.9-4.1 -5.2-3.7-9-6.7-11.1-11.8 -0.7-1.5-2.6-6.4-1.1-11.9 1.5-5.2 5.2-8.4 7.4-10.1 3.5-2.9 31.9-15.8 35.2-18.9 1.6-1.6 3.4-2.3 3.4-3.7 0.2-3.2-5.8-6-8.7-7.4 -17.5-8.7-32.4-20.8-31.8-21.5 0.3-0.4 7.2 2.6 8.1 3C206.5 201.8 217.3 207.1 229.4 215.2z"/><path id="path5409" class="st45" d="M224.3 188.4c-0.6-0.5-3.9 5.4-12.4 10.2 -10.3 5.9-25.1 8.2-28.6 12.7 -1.7 2.1-1.5 4.2-1.5 4.2 0 0.2 0 1.4 1 2.7 1.1 2 3.2 2.8 4.1 3.2 0 0 4 2 35.5 18.4 4.6 2.5 8.8 4.8 8.7 7.4 -0.2 1.4-2 2.1-3.4 3.7 -3.3 3.1-31.7 16-35.2 18.9 -2.2 1.9-5.9 4.9-7.4 10.1 -1.5 5.8 0.6 10.7 1.1 11.9 4 8.7 13.7 13.3 14.3 12.6 0.3-0.4-1.4-2-3.1-6.4 -0.3-1-0.7-1.9-0.8-2.5 -2-1.1-10-6.2-9.8-12.4 0-5 4.6-8.7 11.4-11.9 6.6-3.2 28.1-14.1 29.9-15.3 1.8-1.1 5.7-3.4 5.2-8 -0.5-4.7-0.2-6.6-3.6-9.5 0 0-7.6-6.3-13.8-9.8 -6.2-3.3-29.7-14.4-29.7-14.4 7.6-1.5 18.4-4.5 27.4-12.2C220.8 196.2 224.9 188.6 224.3 188.4z"/><path id="path5411" class="st43" d="M222.9 257.8c-0.1-0.8-0.7-1.5-1.7-1.4l-33.8-0.7c-1 0.1-1.7 0.5-1.6 1.6l0 0c0.1 0.8 0.7 1.5 1.7 1.4l33.8 0.7C222.2 259.3 223 258.6 222.9 257.8L222.9 257.8z"/><path id="path5413" class="st43" d="M230.8 252.1c-0.1-0.8-1-1.5-1.9-1.5L191 250c-1 0.1-2 0.7-1.9 1.5l0 0c0.1 0.8 1 1.5 1.9 1.5l37.9 0.6C229.9 253.6 230.7 252.9 230.8 252.1L230.8 252.1z"/><path id="path5415" class="st43" d="M210.4 263.7c-0.1-0.8-0.7-1.5-1.2-1.4l-22.2 1.2c-0.7 0.1-1 0.6-0.9 1.5l0 0c0.1 0.8 0.7 1.5 1.2 1.4l22.2-1.2C210.2 265.3 210.5 264.6 210.4 263.7L210.4 263.7z"/><ellipse transform="matrix(5.894227e-02 -0.9983 0.9983 5.894227e-02 -50.6788 439.0586)" class="st3" cx="207.5" cy="246.4" rx="61.8" ry="44.8"/>
</g>
<g id="boson">
<path class="st3" d="M335.7 585.3c2.7 1.9 6.8 4.8 12.6 8.4 3.9 2.4 7.2 4.3 9.5 5.5 1.1-1.1 2.9-2.8 5.5-4.2 4.9-2.5 9.5-2.3 11.7-2 4.3 0.5 7.4 2.3 9 3.4 3.4-1.5 6.2-3.2 8.4-4.8 4.8-3.3 7.9-6.5 10.3-9.1 2.4-2.5 4.2-4.4 6.1-7.4 1.6-2.5 3.4-5.3 4.4-9.3 0.4-1.7 1.9-7.8-0.6-12.9 -2.3-4.8-6.8-6.2-13.7-9.5 -5.2-2.6-12.3-6.5-20.3-12.8 -6.5-3.6-12.1-4.5-15.3-4.7 -3.5-0.2-6.1 0.2-11.3 1 -5.6 0.9-9.3 1.4-12.8 3.5 -1.3 0.8-4.7 3-6.1 3.9 -0.8 0.5-1.5 1.1-2.3 1.6 -0.3 0.2-0.5 0.4-0.8 0.5 -0.1 0.1-0.2 0.2-0.3 0.3 -1.5 1.2-12.7 8.5-16.8 16 -1.3 2.4-3.2 7.2-1.6 15.3C320.9 574.8 328.8 580.4 335.7 585.3z"/><path d="M353.3 573L353.3 573c0.1 0.2 0.1 0.2 0.1 0.3 0 0.2-0.1 0.3-0.4 0.3 -0.1 0-0.6 0-1.3 0 -0.7 0-1.2-0.2-1.5-0.2 -0.4 0-1.2 0-2.1 0.2 -0.3 0-0.6 0-0.7 0 -0.3 0-0.3-0.2-0.3-0.3v-0.2c0 0 0.3-0.3 0.9-0.8 0.4-0.3 0.7-0.6 0.7-0.9v-19.7c-0.7 0.3-1.8 0.6-2.8 0.8 -1 0.2-2.1 0.3-3.1 0.3 -1.2 0-2.5-0.2-4-0.5 -1.5-0.3-2.8-0.8-4-1.4v20.3c0 0.3 0.1 0.6 0.6 0.9 0.6 0.5 0.9 0.8 0.9 0.8s0 0 0 0.2v0.2c0 0.2-0.1 0.3-0.4 0.3 -0.1 0-0.6 0-1.3 0 -0.7 0-1.2-0.2-1.5-0.2 -0.4 0-1.2 0-2.1 0.2 -0.3 0-0.6 0-0.7 0 -0.3 0-0.4-0.2-0.4-0.3v-0.2c0 0 0.3-0.3 0.9-0.8 0.4-0.3 0.7-0.6 0.7-0.9v-20.6c-0.1 0-0.4 0-0.6 0 -0.9 0-1.8 0.3-2.7 0.8 -0.9 0.6-1.3 1.2-1.3 2.2 0 0.5 0.1 0.8 0.3 1.1 0.1 0.2 0.3 0.3 0.6 0.5 0.3 0.2 0.6 0.2 1 0.2 0.1 0 0.3 0 0.4 0 0.1 0 0.3 0 0.3 0.2 0 0.2 0 0.2-0.1 0.3 -0.3 0.2-0.4 0.5-0.7 0.6 -0.4 0.2-0.9 0.3-1.3 0.3 -0.7 0-1.3-0.2-1.8-0.6 -0.6-0.5-0.9-1.2-0.9-2.2 0-1.1 0.3-1.8 0.7-2.6 0.4-0.6 1-1.1 1.9-1.5 0.4-0.3 1-0.5 1.6-0.6 0.7-0.2 1.8-0.3 2.7-0.3v-4.6c0-0.3-0.1-0.6-0.6-0.9 -0.3-0.3-0.6-0.5-0.9-0.8 0 0 0-0.2 0-0.3 0-0.2 0.1-0.2 0.3-0.2s0.6 0 1.3 0c0.7 0 1.2 0.2 1.5 0.2 0.6 0 1.2 0 1.8 0 0.6 0 0.9 0 1 0 0.3 0 0.4 0.2 0.4 0.3 0 0.2 0 0.2-0.1 0.3 0 0-0.3 0.3-0.9 0.8 -0.4 0.3-0.7 0.6-0.7 0.9v4.8c1.2 0.6 2.5 1.1 4.1 1.5s3.1 0.6 4.4 0.6c1 0 1.8 0 2.4-0.2 0.9-0.2 1.9-0.5 3.1-1.1v-5.8c0-0.3-0.1-0.6-0.6-0.9 -0.3-0.3-0.6-0.5-0.9-0.8 0 0 0-0.2 0-0.3 0-0.2 0.1-0.2 0.3-0.2s0.6 0 1.3 0c0.7 0 1.2 0.2 1.5 0.2 0.6 0 1.2 0 1.8 0 0.6 0 0.9 0 1 0 0.3 0 0.4 0.2 0.4 0.3 0 0.2 0 0.2-0.1 0.3 0 0-0.3 0.3-0.9 0.8 -0.4 0.3-0.7 0.6-0.7 0.9v26.4c0 0.3 0.1 0.6 0.6 0.9C352.8 572.7 353.3 572.9 353.3 573z"/><path d="M363.6 572.6c0 1.5-0.6 2.8-1.6 4 -1 1.1-2.2 1.7-3.7 1.7 -0.4 0-0.9 0-1-0.2s-0.1-0.2-0.1-0.3c0-0.2 0.1-0.2 0.3-0.2 0.3 0 0.4 0 0.7-0.2 0.3-0.2 0.6-0.2 1-0.3 0.6-0.3 1-0.6 1.3-1.1 0.4-0.5 0.6-1.1 0.6-1.8 0-0.3-0.1-0.8-0.3-1.1 -0.1-0.3-0.4-0.5-0.7-0.5 -0.3 0-0.6 0-0.7 0.2 -0.1 0.2-0.3 0.3-0.3 0.5 -0.1 0.2-0.1 0.3-0.3 0.3s-0.1 0-0.3-0.2c-0.4-0.5-0.6-0.9-0.6-1.7 0-0.6 0.3-1.2 0.7-1.5 0.6-0.3 1.2-0.6 1.9-0.6 1 0 1.9 0.3 2.4 1.1C363.4 571.2 363.6 571.8 363.6 572.6z"/><path d="M399.5 553.7c0.1 0.2 0.1 0.2 0.1 0.3 0 0.2 0 0.2-0.1 0.3 -1 0.5-1.6 0.8-1.6 0.9 -0.7 0.6-1.2 1.5-1.2 2.8v18.9c0 0.8 0.1 1.5 0.4 2 0.1 0.3 0.4 0.6 0.9 0.9 0.1 0.2 0.1 0.3 0.1 0.3 0 0.2-0.1 0.2-0.3 0.3 -0.4 0.2-0.7 0.3-1.2 0.6 -0.4 0.2-0.7 0.5-1.2 0.6 -0.4 0.3-0.9 0.6-1.3 1.1 -0.6 0.5-0.7 0.6-0.7 0.6 -0.1 0.2-0.3 0.2-0.3 0.2 -0.1 0-0.3-0.2-0.3-0.3V583c0.3-0.8 0.6-1.5 0.7-2.3 0.1-0.8 0.3-1.5 0.3-2.5v-7.8c-0.7 1.2-1.5 2-2.5 2.6 -1.2 0.8-2.5 1.1-4 1.1 -2.5 0-4.4-1.1-6-3.4 -1.6-2.3-2.5-4.9-2.5-8.1s0.9-5.8 2.8-8c1.9-2.2 4.1-3.2 6.6-3.2 1.3 0 2.5 0.3 3.5 1.1 0.9 0.6 1.6 1.4 2.4 2.5 0.1-0.6 0.6-1.2 1.3-2 0.6-0.6 1.2-1.1 1.6-1.2 0.1 0 0.1 0 0.1 0 0.1 0 0.1 0 0.3 0.2 0.1 0.2 0.3 0.3 0.3 0.5 0.1 0.2 0.3 0.5 0.4 0.5 0.1 0.2 0.3 0.5 0.6 0.6C399.2 553.4 399.3 553.5 399.5 553.7zM393.8 565.5V558c0-1.4-0.6-2.6-1.6-3.7 -1-1.1-2.4-1.5-4-1.5 -2.1 0-3.7 0.9-4.9 2.6 -1.2 1.7-1.6 3.5-1.6 5.8 0 2.8 0.6 5.1 1.8 7.1 1.3 2.2 3.1 3.2 5.5 3.2 1.6 0 3-0.6 3.8-1.8C393.4 568.6 393.8 567.2 393.8 565.5z"/></g>
<g id="atom">
<ellipse transform="matrix(0.7071 -0.7071 0.7071 0.7071 -239.191 368.9997)" class="st3" cx="325.8" cy="473.2" rx="44.8" ry="61.8"/><path class="st46" d="M312.4 469.5c2.9-5.2 5.5-9 7.2-11.6 0 0 3.3-4.5 8.7-10 1.8-1.8 3.5-3.5 6.5-4.6 1.4-0.6 3.6-1.3 5.6-0.2 2 1.1 2.6 3.9 2.8 5.4 0.6 3.1-0.2 5.9-1.6 10.4 -0.3 1.5-1.7 5.4-4.6 11.7 -3.1 6.5-6.1 11.4-7.4 13.4 -3.6 5.6-6.2 8.9-10 13.4 -3.2 4-5.5 6.2-9.1 7 -0.9 0.3-3.7 1-5.6-0.7 -1.8-1.5-1.8-4.3-1.9-6.5 -0.1-4.1 1.4-7.2 2-9.3C311.6 471.5 310.9 472.8 312.4 469.5z"/><path class="st46" d="M321.9 462.4c6.5 0 11.4 0.6 14.9 0.9 0 0 6.2 0.7 13.9 2.7 2.5 0.6 5.2 1.5 7.5 3.3 1.3 1 3 2.5 2.9 4.6 -0.2 2.3-2.6 3.8-4 4.9 -2.9 2-5.8 2.5-10.8 3.6 -1.8 0.4-5.8 1.1-13.6 1.5 -8 0.2-14.1 0.1-16.6-0.2 -7.3-0.5-11.8-1.3-17.7-2.4 -5.4-1.1-8.7-1.8-11.1-4.5 -0.7-0.7-2.6-2.8-2.1-5.2 0.6-2.4 3.3-3.6 5.4-4.7 4.1-1.8 7.8-2.3 10-2.4C319.6 462.8 318.1 462.5 321.9 462.4z"/><path class="st46" d="M330 466.1c3.8 5.4 6.2 10 7.9 13.1 0 0 3 5.5 5.9 13.4 1 2.5 1.9 5.1 1.9 8.4 -0.1 1.6-0.1 4-1.7 5.4 -1.7 1.2-4.4 0.3-5.9-0.2 -3-1.1-5.2-3.4-8.9-7.1 -1.2-1.2-4.2-4.2-8.9-10.4 -4.8-6.5-8.1-11.8-9.5-14 -3.7-6.4-5.9-10.6-8.4-16.4 -2.4-5.1-3.6-8.6-3-12.1 0.1-1.1 0.7-4 2.7-4.8 2.1-1 4.6 0.6 6.6 1.7 3.7 2.3 6.1 5 7.6 7C328.3 464 327.6 462.8 330 466.1z"/><ellipse transform="matrix(0.4841 -0.875 0.875 0.4841 -247.6043 527.1405)" class="st47" cx="323.2" cy="473.6" rx="5" ry="4.6"/><path class="st48" d="M322.8 469.7c1.3-0.4 2.5-0.3 2.8 0.2 0.2 0.6-0.8 1.5-2.3 1.8 -1.3 0.4-2.5 0.3-2.8-0.2S321.5 470.1 322.8 469.7z"/><ellipse transform="matrix(0.4841 -0.875 0.875 0.4841 -228.0678 502.7203)" class="st47" cx="312.3" cy="444.8" rx="2.2" ry="2.1"/><path class="st47" d="M334 501.7c0.9-0.3 2.1 0.4 2.4 1.3 0.3 1-0.4 2.2-1.4 2.5 -0.9 0.3-2.1-0.4-2.4-1.3C332.4 503.2 333.1 502 334 501.7z"/><path class="st48" d="M334.3 502.1c0.6-0.2 1 0 1.3 0.5 0.1 0.3-0.3 0.9-0.9 1.1 -0.6 0.2-1 0-1.3-0.5C333.4 502.7 333.7 502.3 334.3 502.1z"/><path class="st48" d="M311.8 442.9c0.6-0.2 1 0 1.3 0.5 0.1 0.3-0.3 0.9-0.9 1.1 -0.6 0.2-1 0-1.3-0.5C310.6 443.6 311.2 443.1 311.8 442.9z"/><path class="st47" d="M354.2 465.2c0.9-0.3 2.1 0.4 2.4 1.3 0.3 1-0.4 2.2-1.4 2.5s-2.1-0.4-2.4-1.3C352.6 466.8 353.1 465.7 354.2 465.2z"/><path class="st48" d="M354.5 465.6c0.6-0.2 1 0 1.3 0.5 0.1 0.3-0.3 0.9-0.9 1.1 -0.6 0.2-1 0-1.3-0.5C353.5 466.5 353.8 465.8 354.5 465.6z"/><ellipse transform="matrix(0.4841 -0.875 0.875 0.4841 -269.421 503.8528)" class="st47" cx="292.6" cy="480.4" rx="2.2" ry="2.1"/><path class="st48" d="M292.1 478.5c0.6-0.2 1 0 1.3 0.5 0.3 0.4-0.3 0.9-0.9 1.1 -0.6 0.2-1 0-1.3-0.5C291 479 291.5 478.7 292.1 478.5z"/></g></svg>