<?xml version="1.0" encoding="utf-8"?>

<svg version="1.1" xmlns="http://www.w3.org/2000/svg" xmlns:xlink="http://www.w3.org/1999/xlink" x="0px" y="0px"
	 viewBox="0 0 112.5 50" style="enable-background:new 0 0 112.5 50;" xml:space="preserve">
<style type="text/css">
	.stS{fill:none;stroke:#444D59;stroke-width:1.5;stroke-miterlimit:10;}
	.stD{fill:none;stroke:#455443;stroke-width:1.5;stroke-miterlimit:10;}
	.stM{fill:none;stroke:#455443;stroke-miterlimit:10;}
</style>
<path class="stS" d="M16.9,17.4c2-0.3,4.3-0.6,6.9-0.6c5,0,8.7,1.6,10.9,4.3c1.9,2.4,2.8,5.1,2.8,8.6c0,3-0.7,6.7-3.2,9.7
	c-2.2,2.7-6.1,4.4-11.4,4.4c-2,0-3.9,0-6-0.2C16.9,43.6,16.9,17.4,16.9,17.4z"/>
<path class="stD" d="M6.3,35.5c0.1,1.2,0.4,3.3,2,5.2c3.5,4.3,9.8,3.3,10.8,3.2c4.5-0.7,10.2-3.9,10.6-8.6c0.2-2.1-0.7-3.7-1-4.2
	c-1.3-2.2-4-3.7-8.9-5c-6.7-1.7-9.8-3.8-11.2-6.4c-0.9-1.7-0.9-3.4-0.8-4c0-3.9,2.7-6.4,3.5-7.1C12,8,15.4,4.4,20.5,5.1
	c4.9,0.7,7.4,4.8,7.7,5.4"/>
<path class="stM" d="M55.4,32.2c-0.7-0.5-1.2-1-2.2-1.8c-2.1,1.6-3.8,2.1-5.8,2.1c-2.7,0-5.1-1.7-5.1-4.2c0-2.3,1.8-3.6,3.7-4.5
	v-0.1c-1.1-1.2-1.6-2.3-1.6-3.3c0-1.8,1.5-3.6,4.1-3.6c2,0,3.4,1.3,3.4,3c0,1.6-1.1,2.9-4.5,4.2v0.1c2.2,2.1,4.5,4.2,5.7,5.3
	c0.9-1,1.6-2.4,2-5h1c-0.4,2.6-1.2,4.4-2.3,5.4c1.1,0.9,2,1.7,2.9,2.4H55.4z"/>
<path class="stS" d="M82.4,43.1V20.2c0-1.8-0.1-2.7-0.3-2.7c-0.1,0-0.2,0.4-0.4,1.1l-7.9,20.7h-0.5l-7.9-20.6
	c-0.1-0.7-0.3-1.1-0.4-1.1c-0.1,0-0.3,0.7-0.3,2.2l-0.1,23.3"/>
<path class="stS" d="M87.2,28.2"/>
<path class="stS" d="M105,43.1V20.2c0-1.8-0.1-2.7-0.3-2.7c-0.1,0-0.2,0.4-0.4,1.1l-7.9,20.7h-0.5L88,18.7c-0.1-0.7-0.3-1.1-0.4-1.1
	c-0.1,0-0.3,0.7-0.3,2.2l-0.1,23.3"/>
<path class="stS" d="M109.8,27.6"/>
</svg>
