<?xml version="1.0" encoding="utf-8"?>
<!-- Generator: Adobe Illustrator 20.1.0, SVG Export Plug-In . SVG Version: 6.00 Build 0)  -->
<svg version="1.1" id="Слой_1" xmlns="http://www.w3.org/2000/svg" xmlns:xlink="http://www.w3.org/1999/xlink" x="0px" y="0px"
	 viewBox="0 0 100 45.3" style="enable-background:new 0 0 100 45.3;" xml:space="preserve">
<style type="text/css">
	.st0{fill:none;stroke:#444D59;stroke-width:1.5;stroke-miterlimit:10;}
	.st1{fill:none;stroke:#455443;stroke-width:1.5;stroke-miterlimit:10;}
	.st2{fill:none;stroke:#455443;stroke-miterlimit:10;}
</style>
<path class="st0" d="M14.4,18.7c2-0.3,4.3-0.6,6.9-0.6c5,0,8.7,1.5,10.9,4.1c1.9,2.3,2.8,4.9,2.8,8.2c0,2.9-0.7,6.4-3.2,9.2
	c-2.2,2.6-6.1,4.2-11.4,4.2c-2,0-3.9,0-6-0.2V18.7z"/>
<path class="st1" d="M14.7,33.1c-2.4-0.8-5.1-0.2-6.8,1.6c-1.6,1.7-2.2,4.2-1.4,6.2c1.5,3.6,7.7,3.7,10.8,3.2
	c4.5-0.7,10.2-3.9,10.6-8.6c0.2-2.1-0.7-3.7-1-4.2c-1.3-2.2-4-3.7-8.9-5c-6.7-1.7-9.8-3.8-11.2-6.4c-0.9-1.7-0.9-3.4-0.8-4
	C6,12,8.7,9.5,9.5,8.8c2.9-2.5,6.5-3.5,9.3-3.5c3.9-0.1,7.1,1.9,9.3,2.9"/>
<path class="st2" d="M52.9,32.2c-0.7-0.5-1.2-1-2.2-1.8c-2.1,1.6-3.8,2.1-5.8,2.1c-2.7,0-5.1-1.7-5.1-4.2c0-2.3,1.8-3.6,3.7-4.5
	v-0.1c-1.1-1.2-1.6-2.3-1.6-3.3c0-1.8,1.5-3.6,4.1-3.6c2,0,3.4,1.3,3.4,3c0,1.6-1.1,2.9-4.5,4.2l0,0.1c2.2,2.1,4.5,4.2,5.7,5.3
	c0.9-1,1.6-2.4,2-5h1c-0.4,2.6-1.2,4.4-2.3,5.4c1.1,0.9,2,1.7,2.9,2.4H52.9z"/>
<path class="st1" d="M76.6,18c0,8.2,0,16.5,0,24.7"/>
<path class="st1" d="M59.8,18.1c2.9,6.6,5.9,13.2,8.2,19.9c1.6-6.9,5.3-13.4,8.1-19.8"/>
<path class="st1" d="M59.2,42.7c0-8.2,0-16.5,0-24.7"/>
<path class="st1" d="M98.4,18c0,8.2,0,16.5,0,24.7"/>
<path class="st1" d="M81.6,18.1c2.9,6.6,5.9,13.2,8.2,19.9c1.6-6.9,5.3-13.4,8.1-19.8"/>
<path class="st1" d="M81,42.7c0-8.2,0-16.5,0-24.7"/>
</svg>
