<?xml version="1.0" encoding="utf-8"?>
<svg version="1.1" id="Слой_1" xmlns="http://www.w3.org/2000/svg" xmlns:xlink="http://www.w3.org/1999/xlink" x="0px" y="0px"
	 viewBox="0 0 159.3 98.5" style="enable-background:new 0 0 159.3 98.5;" xml:space="preserve">
<style type="text/css">
	.youtube_st0{fill:#4A5563;}
	.youtube_st1{fill:#FFFFFF;}
	.youtube_st2{fill:#333333;}
</style>
<g>
	<path class="youtube_st0" d="M79.1,4.5c-36.1,0-65.4,20-65.4,44.7C13.7,74,43,94,79.1,94s65.4-20,65.4-44.7C144.4,24.5,115.2,4.5,79.1,4.5z
		"/>
</g>
<g>
	<path class="youtube_st1" d="M79.6,46.1c0,0,25.9,0,28.9,2.1c3.1,2.1,3.1,12.5,3.1,12.5c0,0,0,10.4-3.1,12.5c-3.1,2.1-28.9,2.1-28.9,2.1
		s-25.9,0-28.9-2.1c-3.1-2.1-3.1-12.5-3.1-12.5c0-0.1,0-10.4,3.1-12.5C53.7,46.2,79.6,46.1,79.6,46.1z"/>
	<path class="youtube_st2" d="M106.1,63.3v-3.3c0-1.2-0.5-2.2-1.4-2.8c-0.9-0.7-2.2-1-3.9-1c-1.7,0-3,0.4-4.1,1.1c-1.1,0.7-1.6,1.6-1.6,2.8
		v5.8c0,1.3,0.5,2.2,1.4,3c1,0.7,2.3,1.1,4,1.1c1.9,0,3.3-0.3,4.2-1c0.9-0.7,1.4-1.7,1.4-3v-0.7h-3.8v0.6c0,0.8-0.1,1.3-0.4,1.5
		c-0.2,0.2-0.7,0.3-1.3,0.3c-0.6,0-1-0.1-1.3-0.4c-0.2-0.3-0.4-0.7-0.4-1.4v-2.4H106.1z M98.9,61.2v-1.3c0-0.5,0.1-0.9,0.4-1.2
		c0.3-0.2,0.7-0.4,1.3-0.4c0.6,0,1,0.1,1.2,0.4c0.3,0.2,0.4,0.6,0.4,1.2v1.3H98.9z"/>
	<path class="youtube_st2" d="M92.2,57.1c-0.6-0.6-1.5-0.8-2.7-0.8c-0.6,0-1.2,0.1-1.7,0.3c-0.6,0.2-1.1,0.5-1.6,0.9v-5.7h-3.8v17.6h3.8v-1
		c0.5,0.4,1,0.7,1.6,0.9c0.6,0.2,1.2,0.3,2,0.3c1.1,0,2-0.2,2.5-0.7c0.6-0.5,0.9-1.2,0.9-2.1v-7.2C93.1,58.5,92.8,57.7,92.2,57.1z
		 M89.3,66.4c0,0.4-0.1,0.7-0.3,0.9c-0.2,0.2-0.5,0.3-1,0.3c-0.3,0-0.6,0-0.9-0.1c-0.3-0.1-0.6-0.3-0.9-0.5v-8.1
		c0.3-0.2,0.5-0.3,0.8-0.4c0.3-0.1,0.5-0.1,0.8-0.1c0.5,0,0.9,0.1,1.2,0.3c0.3,0.2,0.4,0.6,0.4,1C89.3,59.7,89.3,66.4,89.3,66.4z"/>
	<path class="youtube_st2" d="M75.8,69.4V68c-0.7,0.5-1.4,0.9-2.2,1.2c-0.7,0.3-1.5,0.4-2.2,0.4c-0.9,0-1.5-0.2-2-0.6
		c-0.4-0.4-0.7-1-0.7-1.7V56.4h3.7v10c0,0.3,0.1,0.5,0.2,0.7c0.2,0.1,0.4,0.2,0.8,0.2c0.3,0,0.6-0.1,1-0.3c0.4-0.2,0.8-0.4,1.2-0.7
		v-9.9h3.7v13H75.8L75.8,69.4z"/>
	<polygon class="youtube_st2" points="62.9,54.4 62.9,69.4 58.7,69.4 58.7,54.4 54.3,54.4 54.3,51.8 67.3,51.8 67.3,54.4 	"/>
	<path class="youtube_st1" d="M100.6,40.7h-4.2v-1.6c-0.8,0.6-1.6,1-2.4,1.3c-0.8,0.3-1.7,0.5-2.4,0.5c-1,0-1.7-0.2-2.2-0.6
		c-0.5-0.4-0.7-1.1-0.7-1.9v-12h4.2v11c0,0.3,0.1,0.6,0.3,0.7c0.2,0.2,0.5,0.2,0.9,0.2c0.3,0,0.7-0.1,1.2-0.3
		c0.5-0.2,0.9-0.5,1.3-0.8V26.3h4.2L100.6,40.7L100.6,40.7z"/>
	<path class="youtube_st1" d="M83.5,27c-1.1-0.7-2.5-1-4.3-1c-1.9,0-3.4,0.3-4.6,1c-1.1,0.7-1.7,1.5-1.7,2.7v7.4c0,1.2,0.6,2.2,1.7,2.9
		c1.1,0.7,2.6,1.1,4.4,1.1c1.9,0,3.4-0.3,4.5-1c1.1-0.7,1.6-1.7,1.6-2.9v-7.4C85.2,28.6,84.6,27.7,83.5,27z M80.9,37.3
		c0,0.4-0.2,0.7-0.5,0.9c-0.3,0.2-0.8,0.3-1.4,0.3c-0.6,0-1-0.1-1.3-0.3c-0.3-0.2-0.5-0.5-0.5-0.9v-7.8c0-0.3,0.2-0.6,0.5-0.8
		c0.3-0.2,0.7-0.3,1.3-0.3c0.6,0,1,0.1,1.3,0.3c0.3,0.2,0.5,0.4,0.5,0.8V37.3z"/>
	<polygon class="youtube_st1" points="61.5,21.3 56.7,21.3 62.4,33 62.4,40.7 67.1,40.7 67.1,32.6 72.6,21.3 67.8,21.3 64.9,29 64.6,29 	"/>
</g>
</svg>
